<svg xmlns="http://www.w3.org/2000/svg" xmlns:xlink="http://www.w3.org/1999/xlink" viewBox="0 0 268.97 368.19"><defs><style>.cls-1{fill:#fff;}.cls-2{fill:#ededed;stroke:#ededed;stroke-miterlimit:10;stroke-width:0.25px;}</style></defs><g id="レイヤー_2" data-name="レイヤー 2"><g id="レイヤー_4" data-name="レイヤー 4"><image width="2551" height="3579" transform="translate(79.75 45.68) scale(0.04)" xlink:href="../%E6%BD%9C%E3%82%8B_%E3%83%AD%E3%82%B3%E3%82%99_%20%E7%99%BD.png"/><path class="cls-1" d="M92.7,15.61a4.11,4.11,0,0,1-1.63,1.63,5.11,5.11,0,0,1-2.63.65,7.26,7.26,0,0,1-2.85-.51,5.28,5.28,0,0,1-2-1.48,6.28,6.28,0,0,1-1.21-2.31,10.29,10.29,0,0,1-.41-3,7.73,7.73,0,0,1,1.73-5.41,6.08,6.08,0,0,1,4.7-1.88,11.27,11.27,0,0,1,2.44.24,7.59,7.59,0,0,1,1.82.62,18.49,18.49,0,0,1-.31,2.06,8.88,8.88,0,0,1-.55,1.9H91L89.86,4.81a1.32,1.32,0,0,0-.45-.2,3.22,3.22,0,0,0-.83-.07,3.44,3.44,0,0,0-2.92,1.37c-.69.92-1,2.48-1,4.67a7.05,7.05,0,0,0,.29,2.05,5.42,5.42,0,0,0,.89,1.8,4.31,4.31,0,0,0,3.6,1.74,4.62,4.62,0,0,0,1.7-.28,4.55,4.55,0,0,0,1.22-.67Z"/><path class="cls-1" d="M94.92,10.6a9.77,9.77,0,0,1,.46-3.1A6.4,6.4,0,0,1,96.7,5.22,5.67,5.67,0,0,1,98.78,3.8a7,7,0,0,1,2.68-.49,7.67,7.67,0,0,1,3,.53,5.21,5.21,0,0,1,2,1.49,6.12,6.12,0,0,1,1.16,2.29,10.71,10.71,0,0,1,.38,3,7.56,7.56,0,0,1-1.78,5.4,6.27,6.27,0,0,1-4.79,1.89,7.46,7.46,0,0,1-2.89-.51,5.17,5.17,0,0,1-2-1.48,6.28,6.28,0,0,1-1.21-2.31A10.29,10.29,0,0,1,94.92,10.6Zm2.67,0A11.2,11.2,0,0,0,97.83,13a6,6,0,0,0,.75,1.93,3.9,3.9,0,0,0,1.35,1.3,4.09,4.09,0,0,0,2,.47,2.85,2.85,0,0,0,2.46-1.47,8.64,8.64,0,0,0,1-4.6,11.23,11.23,0,0,0-.24-2.38,6.34,6.34,0,0,0-.73-1.92A3.88,3.88,0,0,0,103.1,5a3.45,3.45,0,0,0-1.86-.47A3.05,3.05,0,0,0,98.6,6,8.28,8.28,0,0,0,97.59,10.6Z"/><path class="cls-1" d="M125.23,17.56h-6v-.69a9.37,9.37,0,0,1,1.64-.67V9.6a7.69,7.69,0,0,0-.61-3.34A2.28,2.28,0,0,0,118.05,5a3.23,3.23,0,0,0-1.29.25A3.44,3.44,0,0,0,115.7,6a5,5,0,0,0-.8,1,5.49,5.49,0,0,0-.52,1.13V16.2a4.84,4.84,0,0,1,1.67.67v.69h-6v-.69a8.69,8.69,0,0,1,1.84-.67V5.26L110,5V4.31a12.58,12.58,0,0,1,1.67-.55q.94-.25,2-.45h.7V6.43h0a6.13,6.13,0,0,1,1.69-2.2,4,4,0,0,1,2.65-.92,6.7,6.7,0,0,1,2,.27,3,3,0,0,1,1.47.93,4.48,4.48,0,0,1,.89,1.79,11.39,11.39,0,0,1,.3,2.86v7a4.81,4.81,0,0,1,1.84.67Z"/><path class="cls-1" d="M137.59,15.61A4.11,4.11,0,0,1,136,17.24a5.11,5.11,0,0,1-2.63.65,7.26,7.26,0,0,1-2.85-.51,5.28,5.28,0,0,1-2-1.48,6.28,6.28,0,0,1-1.21-2.31,10.29,10.29,0,0,1-.41-3,7.73,7.73,0,0,1,1.73-5.41,6.08,6.08,0,0,1,4.7-1.88,11.27,11.27,0,0,1,2.44.24,7.59,7.59,0,0,1,1.82.62,18.49,18.49,0,0,1-.31,2.06,8.88,8.88,0,0,1-.55,1.9h-.75l-1.17-3.32a1.32,1.32,0,0,0-.45-.2,3.22,3.22,0,0,0-.83-.07,3.44,3.44,0,0,0-2.92,1.37c-.69.92-1,2.48-1,4.67a7.05,7.05,0,0,0,.29,2.05,5.42,5.42,0,0,0,.89,1.8,4.31,4.31,0,0,0,3.6,1.74,4.62,4.62,0,0,0,1.7-.28,4.55,4.55,0,0,0,1.22-.67Z"/><path class="cls-1" d="M151.08,15.61a2.68,2.68,0,0,1-.69.89,5.32,5.32,0,0,1-1.09.73,6.75,6.75,0,0,1-1.33.48,6.18,6.18,0,0,1-1.48.18,7.61,7.61,0,0,1-2.89-.51,5.45,5.45,0,0,1-2.09-1.48,6.46,6.46,0,0,1-1.27-2.29,10,10,0,0,1-.43-3,8,8,0,0,1,1.64-5.42,5.86,5.86,0,0,1,4.65-1.87,7,7,0,0,1,1.92.27,4.46,4.46,0,0,1,1.69.87,4.39,4.39,0,0,1,1.19,1.63,6.07,6.07,0,0,1,.46,2.52c0,.32,0,.63,0,1s-.08.67-.15,1h-8.69a7.73,7.73,0,0,0,.3,2.19,5.09,5.09,0,0,0,.87,1.76,4,4,0,0,0,1.48,1.19,4.7,4.7,0,0,0,2.09.43,7.21,7.21,0,0,0,2-.28,3.74,3.74,0,0,0,1.5-.72ZM146,4.54a2.87,2.87,0,0,0-2.42,1.07,7,7,0,0,0-1,3.77h6.12c0-.17,0-.33,0-.49s0-.31,0-.46a5.35,5.35,0,0,0-.67-2.84A2.3,2.3,0,0,0,146,4.54Z"/><path class="cls-1" d="M159.71,23.13h-6.18v-.7a9.8,9.8,0,0,1,1.84-.67V5.26L153.53,5V4.31a12.21,12.21,0,0,1,1.82-.62,18.66,18.66,0,0,1,1.83-.38h.69V6.43h0a5.55,5.55,0,0,1,1.56-2.27,3.9,3.9,0,0,1,2.62-.85A4.73,4.73,0,0,1,165.92,5q1.37,1.65,1.36,5.35a10.15,10.15,0,0,1-.46,3.17,6.56,6.56,0,0,1-1.31,2.39,5.77,5.77,0,0,1-2.06,1.51,6.64,6.64,0,0,1-2.68.52,8.49,8.49,0,0,1-1.62-.12,6.87,6.87,0,0,1-1.28-.43v4.42a4.6,4.6,0,0,1,.89.21,4.83,4.83,0,0,1,1,.46ZM161.19,5A2.8,2.8,0,0,0,159,5.9a5,5,0,0,0-1.15,2.37v7.79a4.06,4.06,0,0,0,1.13.46,7.23,7.23,0,0,0,1.63.15,3,3,0,0,0,1.65-.47,4,4,0,0,0,1.26-1.34,7.1,7.1,0,0,0,.79-2,10.63,10.63,0,0,0,.28-2.54,11.41,11.41,0,0,0-.18-2.1,5.31,5.31,0,0,0-.59-1.67,2.93,2.93,0,0,0-1.05-1.1A3.08,3.08,0,0,0,161.19,5Z"/><path class="cls-1" d="M168.84,4.35a7,7,0,0,1,2.22-1V1a9,9,0,0,1,.85-.54,10.36,10.36,0,0,1,1-.46h.7V3.65h4.17V5.09h-4.17v8a4,4,0,0,0,.53,2.36,1.87,1.87,0,0,0,1.59.69c.33,0,.75,0,1.25-.07a5.32,5.32,0,0,0,1.28-.27l.19.42a3.14,3.14,0,0,1-.62.53,7.19,7.19,0,0,1-.92.53,6.29,6.29,0,0,1-1.13.42,4.82,4.82,0,0,1-1.25.16,3.32,3.32,0,0,1-2.55-.94,4.41,4.41,0,0,1-.88-3V5.09h-2.22Z"/><path class="cls-2" d="M12,236.89a6.49,6.49,0,0,0-3.11-1,4.83,4.83,0,0,0-3.5,1.47.27.27,0,0,1-.18.07.17.17,0,0,1-.14-.16.24.24,0,0,1,.09-.17c1.57-1.72,2.68-2.26,4-2.26a6.62,6.62,0,0,1,3.45,1l.47.24a6.79,6.79,0,0,0,3.22,1.07,4.94,4.94,0,0,0,3.53-1.47.26.26,0,0,1,.18-.07.17.17,0,0,1,.14.14A.26.26,0,0,1,20,236c-1.5,1.68-2.68,2.3-4,2.3-1,0-1.67-.16-3.56-1.14Z"/><path class="cls-2" d="M26.57,233c1.68.62,2.38,1.37,2.38,2a.53.53,0,0,1-.49.59c-.19,0-.39-.12-.54-.51a4,4,0,0,0-1.35-1.76v4.88c0,.31-.21.47-.68.47s-.41-.1-.41-.37.07-2.57.14-4.62a11.48,11.48,0,0,1-3.36,3.68c-.08.05-.24-.11-.17-.18a14.27,14.27,0,0,0,3.29-5.12H23.66a4.65,4.65,0,0,0-1.06.1l-.18-.65a5.91,5.91,0,0,0,1.21.11h1.94v-.4a16.52,16.52,0,0,0-.09-2.65c1.35.16,1.65.23,1.65.41s-.07.26-.56.47v2.17h1.14c.54-.65.64-.74.73-.74s.26.09.88.6c.26.21.31.31.31.4s-.05.18-.23.18H26.57Zm-1.52,6.86c0,.18,0,.37,0,.51,0,1.65-.82,2.91-1.71,2.91a.61.61,0,0,1-.62-.61c0-.3.16-.51.56-.69a2.63,2.63,0,0,0,1.51-2.13C24.84,239.78,25,239.8,25.05,239.9Zm2.83,2.23c0,.75.12.86,2.19.86,1.84,0,2.36,0,2.75-.23s.5-.51.92-1.88a.11.11,0,0,1,.21,0c0,.56,0,1,0,1.26s.05.38.31.47a.39.39,0,0,1,.23.4c0,.3-.35.57-.84.69a18.45,18.45,0,0,1-3.9.22c-2.4,0-3-.29-3-1.66,0-.21,0-.52,0-1.31a14.51,14.51,0,0,0-.07-1.72c1.51.16,1.72.27,1.72.46s-.07.23-.58.45Zm1.63-3c1.43.32,2.38,1.07,2.38,1.84a.54.54,0,0,1-.54.6c-.21,0-.42-.09-.6-.53a3.47,3.47,0,0,0-1.36-1.73C29.3,239.24,29.4,239.12,29.51,239.13Zm1.56-1.2v.21c0,.31-.23.4-.65.4s-.44-.07-.44-.33c0-.41.07-1.72.07-5.15a36.55,36.55,0,0,0-.1-4,8.3,8.3,0,0,1,1.24.6h4.13c.47-.51.54-.54.65-.54s.17,0,.66.43c.25.21.28.32.28.41s0,.19-.44.47v2.47c0,3.57.07,4.93.07,5.32s-.26.45-.68.45-.42-.09-.42-.35v-.38Zm4.37-7.84H31.07v2.11h4.37Zm0,2.55H31.07v2.12h4.37Zm0,2.56H31.07v2.29h4.37ZM35,239.89c1.68.56,2.66,1.62,2.66,2.55,0,.44-.24.72-.59.72s-.42-.16-.65-.77a5.52,5.52,0,0,0-1.56-2.31C34.74,240,34.85,239.85,35,239.89Z"/><path class="cls-2" d="M43.68,241.29c-1.47-1.47-1.76-3.63-1.76-6.25,0-.49,0-1,0-1.44a2,2,0,0,0-.77-1.68c-.1-.1-.15-.17-.15-.22s.1-.16.24-.16a2,2,0,0,1,1,.56,1.82,1.82,0,0,1,.82,1.28,2.38,2.38,0,0,1-.15.75,8.11,8.11,0,0,0-.2,2.06,6.77,6.77,0,0,0,.48,3c.29.63.63.94.85.94s.25-.09.35-.28c.55-1,1.11-1.91,1.91-3.18a.35.35,0,0,1,.3-.2.19.19,0,0,1,.19.18.94.94,0,0,1-.1.31,19.77,19.77,0,0,0-1.39,3,2.41,2.41,0,0,0-.17.65,1.12,1.12,0,0,0,.07.4,1.37,1.37,0,0,1,.1.54.45.45,0,0,1-.5.46A2.24,2.24,0,0,1,43.68,241.29Zm7-7.81c2.06.86,3.76,2.82,3.76,4.85,0,.66-.22,1.15-.66,1.15a.54.54,0,0,1-.46-.22c-.24-.35-.58-.51-1.71-.65-.18,0-.23-.11-.23-.23s.09-.14.26-.16c.47-.05.84-.08,1.33-.15a.28.28,0,0,0,.26-.32,5.64,5.64,0,0,0-2.74-3.92.32.32,0,0,1-.18-.26C50.28,233.46,50.46,233.39,50.65,233.48Z"/><path class="cls-2" d="M60,240.54c0,.26.09.31.16.31a.14.14,0,0,0,.14-.1c.35-1.06.91-2.56,1.31-3.54a.26.26,0,0,1,.23-.19c.08,0,.15.1.15.22a.52.52,0,0,1,0,.18c-.33,1.17-.82,2.75-1,3.52a4.54,4.54,0,0,0-.16.89c0,.35,0,.7,0,1s-.16.47-.4.47-.42-.1-.6-.45a9.64,9.64,0,0,1-.66-4,23.48,23.48,0,0,1,.85-5.6,6,6,0,0,0,.28-1.54,2.28,2.28,0,0,0-.4-1.24.46.46,0,0,1-.09-.21.2.2,0,0,1,.21-.18.64.64,0,0,1,.35.18,2.92,2.92,0,0,1,.74.8,1.92,1.92,0,0,1,.35,1.14.88.88,0,0,1-.25.58,2.48,2.48,0,0,0-.28.59,15.66,15.66,0,0,0-1,5.15A12.73,12.73,0,0,0,60,240.54Zm11.66,1A.85.85,0,0,1,72,242a.49.49,0,0,1-.38.54.84.84,0,0,1-.62-.19A14.66,14.66,0,0,0,69,241c0,.87-.72,1.92-2.54,1.92-1.4,0-2.45-.66-2.45-1.7s.86-1.62,2.47-1.62a7.06,7.06,0,0,1,1.66.19c0-1.61,0-3.26,0-4.88a20.36,20.36,0,0,1-2.75.19,1.87,1.87,0,0,1-1.84-1.23,1,1,0,0,1-.05-.26.17.17,0,0,1,.16-.16c.1,0,.17.09.26.21a1.56,1.56,0,0,0,1.37.67,18.49,18.49,0,0,0,2.83-.26c0-.81,0-1.84-.07-2.59,0-.44-.09-.56-.23-.67a1.23,1.23,0,0,0-.82-.21c-.17,0-.23,0-.23-.17s.32-.39.69-.39a3.07,3.07,0,0,1,1.2.32c.3.14.74.42.74.75a.49.49,0,0,1-.21.38,1.07,1.07,0,0,0-.23.72c0,.58-.05,1.14-.05,1.7a7.58,7.58,0,0,0,.86-.23,2.81,2.81,0,0,0,.52-.26,1.57,1.57,0,0,1,.88-.19c.28,0,.61.14.61.42s-.18.38-.51.5a16.42,16.42,0,0,1-2.34.62c0,1.76,0,3.65.14,5.3A10.15,10.15,0,0,1,71.69,241.5Zm-5.59-1.25c-.79,0-1.56.3-1.56.93s.49,1,1.77,1c1.1,0,1.79-.52,1.79-1.54A5.48,5.48,0,0,0,66.1,240.25Z"/><path class="cls-2" d="M78.68,241.29c-1.47-1.47-1.76-3.63-1.76-6.25,0-.49,0-1,0-1.44a2,2,0,0,0-.77-1.68c-.1-.1-.15-.17-.15-.22s.1-.16.24-.16a2,2,0,0,1,1,.56,1.82,1.82,0,0,1,.82,1.28,2.38,2.38,0,0,1-.15.75,8.11,8.11,0,0,0-.2,2.06,6.77,6.77,0,0,0,.48,3c.29.63.63.94.85.94s.25-.09.35-.28c.55-1,1.11-1.91,1.91-3.18a.35.35,0,0,1,.3-.2.19.19,0,0,1,.19.18.94.94,0,0,1-.1.31,19.77,19.77,0,0,0-1.39,3,2.41,2.41,0,0,0-.17.65,1.12,1.12,0,0,0,.07.4,1.37,1.37,0,0,1,.1.54.45.45,0,0,1-.5.46A2.24,2.24,0,0,1,78.68,241.29Zm7-7.81c2.06.86,3.76,2.82,3.76,4.85,0,.66-.22,1.15-.66,1.15a.54.54,0,0,1-.46-.22c-.24-.35-.58-.51-1.71-.65-.18,0-.23-.11-.23-.23s.09-.14.26-.16c.47-.05.84-.08,1.33-.15a.28.28,0,0,0,.26-.32,5.64,5.64,0,0,0-2.74-3.92.32.32,0,0,1-.18-.26C85.28,233.46,85.46,233.39,85.65,233.48Z"/><path class="cls-2" d="M106.77,236.21c0,1.86-1,3-2.73,4a15.09,15.09,0,0,1-6,1.63.25.25,0,0,1-.31-.27c0-.12.07-.2.31-.24a13.67,13.67,0,0,0,5.23-1.75,4.28,4.28,0,0,0,2.35-3.69,3.1,3.1,0,0,0-3.36-2.91,7.71,7.71,0,0,0-3.41,1,25.42,25.42,0,0,0-2.72,1.66,4.86,4.86,0,0,0-.77.67.68.68,0,0,1-.61.3,2.07,2.07,0,0,1-1.15-.65,1.87,1.87,0,0,1-.6-1c0-.3.07-.39.16-.39a.31.31,0,0,1,.21.11,1.43,1.43,0,0,0,1,.56,2,2,0,0,0,1-.33c1.14-.63,2.2-1.19,3.31-1.67a9.3,9.3,0,0,1,3.64-.89C105.06,232.36,106.77,234.2,106.77,236.21Z"/><path class="cls-2" d="M116,240.67a2,2,0,0,0,2.22,2.32,2.65,2.65,0,0,0,2.73-2.77,6,6,0,0,0-2.11-4.29.39.39,0,0,1-.14-.26.23.23,0,0,1,.24-.19c.09,0,.16.07.26.14a6.23,6.23,0,0,1,2.84,4.74,3.51,3.51,0,0,1-3.75,3.34,2.81,2.81,0,0,1-3-3.16,14.19,14.19,0,0,1,.07-1.42c-1.5-.49-2.38-1.05-2.38-2.45a3.64,3.64,0,0,1,1.52-2.45,3.73,3.73,0,0,1-1.36-.95,1.6,1.6,0,0,1-.47-1c0-.12,0-.21.14-.21s.17.11.28.25a2.86,2.86,0,0,0,1.08.89,3.46,3.46,0,0,0,1.21.35c.42,0,.75.17.86.47.15-.8.28-1.43.4-2.26,0-.33.09-.61.09-.82,0-.63-.14-.94-.79-1.07-.26,0-.3-.08-.3-.17s.37-.33.68-.33a2.12,2.12,0,0,1,1.26.57,1.31,1.31,0,0,1,.55.95.49.49,0,0,1-.23.44c-.16.1-.25.31-.33.66-.42,1.7-1,4.11-1.32,6.28a8,8,0,0,0,1.32,0c.45,0,.82.1.82.44a.46.46,0,0,1-.4.47,3.81,3.81,0,0,1-.79.07,7.36,7.36,0,0,1-1.14-.09C116,239.73,116,240.25,116,240.67Zm.18-6.26c-.11.12-.23.16-.55.16a1.57,1.57,0,0,0-1,.36,2.19,2.19,0,0,0-1.14,1.67c0,1,1,1.4,2,1.59C115.78,236.7,116,235.63,116.19,234.41Z"/><path class="cls-2" d="M127.77,240.31a6.85,6.85,0,0,1,2.87,1.31,2.58,2.58,0,0,1,1.16,1.85.81.81,0,0,1-.76.88c-.35,0-.59-.16-.8-.63a6.41,6.41,0,0,0-2.7-3.05.24.24,0,0,1-.14-.22C127.4,240.32,127.6,240.27,127.77,240.31Z"/><path class="cls-2" d="M141.47,233.83c-.8,2.36-1.31,3.82-2,5.72a3,3,0,0,0-.2.91c0,.88.46,1.68.46,2.53s-.35,1.06-.84,1.06-.61-.31-.61-.93c0-.34.12-1.12.12-1.76,0-1-.33-1.25-1.45-1.54-.11,0-.07-.27,0-.25a8.78,8.78,0,0,0,.89.07c.3,0,.55-.07.86-.63.88-1.59,1.51-2.92,2.57-5.27C141.3,233.64,141.51,233.73,141.47,233.83Zm-4.32-.77c1.49.23,2.57,1,2.57,1.75,0,.47-.22.74-.59.74s-.42-.18-.58-.58a3.6,3.6,0,0,0-1.49-1.72C137,233.2,137.05,233,137.15,233.06Zm1-4.13c1.57.26,2.64,1,2.64,1.86a.62.62,0,0,1-.58.68c-.24,0-.37-.14-.56-.54a4.11,4.11,0,0,0-1.59-1.81C138,229.07,138.06,228.91,138.17,228.93Zm7.8,7.63a12,12,0,0,0-.07-1.8c1.47.17,1.65.26,1.65.47s-.07.21-.58.44v1.4h3.27c.68-.81.81-.89.89-.89s.23.08,1,.68c.35.28.41.37.41.47s-.07.18-.25.18h-5.11a8.72,8.72,0,0,0,2.52,2.6,10,10,0,0,0,3.38,1.47c.1,0,.09.16,0,.2-.38.1-.54.24-.7.73-.05.16-.1.27-.21.27a1.43,1.43,0,0,1-.63-.25,13.09,13.09,0,0,1-2.54-1.89,10.68,10.68,0,0,1-2-2.84c.07,4.07.14,5.66.14,6s-.25.49-.69.49-.49-.13-.49-.39.07-1.73.18-5.44a13.24,13.24,0,0,1-5.69,4.43c-.1,0-.21-.18-.12-.23a15,15,0,0,0,5.21-5.16h-3a6.33,6.33,0,0,0-1.1.1l-.17-.65a6.43,6.43,0,0,0,1.29.11H146Zm4.83-6.72c.47-.52.51-.58.61-.58s.2.06.93.72c.23.21.25.28.25.42s-.2.26-.58.25a.57.57,0,0,0-.47.22,10,10,0,0,1-1.11,1c-.07.07-.21,0-.15-.12a10.15,10.15,0,0,0,.63-1.47h-2.37v3c0,.58.2.73,1.12.73,1.07,0,1.32-.08,1.51-.31a3.55,3.55,0,0,0,.63-1.44c0-.1.23-.07.23,0,0,.37-.06.86-.06,1.07a.31.31,0,0,0,.23.35.38.38,0,0,1,.26.38c0,.28-.21.46-.61.58a9.33,9.33,0,0,1-2.33.19c-1.57,0-2-.28-2-1.28,0-.31,0-.7,0-1.36v-2H146c-.09,3-1.33,4.36-4.38,5.27-.1,0-.17-.21-.09-.27,2.38-1.06,3.4-2.43,3.45-5h-1.91c0,1.38-.59,2.26-1.27,2.26a.54.54,0,0,1-.55-.58c0-.26.13-.42.42-.65a2.75,2.75,0,0,0,1.09-2.19c0-.1.23-.1.24,0a4.61,4.61,0,0,1,.07.72Z"/><path class="cls-2" d="M158.48,241.29c-1.47-1.47-1.76-3.63-1.76-6.25,0-.49,0-1,0-1.44a2,2,0,0,0-.77-1.68c-.1-.1-.15-.17-.15-.22s.1-.16.24-.16a2,2,0,0,1,1,.56,1.82,1.82,0,0,1,.82,1.28,2.38,2.38,0,0,1-.15.75,8.11,8.11,0,0,0-.2,2.06,6.77,6.77,0,0,0,.48,3c.29.63.63.94.85.94s.25-.09.35-.28c.55-1,1.11-1.91,1.91-3.18a.35.35,0,0,1,.3-.2.19.19,0,0,1,.19.18.94.94,0,0,1-.1.31,19.77,19.77,0,0,0-1.39,3,2.41,2.41,0,0,0-.17.65,1.12,1.12,0,0,0,.07.4,1.37,1.37,0,0,1,.1.54.45.45,0,0,1-.5.46A2.24,2.24,0,0,1,158.48,241.29Zm7-7.81c2.06.86,3.76,2.82,3.76,4.85,0,.66-.23,1.15-.66,1.15a.54.54,0,0,1-.46-.22c-.24-.35-.58-.51-1.71-.65-.18,0-.23-.11-.23-.23s.09-.14.26-.16c.47-.05.84-.08,1.33-.15a.28.28,0,0,0,.26-.32,5.64,5.64,0,0,0-2.74-3.92.32.32,0,0,1-.18-.26C165.08,233.46,165.26,233.39,165.45,233.48Z"/><path class="cls-2" d="M178,234.78c-.09-1.05-.14-2.19-.19-3.64,0-.35-.07-.55-.25-.67a1.43,1.43,0,0,0-.78-.3c-.06,0-.09,0-.09-.12s.4-.4.73-.4a2.72,2.72,0,0,1,1.37.59.86.86,0,0,1,.35.58.64.64,0,0,1-.19.4.71.71,0,0,0-.13.41,33.44,33.44,0,0,0,.07,3.55c.06.45.2.66.44.68a.91.91,0,0,0,.47-.1c.74-.35,1.58-.79,2.24-1.18.27-.15.37-.24.37-.38s-.26-.42-.54-.61a.24.24,0,0,1-.14-.21c0-.09.1-.16.31-.16a2.27,2.27,0,0,1,1.35.7,1.36,1.36,0,0,1,.47.8c0,.23-.15.35-.54.49a32.05,32.05,0,0,0-3.62,1.44c-2,1-3.64,1.91-3.64,3.45S178,242,179.38,242a12.87,12.87,0,0,0,3.32-.37,2,2,0,0,1,.58-.1,1.36,1.36,0,0,1,.79.23c.24.16.31.28.31.49s-.22.47-1,.58a23.77,23.77,0,0,1-3.13.17c-2.52,0-4.9-.42-4.9-2.73,0-1.8,1.79-3.06,3.43-3.9C178.33,236.07,178.1,235.62,178,234.78Z"/><path class="cls-2" d="M193.4,237.26a1.49,1.49,0,0,1-.09.23,2.86,2.86,0,0,0-.21,1c0,1.82,2,2.38,4,2.38a14.33,14.33,0,0,0,3.25-.32,4.4,4.4,0,0,1,1-.19c.49,0,1,.18,1,.56,0,.53-.32.63-1,.74a32.46,32.46,0,0,1-3.69.29c-2.34,0-5.11-.55-5.11-3.27a3,3,0,0,1,.35-1.38c.07-.14.18-.26.28-.26S193.4,237.16,193.4,237.26Zm3.27-4.32a3.74,3.74,0,0,1-3.22-1.1.31.31,0,0,1,0-.2.19.19,0,0,1,.15-.15.64.64,0,0,1,.27.12,4,4,0,0,0,2.22.54,14.69,14.69,0,0,0,1.64-.14,11.25,11.25,0,0,0,1.82-.4,2.11,2.11,0,0,1,.56-.09,1.78,1.78,0,0,1,.55.11.54.54,0,0,1,.38.54c0,.3-.12.47-.7.52a14.23,14.23,0,0,0-1.91.32,5.84,5.84,0,0,0-1.36.52,22.1,22.1,0,0,0-2.07,1.4.41.41,0,0,1-.28.09.16.16,0,0,1-.15-.14.39.39,0,0,1,.14-.26,19,19,0,0,1,2-1.65Z"/><path class="cls-2" d="M211.51,237.54a7.83,7.83,0,0,1,5.28-2.15c1.63,0,3.89,1.14,3.89,3.32a4.06,4.06,0,0,1-2.57,3.66,13.05,13.05,0,0,1-5.64,1.23c-.33,0-.42-.07-.42-.3s.11-.18.35-.19a11.84,11.84,0,0,0,5.32-1.65,3.47,3.47,0,0,0,1.77-3,2.68,2.68,0,0,0-3-2.51c-2.48,0-4.23,1.51-5.62,2.82a9.6,9.6,0,0,0-.89,1,.47.47,0,0,1-.42.23c-.23,0-.47-.26-.47-.65a.94.94,0,0,1,.33-.79,5.75,5.75,0,0,0,.56-.5,62.28,62.28,0,0,0,6.35-7.16.38.38,0,0,0,.07-.23.16.16,0,0,0-.17-.14l-.25.05c-.29.09-1.52.55-2.39.91a4.24,4.24,0,0,0-.84.41,1.08,1.08,0,0,1-.51.19,1,1,0,0,1-.72-.37,2.26,2.26,0,0,1-.54-1.31c0-.25.16-.46.28-.46s.14.11.19.21c.19.48.42.76.7.76a6.12,6.12,0,0,0,1.54-.32c.51-.14,1.26-.38,1.63-.51a1,1,0,0,0,.47-.28.58.58,0,0,1,.39-.15.92.92,0,0,1,.42.1,4.12,4.12,0,0,1,1.17.86.7.7,0,0,1,.17.44c0,.26-.17.38-.4.5a1.33,1.33,0,0,0-.59.35c-2,2-3.54,3.63-5.52,5.55Z"/><path class="cls-2" d="M229.22,236.42a.17.17,0,0,1,.19.16,1.55,1.55,0,0,1,0,.17c-.37,1.23-.69,2.38-.88,3.19a6.64,6.64,0,0,0-.23,1.21c0,.38.06.75.06,1s-.13.46-.39.46-.47-.14-.68-.63a9.81,9.81,0,0,1-.61-3.47,22,22,0,0,1,.84-5.23,6.27,6.27,0,0,0,.24-1.22,1.49,1.49,0,0,0-.54-1.12.4.4,0,0,1-.14-.27.17.17,0,0,1,.16-.15c.4,0,.92.56,1.2.92a1.85,1.85,0,0,1,.44,1.16,1,1,0,0,1-.24.66,1.86,1.86,0,0,0-.34.6,14.93,14.93,0,0,0-.89,4.69,7.63,7.63,0,0,0,.11,1.36c0,.18.08.25.14.25s.12-.05.15-.14c.39-1.1.77-2.22,1.21-3.38C229,236.47,229.11,236.42,229.22,236.42Zm2.34.7a5.06,5.06,0,0,0-.14,1.14,2,2,0,0,0,.84,1.77,4.93,4.93,0,0,0,2.68.59,8.87,8.87,0,0,0,2.05-.21,2.9,2.9,0,0,1,.7-.09c.58,0,1.05.18,1.05.58,0,.25-.11.4-.46.51a11.44,11.44,0,0,1-2.48.23,6.81,6.81,0,0,1-3.92-.91,2.61,2.61,0,0,1-1-2.17,4.1,4.1,0,0,1,.33-1.53.21.21,0,0,1,.19-.14C231.56,236.89,231.58,237,231.56,237.12Zm2.59-4.34a9.52,9.52,0,0,0-2.57.81.74.74,0,0,1-.21.07.17.17,0,0,1-.19-.18c0-.12.07-.21.21-.3a9.31,9.31,0,0,1,4.92-1.27c1.12,0,1.4.28,1.4.66s-.18.47-.55.47-.73,0-1.22,0a2.26,2.26,0,0,0-1.09.28,7,7,0,0,0-1.61,1.28.33.33,0,0,1-.22.14c-.09,0-.2-.05-.2-.14a.45.45,0,0,1,.11-.25,14.59,14.59,0,0,1,1.28-1.4C234.29,232.82,234.28,232.76,234.15,232.78Z"/><path class="cls-2" d="M246.77,242.08a2.27,2.27,0,1,1-2.26-2.26A2.27,2.27,0,0,1,246.77,242.08Zm-3.94,0a1.68,1.68,0,1,0,1.68-1.67A1.68,1.68,0,0,0,242.83,242.08Z"/><path class="cls-2" d="M258,236.89a6.49,6.49,0,0,0-3.11-1,4.83,4.83,0,0,0-3.5,1.47.27.27,0,0,1-.18.07.17.17,0,0,1-.14-.16.24.24,0,0,1,.09-.17c1.57-1.72,2.68-2.26,4-2.26a6.62,6.62,0,0,1,3.45,1l.47.24a6.79,6.79,0,0,0,3.22,1.07,4.94,4.94,0,0,0,3.53-1.47.26.26,0,0,1,.18-.07.17.17,0,0,1,.14.14.26.26,0,0,1-.09.19c-1.5,1.68-2.68,2.3-4,2.3-1,0-1.67-.16-3.56-1.14Z"/><path class="cls-2" d="M2.7,278.71a8.41,8.41,0,0,1-.32,1.41A7,7,0,0,1,.3,283.31c-.06.07-.21,0-.17-.12A8.88,8.88,0,0,0,1.63,280,14.74,14.74,0,0,0,2,276.22a12.18,12.18,0,0,0-.08-1.64,7.1,7.1,0,0,1,1.07.53H6.7c.38-.4.42-.44.51-.44s.15,0,.57.38c.21.16.23.25.23.33s-.06.16-.36.37v.92c0,1.33,0,1.82,0,2.1s-.18.36-.51.36-.37-.06-.37-.29v-.13ZM5,271.25c2.33.71,3.35,1.49,3.35,2.2,0,.26-.15.45-.36.45s-.29-.11-.6-.47a8.22,8.22,0,0,0-2.51-2A10.47,10.47,0,0,1,.34,275c-.09,0-.18-.17-.1-.21a12.28,12.28,0,0,0,3.33-3.06,6.43,6.43,0,0,0,.78-1.37c.79.26,1.29.45,1.29.59s-.17.19-.62.24ZM3.43,283.12v.5c0,.25-.16.35-.51.35s-.36-.07-.36-.28,0-.65,0-2.18c0-1,0-1.41,0-1.89a7.68,7.68,0,0,1,1,.51H6.88c.38-.4.44-.45.51-.45s.15.05.57.38c.2.18.23.24.23.32s0,.16-.35.37v.71c0,1.31,0,1.84,0,2s-.16.36-.51.36S7,283.71,7,283.5v-.38Zm-.58-6c0,.42-.05.83-.09,1.24H6.81v-1.24Zm4-1.6H2.86v1.22h4Zm-3.69-1.95a3.81,3.81,0,0,0,.94.1H5.44c.44-.56.51-.6.6-.6s.17,0,.66.48c.21.18.27.27.27.35s0,.15-.19.15H4.06a3.12,3.12,0,0,0-.79.09Zm3.87,7H3.43v2.24H7ZM10.21,275c0,3.42.06,4.74.06,5.11s-.18.44-.58.44-.38-.12-.38-.36.06-1.36.06-4.5a34.34,34.34,0,0,0-.09-3.93c1.22.13,1.43.21,1.43.41s-.08.19-.5.37ZM13,276.57c0,4.14.06,5.78.06,6.16a1,1,0,0,1-.52,1,1.51,1.51,0,0,1-.75.21c-.15,0-.18,0-.21-.24-.08-.39-.33-.59-1.56-.87-.09,0-.08-.24,0-.23a16.9,16.9,0,0,0,1.83.16c.18,0,.26-.09.26-.29v-8.64a23.5,23.5,0,0,0-.09-3.16c1.3.15,1.45.21,1.45.38s-.07.23-.48.41Z"/><path class="cls-2" d="M19.41,278.33c0,3.6,0,4.89,0,5.27s-.19.46-.57.46-.42-.1-.42-.37,0-1.29.08-5.32c0-.92,0-1.85,0-2.76a15.31,15.31,0,0,1-2,2.13c-.06.05-.22-.1-.16-.16a17.47,17.47,0,0,0,3.28-5.91,6.89,6.89,0,0,0,.29-1.24c1,.27,1.47.5,1.47.66s-.17.24-.6.3A18.13,18.13,0,0,1,18.94,275c.78.14.93.21.93.36s-.06.2-.46.36ZM28,273.16c.65-.75.72-.79.8-.79s.18,0,.84.58c.31.27.36.34.36.43s-.05.16-.2.16H25v2.53h2.69c.57-.67.66-.72.73-.72s.18,0,.78.54c.29.23.33.33.33.42s-.06.14-.19.14H25v2.76h2.73c.59-.68.66-.72.74-.72s.18,0,.78.55c.27.22.33.31.33.39s-.05.15-.2.15H25c0,2.26,0,3.59,0,4s-.18.47-.62.47-.43-.12-.43-.39.07-1.23.07-3.78v-6.34h-.79a13.09,13.09,0,0,1-2.85,3.73c-.06.06-.24-.07-.18-.15a16.49,16.49,0,0,0,2.83-5.61,7.88,7.88,0,0,0,.23-1.09c1,.28,1.47.48,1.47.64s-.18.26-.6.32c-.23.62-.47,1.23-.72,1.78Z"/><path class="cls-2" d="M38.52,274.55a5.53,5.53,0,0,1-.29,1.48,14.87,14.87,0,0,1-2.16,4,2.24,2.24,0,0,1-1.48,1,1.54,1.54,0,0,1-1.2-.78,3.63,3.63,0,0,1-.53-2,5.05,5.05,0,0,1,1.64-3.72,6.19,6.19,0,0,1,4.35-1.62c3,0,5.13,2,5.13,4.67,0,3.16-3.29,4.73-6.36,4.89-.17,0-.26-.07-.26-.16s0-.19.26-.24c2.5-.44,5.37-1.82,5.37-4.74a3.85,3.85,0,0,0-4-3.88,5.47,5.47,0,0,0-.81,0A2.07,2.07,0,0,1,38.52,274.55Zm-3.77.47a4.19,4.19,0,0,0-1.21,3,3,3,0,0,0,.36,1.51.9.9,0,0,0,.7.51c.27,0,.59-.25,1-.87a13.72,13.72,0,0,0,2.07-3.93,2.9,2.9,0,0,0,.21-1.08.91.91,0,0,0-.18-.63A5.21,5.21,0,0,0,34.75,275Z"/><path class="cls-2" d="M50.8,274c.41-.46.47-.5.54-.5s.17,0,.57.45c.21.21.26.3.26.38s-.11.16-.41.29a15.94,15.94,0,0,1-1.24,5.13c.84.67,1.33,1.33,1.33,1.85,0,.28-.16.49-.39.49s-.34-.1-.64-.68a5.93,5.93,0,0,0-.65-1,8.87,8.87,0,0,1-3.37,3.37c-.08.05-.23-.1-.15-.16a10.52,10.52,0,0,0,3-3.81,8.27,8.27,0,0,0-1.41-1.17c-.1.3-.21.59-.31.87a.43.43,0,0,1-.44.26c-.31,0-.49-.13-.49-.25a.86.86,0,0,1,.09-.37,26.08,26.08,0,0,0,1.35-4.8h-.56a4.2,4.2,0,0,0-1.09.11l-.15-.59a7.52,7.52,0,0,0,1.24.11h.63c.11-.56.2-1.11.27-1.63.12-.82.18-1.37.21-1.81,1.16.21,1.35.3,1.35.45s-.09.23-.52.36c-.12.88-.27,1.77-.42,2.63Zm-1.5.37a32.09,32.09,0,0,1-1,4.06,13.14,13.14,0,0,1,1.56.86,17.87,17.87,0,0,0,1-4.92Zm4.14,1.42A24.12,24.12,0,0,0,54.78,272a12.37,12.37,0,0,0,.27-1.39c1.26.31,1.44.45,1.44.61s-.09.21-.53.28a21.31,21.31,0,0,1-2.1,4.28c1.61,0,3.21-.15,4.82-.33a8.38,8.38,0,0,0-1.43-2.13c-.06-.07.06-.18.14-.13,1.47.89,2.64,2.36,2.64,3.3,0,.37-.18.63-.45.63s-.38-.12-.53-.63a5.85,5.85,0,0,0-.25-.74,39.56,39.56,0,0,1-5.78,1c-.13.34-.21.44-.3.44s-.22-.19-.42-1.4c.36,0,.56,0,.92,0Zm.62,7.26v.66c0,.29-.17.41-.57.41s-.39-.11-.39-.32.06-1.18.06-3.26c0-1.5,0-2-.08-2.74a7.34,7.34,0,0,1,1.05.53H58c.42-.45.48-.48.55-.48s.15,0,.6.42c.21.18.24.26.24.35s0,.16-.37.37v1.34c0,2.09.06,3,.06,3.26s-.2.42-.57.42-.39-.09-.39-.33V283Zm4.08-4.34H54.06v4h4.08Z"/><path class="cls-2" d="M68.17,272.58c0-.48,0-.66-.18-.81a.9.9,0,0,0-.78-.21.1.1,0,0,1-.1-.11c0-.09,0-.16.16-.24a1.1,1.1,0,0,1,.57-.15,1.9,1.9,0,0,1,.92.27c.42.25.6.51.6.66a.4.4,0,0,1-.18.33.82.82,0,0,0-.21.56,8.25,8.25,0,0,0,0,1.08,8.4,8.4,0,0,0,1.54-.34,2.89,2.89,0,0,0,.63-.22,2.15,2.15,0,0,1,.75-.21c.57,0,.87.1.87.39s-.15.38-.73.5c-.89.21-2,.45-3.09.59,0,.82,0,1.58,0,2.39a7.26,7.26,0,0,0,1.34-.3,2.38,2.38,0,0,0,.52-.22,1.12,1.12,0,0,1,.69-.23c.3,0,.48.15.5.36s-.11.36-.39.46a10.79,10.79,0,0,1-2.64.61c0,1,.06,2,.13,3a14.72,14.72,0,0,1,3.32,1.37c.39.23.55.41.55.71a.46.46,0,0,1-.42.48,1,1,0,0,1-.55-.19,11.38,11.38,0,0,0-2.88-1.6,1.6,1.6,0,0,1-.54,1.35,2.82,2.82,0,0,1-1.88.48c-.88,0-2.32-.31-2.32-1.43s1.45-1.46,2.55-1.46a11.47,11.47,0,0,1,1.44.13c0-.94,0-1.9-.06-2.71a14.4,14.4,0,0,1-1.52.08c-1.24,0-1.74-.46-1.74-1a1.34,1.34,0,0,1,.15-.66c.06-.1.18-.24.26-.24s.13,0,.13.11a.28.28,0,0,1,0,.13,1.56,1.56,0,0,0-.06.46c0,.37.38.56,1.19.56a16,16,0,0,0,1.6-.1c0-.81,0-1.58-.06-2.39a21.53,21.53,0,0,1-2.62.22,2.68,2.68,0,0,1-2.27-.85.28.28,0,0,1-.07-.21.12.12,0,0,1,.12-.11.5.5,0,0,1,.21.08,2.63,2.63,0,0,0,1.62.45,24.25,24.25,0,0,0,3-.27C68.17,273.57,68.17,273.12,68.17,272.58ZM66.73,281c-1.18,0-1.92.31-1.92.87s.68.81,1.71.81a2,2,0,0,0,1.43-.39,1.16,1.16,0,0,0,.37-1A5,5,0,0,0,66.73,281Z"/><path class="cls-2" d="M81.34,277.57c.17-.58.36-1.1.56-1.69a9.38,9.38,0,0,1,1.33-2.73,1.28,1.28,0,0,1,1-.62c1.23,0,2.16,1.72,2.16,4.06a6.64,6.64,0,0,1-4.86,6.8,1.57,1.57,0,0,1-.32.07c-.12,0-.15-.12-.15-.21s.09-.13.23-.19a6.57,6.57,0,0,0,4.18-6.4c0-2.41-.6-3.65-1.32-3.65-.28,0-.51.24-.72.57a12,12,0,0,0-1.32,3.17,6,6,0,0,0-.28,1.6,2.66,2.66,0,0,0,0,.39,2,2,0,0,1,0,.38c0,.23-.07.37-.34.37s-.59-.37-.75-.95a8.38,8.38,0,0,1-.2-1.85,13,13,0,0,1,.32-2.78,8,8,0,0,0,.22-1.56,1.46,1.46,0,0,0-.3-1,.29.29,0,0,1-.09-.21c0-.06.08-.12.18-.12a1.73,1.73,0,0,1,.89.76,1.87,1.87,0,0,1,.27.94.78.78,0,0,1-.11.4,3,3,0,0,0-.24.48,8.76,8.76,0,0,0-.57,3.09,4.12,4.12,0,0,0,.09.87Z"/><path class="cls-2" d="M94.08,280.71c0,.22.07.26.13.26a.11.11,0,0,0,.12-.09c.3-.89.78-2.18,1.13-3a.22.22,0,0,1,.19-.17c.08,0,.14.09.14.19a.9.9,0,0,1,0,.16c-.29,1-.71,2.35-.84,3a4,4,0,0,0-.14.76c0,.31,0,.61,0,.9s-.14.41-.35.41-.36-.09-.51-.39a8.25,8.25,0,0,1-.57-3.45,19.88,19.88,0,0,1,.74-4.8,5.1,5.1,0,0,0,.24-1.32A2,2,0,0,0,94,272.1a.41.41,0,0,1-.07-.18.17.17,0,0,1,.18-.15.54.54,0,0,1,.3.15,2.41,2.41,0,0,1,.63.69,1.57,1.57,0,0,1,.3,1,.76.76,0,0,1-.21.5,1.65,1.65,0,0,0-.24.5A13.45,13.45,0,0,0,94,279,11.09,11.09,0,0,0,94.08,280.71Zm10,.82a.68.68,0,0,1,.25.42.42.42,0,0,1-.33.47.72.72,0,0,1-.52-.17,12.37,12.37,0,0,0-1.71-1.14c0,.75-.62,1.65-2.18,1.65-1.2,0-2.1-.57-2.1-1.46s.74-1.39,2.12-1.39a5.81,5.81,0,0,1,1.42.17c0-1.38,0-2.79,0-4.19a16.4,16.4,0,0,1-2.36.16A1.58,1.58,0,0,1,97.05,275a.68.68,0,0,1,0-.22.15.15,0,0,1,.14-.13c.09,0,.15.07.22.18a1.37,1.37,0,0,0,1.17.57,15.89,15.89,0,0,0,2.43-.23c0-.69,0-1.58-.06-2.22,0-.37-.07-.48-.19-.57a1.15,1.15,0,0,0-.71-.18c-.15,0-.19,0-.19-.15s.27-.33.58-.33a2.72,2.72,0,0,1,1,.27c.25.12.63.36.63.64a.43.43,0,0,1-.18.33.94.94,0,0,0-.2.62c0,.5,0,1,0,1.46a5.43,5.43,0,0,0,.73-.2,3.13,3.13,0,0,0,.45-.22,1.32,1.32,0,0,1,.75-.17c.24,0,.53.12.53.36s-.15.33-.44.44a16,16,0,0,1-2,.52c0,1.52,0,3.14.12,4.54A9.12,9.12,0,0,1,104.07,281.53Zm-4.79-1.07c-.67,0-1.33.26-1.33.8s.42.86,1.51.86,1.53-.45,1.53-1.33A4.73,4.73,0,0,0,99.28,280.46Z"/><path class="cls-2" d="M110.07,281.35c-1.26-1.26-1.52-3.1-1.52-5.35,0-.42,0-.86,0-1.23a1.64,1.64,0,0,0-.66-1.44c-.09-.09-.14-.16-.14-.2s.09-.13.21-.13a1.73,1.73,0,0,1,.9.48,1.57,1.57,0,0,1,.71,1.09,1.75,1.75,0,0,1-.14.64,7.14,7.14,0,0,0-.16,1.78,5.84,5.84,0,0,0,.4,2.56c.26.54.54.81.74.81s.21-.07.3-.24c.46-.84.94-1.63,1.63-2.73a.29.29,0,0,1,.26-.17.17.17,0,0,1,.16.16.73.73,0,0,1-.09.26,17,17,0,0,0-1.18,2.56,1.69,1.69,0,0,0-.15.55.82.82,0,0,0,.06.34,1.19,1.19,0,0,1,.09.47.39.39,0,0,1-.44.39A1.88,1.88,0,0,1,110.07,281.35Zm6-6.69a5,5,0,0,1,3.22,4.16c0,.56-.19,1-.57,1a.48.48,0,0,1-.39-.19c-.21-.3-.49-.44-1.47-.56-.15,0-.19-.09-.19-.19s.07-.12.22-.14c.41,0,.72-.07,1.14-.13a.24.24,0,0,0,.23-.27,4.83,4.83,0,0,0-2.36-3.36.31.31,0,0,1-.15-.22C115.72,274.65,115.87,274.58,116,274.66Z"/><path class="cls-2" d="M134.14,277a3.84,3.84,0,0,1-2.34,3.43,12.89,12.89,0,0,1-5.16,1.4c-.16,0-.27-.06-.27-.23s.06-.18.27-.21a11.64,11.64,0,0,0,4.49-1.5,3.66,3.66,0,0,0,2-3.16,2.65,2.65,0,0,0-2.88-2.49,6.61,6.61,0,0,0-2.93.84A20.35,20.35,0,0,0,125,276.5a3.54,3.54,0,0,0-.66.58.62.62,0,0,1-.53.25,1.81,1.81,0,0,1-1-.55,1.63,1.63,0,0,1-.51-.84c0-.26.06-.33.14-.33a.22.22,0,0,1,.18.09,1.22,1.22,0,0,0,.87.47,1.64,1.64,0,0,0,.81-.28c1-.54,1.89-1,2.83-1.43a8,8,0,0,1,3.12-.76C132.67,273.7,134.14,275.28,134.14,277Z"/><path class="cls-2" d="M143.59,273.83a1.91,1.91,0,0,1,.72-.24c.21,0,.47.12.47.38s-.18.37-.53.51q-1,.39-2.46.78c-1,2.69-1.72,4.94-2.77,7.35a.55.55,0,0,1-.48.37.53.53,0,0,1-.35-.15.52.52,0,0,1-.1-.33.87.87,0,0,1,.07-.29,56.8,56.8,0,0,0,2.88-6.75,7.59,7.59,0,0,1-1.6.22,2.63,2.63,0,0,1-1.46-.42c-.19-.14-.43-.34-.43-.55a.17.17,0,0,1,.16-.17.83.83,0,0,1,.29.13,2.06,2.06,0,0,0,1.27.35,7.47,7.47,0,0,0,2-.39c.18-.51.3-.88.42-1.34a3.39,3.39,0,0,0,.15-.77c0-.31-.22-.57-.72-.68-.22,0-.25-.07-.25-.15s.1-.15.21-.19a1.29,1.29,0,0,1,.4-.08,2.61,2.61,0,0,1,1.26.51.61.61,0,0,1,.26.44.56.56,0,0,1-.21.42,1.14,1.14,0,0,0-.32.5c-.15.33-.28.74-.43,1.15A12.53,12.53,0,0,0,143.59,273.83Zm-.37,6.88a1.37,1.37,0,0,0,.76,1.22,4.28,4.28,0,0,0,2,.32,7.2,7.2,0,0,0,1.38-.15A2,2,0,0,1,148,282a1.31,1.31,0,0,1,.47.09.45.45,0,0,1,.3.42c0,.27-.12.4-.65.48a10.76,10.76,0,0,1-1.63.1,5.23,5.23,0,0,1-2.78-.55,1.94,1.94,0,0,1-.94-1.58,2.66,2.66,0,0,1,.27-1.1c.06-.14.16-.28.27-.28s.1.08.1.12a1,1,0,0,1-.06.26A2.74,2.74,0,0,0,143.22,280.71Zm2.95-4.19a5.35,5.35,0,0,0-2.62.52.53.53,0,0,1-.17,0,.11.11,0,0,1-.12-.11.31.31,0,0,1,.12-.21,4.75,4.75,0,0,1,3.09-.87,4.33,4.33,0,0,1,1.41.3c.29.14.44.31.42.56a.32.32,0,0,1-.36.31,1.09,1.09,0,0,1-.33-.07,1,1,0,0,0-.4-.09,1.07,1.07,0,0,0-.59.13,13.8,13.8,0,0,0-1.51,1,.51.51,0,0,1-.24.08c-.08,0-.11-.05-.11-.12s.06-.12.14-.2c.34-.3,1-.79,1.29-1.06C146.31,276.58,146.31,276.54,146.17,276.52Zm.57-4.41a3.81,3.81,0,0,1,1.11.6,1.53,1.53,0,0,1,.65,1,.38.38,0,0,1-.38.43c-.21,0-.3-.12-.49-.5a4.38,4.38,0,0,0-1.11-1.21.19.19,0,0,1-.09-.15.16.16,0,0,1,.16-.16Zm1.35-.9a3.74,3.74,0,0,1,1.07.5,1.4,1.4,0,0,1,.67,1,.37.37,0,0,1-.34.4c-.18,0-.29-.06-.5-.4a3.85,3.85,0,0,0-1.23-1.21s-.06-.1-.06-.14a.15.15,0,0,1,.15-.15A.9.9,0,0,1,148.09,271.21Z"/><path class="cls-2" d="M162.13,276.87a2.51,2.51,0,0,1,.86,1.92,3.19,3.19,0,0,1-1.88,2.72,9.28,9.28,0,0,1-3.63,1,2.89,2.89,0,0,1-.4,0c-.15,0-.27,0-.27-.21s.06-.18.22-.19a9.14,9.14,0,0,0,3.48-1.1,2.84,2.84,0,0,0,1.55-2.31,1.93,1.93,0,0,0-.54-1.51,2.15,2.15,0,0,0-1.61-.62,5.14,5.14,0,0,0-2.16.54,17.94,17.94,0,0,0-2,1.25,2.11,2.11,0,0,0-.47.42.47.47,0,0,1-.42.22,1.3,1.3,0,0,1-.88-.6,1.25,1.25,0,0,1-.35-.77c0-.19.08-.28.14-.28s.13.09.21.19.36.41.49.42a1,1,0,0,0,.6-.14c.86-.42,1.62-.83,2.37-1.16a5.8,5.8,0,0,1,2.45-.62A3.22,3.22,0,0,1,162.13,276.87Z"/><path class="cls-2" d="M174.6,273.83c-1.37.41-2.81.86-4,1.29a7.86,7.86,0,0,0-1.11.51.79.79,0,0,1-.51.17,1.42,1.42,0,0,1-1-.61,1.65,1.65,0,0,1-.41-.86c0-.2.06-.29.15-.29s.11,0,.2.14a1.2,1.2,0,0,0,1,.53,5.58,5.58,0,0,0,1-.17l6.51-1.66a2.67,2.67,0,0,0,.71-.25.88.88,0,0,1,.49-.14,2.23,2.23,0,0,1,.86.19.52.52,0,0,1,.4.45c0,.21-.18.39-.49.41a8.85,8.85,0,0,0-2.91.49,4.74,4.74,0,0,0-3,4,3,3,0,0,0,1,2.43,4.41,4.41,0,0,0,2.61.92,3,3,0,0,1,1.14.26.56.56,0,0,1,.36.54c0,.23-.23.39-.69.39a6.44,6.44,0,0,1-3.75-1.24,3.56,3.56,0,0,1-1.31-2.87,5.41,5.41,0,0,1,2.84-4.62Z"/><path class="cls-2" d="M182.14,280.51a5.94,5.94,0,0,1,2.46,1.12,2.2,2.2,0,0,1,1,1.59.68.68,0,0,1-.64.75c-.3,0-.51-.13-.69-.54a5.46,5.46,0,0,0-2.31-2.6.2.2,0,0,1-.12-.2C181.83,280.53,182,280.48,182.14,280.51Z"/><path class="cls-2" d="M193.12,277.38c.38-.39.42-.44.51-.44s.15.05.59.4c.21.19.24.28.24.35s-.08.15-.38.35a19.53,19.53,0,0,1-.61,4.25,2.21,2.21,0,0,1-.69,1.26,1.39,1.39,0,0,1-.89.26c-.12,0-.15,0-.16-.19,0-.4-.32-.56-1.37-.87-.09,0-.06-.21,0-.2a11.89,11.89,0,0,0,1.64.16c.39,0,.52-.28.7-1a20,20,0,0,0,.5-4h-2.15l-.13.5a.44.44,0,0,1-.45.25c-.26,0-.47,0-.47-.18a1.08,1.08,0,0,1,.06-.28,20.53,20.53,0,0,0,.59-2.75,12.14,12.14,0,0,0,.12-1.41,6.9,6.9,0,0,1,1,.51h1.53v-2.67h-2a3.7,3.7,0,0,0-1,.11l-.15-.59a6.3,6.3,0,0,0,1.2.11h1.89c.4-.44.46-.48.54-.48s.15,0,.57.37c.22.2.24.29.24.36s-.05.15-.38.4v.86c0,1.5.05,2.09.05,2.25s-.18.38-.54.38-.36-.07-.36-.28v-.44h-1.68c-.11.93-.26,1.78-.44,2.61Zm5.24,2.29H196.3v.48c0,.28-.16.38-.52.38s-.38-.07-.38-.31,0-.75,0-2.32a14.72,14.72,0,0,0-.09-1.94,7.83,7.83,0,0,1,1,.51h2a15.51,15.51,0,0,0-.08-1.81c1.22.13,1.38.22,1.38.39s-.07.18-.46.35v1.07h2.13c.39-.42.45-.44.52-.44s.15,0,.54.35c.23.2.26.28.26.37s-.05.16-.36.36v.73c0,1.41.06,2,.06,2.08s-.21.38-.54.38-.39-.08-.39-.3v-.33H199.2v2.59c.82-.09,1.65-.21,2.47-.33a5.59,5.59,0,0,0-.9-1.18c-.06-.06,0-.18.12-.13,1.34.64,2.31,1.83,2.31,2.65a.51.51,0,0,1-.51.56c-.19,0-.31-.11-.45-.54a4.77,4.77,0,0,0-.42-1.07,40.86,40.86,0,0,1-6.4,1.2c-.12.37-.2.45-.32.45s-.22-.16-.46-1.38l.91,0c.72,0,1.71-.07,2.81-.18Zm-2-5.88a15.48,15.48,0,0,0,.87-2.19,6.06,6.06,0,0,0,.26-1.11c1.2.36,1.39.45,1.39.6s-.07.24-.54.3a11.85,11.85,0,0,1-1.54,2.39c1.54,0,3.09-.14,4.63-.29a8.1,8.1,0,0,0-1.23-1.45c-.06-.06,0-.17.12-.14,1.55.69,2.6,1.74,2.6,2.51a.52.52,0,0,1-.48.58c-.21,0-.33-.12-.48-.51a6.14,6.14,0,0,0-.33-.69,53.51,53.51,0,0,1-5.91.87c-.12.38-.18.45-.3.45s-.21-.09-.44-1.36c.33,0,.62,0,1,0Zm2,3.06H196.3v2.44h2.06Zm3.06,2.44v-2.44H199.2v2.44Z"/><path class="cls-2" d="M208.17,281.35c-1.26-1.26-1.52-3.1-1.52-5.35,0-.42,0-.86,0-1.23a1.64,1.64,0,0,0-.66-1.44c-.09-.09-.14-.16-.14-.2s.09-.13.21-.13a1.73,1.73,0,0,1,.9.48,1.57,1.57,0,0,1,.71,1.09,1.75,1.75,0,0,1-.14.64,7.14,7.14,0,0,0-.16,1.78,5.84,5.84,0,0,0,.4,2.56c.26.54.54.81.74.81s.21-.07.3-.24c.46-.84.94-1.63,1.63-2.73a.29.29,0,0,1,.26-.17.17.17,0,0,1,.16.16.73.73,0,0,1-.09.26,17,17,0,0,0-1.18,2.56,1.69,1.69,0,0,0-.15.55.82.82,0,0,0,.06.34,1.19,1.19,0,0,1,.09.47.39.39,0,0,1-.44.39A1.88,1.88,0,0,1,208.17,281.35Zm6-6.69a5,5,0,0,1,3.22,4.16c0,.56-.19,1-.57,1a.48.48,0,0,1-.39-.19c-.21-.3-.49-.44-1.47-.56-.15,0-.19-.09-.19-.19s.07-.12.22-.14c.41,0,.72-.07,1.14-.13a.24.24,0,0,0,.23-.27A4.83,4.83,0,0,0,214,275a.31.31,0,0,1-.15-.22C213.82,274.65,214,274.58,214.14,274.66Z"/><path class="cls-2" d="M223.5,274.29c1.44.52,2,1.17,2,1.72a.45.45,0,0,1-.42.51c-.17,0-.33-.1-.47-.44a3.56,3.56,0,0,0-1.15-1.51v4.18c0,.28-.18.41-.59.41s-.34-.09-.34-.32.06-2.2.12-4a9.88,9.88,0,0,1-2.88,3.16c-.08,0-.21-.09-.15-.16a12.19,12.19,0,0,0,2.82-4.39H221a3.91,3.91,0,0,0-.92.09l-.15-.55a5.63,5.63,0,0,0,1,.09h1.66v-.35a15.65,15.65,0,0,0-.07-2.27c1.15.14,1.41.2,1.41.35s-.06.23-.48.4v1.87h1c.47-.56.56-.63.63-.63s.23.07.75.51c.23.17.27.27.27.34s0,.15-.19.15H223.5Zm-1.31,5.88a3.34,3.34,0,0,1,0,.43c0,1.41-.7,2.49-1.47,2.49a.51.51,0,0,1-.52-.53c0-.25.13-.43.48-.58a2.26,2.26,0,0,0,1.29-1.83C222,280.06,222.18,280.08,222.19,280.17Zm2.43,1.9c0,.64.11.73,1.88.73,1.57,0,2,0,2.35-.19s.44-.44.8-1.61c0-.08.18-.05.18,0,0,.47,0,.8,0,1.08s.05.33.27.4.2.18.2.35-.3.47-.72.58a15.77,15.77,0,0,1-3.35.19c-2.05,0-2.53-.25-2.53-1.42,0-.18,0-.45,0-1.13s0-1-.06-1.47c1.29.14,1.47.23,1.47.39s-.06.2-.5.4Zm1.4-2.57c1.23.28,2,.92,2,1.58a.46.46,0,0,1-.47.51c-.18,0-.36-.08-.51-.45a2.93,2.93,0,0,0-1.17-1.48C225.84,279.59,225.93,279.49,226,279.5Zm1.33-1v.18c0,.27-.19.35-.55.35s-.38-.07-.38-.29.06-1.47.06-4.41a29.62,29.62,0,0,0-.09-3.43,5.81,5.81,0,0,1,1.07.51H231c.4-.44.46-.47.55-.47s.15,0,.57.38c.21.17.24.27.24.34s0,.16-.37.41v2.11c0,3.06.06,4.23.06,4.56s-.23.39-.59.39-.36-.07-.36-.3v-.33Zm3.75-6.72h-3.75v1.82h3.75Zm0,2.19h-3.75v1.81h3.75Zm0,2.19h-3.75v2h3.75Zm-.42,4c1.44.48,2.28,1.39,2.28,2.19,0,.37-.21.62-.51.62s-.36-.14-.55-.67a4.91,4.91,0,0,0-1.34-2C230.5,280.25,230.59,280.12,230.68,280.15Z"/><path class="cls-2" d="M238.17,281.35c-1.26-1.26-1.52-3.1-1.52-5.35,0-.42,0-.86,0-1.23a1.64,1.64,0,0,0-.66-1.44c-.09-.09-.14-.16-.14-.2s.09-.13.21-.13a1.73,1.73,0,0,1,.9.48,1.57,1.57,0,0,1,.71,1.09,1.75,1.75,0,0,1-.14.64,7.14,7.14,0,0,0-.16,1.78,5.84,5.84,0,0,0,.4,2.56c.26.54.54.81.74.81s.21-.07.3-.24c.46-.84.94-1.63,1.63-2.73a.29.29,0,0,1,.26-.17.17.17,0,0,1,.16.16.73.73,0,0,1-.09.26,17,17,0,0,0-1.18,2.56,1.69,1.69,0,0,0-.15.55.82.82,0,0,0,.06.34,1.19,1.19,0,0,1,.09.47.39.39,0,0,1-.44.39A1.88,1.88,0,0,1,238.17,281.35Zm6-6.69a5,5,0,0,1,3.22,4.16c0,.56-.19,1-.57,1a.48.48,0,0,1-.39-.19c-.21-.3-.49-.44-1.47-.56-.15,0-.19-.09-.19-.19s.07-.12.22-.14c.41,0,.72-.07,1.14-.13a.24.24,0,0,0,.23-.27A4.83,4.83,0,0,0,244,275a.31.31,0,0,1-.15-.22C243.82,274.65,244,274.58,244.14,274.66Z"/><path class="cls-2" d="M256.69,273.83a1.91,1.91,0,0,1,.72-.24c.21,0,.47.12.47.38s-.18.37-.53.51q-1,.39-2.46.78c-1,2.69-1.72,4.94-2.77,7.35a.55.55,0,0,1-.48.37.53.53,0,0,1-.35-.15.52.52,0,0,1-.1-.33.87.87,0,0,1,.07-.29,56.8,56.8,0,0,0,2.88-6.75,7.59,7.59,0,0,1-1.6.22,2.63,2.63,0,0,1-1.46-.42c-.19-.14-.43-.34-.43-.55a.17.17,0,0,1,.16-.17.83.83,0,0,1,.29.13,2.06,2.06,0,0,0,1.27.35,7.47,7.47,0,0,0,2-.39c.18-.51.3-.88.42-1.34a3.39,3.39,0,0,0,.15-.77c0-.31-.22-.57-.72-.68-.22,0-.25-.07-.25-.15s.1-.15.21-.19a1.29,1.29,0,0,1,.4-.08,2.61,2.61,0,0,1,1.26.51.61.61,0,0,1,.26.44.56.56,0,0,1-.21.42,1.14,1.14,0,0,0-.32.5c-.15.33-.28.74-.43,1.15A12.53,12.53,0,0,0,256.69,273.83Zm-.37,6.88a1.37,1.37,0,0,0,.76,1.22,4.28,4.28,0,0,0,2,.32,7.2,7.2,0,0,0,1.38-.15,2,2,0,0,1,.61-.09,1.31,1.31,0,0,1,.47.09.45.45,0,0,1,.3.42c0,.27-.12.4-.65.48a10.76,10.76,0,0,1-1.63.1,5.23,5.23,0,0,1-2.78-.55,1.94,1.94,0,0,1-.94-1.58,2.66,2.66,0,0,1,.27-1.1c.06-.14.16-.28.27-.28s.1.08.1.12a1,1,0,0,1-.06.26A2.74,2.74,0,0,0,256.32,280.71Zm2.95-4.19a5.35,5.35,0,0,0-2.62.52.53.53,0,0,1-.17,0,.11.11,0,0,1-.12-.11.31.31,0,0,1,.12-.21,4.75,4.75,0,0,1,3.09-.87,4.33,4.33,0,0,1,1.41.3c.29.14.44.31.42.56a.32.32,0,0,1-.36.31,1.09,1.09,0,0,1-.33-.07,1,1,0,0,0-.4-.09,1.07,1.07,0,0,0-.59.13,13.8,13.8,0,0,0-1.51,1,.51.51,0,0,1-.24.08c-.08,0-.11-.05-.11-.12s.06-.12.14-.2c.34-.3,1-.79,1.29-1.06C259.41,276.58,259.41,276.54,259.27,276.52Zm.57-4.41a3.81,3.81,0,0,1,1.11.6,1.53,1.53,0,0,1,.65,1,.38.38,0,0,1-.38.43c-.21,0-.3-.12-.49-.5a4.38,4.38,0,0,0-1.11-1.21.19.19,0,0,1-.09-.15.16.16,0,0,1,.16-.16Zm1.35-.9a3.74,3.74,0,0,1,1.07.5,1.4,1.4,0,0,1,.67,1,.37.37,0,0,1-.34.4c-.18,0-.29-.06-.5-.4a3.85,3.85,0,0,0-1.23-1.21s-.06-.1-.06-.14a.15.15,0,0,1,.15-.15A.9.9,0,0,1,261.19,271.21Z"/><path class="cls-2" d="M268.84,282a1.94,1.94,0,1,1-1.93-1.93A1.95,1.95,0,0,1,268.84,282Zm-3.37,0a1.43,1.43,0,1,0,1.44-1.42A1.43,1.43,0,0,0,265.47,282Z"/><path class="cls-2" d="M29.5,319a13.43,13.43,0,0,1-1.93,1.84v3.39c1.12-.21,2.35-.5,3.39-.81.09,0,.16.17.07.19a28.84,28.84,0,0,1-5.8,1.94c-.11.45-.17.54-.32.54s-.24-.16-.67-1.42a9.46,9.46,0,0,0,1.29-.1c.33,0,.72-.1,1.14-.18v-2.92a14.4,14.4,0,0,1-3.87,1.7c-.09,0-.17-.19-.08-.21a14.76,14.76,0,0,0,5.54-4H23.89a4.38,4.38,0,0,0-1,.09l-.14-.56a6.36,6.36,0,0,0,1.13.09H29v-1.74H25.41a3.38,3.38,0,0,0-.95.11l-.13-.57a5.62,5.62,0,0,0,1.06.09H29v-1.64H24.7a5.41,5.41,0,0,0-.94.09l-.17-.57a4.91,4.91,0,0,0,1.11.11H29a16.23,16.23,0,0,0-.07-2c1.36.15,1.53.24,1.53.42s-.09.23-.53.41v1.17h4c.57-.68.66-.72.74-.72s.18,0,.82.56c.29.25.33.32.33.4s-.06.13-.19.13H29.89v1.64H33.1c.51-.62.59-.68.68-.68s.18.06.78.52c.28.23.3.31.3.4s0,.13-.2.13H29.89v1.74h4.5c.6-.7.68-.75.75-.75s.21.05.83.56c.3.25.34.34.34.43s0,.14-.19.14H30a10.29,10.29,0,0,0,1.56,2.9,13,13,0,0,0,1.61-1.52,4.55,4.55,0,0,0,.61-.89c1,.66,1.17.8,1.17,1s-.12.19-.67.12a10.86,10.86,0,0,1-2.51,1.57,5.88,5.88,0,0,0,.66.66,9.29,9.29,0,0,0,3.8,2c.09,0,.07.14,0,.16a.72.72,0,0,0-.7.6c-.06.16-.11.21-.24.21a1.7,1.7,0,0,1-.56-.21,9.64,9.64,0,0,1-2.95-2.25A10.62,10.62,0,0,1,29.59,319Z"/><path class="cls-2" d="M41.62,325.6c0,.32-.16.42-.57.42s-.39-.09-.39-.33c0-.45.08-1.55.08-5.57,0-2.49,0-3.24-.09-4.15a8.08,8.08,0,0,1,1.14.57h3.07a15.48,15.48,0,0,0,.77-2.76H41a7.33,7.33,0,0,0-1.2.09l-.15-.55a8.68,8.68,0,0,0,1.37.09h9.93c.69-.81.76-.86.85-.86s.2.05.92.65c.36.3.39.37.39.45s-.06.13-.21.13H46.81a12.5,12.5,0,0,1-1.44,2.76h5.55c.45-.46.51-.5.59-.5s.12,0,.61.42c.23.19.29.28.29.35s-.08.19-.44.4v2.72c0,3.86.06,5.24.06,5.62s-.19.42-.57.42-.4-.07-.4-.33v-.54H41.62Zm0-8.68v7.81H44v-7.81Zm3.29,2.26h2.68v-2.26H44.91Zm2.68.37H44.91v2.24h2.68Zm0,2.62H44.91v2.56h2.68Zm3.47-5.25H48.48v7.81h2.58Z"/><path class="cls-2" d="M61.32,316.78c1.21,0,1.56,1,1.56,2.12a11.53,11.53,0,0,1-.6,3.18,4.94,4.94,0,0,1-1.23,2.13,1.81,1.81,0,0,1-1.25.59.49.49,0,0,1-.54-.43,1.06,1.06,0,0,0-.22-.44,11.08,11.08,0,0,0-.84-.87.15.15,0,0,1-.06-.13c0-.06.06-.15.13-.15a.29.29,0,0,1,.15.07,9.3,9.3,0,0,0,1.26.8.85.85,0,0,0,.39.07.74.74,0,0,0,.56-.24,5.73,5.73,0,0,0,1.08-2.23,10.72,10.72,0,0,0,.42-2.64c0-1-.29-1.35-.89-1.35a3.52,3.52,0,0,0-1.18.25c-1.1,2.36-2.25,4.64-3.6,6.92a.42.42,0,0,1-.41.24c-.25,0-.43-.13-.43-.38a.66.66,0,0,1,.13-.38,53.41,53.41,0,0,0,3.51-6.19c-.54.19-1,.38-1.53.57a3,3,0,0,0-.57.28.52.52,0,0,1-.31.12,1,1,0,0,1-.63-.29,1.46,1.46,0,0,1-.56-1c0-.23.08-.34.17-.34s.07,0,.13.15a.89.89,0,0,0,.74.51,3.49,3.49,0,0,0,1-.2c.49-.13,1.11-.29,1.8-.49a16.48,16.48,0,0,0,.69-1.78,2,2,0,0,0,.12-.62c0-.28-.45-.55-1-.58-.11,0-.17-.07-.17-.14s0-.09.12-.15a1.15,1.15,0,0,1,.57-.12c.56,0,1.62.45,1.62,1.07a.36.36,0,0,1-.21.3,1,1,0,0,0-.37.49c-.2.45-.39.92-.6,1.36A6.13,6.13,0,0,1,61.32,316.78Zm5.94,4.47a.6.6,0,0,1-.39-.11.94.94,0,0,0-.5-.11c-.55,0-1.09,0-1.74.05a.16.16,0,0,1-.21-.17c0-.11,0-.16.17-.19.7-.13,1.3-.25,1.77-.39.15,0,.21-.1.21-.22,0-.72-.93-2-2.27-2.81a.19.19,0,0,1-.09-.16.16.16,0,0,1,.14-.16.49.49,0,0,1,.21,0c1.74.72,3.15,2.48,3.15,3.66C67.71,321.08,67.5,321.25,67.26,321.25Z"/><path class="cls-2" d="M75.27,315.19a3.13,3.13,0,0,1-.9-.73,2.45,2.45,0,0,1-.59-1.26c0-.11,0-.2.14-.2s.13.06.18.15a2.82,2.82,0,0,0,1.78,1.43,2.45,2.45,0,0,1,.81.46.85.85,0,0,1,.32.54.38.38,0,0,1-.41.42,1.22,1.22,0,0,1-.43-.08,2.5,2.5,0,0,0-.54-.07,5.76,5.76,0,0,0-2.09.49c-.22.11-.28.19-.28.29a.8.8,0,0,0,.09.36,1.2,1.2,0,0,1,.12.54,10.73,10.73,0,0,1-.15,1.11,19.49,19.49,0,0,0-.21,2.4c0,.13,0,.18,0,.18a.28.28,0,0,0,.14-.06c1.83-1.41,3.36-2.37,4.89-2.37s2.95.84,2.95,2.43c0,1.33-.94,2.28-2.32,2.94a13.21,13.21,0,0,1-4.7,1c-.15,0-.25-.06-.25-.2s.09-.19.22-.21a12.36,12.36,0,0,0,4.22-1.29c1.2-.68,1.83-1.38,1.83-2.55a1.78,1.78,0,0,0-1.92-1.72,6.13,6.13,0,0,0-4,2.23,5.57,5.57,0,0,0-.76,1c-.11.26-.21.34-.47.34s-.28-.13-.4-.34a1.43,1.43,0,0,1-.2-.84,21.48,21.48,0,0,1,.38-3.36,4.6,4.6,0,0,0,.09-.84c0-.2,0-.43,0-.63,0-.36.2-.55.56-.76a10.57,10.57,0,0,1,2-.78Z"/><path class="cls-2" d="M84.69,325.83a6.52,6.52,0,0,0,4.3-3.14,3.82,3.82,0,0,0,.36-1.44c1.19.27,1.4.34,1.4.5s-.14.21-.5.31c-.64,2.16-2.46,3.49-5.49,4C84.67,326,84.6,325.85,84.69,325.83Zm8.17-1.73c0,.6,0,.73,1.53.73s2.07-.07,2.33-.36a4.3,4.3,0,0,0,.63-1.69c0-.09.21-.06.21,0,0,.56,0,1,0,1.29s.06.32.22.37a.38.38,0,0,1,.24.4c0,.26-.28.49-.7.61a12.78,12.78,0,0,1-3,.21c-1.92,0-2.34-.29-2.34-1.27,0-.17,0-.47,0-1.19V321H88.17v.37c0,.29-.2.38-.6.38s-.41-.07-.41-.32c0-.4.08-1.23.08-4.59,0-2.31,0-3.18-.08-4.08a7.58,7.58,0,0,1,1.14.57h5.88c.45-.46.5-.5.57-.5s.15,0,.63.42c.21.2.24.26.24.33s0,.2-.39.44v2.36c0,3.37.08,4.51.08,4.87s-.21.42-.57.42-.44-.08-.44-.33V321H92.86Zm1.44-10.39H88.17v2H94.3Zm0,2.38H88.17v2H94.3Zm0,2.38H88.17v2.15H94.3Z"/><path class="cls-2" d="M105,321.47a1.27,1.27,0,0,1,1.86.24,10.23,10.23,0,0,1,.84,1.87c.24.56.5.71,1.25.73a4.8,4.8,0,0,0,1.29-.14,4.35,4.35,0,0,1,.81-.12c.45,0,.93.21.93.59s-.21.42-.63.46-1,.09-1.46.09a10.7,10.7,0,0,1-1.45-.07,1.85,1.85,0,0,1-1.49-1.44,10,10,0,0,0-.57-1.67.69.69,0,0,0-.67-.39c-.63,0-1.16.67-1.62,1.13a27.27,27.27,0,0,0-1.88,2.22.47.47,0,0,1-.42.18.44.44,0,0,1-.42-.47.9.9,0,0,1,.33-.58,69.65,69.65,0,0,0,5.54-6.26s0-.13-.09-.1a19.54,19.54,0,0,0-2.9,1.27,3.16,3.16,0,0,0-.49.35.55.55,0,0,1-.39.14c-.57,0-1.14-.84-1.14-1.37,0-.21.07-.34.18-.34s.12.1.16.17c.23.4.47.58.68.58a1.28,1.28,0,0,0,.49-.09c1.1-.41,2-.75,2.79-1.07a1.56,1.56,0,0,0,.62-.38.55.55,0,0,1,.34-.17,1.41,1.41,0,0,1,.77.33c.46.33.61.46.61.64s-.21.32-.52.35a.64.64,0,0,0-.35.14c-.93.93-1.83,1.89-3,3.14Zm-.27-7.49a1.46,1.46,0,0,1-.36-.68c0-.1,0-.18.12-.18a.22.22,0,0,1,.17.09,2.71,2.71,0,0,0,2,1,2.89,2.89,0,0,1,1.07.21.49.49,0,0,1,.25.43c0,.26-.13.39-.43.39l-.57,0a2,2,0,0,0-.68.15c-.39.15-1,.48-1.69.81a.17.17,0,0,1-.26-.13.2.2,0,0,1,.11-.19l1.65-1.05A3.16,3.16,0,0,1,104.77,314Z"/><path class="cls-2" d="M119.14,319.9a5.63,5.63,0,0,1,3.15-1.15c2.48,0,3.36,1.57,3.36,2.95,0,2.19-2,3.43-4.06,3.43-1.77,0-2.82-.7-2.82-1.63a1.25,1.25,0,0,1,1.41-1.19,2.78,2.78,0,0,1,2.5,1.92,2.88,2.88,0,0,0,2-2.57,2.24,2.24,0,0,0-2.35-2.44,5.38,5.38,0,0,0-3.56,1.55,9.93,9.93,0,0,0-1,1.19.45.45,0,0,1-.36.16.51.51,0,0,1-.49-.48.83.83,0,0,1,.3-.57,73.68,73.68,0,0,0,5.44-6.36c.11-.13,0-.19-.13-.13-.83.27-1.67.57-2.42.85a2,2,0,0,0-.39.19.52.52,0,0,1-.37.2c-.24,0-.5-.11-.84-.53a1.62,1.62,0,0,1-.41-.89c0-.12.06-.24.14-.24s.15,0,.25.19c.26.33.45.47.72.47a5,5,0,0,0,.86-.12c.69-.16,1.39-.37,2-.54a1,1,0,0,0,.37-.24.41.41,0,0,1,.32-.14,1.49,1.49,0,0,1,.73.33c.23.15.51.43.51.64a.3.3,0,0,1-.28.32c-.23.06-.36.14-.75.52-1.29,1.34-2.55,2.84-3.86,4.29Zm.92,2.85c-.57,0-.81.33-.81.67s.57,1,2,1a1.76,1.76,0,0,0,.57-.07A2.3,2.3,0,0,0,120.06,322.75Z"/><path class="cls-2" d="M136.47,316.55a5.53,5.53,0,0,1-.29,1.48,14.87,14.87,0,0,1-2.16,4,2.24,2.24,0,0,1-1.48,1,1.54,1.54,0,0,1-1.2-.78,3.63,3.63,0,0,1-.53-2,5.05,5.05,0,0,1,1.64-3.72,6.19,6.19,0,0,1,4.35-1.62c3,0,5.13,2,5.13,4.67,0,3.16-3.29,4.73-6.36,4.89-.17,0-.26-.07-.26-.16s.05-.19.26-.24c2.5-.44,5.37-1.82,5.37-4.74a3.85,3.85,0,0,0-4-3.88,5.47,5.47,0,0,0-.81,0A2.07,2.07,0,0,1,136.47,316.55Zm-3.77.47a4.19,4.19,0,0,0-1.21,3,3,3,0,0,0,.36,1.51.9.9,0,0,0,.7.51c.27,0,.59-.25,1-.87a13.72,13.72,0,0,0,2.07-3.93,2.9,2.9,0,0,0,.21-1.08.91.91,0,0,0-.18-.63A5.21,5.21,0,0,0,132.7,317Z"/><path class="cls-2" d="M147,322.71c0,.22.07.26.13.26a.11.11,0,0,0,.12-.09c.3-.89.78-2.18,1.13-3a.22.22,0,0,1,.19-.17c.08,0,.14.09.14.19a.9.9,0,0,1,0,.16c-.29,1-.71,2.35-.84,3a4,4,0,0,0-.14.76c0,.31,0,.61,0,.9s-.14.41-.35.41-.36-.09-.51-.39a8.25,8.25,0,0,1-.57-3.45,19.88,19.88,0,0,1,.74-4.8,5.1,5.1,0,0,0,.24-1.32,2,2,0,0,0-.35-1.06.41.41,0,0,1-.07-.18.17.17,0,0,1,.18-.15.54.54,0,0,1,.3.15,2.41,2.41,0,0,1,.63.69,1.57,1.57,0,0,1,.3,1,.76.76,0,0,1-.21.5,1.65,1.65,0,0,0-.24.5,13.45,13.45,0,0,0-.9,4.42A11.09,11.09,0,0,0,147,322.71Zm10,.82a.68.68,0,0,1,.25.42.42.42,0,0,1-.33.47.72.72,0,0,1-.52-.17,12.37,12.37,0,0,0-1.71-1.14c0,.75-.62,1.65-2.18,1.65-1.2,0-2.1-.57-2.1-1.46s.74-1.39,2.12-1.39a5.81,5.81,0,0,1,1.42.17c0-1.38,0-2.79,0-4.19a16.4,16.4,0,0,1-2.36.16A1.58,1.58,0,0,1,150,317a.68.68,0,0,1-.05-.22.15.15,0,0,1,.14-.13c.09,0,.15.07.22.18a1.37,1.37,0,0,0,1.17.57,15.89,15.89,0,0,0,2.43-.23c0-.69,0-1.58-.06-2.22,0-.37-.07-.48-.19-.57a1.15,1.15,0,0,0-.71-.18c-.15,0-.19,0-.19-.15s.27-.33.58-.33a2.72,2.72,0,0,1,1,.27c.25.12.63.36.63.64a.43.43,0,0,1-.18.33.94.94,0,0,0-.2.62c0,.5,0,1,0,1.46a5.43,5.43,0,0,0,.73-.2,3.13,3.13,0,0,0,.45-.22,1.32,1.32,0,0,1,.75-.17c.24,0,.53.12.53.36s-.15.33-.44.44a16,16,0,0,1-2,.52c0,1.52,0,3.14.12,4.54A9.12,9.12,0,0,1,157,323.53Zm-4.79-1.07c-.67,0-1.33.26-1.33.8s.42.86,1.51.86,1.53-.45,1.53-1.33A4.73,4.73,0,0,0,152.23,322.46Z"/><path class="cls-2" d="M160.09,322.51a5.94,5.94,0,0,1,2.46,1.12,2.2,2.2,0,0,1,1,1.59.68.68,0,0,1-.64.75c-.3,0-.51-.13-.69-.54a5.46,5.46,0,0,0-2.31-2.6.2.2,0,0,1-.12-.2C159.78,322.53,159.94,322.48,160.09,322.51Z"/><path class="cls-2" d="M171.36,319.67c-.3,1-.65,2.15-.86,3a6,6,0,0,0-.19,1.18c0,.09,0,.27,0,.44s.05.35.05.46-.11.31-.38.31-.48-.23-.67-.76a9.13,9.13,0,0,1-.41-3.08,26.88,26.88,0,0,1,.69-4.9,7.71,7.71,0,0,0,.21-1.33,1.64,1.64,0,0,0-.4-1.16.41.41,0,0,1-.11-.22c0-.07.11-.12.21-.12a.57.57,0,0,1,.36.16,2.89,2.89,0,0,1,.69.8,1.38,1.38,0,0,1,.26.67.86.86,0,0,1-.11.43,10.54,10.54,0,0,0-.39,1,17.35,17.35,0,0,0-.81,4.6,5.94,5.94,0,0,0,.15,1.49c0,.08.05.12.11.12s.09-.07.12-.14c.4-1.13.81-2.23,1.17-3.19a.24.24,0,0,1,.21-.18.13.13,0,0,1,.12.14A1.52,1.52,0,0,1,171.36,319.67Zm6-4.75a9.46,9.46,0,0,0-3.72.77.86.86,0,0,1-.23.06c-.09,0-.13-.06-.13-.16s.1-.17.22-.25a7.62,7.62,0,0,1,4.25-1.3c.79,0,1.06.17,1.06.5a.42.42,0,0,1-.46.4Zm-2.42,4.4c-.87,0-1.56-.32-1.56-1.15a1.78,1.78,0,0,1,.44-1.09A.17.17,0,0,1,174,317c.06,0,.12.05.12.09a.54.54,0,0,1-.09.25,1.48,1.48,0,0,0-.16.68c0,.51.37.65.81.65a9,9,0,0,0,2-.26v-1.2c0-.2,0-.32-.1-.42a.63.63,0,0,0-.5-.16c-.16,0-.18-.05-.18-.12s.29-.29.57-.29,1.05.24,1.05.56a.94.94,0,0,1-.06.3,1.73,1.73,0,0,0-.09.39c0,.34,0,.57,0,.75a6.74,6.74,0,0,0,1.32-.49,1,1,0,0,1,.39-.11.29.29,0,0,1,.33.28.49.49,0,0,1-.34.48,7.29,7.29,0,0,1-1.7.63c0,1.05.06,2.19.12,3.24a7.58,7.58,0,0,1,2.37,1.13.78.78,0,0,1,.39.65.41.41,0,0,1-.42.43.69.69,0,0,1-.52-.26,5.65,5.65,0,0,0-1.82-1.2c0,1.27-1,1.74-2.08,1.74-1.31,0-2.07-.56-2.07-1.32,0-1.12,1.27-1.42,2.32-1.42a7.31,7.31,0,0,1,1.1.09c0-1,0-2,0-2.95A10.59,10.59,0,0,1,174.94,319.32Zm.26,3.21c-1,0-1.43.32-1.43.8s.51.75,1.55.75a1.24,1.24,0,0,0,1.41-1.33A4.87,4.87,0,0,0,175.2,322.53Z"/><path class="cls-2" d="M185.83,320.42a2.45,2.45,0,0,1,1.85-.79c1.18,0,1.72,1,1.8,2.34s.37,1.89,1.24,1.89a3.65,3.65,0,0,0,2.57-1.38,8.42,8.42,0,0,0,1.54-3c0-.13.08-.21.2-.21s.16.08.16.18a1.29,1.29,0,0,1,0,.24,8.43,8.43,0,0,1-1.24,3.14,3.87,3.87,0,0,1-3.23,1.92c-1.29,0-1.86-.66-1.95-2.37s-.28-2.29-1.12-2.29a2.29,2.29,0,0,0-1.8,1,16,16,0,0,0-1.58,3.09.43.43,0,0,1-.43.29.45.45,0,0,1-.48-.49,1.11,1.11,0,0,1,.12-.42c.93-1.73,2-3.68,2.89-5.38.72-1.38,1.29-2.55,1.53-3.07a1.66,1.66,0,0,0,.18-.68c0-.27-.12-.51-.58-.75-.06,0-.12-.07-.12-.13s.15-.17.37-.17a1.63,1.63,0,0,1,1.08.57c.44.43.56.68.56,1a.32.32,0,0,1-.27.32c-.21.05-.27.08-.54.47-1,1.44-1.62,2.79-2.76,4.77Z"/><path class="cls-2" d="M204.27,316.55A5.53,5.53,0,0,1,204,318a14.87,14.87,0,0,1-2.16,4,2.24,2.24,0,0,1-1.48,1,1.54,1.54,0,0,1-1.2-.78,3.63,3.63,0,0,1-.53-2,5.05,5.05,0,0,1,1.64-3.72,6.19,6.19,0,0,1,4.35-1.62c3,0,5.13,2,5.13,4.67,0,3.16-3.29,4.73-6.36,4.89-.17,0-.26-.07-.26-.16s0-.19.26-.24c2.5-.44,5.37-1.82,5.37-4.74a3.85,3.85,0,0,0-4-3.88,5.47,5.47,0,0,0-.81,0A2.07,2.07,0,0,1,204.27,316.55Zm-3.77.47a4.19,4.19,0,0,0-1.21,3,3,3,0,0,0,.36,1.51.9.9,0,0,0,.7.51c.27,0,.59-.25,1.05-.87a13.72,13.72,0,0,0,2.07-3.93,2.9,2.9,0,0,0,.21-1.08.91.91,0,0,0-.18-.63A5.21,5.21,0,0,0,200.5,317Z"/><path class="cls-2" d="M214.72,320.37c0,3.58,0,4.87,0,5.25s-.18.46-.57.46-.41-.12-.41-.41.09-2.74.09-5.28c0-1,0-1.92,0-2.88a16.06,16.06,0,0,1-1.68,2.25c-.06.07-.23,0-.18-.12a21.09,21.09,0,0,0,2.55-5.76,9.27,9.27,0,0,0,.28-1.48c1,.26,1.49.43,1.49.63s-.12.21-.59.32a17.88,17.88,0,0,1-1.59,3.69c.89.13,1,.19,1,.36s-.06.19-.45.37Zm4.4-3.91v.25c0,.27-.18.38-.53.38s-.37-.09-.37-.31,0-.7,0-2.07H217a6.24,6.24,0,0,0-1,.09l-.14-.55a6.51,6.51,0,0,0,1.17.08h1.23a13.64,13.64,0,0,0-.06-1.73c1.16.11,1.37.19,1.37.37s-.06.2-.45.35v1H222v-.21a12.46,12.46,0,0,0-.06-1.52c1.15.11,1.38.19,1.38.37s-.08.2-.47.36v1h1.2c.51-.62.59-.66.66-.66s.18,0,.75.53c.24.21.29.29.29.36s-.05.15-.2.15h-2.7c0,1.17.05,1.84.05,2s-.2.37-.54.37-.38-.09-.38-.31v-.31h-1v1.29h2.73c.39-.4.45-.43.52-.43s.15,0,.56.36c.21.16.25.24.25.33s-.06.18-.37.39v.38c0,.6,0,1.21,0,1.54s-.19.39-.54.39-.36-.08-.36-.32v-.07H221v1.41h2.7c.55-.63.61-.68.7-.68s.23.08.8.56c.21.18.27.27.27.36s0,.13-.2.13H221v1.29h2.32c.53-.58.6-.64.68-.64s.19,0,.76.54c.21.18.27.27.27.34s0,.14-.19.14H221v1.45h3.07c.6-.7.69-.76.78-.76s.23.06.86.58c.25.23.33.32.33.41s-.05.15-.2.15h-9a6.24,6.24,0,0,0-1.17.09l-.15-.57a8.47,8.47,0,0,0,1.32.1h3.34v-1.45h-2.46a5.85,5.85,0,0,0-.88.07l-.15-.54a4.53,4.53,0,0,0,1,.09h2.46V322.1h-3a4.86,4.86,0,0,0-.88.08l-.17-.56a4.85,4.85,0,0,0,1,.11h3v-1.41H217.5v.22c0,.28-.21.37-.54.37s-.36-.11-.36-.29,0-.78,0-1.7a14.26,14.26,0,0,0-.06-1.64,6.18,6.18,0,0,1,1,.47h2.53v-1.29Zm1,1.67H217.5V320h2.62Zm1.89-2c0-.47,0-.92,0-1.38h-2.91v1.38Zm1.8,3.86v-1.82H221V320Z"/><path class="cls-2" d="M234.12,316.78c1.21,0,1.56,1,1.56,2.12a11.53,11.53,0,0,1-.6,3.18,4.94,4.94,0,0,1-1.23,2.13,1.81,1.81,0,0,1-1.25.59.49.49,0,0,1-.54-.43,1.06,1.06,0,0,0-.22-.44,11.08,11.08,0,0,0-.84-.87.15.15,0,0,1-.06-.13c0-.06.06-.15.13-.15a.29.29,0,0,1,.15.07,9.3,9.3,0,0,0,1.26.8.85.85,0,0,0,.39.07.74.74,0,0,0,.56-.24,5.73,5.73,0,0,0,1.08-2.23,10.72,10.72,0,0,0,.42-2.64c0-1-.29-1.35-.89-1.35a3.52,3.52,0,0,0-1.18.25c-1.1,2.36-2.25,4.64-3.6,6.92a.42.42,0,0,1-.41.24c-.25,0-.43-.13-.43-.38a.66.66,0,0,1,.13-.38,53.41,53.41,0,0,0,3.51-6.19c-.54.19-1,.38-1.53.57a3,3,0,0,0-.57.28.52.52,0,0,1-.31.12,1,1,0,0,1-.63-.29,1.46,1.46,0,0,1-.56-1c0-.23.08-.34.17-.34s.07,0,.13.15a.89.89,0,0,0,.74.51,3.49,3.49,0,0,0,1.05-.2c.49-.13,1.11-.29,1.8-.49a16.48,16.48,0,0,0,.69-1.78,2,2,0,0,0,.12-.62c0-.28-.45-.55-1-.58-.11,0-.17-.07-.17-.14s0-.09.12-.15a1.15,1.15,0,0,1,.57-.12c.56,0,1.62.45,1.62,1.07a.36.36,0,0,1-.21.3,1,1,0,0,0-.37.49c-.2.45-.39.92-.6,1.36A6.13,6.13,0,0,1,234.12,316.78Zm5.94,4.47a.6.6,0,0,1-.39-.11.94.94,0,0,0-.5-.11c-.55,0-1.09,0-1.74.05a.16.16,0,0,1-.21-.17c0-.11.05-.16.17-.19.7-.13,1.3-.25,1.77-.39.15,0,.21-.1.21-.22,0-.72-.93-2-2.27-2.81a.19.19,0,0,1-.09-.16.16.16,0,0,1,.14-.16.49.49,0,0,1,.21,0c1.74.72,3.15,2.48,3.15,3.66C240.51,321.08,240.3,321.25,240.06,321.25Z"/><path class="cls-2" d="M246.49,324a1.94,1.94,0,1,1-1.93-1.93A1.95,1.95,0,0,1,246.49,324Zm-3.37,0a1.43,1.43,0,1,0,1.44-1.42A1.43,1.43,0,0,0,243.12,324Z"/><path class="cls-2" d="M38.4,362.71a8.41,8.41,0,0,1-.32,1.41A7,7,0,0,1,36,367.31c-.06.07-.21,0-.17-.12a8.88,8.88,0,0,0,1.5-3.22,14.74,14.74,0,0,0,.35-3.75,12.18,12.18,0,0,0-.08-1.64,7.1,7.1,0,0,1,1.07.53H42.4c.38-.4.42-.44.51-.44s.15,0,.57.38c.21.16.23.25.23.33s-.06.16-.36.37v.92c0,1.33,0,1.82,0,2.1s-.18.36-.51.36-.37-.06-.37-.29v-.13Zm2.29-7.46C43,356,44,356.74,44,357.45c0,.26-.15.45-.36.45s-.29-.11-.6-.47a8.22,8.22,0,0,0-2.51-2A10.47,10.47,0,0,1,36,359c-.09,0-.18-.17-.1-.21a12.28,12.28,0,0,0,3.33-3.06,6.43,6.43,0,0,0,.78-1.37c.79.26,1.29.45,1.29.59s-.17.19-.62.24Zm-1.56,11.87v.5c0,.25-.16.35-.51.35s-.36-.07-.36-.28,0-.65,0-2.18c0-1,0-1.41,0-1.89a7.68,7.68,0,0,1,1,.51h3.34c.38-.4.44-.45.51-.45s.15.05.57.38c.2.18.23.24.23.32s0,.16-.35.37v.71c0,1.31,0,1.84,0,2s-.16.36-.51.36-.37-.07-.37-.28v-.38Zm-.58-6c0,.42,0,.83-.09,1.24h4v-1.24Zm4-1.6H38.56v1.22h3.95Zm-3.69-1.95a3.81,3.81,0,0,0,.94.1h1.38c.44-.56.51-.6.6-.6s.17,0,.66.48c.21.18.27.27.27.35s0,.15-.19.15H39.76a3.12,3.12,0,0,0-.79.09Zm3.87,7H39.13v2.24h3.56ZM45.91,359c0,3.42.06,4.74.06,5.11s-.18.44-.58.44-.38-.12-.38-.36.06-1.36.06-4.5a34.34,34.34,0,0,0-.09-3.93c1.22.13,1.43.21,1.43.41s-.08.19-.5.37Zm2.79,1.58c0,4.14.06,5.78.06,6.16a1,1,0,0,1-.52,1,1.51,1.51,0,0,1-.75.21c-.15,0-.18,0-.21-.24-.08-.39-.33-.59-1.56-.87-.09,0-.08-.24,0-.23a16.9,16.9,0,0,0,1.83.16c.18,0,.26-.09.26-.29v-8.64a23.5,23.5,0,0,0-.09-3.16c1.3.15,1.45.21,1.45.38s-.07.23-.48.41Z"/><path class="cls-2" d="M56.31,362.33c0,3.6,0,4.89,0,5.27s-.19.46-.57.46-.42-.1-.42-.37,0-1.29.08-5.32c0-.92,0-1.85,0-2.76a15.31,15.31,0,0,1-2,2.13c-.06.05-.22-.1-.16-.16a17.47,17.47,0,0,0,3.28-5.91,6.89,6.89,0,0,0,.29-1.24c1,.27,1.47.5,1.47.66s-.17.24-.6.3A18.13,18.13,0,0,1,55.84,359c.78.14.93.21.93.36s-.06.2-.46.36Zm8.62-5.17c.65-.75.72-.79.8-.79s.18,0,.84.58c.31.27.36.34.36.43s-.05.16-.2.16h-4.8v2.53h2.69c.57-.67.66-.72.73-.72s.18,0,.78.54c.29.23.33.33.33.42s-.06.14-.19.14H61.93v2.76h2.73c.59-.68.66-.72.74-.72s.18,0,.78.55c.27.22.33.31.33.39s-.05.15-.2.15H61.93c0,2.26,0,3.59,0,4s-.18.47-.62.47-.43-.12-.43-.39.07-1.23.07-3.78v-6.34h-.79a13.09,13.09,0,0,1-2.85,3.73c-.06.06-.24-.07-.18-.15A16.49,16.49,0,0,0,60,355.51a7.88,7.88,0,0,0,.23-1.09c1,.28,1.47.48,1.47.64s-.18.26-.6.32c-.23.62-.47,1.23-.72,1.78Z"/><path class="cls-2" d="M75.42,358.55a5.53,5.53,0,0,1-.29,1.48A14.87,14.87,0,0,1,73,364a2.24,2.24,0,0,1-1.48,1,1.54,1.54,0,0,1-1.2-.78,3.63,3.63,0,0,1-.53-2,5.05,5.05,0,0,1,1.64-3.72,6.19,6.19,0,0,1,4.35-1.62c3,0,5.13,2,5.13,4.67,0,3.16-3.29,4.73-6.36,4.89-.17,0-.26-.07-.26-.16s0-.19.26-.24c2.5-.44,5.37-1.82,5.37-4.74a3.85,3.85,0,0,0-4-3.88,5.47,5.47,0,0,0-.81,0A2.07,2.07,0,0,1,75.42,358.55Zm-3.77.47a4.19,4.19,0,0,0-1.21,3,3,3,0,0,0,.36,1.51.9.9,0,0,0,.7.51c.27,0,.59-.25,1-.87a13.72,13.72,0,0,0,2.07-3.93,2.9,2.9,0,0,0,.21-1.08.91.91,0,0,0-.18-.63A5.21,5.21,0,0,0,71.65,359Z"/><path class="cls-2" d="M90.45,364.24a5.87,5.87,0,0,0,2.88,1.92,13.7,13.7,0,0,0,3.75.6c.07,0,.07.13,0,.15a.87.87,0,0,0-.74.72.21.21,0,0,1-.24.18,4.44,4.44,0,0,1-.66-.1,12.88,12.88,0,0,1-2.67-.95,6.71,6.71,0,0,1-2.65-2.45c-.89,2.07-3,3.24-6.56,3.59-.09,0-.13-.19,0-.21,2.79-.59,4.72-1.64,5.55-3.26l.09-.19H85a5.45,5.45,0,0,0-1.12.09l-.14-.55a8,8,0,0,0,1.26.09h4.31a4.41,4.41,0,0,0,.21-1.15c1,.1,1.42.21,1.42.4s-.12.23-.54.38l-.1.37h4.84c.59-.7.68-.74.75-.74s.17,0,.83.57c.28.24.33.31.33.4s0,.14-.2.14Zm-1.77-7.95c.22-.51.37-.87.51-1.29a4.88,4.88,0,0,0,.16-.66c1,.23,1.4.41,1.4.56s-.15.22-.6.28a9.87,9.87,0,0,1-1,1.11h5c.42-.48.48-.51.56-.51s.16.05.61.43c.23.2.27.29.27.37s-.06.17-.4.4v1.79c0,2.64.06,3.77.06,4.09s-.18.42-.59.42-.39,0-.39-.33v-6.28h-8V363c0,.31-.18.42-.57.42s-.39-.09-.39-.35c0-.52.06-1.59.06-4.61a25.84,25.84,0,0,0-.07-2.72,7.36,7.36,0,0,1,1.12.57Zm1.09,2A7.57,7.57,0,0,0,89.7,357c1.17.15,1.29.21,1.29.35s-.06.19-.45.36v1.84h1.78c.48-.57.54-.65.63-.65s.18.08.71.52c.22.18.27.28.27.35s-.06.16-.21.16H90.54v.42c1.77.4,2.79,1.06,2.79,1.69,0,.26-.14.39-.35.39s-.21-.06-.54-.42a6.66,6.66,0,0,0-1.9-1.44c0,1,0,1.37,0,1.5s-.17.37-.48.37-.35-.1-.35-.3,0-.69.09-1.65a8.13,8.13,0,0,1-3.07,2.2c-.09,0-.15-.09-.08-.16a8.48,8.48,0,0,0,2.66-2.6H87.85a4.27,4.27,0,0,0-1,.09l-.15-.58a5.35,5.35,0,0,0,1.11.11h1.93Zm-2.4-1c.9.35,1.46.86,1.46,1.34a.47.47,0,0,1-.48.53c-.18,0-.24-.09-.35-.5a2.37,2.37,0,0,0-.73-1.26C87.21,357.34,87.3,357.27,87.37,357.29Zm3.89,1.88a8.74,8.74,0,0,0,.72-1.25,4.09,4.09,0,0,0,.31-.75c.74.32,1.07.52,1.07.63s-.11.2-.54.22a11.47,11.47,0,0,1-1.41,1.28C91.33,359.37,91.21,359.25,91.26,359.17Z"/><path class="cls-2" d="M107,355.38a6,6,0,0,0-.08-1c1.32.15,1.52.25,1.52.42s-.09.23-.53.42v1h3.93c.62-.72.68-.77.77-.77s.18,0,.84.6c.31.25.36.33.36.41s-.06.13-.21.13H102.7v1.11a27.57,27.57,0,0,1-.45,5.91,9.87,9.87,0,0,1-2,4.26c0,.07-.25,0-.21-.09a12.85,12.85,0,0,0,1.41-4.48,39.66,39.66,0,0,0,.27-5.58,15.7,15.7,0,0,0-.1-2.12,11.59,11.59,0,0,1,1.21.62H107Zm-2.63,5.23a19.39,19.39,0,0,0-.09-2.48,8.66,8.66,0,0,1,1.17.62,21.21,21.21,0,0,0,4.14-1.05,5.16,5.16,0,0,0,1.22-.58c.9.75,1,.85,1,1s-.24.21-.78,0a21.15,21.15,0,0,1-2.46.57c.78,0,.91.12.93.26s-.09.16-.39.28a15.78,15.78,0,0,0,.19,1.91l2.57-.05c.57-.72.61-.73.7-.73s.14,0,.8.54c.3.22.33.31.33.4s-.08.14-.2.14l-4.12.07a7.2,7.2,0,0,0,.7,1.95,6.68,6.68,0,0,0,2.06,2.2c.33.25.45.29.58.29s.32-.42.75-1.7a.08.08,0,0,1,.15,0c-.07.74-.15,1.4-.15,1.58a.47.47,0,0,0,.14.4.52.52,0,0,1,.18.41.48.48,0,0,1-.51.49,2.13,2.13,0,0,1-1-.3,6.88,6.88,0,0,1-2.9-2.87,9.19,9.19,0,0,1-.88-2.46l-3.23.05V365a28.07,28.07,0,0,0,3.71-.91c.09,0,.15.16.07.2a23.2,23.2,0,0,1-5.25,1.86c-.12.43-.19.54-.31.54s-.21-.09-.53-1.43a9.59,9.59,0,0,0,1.13-.09l.31,0Zm-.06,6.51a6.4,6.4,0,0,0,1.13.1h3.85c.59-.67.66-.73.75-.73s.2.06.8.57c.27.24.31.3.31.39s-.06.15-.21.15H105.4a5,5,0,0,0-1,.09Zm4.1-6q-.09-.56-.15-1.23a10,10,0,0,0-.15-1.15c-.92.14-1.88.25-2.87.33v2.11Z"/><path class="cls-2" d="M115.84,364.51a5.94,5.94,0,0,1,2.46,1.12,2.2,2.2,0,0,1,1,1.59.68.68,0,0,1-.64.75c-.3,0-.51-.13-.69-.54a5.46,5.46,0,0,0-2.31-2.6.2.2,0,0,1-.12-.2C115.53,364.53,115.69,364.48,115.84,364.51Z"/><path class="cls-2" d="M127.8,358.29c1.44.52,2,1.17,2,1.72a.45.45,0,0,1-.42.51c-.17,0-.33-.1-.47-.44a3.56,3.56,0,0,0-1.15-1.51v4.18c0,.28-.18.41-.59.41s-.34-.09-.34-.32.06-2.2.12-4a9.88,9.88,0,0,1-2.88,3.16c-.08,0-.21-.09-.15-.16a12.19,12.19,0,0,0,2.82-4.39h-1.47a3.91,3.91,0,0,0-.92.09l-.15-.55a5.63,5.63,0,0,0,1,.09h1.66v-.35a15.65,15.65,0,0,0-.07-2.27c1.15.14,1.41.2,1.41.35s-.06.23-.48.4v1.87h1c.47-.56.56-.63.63-.63s.23.07.75.51c.23.17.27.27.27.34s0,.15-.19.15H127.8Zm-1.31,5.88a3.34,3.34,0,0,1,0,.43c0,1.41-.7,2.49-1.47,2.49a.51.51,0,0,1-.52-.53c0-.25.13-.43.48-.58a2.26,2.26,0,0,0,1.29-1.83C126.31,364.06,126.48,364.08,126.49,364.17Zm2.43,1.9c0,.64.11.73,1.88.73,1.57,0,2,0,2.35-.19s.44-.44.8-1.61c0-.08.18-.05.18,0,0,.47,0,.8,0,1.08s0,.33.27.4.2.18.2.35-.3.47-.72.58a15.77,15.77,0,0,1-3.35.19c-2,0-2.53-.25-2.53-1.42,0-.18,0-.45,0-1.13s0-1-.06-1.47c1.29.14,1.47.23,1.47.39s-.06.2-.5.4Zm1.4-2.57c1.23.28,2,.92,2,1.58a.46.46,0,0,1-.47.51c-.18,0-.36-.08-.51-.45a2.93,2.93,0,0,0-1.17-1.48C130.14,363.59,130.23,363.49,130.32,363.5Zm1.33-1v.18c0,.27-.19.35-.55.35s-.38-.07-.38-.29.06-1.47.06-4.41a29.62,29.62,0,0,0-.09-3.43,5.81,5.81,0,0,1,1.07.51h3.54c.4-.44.46-.47.55-.47s.15,0,.57.38c.21.17.24.27.24.34s0,.16-.37.41v2.11c0,3.06.06,4.23.06,4.56s-.23.39-.59.39-.36-.07-.36-.3v-.33Zm3.75-6.72h-3.75v1.82h3.75Zm0,2.19h-3.75v1.81h3.75Zm0,2.19h-3.75v2h3.75Zm-.42,4c1.44.48,2.28,1.39,2.28,2.19,0,.37-.21.62-.51.62s-.36-.14-.55-.67a4.91,4.91,0,0,0-1.34-2C134.8,364.25,134.89,364.12,135,364.15Z"/><path class="cls-2" d="M142.47,365.35c-1.26-1.26-1.52-3.1-1.52-5.35,0-.42,0-.86,0-1.23a1.64,1.64,0,0,0-.66-1.44c-.09-.09-.14-.16-.14-.2s.09-.13.21-.13a1.73,1.73,0,0,1,.9.48,1.57,1.57,0,0,1,.71,1.09,1.75,1.75,0,0,1-.14.64,7.14,7.14,0,0,0-.16,1.78,5.84,5.84,0,0,0,.4,2.56c.26.54.54.81.74.81s.21-.07.3-.24c.46-.84.94-1.63,1.63-2.73a.29.29,0,0,1,.26-.17.17.17,0,0,1,.16.16.73.73,0,0,1-.09.26,17,17,0,0,0-1.18,2.56,1.69,1.69,0,0,0-.15.55.82.82,0,0,0,.06.34,1.19,1.19,0,0,1,.09.47.39.39,0,0,1-.44.39A1.88,1.88,0,0,1,142.47,365.35Zm6-6.69a5,5,0,0,1,3.22,4.16c0,.56-.19,1-.57,1a.48.48,0,0,1-.39-.19c-.21-.3-.49-.44-1.47-.56-.15,0-.19-.09-.19-.19s.07-.12.22-.14c.41,0,.72-.07,1.14-.13a.24.24,0,0,0,.23-.27,4.83,4.83,0,0,0-2.36-3.36.31.31,0,0,1-.15-.22C148.12,358.65,148.27,358.58,148.44,358.66Z"/><path class="cls-2" d="M158.1,361.18a.15.15,0,0,1,.16.14.39.39,0,0,1,0,.14c-.31,1.05-.58,2-.75,2.74a5.05,5.05,0,0,0-.19,1c0,.33,0,.65,0,.85s-.1.39-.33.39-.4-.12-.58-.54a8.21,8.21,0,0,1-.53-3,19.08,19.08,0,0,1,.72-4.48,4.93,4.93,0,0,0,.21-1.05,1.3,1.3,0,0,0-.46-1,.35.35,0,0,1-.12-.22.14.14,0,0,1,.13-.14c.35,0,.8.48,1,.8a1.59,1.59,0,0,1,.37,1,.84.84,0,0,1-.21.56,1.6,1.6,0,0,0-.28.52,12.53,12.53,0,0,0-.77,4,6.71,6.71,0,0,0,.09,1.17c0,.14.08.21.12.21s.11-.05.14-.13c.33-.94.66-1.9,1-2.89C158,361.22,158,361.18,158.1,361.18Zm2,.6a4.35,4.35,0,0,0-.12,1,1.72,1.72,0,0,0,.72,1.52,4.17,4.17,0,0,0,2.29.51,7.41,7.41,0,0,0,1.76-.18,2.2,2.2,0,0,1,.6-.07c.49,0,.9.14.9.49s-.09.35-.39.44a10.4,10.4,0,0,1-2.13.19,5.84,5.84,0,0,1-3.36-.78,2.22,2.22,0,0,1-.84-1.86,3.42,3.42,0,0,1,.28-1.3c.05-.09.09-.13.17-.13S160.12,361.67,160.11,361.78Zm2.22-3.72a8.5,8.5,0,0,0-2.21.69.48.48,0,0,1-.18.06.14.14,0,0,1-.16-.15c0-.11.06-.18.18-.25a8,8,0,0,1,4.21-1.1c1,0,1.2.24,1.2.57s-.15.41-.46.41-.63-.05-1-.05a1.89,1.89,0,0,0-.93.24,5.48,5.48,0,0,0-1.38,1.1c-.08.07-.14.12-.2.12s-.16-.05-.16-.12a.32.32,0,0,1,.09-.21,12.9,12.9,0,0,1,1.09-1.2C162.45,358.09,162.43,358,162.33,358.06Z"/><path class="cls-2" d="M170.71,363.61a7.65,7.65,0,0,1-.21,1.17,7.45,7.45,0,0,1-1.69,3.18c-.06.08-.23,0-.18-.11a8.72,8.72,0,0,0,1.21-3.28,24.32,24.32,0,0,0,.23-3.87c0-1.37,0-1.89,0-2.31a7.42,7.42,0,0,1-1.08,1c-.07.06-.21-.06-.15-.13a11.19,11.19,0,0,0,2.06-3.56,6.89,6.89,0,0,0,.36-1.38c1.09.27,1.29.36,1.29.51s-.12.19-.53.29l-.36.84h1.5c.35-.4.41-.44.48-.44s.17,0,.62.48c.18.18.21.26.21.33s-.11.19-.51.32a15.92,15.92,0,0,1-1.23,1.62h1.2c.37-.41.43-.44.51-.44s.16,0,.54.35c.21.16.22.25.22.33s0,.18-.36.37v2.63c0,4.42,0,4.82,0,5.24a.93.93,0,0,1-.39.83,1.51,1.51,0,0,1-.75.21c-.09,0-.12,0-.15-.23s-.19-.45-1.24-.7c-.09,0-.08-.18,0-.18.8.06,1.11.07,1.44.07.18,0,.26-.07.26-.25v-2.91Zm.74-7.26a11.6,11.6,0,0,1-1,1.59,5.84,5.84,0,0,1,.57.35h1.35a12.1,12.1,0,0,0,.78-1.94Zm.58,6.89V361h-1.15c0,.74,0,1.46-.12,2.2Zm-1.15-4.58v2H172v-2Zm3.15,0h-1.25v2H174Zm0,2.38h-1.25v2.2H174Zm4.42,1.34h-1.56V363c0,.27-.19.34-.52.34s-.36-.05-.36-.28.06-1,.06-3.05a21.85,21.85,0,0,0-.09-2.5,7.46,7.46,0,0,1,1,.51h1.45v-.38a23.67,23.67,0,0,0-.09-3c1.26.11,1.43.22,1.43.39s-.08.21-.5.37V358h1.58c.36-.42.42-.45.49-.45s.18,0,.57.36c.21.18.26.25.26.33s0,.15-.39.39v1.23c0,2,.06,2.84.06,3.06s-.17.36-.51.36-.39-.06-.39-.27v-.6h-1.67v3.72c.68-.12,1.34-.24,2-.39a7.33,7.33,0,0,0-.89-1.74.09.09,0,0,1,.15-.1,4.45,4.45,0,0,1,1.95,3.07c0,.4-.21.68-.48.68s-.37-.16-.43-.7a5.78,5.78,0,0,0-.2-.91,36.65,36.65,0,0,1-5.07,1.35c-.07.4-.15.49-.28.49s-.24-.18-.56-1.38a6.83,6.83,0,0,0,.89,0c.7-.07,1.39-.12,2.08-.23Zm0-4h-1.56V362h1.56ZM181,362v-3.66h-1.67V362Z"/><path class="cls-2" d="M188.35,361.11a28.36,28.36,0,0,1,2.57-2.46,3.7,3.7,0,0,1,2-1.07,1.45,1.45,0,0,1,1.43,1.5,20.79,20.79,0,0,1-.27,2.43,22.6,22.6,0,0,0-.26,2.87c0,.79.26,1,.84,1a3.94,3.94,0,0,0,2.85-2.14c.08-.13.12-.21.21-.21a.21.21,0,0,1,.21.18.34.34,0,0,1,0,.16,5.25,5.25,0,0,1-1.4,2,2.67,2.67,0,0,1-1.8.78,1.45,1.45,0,0,1-1.63-1.66,30.64,30.64,0,0,1,.19-3.07,21.1,21.1,0,0,0,.18-2.29c0-.68-.19-1-.58-1a3.63,3.63,0,0,0-1.83,1,24.51,24.51,0,0,0-2.69,2.73c0,1.26,0,2.53.06,3.27,0,.41.08.69.08,1.09,0,.62-.17,1.07-.53,1.07-.13,0-.25-.14-.3-.32a2.44,2.44,0,0,0-.42-.94,9.26,9.26,0,0,0-1.18-1.44l-.6.78a.44.44,0,0,1-.38.21c-.24,0-.34-.18-.34-.39a.74.74,0,0,1,.28-.6l.6-.66a18.35,18.35,0,0,0,2.15-3.19c0-.29,0-.77.06-1.1-.53.26-.84.4-1.11.57a1.2,1.2,0,0,0-.3.2.52.52,0,0,1-.36.12,1,1,0,0,1-.62-.42,1.26,1.26,0,0,1-.36-.82c0-.22.09-.26.15-.26s.11.07.17.16c.22.36.46.51.66.51a1.41,1.41,0,0,0,.49-.12,12.4,12.4,0,0,0,1.31-.58c0-.86,0-2,0-2.43a.9.9,0,0,0-.73-1,.2.2,0,0,1-.18-.21c0-.1.1-.19.42-.19a2,2,0,0,1,1.12.46c.24.18.51.46.51.67a.36.36,0,0,1-.15.32.83.83,0,0,0-.24.54c0,.27-.1.85-.13,1.62a.71.71,0,0,1,.24,0,.47.47,0,0,1,.3.16.43.43,0,0,1,.13.27.46.46,0,0,1-.15.27,7.21,7.21,0,0,0-.63,1.12Zm-.76,4.47c.06,0,.13,0,.13-.05,0-1,0-2.36,0-3.28-.51.71-1,1.41-1.5,2.09C186.66,364.78,187.11,365.17,187.59,365.58Z"/><path class="cls-2" d="M210,365.71a1,1,0,0,1,.53.66.47.47,0,0,1-.51.51,1.18,1.18,0,0,1-.56-.29,10.89,10.89,0,0,0-3.13-1.74c0,1.15-.56,2.12-2.54,2.12-1.29,0-2.32-.52-2.32-1.55s1.29-1.6,2.76-1.6a7.59,7.59,0,0,1,1.27.12c-.15-2.44-.19-4.32-.24-6.61,0-.68-.06-.89-.22-1a1.12,1.12,0,0,0-.83-.33c-.15,0-.19,0-.19-.12s.45-.4.72-.4a2.39,2.39,0,0,1,1.14.34c.36.21.54.38.54.57a.58.58,0,0,1-.14.39,1,1,0,0,0-.18.53c0,.67,0,1.11,0,1.28s0,.2.3.2a3.89,3.89,0,0,0,.94-.21,3.93,3.93,0,0,0,1-.42,1.2,1.2,0,0,1,.79-.27c.42,0,.69.14.69.4s-.12.35-.36.44-.84.27-1.27.4a9.91,9.91,0,0,1-1.38.28,1.19,1.19,0,0,1-.71-.2c0,1.54.09,3.42.27,4.91A14.51,14.51,0,0,1,210,365.71Zm-6.1-1.26c-.89,0-2,.34-2,1s.78.91,1.68.91a2,2,0,0,0,1.47-.47,1.45,1.45,0,0,0,.41-1.2A6.81,6.81,0,0,0,203.91,364.45Z"/><path class="cls-2" d="M221.5,359.35a3.6,3.6,0,0,0-2,.94c-.2.18-.44.37-.56.51s-.3.32-.54.32a.79.79,0,0,1-.54-.32,2,2,0,0,1-.48-1.1c0-.29.14-.49.27-.49s.11.08.12.17c.08.32.27.63.44.63a1.36,1.36,0,0,0,.75-.24,5.15,5.15,0,0,1,2.61-.93c1.69,0,2.43,1.5,2.43,2.91,0,2.8-1.89,4.81-4.49,5.71a1.25,1.25,0,0,1-.31.08.2.2,0,0,1-.2-.15c0-.12.09-.2.27-.29a6.06,6.06,0,0,0,3.8-5.44C223.08,360.58,222.72,359.35,221.5,359.35ZM219,355.3a.43.43,0,0,1-.05-.15A.13.13,0,0,1,219,355a.27.27,0,0,1,.18.07,2.88,2.88,0,0,0,2,.75,3,3,0,0,1,1.28.18.51.51,0,0,1,.33.44c0,.27-.18.4-.48.4a3.68,3.68,0,0,0-1.49.17,11.7,11.7,0,0,0-1.41.66c-.19.09-.33,0-.33-.12s.05-.12.14-.19c.37-.22.88-.53,1.42-.88A2.81,2.81,0,0,1,219,355.3Z"/><path class="cls-2" d="M233.14,366a1.94,1.94,0,1,1-1.93-1.93A1.95,1.95,0,0,1,233.14,366Zm-3.37,0a1.43,1.43,0,1,0,1.44-1.42A1.43,1.43,0,0,0,229.77,366Z"/></g></g></svg>
