<svg xmlns="http://www.w3.org/2000/svg" viewBox="0 0 317 59.51"><defs><style>.cls-1{fill:#fff;}</style></defs><g id="レイヤー_2" data-name="レイヤー 2"><g id="レイヤー_4" data-name="レイヤー 4"><path class="cls-1" d="M5.55,5.07H8.91c.55-.62.61-.66.68-.66s.15,0,.7.48c.28.22.3.3.3.37s0,.11-.16.11H5.55V7.46c0,2.3,0,3,0,3.26s-.17.39-.53.39-.34-.1-.34-.32,0-1,0-3.25V5.37H1a4.91,4.91,0,0,0-.86.06L0,5a5.55,5.55,0,0,0,1,.08H4.77V2.27a32.79,32.79,0,0,1-3.86.46c-.07,0-.09-.16,0-.18A23.58,23.58,0,0,0,6.61,1.09,7.28,7.28,0,0,0,7.93.41c.55.39.87.69.87.81s-.2.2-.62.08a22.94,22.94,0,0,1-2.63.8Z"/><path class="cls-1" d="M16.71,7.84a5.22,5.22,0,0,0-.06-1c1,.09,1.14.15,1.14.28s0,.14-.36.28v.46H20.9c.44-.51.52-.56.59-.56s.15,0,.67.46c.22.16.25.22.25.3s0,.1-.16.1H17.57a7,7,0,0,0,1.91,1.24,9.79,9.79,0,0,0,3.15.73c.06,0,.06.08,0,.11-.27.08-.39.2-.53.54-.05.12-.11.14-.18.14a1.93,1.93,0,0,1-.48-.08,8,8,0,0,1-2.3-1A7.34,7.34,0,0,1,17.4,8.31c0,.52,0,1,0,1.46s.05,1.07.05,1.19-.15.35-.49.35-.32-.08-.32-.29,0-.54,0-1,0-.9.05-1.41A9.88,9.88,0,0,1,11.9,11c-.07,0-.14-.15-.07-.17a11.21,11.21,0,0,0,4.39-2.68H13a4.92,4.92,0,0,0-.81.08l-.11-.45a4.81,4.81,0,0,0,.92.07ZM21.06,1.4c.45-.54.52-.58.6-.58s.16,0,.65.45c.26.21.28.27.28.32s0,.11-.16.11H19c0,.33,0,.49,0,.57s-.13.31-.43.31-.33-.07-.33-.27c0,0,0-.21,0-.61H15.91c0,.31,0,.48,0,.54,0,.23-.14.33-.46.33s-.3-.09-.3-.28,0-.2,0-.59H12.84a5.63,5.63,0,0,0-.78.07L12,1.32a4.74,4.74,0,0,0,.89.08h2.35A6.54,6.54,0,0,0,15.13.25c1,.11,1.18.16,1.18.3s0,.16-.4.27V1.4h2.35A5.57,5.57,0,0,0,18.19.25c1,.12,1.19.17,1.19.31s-.05.15-.4.27V1.4Zm-.95,2.53c0,.93,0,1.29,0,1.4s-.14.29-.42.29-.3,0-.3-.24V5.26H17.34v.09c0,.22-.15.3-.42.3s-.3-.07-.3-.25,0-.46,0-1.41V3.93h-2V6.27h5.8c.42-.49.49-.55.57-.55s.14.06.62.43c.21.17.25.24.25.31s-.05.11-.17.11H14.69v.21c0,.25-.14.31-.45.31s-.3,0-.3-.25,0-.74,0-2.16V3.93H12.86a4.9,4.9,0,0,0-.78.08L12,3.55a4.84,4.84,0,0,0,.9.08H14c0-.55,0-.78-.05-1.08,1,.11,1.08.17,1.08.3s0,.14-.32.26v.52h2a10.17,10.17,0,0,0-.05-1.06c.93.09,1.07.15,1.07.28s-.05.16-.32.28v.5h2.07c0-.46,0-.68,0-1.06.9.08,1.05.14,1.05.28s-.05.16-.32.28v.5h1.08c.4-.5.49-.56.56-.56s.17.06.63.44c.2.18.25.23.25.3s-.05.12-.16.12Zm-2.77,0V5h2.07v-1Z"/><path class="cls-1" d="M29.52,4.05a8.65,8.65,0,0,0,2.12,4.08,8.24,8.24,0,0,0,3,2c.06,0,0,.1,0,.12a.73.73,0,0,0-.52.53c0,.12-.1.17-.17.17a1.89,1.89,0,0,1-.58-.3A9.16,9.16,0,0,1,31,8.38,9.78,9.78,0,0,1,29.29,4.2a7.77,7.77,0,0,1-1.42,3.93A8.17,8.17,0,0,1,24,11c-.07,0-.14-.14-.08-.17a8.45,8.45,0,0,0,3.67-3.48,8.73,8.73,0,0,0,1-3.29H25.06a6.09,6.09,0,0,0-.95.08L24,3.68a7.86,7.86,0,0,0,1.06.07h3.5c.07-.72.11-1.54.11-2.5a7.07,7.07,0,0,0-.05-.76c1.11.18,1.26.24,1.26.39s-.05.16-.41.31c0,.42,0,.84,0,1.22s0,.92-.09,1.34h3.5c.55-.64.65-.73.72-.73s.18.09.74.55c.27.22.3.3.3.38s0,.1-.15.1Z"/><path class="cls-1" d="M40.91,7a6,6,0,0,0,0-1.08c.41.07.67.1.84.14a8.68,8.68,0,0,0,1.39-1.39H39.15a3.43,3.43,0,0,0-.87.08l-.13-.47a5.18,5.18,0,0,0,1,.09h4c.36-.34.44-.38.5-.38s.12,0,.52.4c.18.17.21.24.21.3s-.11.15-.51.2A10,10,0,0,1,42,6.17s0,0,0,.08,0,.17-.36.29V7H45c.53-.6.58-.64.65-.64s.14,0,.69.49c.27.21.29.27.29.35s-.05.1-.17.1H41.64v.81c0,1.47,0,1.76,0,2.1a.85.85,0,0,1-.38.74,1.15,1.15,0,0,1-.67.23c-.15,0-.18,0-.22-.23s-.25-.46-1.35-.68c-.08,0-.08-.17,0-.16.87.08,1.3.12,1.63.12.15,0,.23-.06.23-.22V7.3h-4a3.65,3.65,0,0,0-.79.08L36,6.93a4.73,4.73,0,0,0,.9.07ZM43,2.79a11.21,11.21,0,0,0,.83-1.41,7.13,7.13,0,0,0,.36-.91c.86.38,1,.5,1,.61s-.09.19-.48.19a10.42,10.42,0,0,1-1.38,1.52h1.93c.37-.38.42-.42.49-.42s.13,0,.56.45c.23.21.27.3.27.37s-.11.2-.4.2-.25,0-.33.14a6.71,6.71,0,0,1-.88.82.07.07,0,0,1-.11-.08,5.84,5.84,0,0,0,.45-1.18H37.43c0,1-.47,1.64-1,1.64A.42.42,0,0,1,36,4.29c0-.16.08-.32.36-.48a1.75,1.75,0,0,0,.84-1.52.07.07,0,0,1,.14,0,5,5,0,0,1,0,.5ZM38.06.61c.82.33,1.38.94,1.38,1.44a.44.44,0,0,1-.41.47c-.2,0-.28-.1-.38-.49A3.37,3.37,0,0,0,38,.72C37.93.66,38,.59,38.06.61ZM40.53.38c.83.36,1.39,1,1.39,1.5,0,.33-.17.52-.42.52s-.29-.1-.37-.47A3.45,3.45,0,0,0,40.44.49S40.47.35,40.53.38Z"/><path class="cls-1" d="M52.77,2.21H50a5.82,5.82,0,0,0-1,.07l-.12-.45A5.84,5.84,0,0,0,50,1.91h6.11c.58-.67.64-.71.7-.71s.14,0,.73.51c.3.25.32.32.32.38s0,.12-.16.12H53.55V9.47H56.8c.6-.68.68-.72.74-.72s.13,0,.74.53c.31.25.33.31.33.38s0,.11-.15.11H49.12a5.42,5.42,0,0,0-1,.09L48,9.4a7.19,7.19,0,0,0,1.11.07h3.67Z"/><path class="cls-1" d="M64.91,7a6,6,0,0,0,0-1.08c.41.07.67.1.84.14a8.68,8.68,0,0,0,1.39-1.39H63.15a3.43,3.43,0,0,0-.87.08l-.13-.47a5.18,5.18,0,0,0,1,.09h4c.36-.34.44-.38.5-.38s.12,0,.52.4c.18.17.21.24.21.3s-.11.15-.51.2A10,10,0,0,1,66,6.17s0,0,0,.08,0,.17-.36.29V7H69c.53-.6.58-.64.65-.64s.14,0,.69.49c.27.21.29.27.29.35s0,.1-.17.1H65.64v.81c0,1.47,0,1.76,0,2.1a.85.85,0,0,1-.38.74,1.15,1.15,0,0,1-.67.23c-.15,0-.18,0-.22-.23s-.25-.46-1.35-.68c-.08,0-.08-.17,0-.16.87.08,1.3.12,1.63.12.15,0,.23-.06.23-.22V7.3h-4a3.65,3.65,0,0,0-.79.08L60,6.93a4.73,4.73,0,0,0,.9.07ZM67,2.79a11.21,11.21,0,0,0,.83-1.41,7.13,7.13,0,0,0,.36-.91c.86.38,1,.5,1,.61s-.09.19-.48.19a10.42,10.42,0,0,1-1.38,1.52h1.93c.37-.38.42-.42.49-.42s.13,0,.56.45c.23.21.27.3.27.37s-.11.2-.4.2-.25,0-.33.14a6.71,6.71,0,0,1-.88.82.07.07,0,0,1-.11-.08,5.84,5.84,0,0,0,.45-1.18H61.43c0,1-.47,1.64-1,1.64A.42.42,0,0,1,60,4.29c0-.16.08-.32.36-.48a1.75,1.75,0,0,0,.84-1.52.07.07,0,0,1,.14,0,5,5,0,0,1,0,.5ZM62.06.61c.82.33,1.38.94,1.38,1.44a.44.44,0,0,1-.41.47c-.2,0-.28-.1-.38-.49A3.37,3.37,0,0,0,62,.72C61.93.66,62,.59,62.06.61ZM64.53.38c.83.36,1.39,1,1.39,1.5,0,.33-.17.52-.42.52s-.29-.1-.37-.47A3.45,3.45,0,0,0,64.44.49S64.47.35,64.53.38Z"/><path class="cls-1" d="M75.42,5.15a13.47,13.47,0,0,0,.73-1.73,3.82,3.82,0,0,0,.2-.81c.9.29,1.07.4,1.07.52s-.08.16-.45.19a13.22,13.22,0,0,1-1.24,1.83H77c.44-.54.5-.59.57-.59s.15.05.61.45c.23.21.27.27.27.33s0,.1-.17.1H72.76a4.71,4.71,0,0,0-.8.08l-.12-.46a4.34,4.34,0,0,0,.92.09Zm-.72-4a5.63,5.63,0,0,0,0-.8c1,.11,1.16.18,1.16.31s-.06.17-.39.32V2h1.46c.42-.51.49-.54.55-.54s.14,0,.63.44c.2.17.24.23.24.29s0,.1-.17.1H73a3.88,3.88,0,0,0-.73.08l-.14-.46A3.84,3.84,0,0,0,73,2H74.7Zm-1.08,8.89v.59c0,.23-.13.3-.42.3s-.32-.07-.32-.26,0-.65,0-2.1c0-1.12,0-1.62-.06-2.28a5.84,5.84,0,0,1,.87.43h2.68c.34-.37.38-.41.44-.41s.14,0,.48.33c.16.14.21.2.21.26s-.05.14-.31.34v.9c0,1.53,0,2.15,0,2.32s-.17.31-.46.31-.3-.07-.3-.25v-.48Zm-.38-7.37a2.09,2.09,0,0,1,1.21,1.57c0,.36-.16.54-.45.54s-.27-.12-.31-.46a3.51,3.51,0,0,0-.56-1.57C73.09,2.71,73.18,2.65,73.24,2.69ZM76.51,7H73.62V9.76h2.89Zm2.95.76c0,2.11,0,2.73,0,3s-.13.34-.43.34-.31-.1-.31-.28c0-1,0-3.23,0-5.68,0-3.31,0-4-.05-4.51a4.74,4.74,0,0,1,.87.44h2c.33-.36.39-.4.45-.4s.17.06.49.38.21.26.21.32-.1.15-.37.22A22.11,22.11,0,0,1,80.54,4.7a3.82,3.82,0,0,1,1.88,3.19A1.52,1.52,0,0,1,82.09,9a1.32,1.32,0,0,1-1,.44c-.14,0-.18,0-.2-.19s-.21-.42-1-.6c-.07,0-.06-.15,0-.15.6,0,1,.07,1.19.07a.48.48,0,0,0,.41-.16,1.34,1.34,0,0,0,.15-.8,3.73,3.73,0,0,0-1.45-2.83,21.86,21.86,0,0,0,1.3-3.38H79.46Z"/><path class="cls-1" d="M83.81,10.28A11.05,11.05,0,0,0,84.44,8a7,7,0,0,0,.11-1.1c.83.24,1,.3,1,.43s-.06.17-.33.22A8.23,8.23,0,0,1,84,10.35C83.93,10.41,83.78,10.35,83.81,10.28Zm2-4.38-1.26.22c-.09.24-.13.33-.24.33s-.17-.21-.34-1c.24,0,.36,0,.55,0H85A16.18,16.18,0,0,0,86.51,3a7.58,7.58,0,0,0,.42-1c.78.37,1,.48,1,.61s0,.17-.44.18a18.88,18.88,0,0,1-2.09,2.6c.67,0,1.34-.07,2-.12a3.29,3.29,0,0,0-.47-1s0-.12.1-.08a2.1,2.1,0,0,1,1.16,1.57c0,.27-.12.48-.35.48s-.27-.12-.32-.47c0-.11,0-.2-.06-.31l-1,.24V8.35c0,1.34,0,2.31,0,2.6s-.15.34-.45.34-.32-.09-.32-.28.06-1,.06-2.4Zm-.13-4.8a5.13,5.13,0,0,0,.19-.78c.82.32,1.05.42,1.05.56s-.07.16-.45.2a9.8,9.8,0,0,1-1.24,1.7,1.28,1.28,0,0,1,.52.89c0,.29-.16.43-.36.43S85.15,4,85,3.63a2.88,2.88,0,0,0-.88-1.29s0-.13.06-.11a3,3,0,0,1,.82.41A11.49,11.49,0,0,0,85.66,1.1ZM87,6.67A1.86,1.86,0,0,1,88,8c0,.33-.16.5-.39.5s-.27-.11-.3-.43a3.2,3.2,0,0,0-.38-1.36C86.84,6.69,86.94,6.63,87,6.67Zm1.64,1.25c.18,1.22-.26,2.27-.87,2.27a.37.37,0,0,1-.39-.38.51.51,0,0,1,.29-.46,1.74,1.74,0,0,0,.83-1.43A.07.07,0,0,1,88.64,7.92Zm-.89-3.61a9,9,0,0,0,1.62-2.74A4,4,0,0,0,89.65.49c.95.31,1.08.37,1.08.52s-.09.16-.44.23a7.49,7.49,0,0,1-2.42,3.2C87.81,4.49,87.71,4.35,87.75,4.31ZM89.05,6c-.08.3-.14.36-.24.36s-.17-.17-.34-1.08c.26,0,.39,0,.63,0a2.61,2.61,0,0,0,.4,0,17.58,17.58,0,0,0,.77-1.81,5.58,5.58,0,0,0,.29-1.09c.88.28,1,.35,1,.48s0,.16-.42.22A11.35,11.35,0,0,1,89.84,5.3c.91,0,1.84-.07,2.74-.2A4.16,4.16,0,0,0,91.78,4s0-.12.09-.09c1.11.53,1.75,1.35,1.75,1.81s-.14.53-.4.53-.24-.09-.32-.36-.13-.36-.2-.53A27.3,27.3,0,0,1,89.05,6ZM90.12,9.7c0,.45.12.54,1,.54s1.08-.08,1.21-.25a3.89,3.89,0,0,0,.47-1.2c0-.06.12,0,.12,0,0,.33,0,.72,0,.95s.06.23.17.26a.28.28,0,0,1,.21.3c0,.2-.21.35-.53.44a7.24,7.24,0,0,1-1.69.15c-1.42,0-1.7-.27-1.7-1,0-.19,0-.44,0-1.5a8.67,8.67,0,0,0,0-1.26c1,.12,1.11.16,1.11.3s-.05.16-.39.31Zm.39-3.32c1,.25,1.57.78,1.57,1.27,0,.28-.15.47-.36.47s-.27-.07-.37-.36a2.72,2.72,0,0,0-.91-1.26A.07.07,0,0,1,90.51,6.38Zm4.36-2.52c-.24.05-.32.13-.42.52,0,.08-.06.12-.11.12s-.16-.06-.33-.18A5.66,5.66,0,0,1,92.88,3a8.91,8.91,0,0,1-.95-2,.45.45,0,0,0-.12-.23c-.07-.05-.1-.09-.1-.13s.3-.17.41-.17.07,0,.07.1,0,.12,0,.16a.6.6,0,0,0,0,.22,5.44,5.44,0,0,0,1.07,1.61A5.53,5.53,0,0,0,94.9,3.72C95,3.74,94.94,3.85,94.87,3.86ZM93.26,7.74a2.43,2.43,0,0,1,1.5,1.79c0,.29-.16.53-.41.53S94,9.94,94,9.58a3.84,3.84,0,0,0-.81-1.75C93.12,7.77,93.2,7.7,93.26,7.74Z"/><path class="cls-1" d="M95.8,6.07c-.06,0-.15-.12-.09-.16a12.55,12.55,0,0,0,4.38-4.51,5.78,5.78,0,0,0,.52-1.15c1.17.34,1.23.37,1.23.5s-.12.14-.37.2A9.57,9.57,0,0,0,104,3.69a9.64,9.64,0,0,0,2.9,1.41c.06,0,0,.11,0,.12-.29,0-.42.14-.55.54,0,.13-.11.15-.17.15a.83.83,0,0,1-.39-.15,12.46,12.46,0,0,1-2.31-1.67,10.51,10.51,0,0,1-2.24-3A11.77,11.77,0,0,1,95.8,6.07Zm2.67,4.14v.54c0,.22-.15.31-.48.31s-.31-.07-.31-.27,0-.78,0-2.49c0-1.14,0-1.57,0-2.21.35.17.57.29.91.49h5c.35-.39.4-.41.46-.41s.12,0,.52.37c.2.15.21.21.21.27s0,.16-.34.33v1c0,1.7,0,2.36,0,2.55s-.18.33-.49.33-.32-.09-.32-.28v-.57Zm5.19-3.33H98.47v3h5.19ZM98.9,4.51a4.31,4.31,0,0,0,.87.07H102c.44-.51.49-.55.56-.55s.15,0,.64.42c.21.18.25.25.25.32s-.05.11-.16.11H99.75A3.35,3.35,0,0,0,99,5Z"/><path class="cls-1" d="M112.77,2.21H110a5.82,5.82,0,0,0-1,.07l-.12-.45a5.84,5.84,0,0,0,1.09.08h6.11c.58-.67.64-.71.7-.71s.14,0,.73.51c.3.25.32.32.32.38s0,.12-.16.12h-4.12V9.47h3.25c.6-.68.68-.72.74-.72s.13,0,.74.53c.31.25.33.31.33.38s0,.11-.15.11h-9.34a5.42,5.42,0,0,0-1,.09L108,9.4a7.19,7.19,0,0,0,1.11.07h3.67Z"/><path class="cls-1" d="M124.91,7a6,6,0,0,0,0-1.08c.41.07.67.1.84.14a8.68,8.68,0,0,0,1.39-1.39h-3.94a3.43,3.43,0,0,0-.87.08l-.13-.47a5.18,5.18,0,0,0,1,.09h4c.36-.34.44-.38.5-.38s.12,0,.52.4c.18.17.21.24.21.3s-.11.15-.51.2A10,10,0,0,1,126,6.17s0,0,0,.08,0,.17-.36.29V7H129c.53-.6.58-.64.65-.64s.14,0,.69.49c.27.21.29.27.29.35s0,.1-.17.1h-4.79v.81c0,1.47,0,1.76,0,2.1a.85.85,0,0,1-.38.74,1.15,1.15,0,0,1-.67.23c-.15,0-.18,0-.22-.23s-.25-.46-1.35-.68c-.08,0-.08-.17,0-.16.87.08,1.3.12,1.63.12.15,0,.23-.06.23-.22V7.3h-4a3.65,3.65,0,0,0-.79.08L120,6.93a4.73,4.73,0,0,0,.9.07ZM127,2.79a11.21,11.21,0,0,0,.83-1.41,7.13,7.13,0,0,0,.36-.91c.86.38,1,.5,1,.61s-.09.19-.48.19a10.42,10.42,0,0,1-1.38,1.52h1.93c.37-.38.42-.42.49-.42s.13,0,.56.45c.23.21.27.3.27.37s-.11.2-.4.2-.25,0-.33.14a6.71,6.71,0,0,1-.88.82.07.07,0,0,1-.11-.08,5.84,5.84,0,0,0,.45-1.18h-7.88c0,1-.47,1.64-1,1.64a.42.42,0,0,1-.43-.44c0-.16.08-.32.36-.48a1.75,1.75,0,0,0,.84-1.52.07.07,0,0,1,.14,0,5,5,0,0,1,.05.5ZM122.06.61c.82.33,1.38.94,1.38,1.44a.44.44,0,0,1-.41.47c-.2,0-.28-.1-.38-.49A3.37,3.37,0,0,0,122,.72C121.93.66,122,.59,122.06.61Zm2.47-.23c.83.36,1.39,1,1.39,1.5,0,.33-.17.52-.42.52s-.29-.1-.37-.47a3.45,3.45,0,0,0-.69-1.44S124.47.35,124.53.38Z"/><path class="cls-1" d="M134.72,4.83c1.14.35,1.87,1,1.87,1.54,0,.24-.16.44-.33.44s-.28-.08-.42-.39A2.9,2.9,0,0,0,134.72,5V7c0,2.54,0,3.55,0,3.85s-.15.35-.48.35-.28-.1-.28-.29.06-1.56.11-5.53a9.45,9.45,0,0,1-2.3,3.19c0,.05-.18,0-.13-.11A13.24,13.24,0,0,0,133.93,4h-1.21A4,4,0,0,0,132,4l-.12-.44a4.21,4.21,0,0,0,.85.08H134V1.73c-.55.09-1.17.17-1.9.23-.07,0-.11-.15,0-.16a13.69,13.69,0,0,0,3-1,3,3,0,0,0,.7-.43c.62.41.79.58.79.69s-.13.19-.58.09a9.7,9.7,0,0,1-1.32.43v2.1h.81c.4-.48.45-.51.52-.51s.15,0,.59.4c.19.16.23.22.23.29s-.05.12-.17.12h-2Zm6.78,2.05c.32-.66.42-.75.49-.75s.18.06.77.41c.23.13.26.19.26.26s-.05.08-.15.11L141,7.29c0,2.68.06,3.19.06,3.49s-.18.37-.5.37-.34-.1-.34-.31,0-1,0-3.4l-3.36.67a3.47,3.47,0,0,0-.75.22l-.21-.41a7.9,7.9,0,0,0,.9-.11l3.43-.67V4.65a39.14,39.14,0,0,0-.09-4.27c1,.11,1.24.18,1.24.33s0,.18-.42.32V7Zm-4.64-2.45c1.17.16,2,.79,2,1.36,0,.27-.15.46-.38.46s-.29-.08-.4-.3a3.18,3.18,0,0,0-1.29-1.39C136.73,4.52,136.79,4.41,136.86,4.43Zm.6-2.68c1.11.23,1.89.85,1.89,1.44,0,.26-.15.46-.37.46s-.31-.1-.47-.47a3,3,0,0,0-1.12-1.3C137.33,1.85,137.39,1.74,137.46,1.75Z"/><path class="cls-1" d="M146.69,5.23a1.85,1.85,0,0,0-.63.17.63.63,0,0,1-.3.08,1.16,1.16,0,0,1-.69-.36,1,1,0,0,1-.4-.6c0-.14.05-.2.1-.2a.19.19,0,0,1,.11,0,1.41,1.41,0,0,0,.81.39l.59,0c1-.11,1.82-.18,2.94-.28l2.7-.23a1.15,1.15,0,0,0,.51-.12.59.59,0,0,1,.33-.12,2,2,0,0,1,.8.25c.2.12.29.23.29.39s-.11.25-.28.25-.53,0-.86-.06h-1.25c-.58,0-1.26.05-1.81.08.32.19.54.4.54.54a.28.28,0,0,1-.07.19.68.68,0,0,0-.15.26,7.46,7.46,0,0,1-1.23,2.61,8.12,8.12,0,0,1-2.32,2.1.4.4,0,0,1-.22.07.14.14,0,0,1-.14-.14c0-.07,0-.11.12-.18a8.7,8.7,0,0,0,2-2.2,7.84,7.84,0,0,0,1-2.37,1.21,1.21,0,0,0,.05-.36.67.67,0,0,0-.21-.47C148.28,5,147.43,5.1,146.69,5.23Zm1.82-3.07c.52-.05,1.13-.12,1.64-.2a2.8,2.8,0,0,0,.67-.16,1.19,1.19,0,0,1,.44-.11,1,1,0,0,1,.52.12c.21.13.27.23.27.36s-.13.25-.36.28l-3.4.27a6.19,6.19,0,0,1-.76,0,1.1,1.1,0,0,1-.78-.27c-.27-.22-.43-.41-.43-.58s.06-.17.13-.17.08,0,.15.1a1.47,1.47,0,0,0,.91.36C147.84,2.21,148.32,2.17,148.51,2.16Zm4-1.41a3.2,3.2,0,0,1,.89.49,1.22,1.22,0,0,1,.51.77c0,.22-.11.35-.3.35s-.23-.09-.39-.39a3.3,3.3,0,0,0-.89-1,.17.17,0,0,1-.07-.12.13.13,0,0,1,.13-.14ZM153.57,0a3.13,3.13,0,0,1,.85.39,1.1,1.1,0,0,1,.54.77.3.3,0,0,1-.27.32c-.15,0-.23,0-.4-.32a3,3,0,0,0-1-1s-.05-.08-.05-.12a.12.12,0,0,1,.12-.12A.58.58,0,0,1,153.57,0Z"/><path class="cls-1" d="M162.45,4.35c0-.5,0-1,0-1.54s0-.71-.11-.82a1.33,1.33,0,0,0-.72-.32c-.07,0-.09,0-.09-.1s.05-.11.16-.17a.6.6,0,0,1,.32-.07,2.84,2.84,0,0,1,.84.21c.35.14.5.27.5.49a.35.35,0,0,1-.12.22.8.8,0,0,0-.12.5c0,.38,0,.91,0,1.56.29,0,.65,0,1.17-.1a1.6,1.6,0,0,0,.39-.08A.71.71,0,0,1,165,4a2.07,2.07,0,0,1,.89.26.37.37,0,0,1,.21.35c0,.17-.13.27-.36.27a5.46,5.46,0,0,1-.7-.07c-.44,0-1.18,0-2,0a6.27,6.27,0,0,1-1,3.57,5.73,5.73,0,0,1-3,2.1.88.88,0,0,1-.2,0,.14.14,0,0,1-.15-.12c0-.08,0-.12.16-.18A6.33,6.33,0,0,0,161.64,8a6,6,0,0,0,.8-3.19c-.72,0-1.55.1-2.36.2,0,.94,0,1.58,0,1.93s-.13.58-.31.58-.39-.25-.39-.56.06-1.16.07-1.87c-.3,0-.68.1-1.09.18a1.91,1.91,0,0,0-.49.15.53.53,0,0,1-.29.1c-.24,0-.44-.11-.79-.43s-.41-.42-.41-.61a.12.12,0,0,1,.12-.12.3.3,0,0,1,.18.09,1.27,1.27,0,0,0,.82.32c.23,0,.38,0,.61,0l1.36-.14V3.38c0-.25,0-.41-.14-.49a1.56,1.56,0,0,0-.61-.3c-.09,0-.17,0-.17-.11a.16.16,0,0,1,.11-.14.63.63,0,0,1,.34-.09,2.72,2.72,0,0,1,.9.28c.3.14.38.24.38.37a.37.37,0,0,1-.08.24,1,1,0,0,0-.11.48c0,.25,0,.63,0,.93C160.88,4.46,161.61,4.4,162.45,4.35Zm2-2.9a3,3,0,0,1,.89.48,1.24,1.24,0,0,1,.51.78c0,.22-.12.35-.3.35s-.24-.1-.39-.4a3.74,3.74,0,0,0-.89-1,.14.14,0,0,1-.07-.12.13.13,0,0,1,.13-.13ZM165.5.73a2.88,2.88,0,0,1,.85.4,1.1,1.1,0,0,1,.54.77.3.3,0,0,1-.28.32c-.14,0-.22-.05-.39-.32a2.91,2.91,0,0,0-1-1,.16.16,0,0,1-.05-.12.12.12,0,0,1,.12-.12Z"/><path class="cls-1" d="M169,7.83a.56.56,0,0,1-.28.1.16.16,0,0,1-.16-.16s.05-.13.18-.23A22.4,22.4,0,0,0,172,4.62a23.27,23.27,0,0,0,2-2.5.69.69,0,0,0,.14-.41c0-.1-.12-.21-.45-.39-.09-.06-.18-.1-.18-.17s.14-.17.37-.17a1.88,1.88,0,0,1,.89.39c.35.24.46.4.46.55s-.06.25-.27.35a1.4,1.4,0,0,0-.33.32c-.49.59-.79.94-1.26,1.48.47.51.51.69.51.85a.49.49,0,0,1,0,.21.68.68,0,0,0-.06.29c0,.64,0,1.18,0,2,0,1.08,0,1.92,0,2.58,0,.33-.08.55-.3.55a.48.48,0,0,1-.42-.35,1.7,1.7,0,0,1-.17-.67.57.57,0,0,1,.06-.25,1.68,1.68,0,0,0,.1-.6c0-1.09,0-2,0-3.5a1,1,0,0,0-.12-.65A20.52,20.52,0,0,1,169,7.83Z"/><path class="cls-1" d="M179.52,2.82a.13.13,0,0,1,.13-.13l.2,0a3.37,3.37,0,0,1,1.32.62,1.34,1.34,0,0,1,.62,1,.41.41,0,0,1-.39.46c-.23,0-.32-.1-.45-.35A4,4,0,0,0,179.63,3,.17.17,0,0,1,179.52,2.82Zm1.62,5.46a21.14,21.14,0,0,0,3.13-2.42A23.62,23.62,0,0,0,187,2.94a.24.24,0,0,1,.16-.11c.07,0,.18.06.18.13a.46.46,0,0,1-.07.22,16.47,16.47,0,0,1-2.59,3.2A28.37,28.37,0,0,1,181.57,9a.92.92,0,0,0-.3.33.31.31,0,0,1-.31.2,1.39,1.39,0,0,1-.78-.45,1.42,1.42,0,0,1-.49-.8c0-.13,0-.24.1-.24s.11.05.16.1c.29.25.44.38.65.38A1.31,1.31,0,0,0,181.14,8.28Z"/><path class="cls-1" d="M191.34,4.43a1,1,0,0,0-.41.12.38.38,0,0,1-.19,0c-.18,0-.43-.1-.8-.51a.73.73,0,0,1-.27-.55c0-.12.05-.2.1-.2s.07,0,.18.14a1.12,1.12,0,0,0,.86.33c.25,0,.6,0,1,0,1.19-.09,2.34-.19,3.48-.26a.58.58,0,0,0,.4-.13c.14-.13.22-.19.33-.19a.86.86,0,0,1,.5.32c.3.3.39.46.39.58s-.06.14-.23.22a.36.36,0,0,0-.19.23c-.21.92-.44,2-.65,3,.47.17.57.3.57.47s-.1.26-.22.26-.45,0-.77,0-.73,0-1.33.06c-1,.08-1.92.18-2.73.27a1,1,0,0,0-.36.1.44.44,0,0,1-.28.08c-.14,0-.33-.12-.68-.44a1.3,1.3,0,0,1-.39-.72.14.14,0,0,1,.14-.16c.06,0,.14.08.21.15a1.27,1.27,0,0,0,.84.39c.12,0,.46,0,1-.07l3.33-.31c.23-1.15.43-2.37.58-3.49A40.46,40.46,0,0,0,191.34,4.43Z"/><path class="cls-1" d="M208.39,6.14c-.52,0-1.07,0-1.66,0-1.59,0-3.33.1-4.95.23a1.62,1.62,0,0,0-.65.16.62.62,0,0,1-.38.09c-.25,0-.52-.26-.75-.6a1.36,1.36,0,0,1-.28-.68c0-.1,0-.19.09-.19s.13.05.22.15a1,1,0,0,0,.79.46c.18,0,.78,0,1.65-.07,1.72-.11,3.49-.18,4.31-.2a1.23,1.23,0,0,0,.62-.11.76.76,0,0,1,.36-.1,1.15,1.15,0,0,1,.46.12c.47.2.57.33.57.51S208.63,6.14,208.39,6.14Z"/><path class="cls-1" d="M218.53,7.9a1.88,1.88,0,0,1,.56.95c0,.31-.18.44-.35.44s-.33-.08-.5-.32a8,8,0,0,0-3-2.64,13,13,0,0,1-4.53,3.19.87.87,0,0,1-.32.1.14.14,0,0,1-.15-.12.15.15,0,0,1,.1-.16,16.23,16.23,0,0,0,4-3,14,14,0,0,0,2.17-2.94c.05-.09.06-.11.06-.13s0,0-.06,0a30.6,30.6,0,0,0-3.3.46,1,1,0,0,0-.4.13.52.52,0,0,1-.3.08c-.22,0-.47-.13-.83-.5a1,1,0,0,1-.3-.64c0-.12.06-.18.11-.18s.1.05.15.1a1.43,1.43,0,0,0,.9.46c.13,0,.64,0,.91-.08l2.75-.28a.89.89,0,0,0,.47-.21.36.36,0,0,1,.23-.13,1.05,1.05,0,0,1,.58.28c.22.15.34.27.34.45s-.12.19-.3.27a.58.58,0,0,0-.37.32A21.08,21.08,0,0,1,215.53,6,9.57,9.57,0,0,1,218.53,7.9Z"/><path class="cls-1" d="M230.84,7.54c.51-.6.6-.66.67-.66s.16.06.7.51c.25.21.28.27.28.35s0,.1-.15.1h-5.1V8c0,1.85,0,2.64,0,2.86s-.16.36-.48.36-.35-.1-.35-.31.06-1,.06-2.79v-.3h-3.88a6.25,6.25,0,0,0-.87.06l-.12-.44a4.76,4.76,0,0,0,1,.08h3.9a8.81,8.81,0,0,0-.06-1.34c1,.11,1.19.17,1.19.3s-.06.14-.41.3v.74Zm-4.35-6.41a7.78,7.78,0,0,0-.06-.84c1.09.12,1.23.2,1.23.35s-.07.16-.43.32V2h3.5c.52-.6.58-.64.64-.64s.13,0,.67.49c.25.21.3.28.3.34s-.05.11-.17.11h-9.44a5,5,0,0,0-.86.07l-.11-.46a4,4,0,0,0,1,.09h3.77Zm-.1,5c0,.25-.17.48-.36.48s-.23-.1-.37-.43a4.53,4.53,0,0,0-1.12-1.54,6.15,6.15,0,0,1-2.46,2.47c-.06,0-.15-.08-.09-.13a7.53,7.53,0,0,0,2.14-3,5.6,5.6,0,0,0,.33-1.19c.72.2,1.09.37,1.09.51s-.11.16-.44.21c-.15.36-.3.69-.47,1C225.72,5,226.39,5.59,226.39,6.08Zm4.93.24a.4.4,0,0,1-.34.43c-.18,0-.25-.08-.49-.47a5.83,5.83,0,0,0-1.71-1.72,5.72,5.72,0,0,1-1.56,1.58c-.06,0-.14-.07-.09-.12a7.55,7.55,0,0,0,1.37-2.33,4.44,4.44,0,0,0,.23-1c.77.21,1.1.37,1.1.49s-.12.19-.47.24a7,7,0,0,1-.48.95C230.4,5,231.32,5.71,231.32,6.32Z"/><path class="cls-1" d="M238.47,6.3H236a3.87,3.87,0,0,0-.77.08l-.12-.47A4.69,4.69,0,0,0,236,6h2.51V4.92h-3.15a4.07,4.07,0,0,0-.82.07l-.1-.44a4.69,4.69,0,0,0,.89.07h4.32a7.66,7.66,0,0,0,.52-1,3.48,3.48,0,0,0,.23-.69c.72.28,1,.42,1,.54s-.07.17-.48.19a12.64,12.64,0,0,1-.92,1h2.3c.47-.51.54-.54.6-.54s.14,0,.61.42c.23.18.26.24.26.31s0,.11-.16.11h-4.38V6h2.33c.42-.48.49-.54.56-.54s.17.06.63.42c.2.15.22.24.22.3s0,.12-.15.12h-3.59V7.4h3.52c.45-.53.53-.56.58-.56s.17,0,.64.43c.22.17.25.24.25.31s-.05.12-.15.12h-4.7a7.31,7.31,0,0,0,2.06,1.47,9.37,9.37,0,0,0,3,.84.06.06,0,0,1,0,.12c-.29.08-.38.15-.55.51,0,.09-.1.17-.19.17a2,2,0,0,1-.47-.11,9.31,9.31,0,0,1-2.25-1.13,7.8,7.8,0,0,1-1.74-1.68c0,.64,0,1.12.05,1.67,0,.71,0,1.23,0,1.4s-.15.35-.48.35-.32-.1-.32-.29,0-.56,0-1.27c0-.56.05-1.11.06-1.69a9.21,9.21,0,0,1-4.83,2.81c-.07,0-.14-.15-.07-.17a10.45,10.45,0,0,0,4.29-3h-3.19a3.81,3.81,0,0,0-.78.07l-.12-.45a4.67,4.67,0,0,0,.89.08h3.75Zm1-5.06a6,6,0,0,0,0-1c1,.11,1.14.18,1.14.3s0,.15-.39.29v1.7H241a7.9,7.9,0,0,0,.64-1.24,4.75,4.75,0,0,0,.28-.78c.86.37,1,.47,1,.59s-.12.19-.49.19a10.42,10.42,0,0,1-1.13,1.24h1.58c.46-.51.52-.55.58-.55s.16,0,.62.42c.23.18.27.24.27.31s-.05.12-.16.12H234.6a4.15,4.15,0,0,0-.83.08l-.12-.46a5.19,5.19,0,0,0,.94.08h2.86V1.24a7.48,7.48,0,0,0,0-1c1,.11,1.12.18,1.12.3s0,.15-.37.29v1.7h1.29Zm-4.38-.6c.81.24,1.39.79,1.39,1.24a.47.47,0,0,1-.41.46c-.17,0-.25-.09-.32-.33A2.74,2.74,0,0,0,235,.73S235,.62,235.07.64ZM236.6,3c.77.27,1.23.69,1.23,1.11a.44.44,0,0,1-.42.48c-.17,0-.24-.1-.3-.36a2.32,2.32,0,0,0-.58-1.12C236.48,3,236.55,2.94,236.6,3Z"/><path class="cls-1" d="M246.46,1.59a4.17,4.17,0,0,0-.75.08l-.12-.45a4.57,4.57,0,0,0,.88.08h2.07c.42-.52.48-.56.54-.56s.13,0,.61.42c.22.18.26.26.26.33s0,.1-.16.1h-1.85a11,11,0,0,1-.75,2.94l.13.08h1.33c.31-.32.35-.35.42-.35s.11,0,.41.29.2.21.2.27,0,.12-.3.29V6.43c0,2,.05,2.88.05,3.13s-.13.31-.41.31-.31-.06-.31-.25V9.21h-1.45v1.08c0,.23-.14.31-.43.31s-.3,0-.3-.26.06-1.59.06-3.43c0-.45,0-.88,0-1.27A7.7,7.7,0,0,1,245.47,7c-.05,0-.18-.06-.13-.12a10.46,10.46,0,0,0,1.9-5.28Zm2.25,3.32h-1.45v4h1.45Zm6,.12h.47c.45-.57.53-.62.6-.62s.17,0,.65.47c.21.19.25.25.25.34s-.05.11-.17.11h-1.8V6.55c0,2.49.05,3.82.05,4.23,0,.24-.16.36-.49.36s-.33-.09-.33-.31.06-1,.06-3.26V5.33H252.1a8.78,8.78,0,0,1-.61,3.41,5.26,5.26,0,0,1-2.25,2.44c-.06,0-.17-.07-.12-.12a5.92,5.92,0,0,0,1.79-2.52,10.85,10.85,0,0,0,.46-3.21h-.52a6.73,6.73,0,0,0-.89,0l-.12-.44a4.93,4.93,0,0,0,1,.09h.55c0-.4,0-.83,0-1.29V1.38h-.28a5.31,5.31,0,0,0-.87.06L250.14,1a5.66,5.66,0,0,0,1,.08H255c.45-.54.52-.58.59-.58s.13,0,.61.44c.23.19.26.26.26.33s-.05.11-.17.11h-1.58ZM254,1.38h-1.89V3.77c0,.45,0,.87,0,1.26H254Z"/><path class="cls-1" d="M262.37,6.92a5.08,5.08,0,0,1-.78,2,6.11,6.11,0,0,1-3.81,2.2c-.07,0-.13-.16-.06-.18A6.43,6.43,0,0,0,260.65,9a4.29,4.29,0,0,0,1-2.1l-2.06,0a3.7,3.7,0,0,0-.89.08l-.12-.47a5.66,5.66,0,0,0,1.05.07l2.05,0a5.14,5.14,0,0,0,.06-.85,5.35,5.35,0,0,0-.06-.84c1.05.12,1.25.17,1.25.35s-.09.19-.42.32a8.23,8.23,0,0,1-.06,1l2,0c.3-.36.38-.41.45-.41s.18,0,.55.38c.12.11.15.18.15.24s0,.15-.34.31c0,.44-.05,2.27-.05,2.57s.09.42.94.42,1,0,1.22-.22a4.15,4.15,0,0,0,.55-1.38.08.08,0,0,1,.15,0c0,.36-.07.91-.07,1.14s0,.2.15.25a.26.26,0,0,1,.18.28c0,.2-.2.36-.54.44a7.27,7.27,0,0,1-1.64.13c-1.51,0-1.67-.25-1.67-.91,0-.21.06-2.33.07-3Zm.15-5V1.16a5.62,5.62,0,0,0-.07-.79c1.08.11,1.23.19,1.23.33s-.06.15-.42.31v.86h3.41c.38-.43.43-.47.5-.47s.16.05.64.48c.22.21.25.27.25.34s-.11.2-.47.2a.53.53,0,0,0-.38.17,6.45,6.45,0,0,1-.83.68c-.06,0-.15,0-.12-.07a8.46,8.46,0,0,0,.45-1h-2.37V3.72c0,.45.08.57,1.3.57A2.85,2.85,0,0,0,267,4.14c.19-.13.3-.34.5-1,0-.07.15-.05.15,0s0,.51,0,.65,0,.22.21.25a.27.27,0,0,1,.18.28c0,.21-.27.36-.63.44a11.38,11.38,0,0,1-1.94.1c-1.49,0-1.77-.28-1.77-1,0-.15,0-.31,0-.74v-1h-1.5c-.24,2-1.34,3-3.9,3.38-.07,0-.12-.15,0-.18,2.19-.64,3-1.51,3.19-3.2h-2.12c0,.9-.44,1.5-1,1.5a.44.44,0,0,1-.44-.43.47.47,0,0,1,.33-.47,1.54,1.54,0,0,0,.89-1.4c0-.07.15-.07.16,0a4.57,4.57,0,0,1,0,.5Z"/><path class="cls-1" d="M276.06,5.72a1,1,0,1,1-1-1A1,1,0,0,1,276.06,5.72Z"/><path class="cls-1" d="M285.07,4.58h-2.15a4.23,4.23,0,0,0-.78.06L282,4.2a4.47,4.47,0,0,0,.89.08h2.16V2.67h-1.51A6,6,0,0,1,282.43,4c-.06,0-.17,0-.13-.1a7.45,7.45,0,0,0,1-2,4.11,4.11,0,0,0,.24-1.07c.91.23,1,.28,1,.4s-.11.18-.43.26a7,7,0,0,1-.42.87h1.33A16.08,16.08,0,0,0,285,.3c1,.11,1.18.17,1.18.32s-.08.17-.41.3V2.37H287c.43-.52.49-.57.56-.57s.16.05.63.45c.21.2.25.26.25.32s-.05.1-.16.1h-2.48V4.28h1.71c.46-.56.52-.61.58-.61s.16.05.65.47c.21.19.26.25.26.32s-.05.12-.17.12h-3V6h1.47c.33-.34.38-.36.44-.36s.12,0,.45.31c.17.15.19.21.19.27s0,.14-.3.32v.77c0,1.32,0,1.57,0,1.77a.66.66,0,0,1-.31.63,1.24,1.24,0,0,1-.57.18c-.07,0-.12,0-.13-.14-.05-.31-.13-.39-.8-.58-.07,0-.06-.16,0-.15a8.17,8.17,0,0,0,.88.05c.15,0,.19,0,.19-.18V6.32h-1.56c0,3.13,0,4.16,0,4.52s-.14.35-.45.35-.34-.08-.34-.3,0-1.34.05-4.57h-1.58V7.78c0,1.1,0,1.57,0,1.8s-.14.34-.44.34-.3-.09-.3-.28,0-.8,0-2.16a16.18,16.18,0,0,0-.05-1.89,6,6,0,0,1,.84.43h1.49Zm5-.66c0,2.78,0,3.83,0,4.13s-.14.35-.46.35-.33-.09-.33-.3.06-1.07.06-3.63a28.92,28.92,0,0,0-.07-3.19c1,.12,1.16.17,1.16.33s-.06.16-.39.31Zm2.16,1.24c0,3.82.05,4.51.05,4.94a.79.79,0,0,1-.41.78,1.45,1.45,0,0,1-.66.18c-.13,0-.17,0-.18-.19s-.27-.47-1.3-.69c-.07,0-.06-.18,0-.17a15.23,15.23,0,0,0,1.55.11c.15,0,.22-.07.22-.21V3a14,14,0,0,0-.09-2.53c1.07.13,1.19.18,1.19.32s0,.19-.38.33Z"/><path class="cls-1" d="M296.33,6.61c0,2.88,0,3.91,0,4.21s-.16.37-.46.37-.33-.08-.33-.3,0-1,.06-4.26c0-.73,0-1.47,0-2.2A11.6,11.6,0,0,1,294,6.13c-.05,0-.18-.07-.13-.12a14,14,0,0,0,2.63-4.73,5.82,5.82,0,0,0,.23-1c.79.21,1.17.39,1.17.53s-.13.19-.48.24A14.84,14.84,0,0,1,296,4c.62.11.74.17.74.29s-.05.15-.37.28Zm6.89-4.14c.52-.6.58-.64.64-.64s.14,0,.67.47c.25.22.29.28.29.35s0,.12-.16.12h-3.83v2H303c.46-.54.53-.58.59-.58s.14,0,.62.43c.23.18.27.27.27.34s-.05.11-.16.11h-3.46V7.3H303c.47-.54.53-.57.59-.57s.14,0,.62.44c.21.18.26.25.26.31s0,.12-.15.12h-3.5c0,1.82,0,2.87,0,3.21s-.14.37-.49.37-.35-.1-.35-.31.06-1,.06-3V2.77h-.63a10.51,10.51,0,0,1-2.28,3c-.05,0-.2-.06-.15-.12a13.31,13.31,0,0,0,2.27-4.49,8,8,0,0,0,.18-.87c.82.22,1.18.38,1.18.51s-.15.21-.48.25c-.18.51-.38,1-.58,1.43Z"/><path class="cls-1" d="M310.19,7.16V10c.81-.1,1.62-.26,2.53-.45.07,0,.12.13,0,.16a22.37,22.37,0,0,1-4.18,1.22c-.1.31-.17.38-.26.38s-.15,0-.39-1.11a3.37,3.37,0,0,0,.63,0l.93-.08V7.16h-1.74a5.07,5.07,0,0,1-.12.61,8.18,8.18,0,0,1-1.52,3.34c-.05.06-.19,0-.16-.09A10.66,10.66,0,0,0,307,7.54a29.45,29.45,0,0,0,.24-4.48,22,22,0,0,0-.07-2.54,7.42,7.42,0,0,1,.93.45h7c.33-.37.38-.39.44-.39s.12,0,.48.33c.18.16.21.21.21.28s-.05.14-.33.32V2c0,.91,0,1.18,0,1.34s-.17.29-.46.29-.3-.06-.3-.3V3.14H308a29,29,0,0,1-.19,3.72h2.35V5.06h-1a3.12,3.12,0,0,0-.76.09l-.12-.46a5.39,5.39,0,0,0,.88.07h1v0a9.72,9.72,0,0,0,0-1.24c1,.11,1.14.18,1.14.31s-.07.18-.39.3v.65h2v0a8.18,8.18,0,0,0-.06-1.24c1,.12,1.14.19,1.14.33s-.06.16-.38.3v.63h1.15c.43-.5.5-.56.56-.56s.16.06.63.45c.19.16.22.23.22.29s0,.12-.15.12h-2.41v1.8h1.69c.49-.55.54-.59.61-.59s.16,0,.65.46c.21.18.25.25.25.31s0,.12-.15.12h-4.68a5.25,5.25,0,0,0,1.17,1.63,8.75,8.75,0,0,0,1.12-1,3.16,3.16,0,0,0,.35-.47c.55.32.85.55.85.67s-.13.16-.53.1a9.2,9.2,0,0,1-1.62.83,4.81,4.81,0,0,0,.67.49,7.37,7.37,0,0,0,3,.92c.06,0,.05.11,0,.12-.28.06-.38.14-.49.47,0,.15-.11.21-.21.21a3.13,3.13,0,0,1-.61-.14,7.08,7.08,0,0,1-2.2-1.21,6.84,6.84,0,0,1-1.83-2.63Zm5-5.89H308V2.84h7.16Zm-2.28,3.79h-2v1.8h2Z"/><path class="cls-1" d="M95.32,32c-.18.68-.36,1.3-.59,2l-2.29,0c-.77,0-1.48,0-2.25,0-.11,0-.15,0-.15-.23a.38.38,0,0,1,.09-.29,34,34,0,0,1,2.25-3l.23-.26c1.15-1.36,1.37-2,1.37-2.68,0-1.09-.55-1.64-1.3-1.64a1.22,1.22,0,0,0-1.15.66,2.29,2.29,0,0,0-.12.85c0,.3-.37.54-.82.54-.23,0-.37-.11-.37-.42a2.46,2.46,0,0,1,2.46-2A2.12,2.12,0,0,1,95,27.54c0,.95-.27,1.5-1.5,2.6l-.37.34a14.94,14.94,0,0,0-2.32,2.64h2c1,0,1.27-.06,1.52-.25a2.15,2.15,0,0,0,.65-.94c0-.06,0-.08.09-.08s.23.06.23.12Z"/><path class="cls-1" d="M101.79,29.82c0,2.9-1.15,4.38-2.59,4.38s-2.62-1.45-2.62-4.31,1.19-4.41,2.62-4.41S101.79,26.89,101.79,29.82Zm-4.14,0c0,3,.59,4,1.55,4s1.52-1,1.52-4-.61-4-1.52-4S97.65,26.84,97.65,29.86Z"/><path class="cls-1" d="M108.33,32c-.18.68-.36,1.3-.59,2l-2.29,0c-.77,0-1.49,0-2.25,0-.11,0-.15,0-.15-.23a.37.37,0,0,1,.08-.29,36,36,0,0,1,2.26-3l.23-.26c1.15-1.36,1.37-2,1.37-2.68,0-1.09-.56-1.64-1.3-1.64a1.22,1.22,0,0,0-1.15.66,2.1,2.1,0,0,0-.12.85c0,.3-.37.54-.82.54-.24,0-.37-.11-.37-.42a2.46,2.46,0,0,1,2.46-2,2.12,2.12,0,0,1,2.36,2.06c0,.95-.27,1.5-1.5,2.6l-.37.34a15,15,0,0,0-2.33,2.64h2c1,0,1.27-.06,1.52-.25a2.32,2.32,0,0,0,.65-.94c0-.06,0-.08.09-.08s.23.06.23.12Z"/><path class="cls-1" d="M114.83,32c-.18.68-.36,1.3-.59,2L112,34c-.76,0-1.48,0-2.25,0-.11,0-.15,0-.15-.23a.38.38,0,0,1,.09-.29,36,36,0,0,1,2.25-3l.23-.26c1.15-1.36,1.37-2,1.37-2.68,0-1.09-.55-1.64-1.3-1.64a1.24,1.24,0,0,0-1.15.66,2.29,2.29,0,0,0-.12.85c0,.3-.37.54-.81.54-.24,0-.37-.11-.37-.42a2.44,2.44,0,0,1,2.45-2,2.13,2.13,0,0,1,2.37,2.06c0,.95-.28,1.5-1.5,2.6l-.37.34a14.6,14.6,0,0,0-2.33,2.64h2c1,0,1.27-.06,1.52-.25a2.15,2.15,0,0,0,.65-.94c0-.06,0-.08.1-.08s.22.06.22.12Z"/><path class="cls-1" d="M117.8,33.49a.71.71,0,0,1-.71.69.71.71,0,1,1,0-1.42A.71.71,0,0,1,117.8,33.49Z"/><path class="cls-1" d="M122.38,29.5a2.19,2.19,0,0,1,2.08,2.17,2.43,2.43,0,0,1-2.64,2.53,3,3,0,0,1-1.7-.47c-.56-.34-.76-.67-.76-1s.3-.5.72-.5c.18,0,.32.12.55.68l.06.14a1.1,1.1,0,0,0,1.13.72c1,0,1.59-.74,1.59-2.18a1.69,1.69,0,0,0-1.66-1.91c-.28,0-.51,0-.64,0s-.14,0-.14-.13.1-.36.25-.36.27,0,.41,0a1.62,1.62,0,0,0,1.54-1.83c0-1-.48-1.62-1.27-1.62a1.11,1.11,0,0,0-1.05.53,1.2,1.2,0,0,0-.12.6c0,.32-.36.56-.8.56a.34.34,0,0,1-.37-.35c0-.8,1.07-1.71,2.34-1.71a2,2,0,1,1,.48,4Z"/><path class="cls-1" d="M127.58,33.49a.71.71,0,0,1-.71.69.71.71,0,1,1,0-1.42A.71.71,0,0,1,127.58,33.49Z"/><path class="cls-1" d="M130,26.8c-.11,0-.16-.1-.16-.24s0-.09.13-.12a18.22,18.22,0,0,0,2.26-1c.13,0,.19,0,.19.15,0,.94-.06,1.6-.06,2.57v3.65c0,1.15,0,1.35.14,1.56s.27.23,1.09.3c.09,0,.11,0,.11.18s0,.16-.08.16c-.54,0-1.19,0-1.69,0s-1.13,0-1.73,0c-.06,0-.08,0-.08-.16s0-.17.12-.18c.75,0,.93-.14,1-.3s.14-.41.14-1.56V27.58a1.75,1.75,0,0,0-.13-.88.4.4,0,0,0-.33-.15,1.52,1.52,0,0,0-.44.08Z"/><path class="cls-1" d="M140.9,31.82a2.66,2.66,0,0,1-5.28.09c0-.94.61-1.69,1.92-2.28-1.24-.6-1.67-1.2-1.67-2.15a2.27,2.27,0,0,1,2.41-2,2.13,2.13,0,0,1,2.36,1.88c0,.88-.44,1.46-1.63,2C140.36,30,140.9,30.68,140.9,31.82Zm-4.31.1a1.78,1.78,0,0,0,1.7,1.91A1.72,1.72,0,0,0,140,32c0-.89-.52-1.45-2.07-2.16A2.27,2.27,0,0,0,136.59,31.92Zm3.18-4.55a1.51,1.51,0,0,0-3-.06c0,.73.32,1.18,1.84,1.79A1.78,1.78,0,0,0,139.77,27.37Z"/><path class="cls-1" d="M147.08,24a.09.09,0,0,1,.07.08.09.09,0,0,1,0,.08,7.82,7.82,0,0,0,0,11.27s0,.05,0,.09,0,.08-.07.08a.23.23,0,0,1-.11,0,8.28,8.28,0,0,1-2.3-2.64,6.67,6.67,0,0,1,0-6.26A8.17,8.17,0,0,1,147,24,.24.24,0,0,1,147.08,24Z"/><path class="cls-1" d="M150.34,31.82c0,1.26,0,1.41.12,1.57s.25.23,1,.29c.09,0,.12,0,.12.16s0,.15-.12.15c-.48,0-1.14,0-1.62,0s-1.08,0-1.51,0c-.1,0-.12,0-.12-.15s0-.15.12-.16c.62,0,.78-.12.87-.29s.15-.39.15-1.57V27.61c0-1.23,0-1.35-.14-1.52s-.24-.23-1-.28c-.07,0-.1,0-.1-.14s0-.19.1-.19c1,.05,2.09.06,3,.06s1.92,0,2.95-.06c.05.6.15,1.29.23,1.89v0c0,.06-.09.11-.21.11s-.09,0-.11-.1a2.75,2.75,0,0,0-.75-1.16c-.31-.24-.67-.35-1.84-.35-.71,0-.94.11-1.05.29s-.13.41-.13,1.41v1.74h.78a3.24,3.24,0,0,0,1.62-.21,1.1,1.1,0,0,0,.32-.79c0-.08,0-.11.17-.11s.17,0,.17.11c0,.4,0,.79,0,1.17s0,.93,0,1.35c0,.08,0,.12-.17.12s-.15,0-.17-.14a1.14,1.14,0,0,0-.34-.87,3.4,3.4,0,0,0-1.6-.23l-.78,0Z"/><path class="cls-1" d="M155.46,29.41c-.09,0-.11,0-.11-.14s0-.13.14-.17a9.33,9.33,0,0,0,1.57-.49c.09,0,.15.05.15.11,0,.34,0,.67,0,1.12.54-.87,1-1.27,1.53-1.27s.64.16.64.34c0,.37-.34.75-.58.75a.72.72,0,0,1-.34-.1.63.63,0,0,0-.31-.11c-.18,0-.35.12-.59.44a1.5,1.5,0,0,0-.35,1v1.39c0,1,0,1.09.09,1.22s.18.18.7.22c.08,0,.1,0,.1.13s0,.13-.1.13l-1.18,0-1.23,0c-.08,0-.1,0-.1-.13s0-.12.1-.13c.47,0,.56-.08.64-.22s.12-.33.12-1.22V30.61a2.22,2.22,0,0,0-.11-1c-.09-.19-.18-.25-.32-.25Z"/><path class="cls-1" d="M160.92,30.6a2.71,2.71,0,0,0-.1-1,.34.34,0,0,0-.35-.24l-.44,0c-.07,0-.1,0-.1-.16s0-.12.15-.15a16.51,16.51,0,0,0,1.59-.49c.1,0,.14,0,.14.1,0,.86,0,1.5,0,2.07v1.5c0,1,0,1.12.07,1.23s.21.17.71.21c.07,0,.09,0,.09.13s0,.15-.09.15l-1.17,0-1.22,0c-.07,0-.1,0-.1-.15s0-.12.1-.13c.47-.05.58-.1.66-.21s.1-.27.1-1.23Zm1-4.63a.69.69,0,0,1-.67.67.7.7,0,0,1-.67-.67.72.72,0,0,1,.67-.67A.71.71,0,0,1,161.93,26Z"/><path class="cls-1" d="M165.94,26.68a6.67,6.67,0,0,1,0,6.26,8.28,8.28,0,0,1-2.3,2.64.23.23,0,0,1-.11,0s-.07,0-.07-.08,0-.06,0-.09a7.82,7.82,0,0,0,0-11.27.09.09,0,0,1,0-.08.09.09,0,0,1,.07-.08.24.24,0,0,1,.1,0A8.17,8.17,0,0,1,165.94,26.68Z"/><path class="cls-1" d="M171.91,31.09h-2.8v-.81h2.8Z"/><path class="cls-1" d="M176.53,29.5a2.19,2.19,0,0,1,2.07,2.17A2.42,2.42,0,0,1,176,34.2a3,3,0,0,1-1.7-.47c-.55-.34-.76-.67-.76-1s.3-.5.72-.5c.18,0,.33.12.56.68l.05.14a1.11,1.11,0,0,0,1.13.72c1,0,1.6-.74,1.6-2.18a1.7,1.7,0,0,0-1.67-1.91c-.28,0-.5,0-.64,0s-.14,0-.14-.13.11-.36.25-.36.28,0,.41,0a1.62,1.62,0,0,0,1.55-1.83c0-1-.48-1.62-1.27-1.62a1.11,1.11,0,0,0-1.06.53,1.32,1.32,0,0,0-.12.6c0,.32-.36.56-.79.56a.33.33,0,0,1-.37-.35c0-.8,1.07-1.71,2.34-1.71a2,2,0,1,1,.48,4Z"/><path class="cls-1" d="M181.72,33.49a.71.71,0,1,1-.7-.73A.7.7,0,0,1,181.72,33.49Z"/><path class="cls-1" d="M188.54,32c-.18.68-.36,1.3-.59,2l-2.29,0c-.77,0-1.49,0-2.26,0-.1,0-.14,0-.14-.23a.37.37,0,0,1,.08-.29,36,36,0,0,1,2.26-3l.23-.26c1.15-1.36,1.36-2,1.36-2.68,0-1.09-.55-1.64-1.29-1.64a1.22,1.22,0,0,0-1.15.66,2.1,2.1,0,0,0-.12.85c0,.3-.37.54-.82.54-.24,0-.37-.11-.37-.42a2.46,2.46,0,0,1,2.46-2,2.12,2.12,0,0,1,2.36,2.06c0,.95-.27,1.5-1.5,2.6l-.37.34a15,15,0,0,0-2.33,2.64h2c1,0,1.28-.06,1.53-.25a2.32,2.32,0,0,0,.65-.94c0-.06,0-.08.09-.08s.23.06.23.12Z"/><path class="cls-1" d="M195,29.82c0,2.9-1.15,4.38-2.58,4.38s-2.62-1.45-2.62-4.31,1.19-4.41,2.62-4.41S195,26.89,195,29.82Zm-4.13,0c0,3,.59,4,1.55,4s1.52-1,1.52-4-.61-4-1.52-4S190.87,26.84,190.87,29.86Z"/><path class="cls-1" d="M201.22,24a.08.08,0,0,1,.07.08.11.11,0,0,1,0,.08,7.82,7.82,0,0,0,0,11.27s.05.05.05.09a.1.1,0,0,1-.08.08.19.19,0,0,1-.1,0,8.31,8.31,0,0,1-2.31-2.64,6.67,6.67,0,0,1,0-6.26A8.21,8.21,0,0,1,201.13,24Z"/><path class="cls-1" d="M204.49,29.74c-1.31-.66-1.79-1.31-1.79-2.33a2.23,2.23,0,0,1,2.48-2.11,3.48,3.48,0,0,1,1,.14,2.61,2.61,0,0,0,.75.11,1.64,1.64,0,0,0,.4,0c0,.49.07,1.25.13,1.85v0c0,.06-.07.09-.19.09a.09.09,0,0,1-.1-.08,2.13,2.13,0,0,0-2-1.73,1.41,1.41,0,0,0-1.51,1.47c0,.67.38,1.19,1.32,1.63l.6.27c1.63.75,2.21,1.51,2.21,2.62,0,1.53-1,2.51-2.92,2.51a6.36,6.36,0,0,1-2.1-.42,15.62,15.62,0,0,1-.37-1.79v-.1c0-.07.06-.12.18-.12s.1,0,.12.07a2.65,2.65,0,0,0,2.31,2,1.66,1.66,0,0,0,1.8-1.68c0-.88-.43-1.44-1.72-2.08Z"/><path class="cls-1" d="M214.8,33.72c.09,0,.11,0,.11.13s0,.13-.11.14a15.22,15.22,0,0,0-1.53.19.11.11,0,0,1-.12-.1c0-.34,0-.65,0-1a2,2,0,0,1-1.8,1.07,1.53,1.53,0,0,1-1.67-1.6V30.42a2.71,2.71,0,0,0-.09-1,.35.35,0,0,0-.35-.25l-.37,0c-.08,0-.11,0-.11-.14s0-.15.15-.17c.47-.07,1.08-.19,1.54-.31.09,0,.14.05.14.11,0,.68,0,1.22,0,2v1.2a2.34,2.34,0,0,0,.14,1.05,1.07,1.07,0,0,0,1,.62,1.47,1.47,0,0,0,1.19-.67,1.27,1.27,0,0,0,.26-.91V30.42a2.75,2.75,0,0,0-.08-1,.35.35,0,0,0-.34-.25l-.38,0c-.08,0-.11,0-.11-.14s0-.15.13-.17a14.16,14.16,0,0,0,1.55-.31.11.11,0,0,1,.13.12c0,.66,0,1.21,0,2v1.59c0,.92,0,1.05.08,1.18s.16.18.47.2Z"/><path class="cls-1" d="M215.83,29.41c-.09,0-.11,0-.11-.18s0-.11.16-.13a10.79,10.79,0,0,0,1.54-.49c.09,0,.13.05.13.11,0,.31,0,.64,0,1a2.15,2.15,0,0,1,1.82-1.11,1.6,1.6,0,0,1,1.71,1.65c0,.43,0,1,0,1.31v.76c0,1,0,1.1.1,1.22s.18.17.64.22c.08,0,.1,0,.1.13s0,.13-.1.13l-1.13,0-1.2,0c-.08,0-.11,0-.11-.13s0-.12.11-.13c.4,0,.53-.08.61-.22s.11-.22.11-1.22V30.46a1.38,1.38,0,0,0-.13-.69,1,1,0,0,0-1-.61,1.51,1.51,0,0,0-1.22.67,1.3,1.3,0,0,0-.26.92v1.54c0,1,0,1.13.09,1.22s.16.17.67.22c.07,0,.09,0,.09.13s0,.13-.09.13l-1.13,0L216,34c-.07,0-.1,0-.1-.13s0-.12.1-.13c.43,0,.53-.1.61-.22s.11-.3.11-1.22V30.61a2.29,2.29,0,0,0-.1-1c-.08-.18-.18-.25-.33-.25Z"/><path class="cls-1" d="M225.21,26.68a6.67,6.67,0,0,1,0,6.26,8.28,8.28,0,0,1-2.3,2.64.23.23,0,0,1-.11,0s-.07,0-.07-.08,0-.06.05-.09a7.84,7.84,0,0,0,0-11.27.09.09,0,0,1,0-.08.09.09,0,0,1,.07-.08.29.29,0,0,1,.1,0A8.17,8.17,0,0,1,225.21,26.68Z"/><path class="cls-1" d="M49.8,53.27h3.36c.55-.62.61-.66.68-.66s.14,0,.7.48c.27.22.29.3.29.37s0,.11-.15.11H49.8v2.09c0,2.3.05,3,.05,3.26s-.17.38-.53.38S49,59.21,49,59,49,58,49,55.74V53.57H45.23a5,5,0,0,0-.87.06l-.12-.44a5.74,5.74,0,0,0,1,.08H49V50.46a32.62,32.62,0,0,1-3.86.47c-.08,0-.1-.17,0-.18a23.58,23.58,0,0,0,5.72-1.46,6.93,6.93,0,0,0,1.32-.69c.55.4.88.7.88.82s-.21.19-.63.07a23.55,23.55,0,0,1-2.62.81Z"/><path class="cls-1" d="M61,56a5.16,5.16,0,0,0-.06-1c1,.09,1.14.15,1.14.28s0,.14-.36.27V56h3.46c.45-.51.52-.56.59-.56s.16.05.67.45c.22.17.25.23.25.3s0,.11-.15.11H61.81a7.54,7.54,0,0,0,1.92,1.24,10,10,0,0,0,3.14.73c.06,0,.06.08,0,.11-.26.08-.38.2-.53.54,0,.12-.1.14-.18.14a1.7,1.7,0,0,1-.48-.09,8.25,8.25,0,0,1-2.3-1,7.79,7.79,0,0,1-1.74-1.51c0,.51,0,1,0,1.46s0,1.07,0,1.19-.16.35-.5.35-.32-.09-.32-.29,0-.54.05-1,0-.9,0-1.42a9.92,9.92,0,0,1-4.86,2.4c-.07,0-.15-.14-.07-.17a11.15,11.15,0,0,0,4.39-2.67H57.22a5,5,0,0,0-.82.07L56.29,56a4.92,4.92,0,0,0,.93.07ZM65.3,49.6c.45-.54.53-.59.6-.59s.17.05.66.46c.25.2.27.26.27.32s0,.11-.15.11H63.22c0,.32,0,.49,0,.56s-.13.32-.43.32-.34-.08-.34-.27,0-.21,0-.61H60.15c0,.31,0,.48,0,.54,0,.23-.15.32-.47.32s-.3-.08-.3-.27,0-.21,0-.59H57.08a4.59,4.59,0,0,0-.78.07l-.1-.45a4.64,4.64,0,0,0,.88.08h2.35a7.76,7.76,0,0,0,0-1.15c1,.11,1.17.15,1.17.3s0,.16-.4.26v.59H62.5a5.52,5.52,0,0,0-.07-1.15c1.06.12,1.19.17,1.19.31s0,.15-.4.26v.58Zm-1,2.53c0,.92,0,1.29,0,1.39s-.15.3-.42.3-.3,0-.3-.24v-.12H61.58v.09c0,.21-.14.3-.42.3s-.3-.08-.3-.26,0-.45,0-1.4v-.06h-2v2.34h5.81c.42-.49.49-.55.56-.55s.14.06.62.43c.22.17.25.24.25.31s0,.11-.16.11H58.93V55c0,.26-.13.32-.44.32s-.3,0-.3-.26,0-.73,0-2.16v-.74H57.11a5.91,5.91,0,0,0-.78.07l-.12-.45a4.77,4.77,0,0,0,.9.08h1.11c0-.55,0-.78,0-1.08,1,.11,1.07.17,1.07.3s0,.13-.32.25v.53h2c0-.5,0-.71,0-1.07.92.1,1.07.16,1.07.29s0,.16-.33.28v.5h2.08a8.88,8.88,0,0,0,0-1.07c.9.09,1.06.15,1.06.29s-.05.16-.33.28v.5h1.08c.41-.5.49-.56.57-.56s.16.06.62.44c.2.18.25.23.25.3s-.05.12-.16.12Zm-2.77,0v1h2.08v-1Z"/><path class="cls-1" d="M73.76,52.25a8.65,8.65,0,0,0,2.12,4.08,8.24,8.24,0,0,0,3.05,2c.06,0,0,.1,0,.12a.69.69,0,0,0-.51.53c0,.12-.11.17-.18.17a2,2,0,0,1-.58-.31,9.13,9.13,0,0,1-2.4-2.25,10,10,0,0,1-1.69-4.18,7.68,7.68,0,0,1-1.41,3.93,8.19,8.19,0,0,1-3.92,2.85c-.08,0-.15-.13-.09-.17a8.38,8.38,0,0,0,3.67-3.47,8.72,8.72,0,0,0,1-3.29H69.3a6.08,6.08,0,0,0-1,.07l-.11-.44A8,8,0,0,0,69.3,52h3.5c.07-.72.11-1.55.11-2.51a5.14,5.14,0,0,0,0-.75c1.12.18,1.26.24,1.26.38s-.05.17-.41.31c0,.42,0,.84,0,1.23s-.05.92-.1,1.34h3.5c.56-.65.65-.73.72-.73s.18.08.75.55c.26.22.3.3.3.37s0,.11-.16.11Z"/><path class="cls-1" d="M85.15,55.2a6,6,0,0,0-.05-1.08l.84.13a7.93,7.93,0,0,0,1.39-1.39H83.4a3.09,3.09,0,0,0-.88.09l-.13-.47a5.37,5.37,0,0,0,1,.08h4c.36-.33.43-.37.49-.37s.12,0,.53.4c.18.16.2.24.2.3s-.11.15-.5.2a10.12,10.12,0,0,1-1.87,1.27.13.13,0,0,1,0,.09c0,.09,0,.16-.36.28v.47h3.34c.52-.6.57-.65.64-.65s.15.05.7.5c.26.21.29.27.29.34s0,.11-.17.11h-4.8v.8c0,1.48,0,1.77,0,2.1a.84.84,0,0,1-.39.75,1.13,1.13,0,0,1-.67.23c-.14,0-.18,0-.21-.23s-.26-.46-1.36-.69c-.07,0-.07-.16,0-.15.88.08,1.31.12,1.63.12.16,0,.23-.06.23-.22V55.5h-4a3.62,3.62,0,0,0-.79.07l-.12-.44a4.79,4.79,0,0,0,.9.07ZM87.22,51a11.21,11.21,0,0,0,.83-1.41,5.35,5.35,0,0,0,.36-.91c.87.38,1,.5,1,.61s-.08.19-.48.19A9.83,9.83,0,0,1,87.57,51H89.5c.38-.38.42-.42.5-.42s.13,0,.56.45c.23.21.26.3.26.37s-.11.2-.39.2-.26,0-.34.13a5.92,5.92,0,0,1-.87.83c-.06.05-.15,0-.11-.08a6.75,6.75,0,0,0,.44-1.18H81.67c0,1-.47,1.63-1,1.63a.41.41,0,0,1-.43-.43c0-.17.08-.32.36-.48a1.73,1.73,0,0,0,.84-1.52.07.07,0,0,1,.14,0,3.13,3.13,0,0,1,0,.5Zm-4.91-2.18c.81.32,1.38.93,1.38,1.44a.44.44,0,0,1-.41.47c-.2,0-.29-.1-.39-.5a3.27,3.27,0,0,0-.67-1.3A.08.08,0,0,1,82.31,48.81Zm2.47-.23c.83.36,1.39,1,1.39,1.5,0,.32-.18.52-.42.52s-.3-.1-.37-.47a3.53,3.53,0,0,0-.7-1.44C84.63,48.64,84.72,48.54,84.78,48.58Z"/><path class="cls-1" d="M98,57.4H95.42a3.74,3.74,0,0,0-.7.06L94.6,57a3.3,3.3,0,0,0,.81.09H98v-.23a10.78,10.78,0,0,0,0-1.2c1,.12,1.16.19,1.16.31s-.06.16-.38.29v.83H101c.42-.51.5-.57.56-.57s.16.06.64.45c.21.16.24.24.24.3s0,.12-.15.12H98.69v1.27h3.76c.46-.53.54-.59.6-.59s.18.06.66.47c.22.18.26.24.26.31s0,.11-.15.11H94a4.76,4.76,0,0,0-.86.07L93,58.58a5.47,5.47,0,0,0,1,.09H98ZM98.71,53h2.73c.38-.43.44-.48.5-.48s.14,0,.58.39c.18.15.23.21.23.27s0,.12-.15.12H98.71v1h3.63c.4-.49.46-.52.53-.52s.14,0,.6.4c.19.16.24.23.24.3s0,.12-.16.12H94.24a5.32,5.32,0,0,0-.81.06l-.13-.44a4.9,4.9,0,0,0,.94.08H98v-1H95.25a3.81,3.81,0,0,0-.7.06l-.12-.45a3.86,3.86,0,0,0,.81.09H98V52H95.38v.1c0,.24-.14.32-.42.32s-.3-.06-.3-.25,0-.58,0-1.88a13.37,13.37,0,0,0-.06-1.71,4.94,4.94,0,0,1,.84.39h5.94c.31-.34.35-.37.41-.37s.13,0,.48.33c.16.14.18.2.18.26s0,.13-.3.29v.72c0,1.2,0,1.68,0,1.81s-.13.32-.42.32-.3,0-.3-.25V52H98.71Zm-3.6,2c0,1-.62,1.82-1.22,1.82a.39.39,0,0,1-.41-.4c0-.19.12-.29.4-.39A1.69,1.69,0,0,0,95,55C95,54.88,95.11,54.91,95.11,55ZM98,50.31V49.26H95.38v1.05Zm0,1.38V50.61H95.38v1.08ZM96.49,54.9a1.46,1.46,0,0,1,.86,1.17.45.45,0,0,1-.4.49c-.26,0-.33-.12-.33-.42A2.46,2.46,0,0,0,96.38,55S96.44,54.88,96.49,54.9Zm5-4.59V49.26H98.71v1.05Zm0,1.38V50.61H98.71v1.08ZM99.33,54.9c.67.23,1.11.71,1.11,1.13a.41.41,0,0,1-.42.47c-.16,0-.26-.1-.3-.42A2.12,2.12,0,0,0,99.24,55S99.26,54.88,99.33,54.9Zm2.32,0c1.06.31,1.73.88,1.73,1.37a.41.41,0,0,1-.38.45c-.19,0-.29,0-.4-.37a3.28,3.28,0,0,0-1-1.33C101.5,55,101.58,54.88,101.65,54.9Z"/><path class="cls-1" d="M107.56,58.72c0,.24-.16.33-.48.33s-.33-.07-.33-.26c0-.42.07-1.26.07-5.24,0-2.62,0-3.57-.07-4.37a8.31,8.31,0,0,1,.94.48h7.12c.36-.4.41-.42.47-.42s.13,0,.5.35c.18.15.22.21.22.27s-.06.16-.34.34v2.9c0,3.94.07,5.2.07,5.57s-.16.33-.49.33-.32-.07-.32-.26v-.58h-7.36Zm3.25-5.13V50h-3.25v3.63Zm-3.25,4.27h3.25v-4h-3.25Zm7.36-7.9h-3.38v3.63h3.38Zm0,3.93h-3.38v4h3.38Z"/><path class="cls-1" d="M124.46,52.56c0-.5,0-1,0-1.54s0-.71-.11-.82a1.33,1.33,0,0,0-.72-.32c-.07,0-.09-.05-.09-.1s0-.11.15-.17a.58.58,0,0,1,.33-.07,3.08,3.08,0,0,1,.84.2c.34.15.5.28.5.5a.35.35,0,0,1-.12.22.8.8,0,0,0-.12.5c0,.38,0,.91,0,1.55.28,0,.64,0,1.17-.09a1.17,1.17,0,0,0,.39-.09.69.69,0,0,1,.34-.09,2.16,2.16,0,0,1,.9.26.36.36,0,0,1,.21.35c0,.17-.14.26-.36.26a5.07,5.07,0,0,1-.7-.06c-.44,0-1.19,0-2,0a6.19,6.19,0,0,1-1,3.57,5.73,5.73,0,0,1-3,2.1,1.07,1.07,0,0,1-.21,0,.13.13,0,0,1-.14-.12c0-.08,0-.12.16-.18a6.24,6.24,0,0,0,2.69-2.19,6.05,6.05,0,0,0,.81-3.19c-.72,0-1.55.1-2.36.19,0,1,0,1.59,0,1.94s-.14.58-.32.58-.38-.25-.38-.56.06-1.16.07-1.87c-.3,0-.68.1-1.09.18a1.5,1.5,0,0,0-.49.15.56.56,0,0,1-.29.1c-.24,0-.44-.11-.79-.43s-.41-.42-.41-.61a.11.11,0,0,1,.12-.12.3.3,0,0,1,.18.09,1.25,1.25,0,0,0,.82.32c.23,0,.38,0,.61,0l1.35-.15V51.59c0-.25,0-.41-.13-.49a1.63,1.63,0,0,0-.61-.3c-.1,0-.17,0-.17-.11a.16.16,0,0,1,.11-.14.6.6,0,0,1,.34-.09,2.79,2.79,0,0,1,.9.28c.3.14.38.24.38.37a.37.37,0,0,1-.08.24,1,1,0,0,0-.11.48c0,.25,0,.63,0,.92C122.89,52.67,123.62,52.61,124.46,52.56Z"/><path class="cls-1" d="M132.47,53.29a2.15,2.15,0,0,0-.63.17.53.53,0,0,1-.3.09,1.22,1.22,0,0,1-.69-.36,1.06,1.06,0,0,1-.4-.6c0-.15.05-.21.1-.21l.11,0a1.44,1.44,0,0,0,.81.4c.17,0,.37,0,.59,0,1-.11,1.82-.18,2.94-.28l2.7-.22a1.31,1.31,0,0,0,.51-.12.59.59,0,0,1,.33-.12,2,2,0,0,1,.8.25c.2.12.29.23.29.38s-.11.25-.28.25-.53,0-.86-.06h-1.25c-.57,0-1.26.05-1.81.09.32.19.54.39.54.54a.28.28,0,0,1-.07.19.63.63,0,0,0-.15.25,7.42,7.42,0,0,1-1.23,2.62,8.12,8.12,0,0,1-2.32,2.1.51.51,0,0,1-.22.07.15.15,0,0,1-.14-.15c0-.07,0-.1.12-.18a8.5,8.5,0,0,0,2-2.19,7.79,7.79,0,0,0,1-2.38,1.18,1.18,0,0,0,.05-.36.63.63,0,0,0-.21-.46C134.06,53.07,133.21,53.16,132.47,53.29Zm1.82-3.07c.52,0,1.13-.12,1.64-.2a2.92,2.92,0,0,0,.68-.16,1.08,1.08,0,0,1,.43-.1.93.93,0,0,1,.52.12c.21.13.27.22.27.36s-.13.25-.36.27c-1,.1-2.27.19-3.4.28-.25,0-.49.05-.76.05a1.06,1.06,0,0,1-.78-.28c-.27-.22-.43-.41-.43-.58a.15.15,0,0,1,.13-.16c.06,0,.08,0,.15.09a1.49,1.49,0,0,0,.91.36C133.62,50.27,134.1,50.24,134.29,50.22Z"/><path class="cls-1" d="M145.25,52.33l3.67-.41a.65.65,0,0,0,.38-.18.35.35,0,0,1,.24-.15c.13,0,.3.1.61.35s.39.36.39.5-.08.19-.22.24A.55.55,0,0,0,150,53a12.59,12.59,0,0,1-5.6,5.75.79.79,0,0,1-.23.08.16.16,0,0,1-.17-.17c0-.06,0-.09.1-.14a14.2,14.2,0,0,0,5.23-5.92.88.88,0,0,0,.06-.17s0-.05-.06-.05H149c-1.27.11-2.44.26-3.85.51a1.9,1.9,0,0,0-.54.14.89.89,0,0,1-.31.08,1.21,1.21,0,0,1-.71-.43,1.29,1.29,0,0,1-.35-.66c0-.11.06-.18.11-.18a.25.25,0,0,1,.15.08,1.44,1.44,0,0,0,.83.45A7,7,0,0,0,145.25,52.33Zm.88-2.23a15.47,15.47,0,0,0,2.26-.42,2.15,2.15,0,0,1,.61-.13c.32,0,.54.13.54.41a.29.29,0,0,1-.22.3,3.65,3.65,0,0,1-.78.14c-.8.11-1.65.22-2.39.28-.26,0-.63.07-.78.07a1.25,1.25,0,0,1-.82-.35,1.08,1.08,0,0,1-.39-.6c0-.08,0-.16.09-.16a.26.26,0,0,1,.17.08,1.37,1.37,0,0,0,1,.42A6.63,6.63,0,0,0,146.13,50.1Z"/><path class="cls-1" d="M153.48,56a.5.5,0,0,1-.28.09.15.15,0,0,1-.15-.15s0-.13.18-.23a23.88,23.88,0,0,0,5.18-5.42.69.69,0,0,0,.13-.41c0-.11-.12-.21-.44-.39-.1-.06-.18-.1-.18-.17s.13-.17.37-.17a2,2,0,0,1,.89.38c.34.24.45.41.45.56s-.06.25-.26.34a1.79,1.79,0,0,0-.34.33c-.49.59-.79.93-1.26,1.47.47.52.52.7.52.85a.4.4,0,0,1,0,.22.68.68,0,0,0-.06.29c0,.63,0,1.17,0,2,0,1.08,0,1.92,0,2.58,0,.33-.08.55-.3.55s-.33-.16-.42-.35a1.85,1.85,0,0,1-.16-.67.46.46,0,0,1,.06-.25,1.76,1.76,0,0,0,.09-.6c0-1.1,0-2,0-3.51,0-.35,0-.54-.12-.64A20.58,20.58,0,0,1,153.48,56Z"/><path class="cls-1" d="M169.05,53.33c.84.34,1.24.76,1.24,1.1s-.19.46-.36.46-.29-.07-.47-.28a5.08,5.08,0,0,0-1.07-.84,4.85,4.85,0,0,0-1.24-.52v2c0,.8,0,2.35,0,2.83s-.16.5-.32.5-.2,0-.32-.22a1.46,1.46,0,0,1-.26-.73.64.64,0,0,1,.1-.36,2.25,2.25,0,0,0,.09-.67c0-.73,0-1.7,0-2.33,0-1.18,0-2.37,0-3.46,0-.49,0-.63,0-.72a1.24,1.24,0,0,0-.65-.48c-.12,0-.13-.07-.13-.15s.18-.17.3-.17a2.36,2.36,0,0,1,1,.26c.27.14.51.37.51.57a.46.46,0,0,1-.21.36c-.06,0-.08.18-.09.45,0,.51,0,1.21,0,1.93A7.66,7.66,0,0,1,169.05,53.33Z"/><path class="cls-1" d="M180.67,53.68a1,1,0,0,0,.37-.17.63.63,0,0,1,.4-.12,1.66,1.66,0,0,1,.64.13c.16.09.27.19.27.34s-.11.3-.4.3a7.18,7.18,0,0,0-.73,0c-.7.08-1.44.22-2.36.41.19,1,.44,2.23.62,3a3.47,3.47,0,0,1,.11.63.37.37,0,0,1-.37.4c-.26,0-.34-.2-.39-.53-.15-1-.37-2.4-.56-3.4-.77.18-1.4.36-2.09.58a1.84,1.84,0,0,0-.43.18.54.54,0,0,1-.43.18,1.88,1.88,0,0,1-1-.5.44.44,0,0,1-.14-.31c0-.09.05-.1.1-.1a.48.48,0,0,1,.14,0A1.2,1.2,0,0,0,175,55a3.23,3.23,0,0,0,.73-.09l2.48-.63c-.1-.61-.21-1.22-.34-1.81-.6.13-1,.24-1.38.36a2.39,2.39,0,0,0-.5.18.59.59,0,0,1-.31.1,1.26,1.26,0,0,1-.73-.35c-.29-.26-.37-.39-.37-.51s.05-.17.11-.17a.35.35,0,0,1,.14.07,1.28,1.28,0,0,0,.76.26,3.19,3.19,0,0,0,.68-.1c.47-.09,1-.2,1.5-.32-.11-.61-.23-1.15-.36-1.71-.08-.38-.31-.48-.82-.48-.07,0-.12,0-.12-.1s.1-.13.16-.18a.61.61,0,0,1,.38-.14,2.54,2.54,0,0,1,1,.21c.27.12.37.24.37.37a.31.31,0,0,1-.11.21c-.05.06-.07.12-.07.3a11.54,11.54,0,0,0,.18,1.38c.6-.15,1-.28,1.45-.42a1.64,1.64,0,0,0,.3-.17.75.75,0,0,1,.41-.14,2.08,2.08,0,0,1,.5.06c.19,0,.31.16.31.31s-.07.24-.21.26l-.87.17c-.5.11-1.14.26-1.8.43.11.65.24,1.18.36,1.81C179.58,54,180.14,53.82,180.67,53.68Z"/><path class="cls-1" d="M192,53.11a.42.42,0,0,0,.3-.19.38.38,0,0,1,.26-.14c.13,0,.27.06.55.31s.35.38.35.49-.06.21-.26.21a.47.47,0,0,0-.36.13,24.49,24.49,0,0,1-1.9,1.73.36.36,0,0,1-.15.06.11.11,0,0,1-.12-.11.26.26,0,0,1,.09-.16,14.87,14.87,0,0,0,1.63-1.94s0,0-.06,0c-.65.16-1.81.5-2.69.78.06.29.13.58.21.89.25,1,.48,1.9.71,2.74a1.91,1.91,0,0,1,.09.47.3.3,0,0,1-.26.3c-.21,0-.36-.05-.41-.32-.23-1.08-.45-2.16-.66-3.07-.09-.35-.15-.64-.19-.85-.57.18-1.13.36-1.64.55a.8.8,0,0,0-.38.23.25.25,0,0,1-.21.09.84.84,0,0,1-.6-.32c-.29-.27-.38-.45-.38-.61s.08-.26.11-.26.09,0,.15.11c.21.27.32.33.49.33a2.74,2.74,0,0,0,.64-.1l1.7-.49c-.11-.5-.22-1-.33-1.32a.94.94,0,0,0-.2-.47c-.09-.07-.17-.11-.52-.11-.08,0-.13,0-.13-.06s.08-.15.19-.22a.65.65,0,0,1,.37-.12,1.41,1.41,0,0,1,.75.26c.23.12.3.21.3.31a.4.4,0,0,1-.07.19.27.27,0,0,0-.08.18,1.76,1.76,0,0,0,0,.25c.06.34.13.66.2,1C190.4,53.53,191.28,53.29,192,53.11Z"/><path class="cls-1" d="M197.84,51a.13.13,0,0,1,.13-.14,1.05,1.05,0,0,1,.21,0,3.44,3.44,0,0,1,1.32.62,1.35,1.35,0,0,1,.61,1,.4.4,0,0,1-.38.45c-.23,0-.33-.09-.46-.35A4,4,0,0,0,198,51.17.17.17,0,0,1,197.84,51Zm1.62,5.45a20.38,20.38,0,0,0,3.13-2.41,23.56,23.56,0,0,0,2.69-2.92.23.23,0,0,1,.17-.11c.07,0,.18.06.18.13a.49.49,0,0,1-.08.22,16.4,16.4,0,0,1-2.59,3.2,28.37,28.37,0,0,1-3.07,2.6.9.9,0,0,0-.3.32.3.3,0,0,1-.31.21,1.36,1.36,0,0,1-.78-.46,1.41,1.41,0,0,1-.49-.79c0-.13.05-.24.11-.24a.22.22,0,0,1,.15.1c.29.25.45.38.65.38A1.19,1.19,0,0,0,199.46,56.47Z"/><path class="cls-1" d="M210.63,52.51a.17.17,0,0,1-.09-.13c0-.06.07-.12.19-.12a1.12,1.12,0,0,1,.64.18,1.59,1.59,0,0,1,.7,1,.32.32,0,0,1-.27.34.47.47,0,0,0-.21.11,14,14,0,0,1-1.73,1.5,14.88,14.88,0,0,1-2.14,1.3.51.51,0,0,1-.2,0c-.08,0-.15,0-.15-.13a.22.22,0,0,1,.12-.18,15.24,15.24,0,0,0,2-1.52,13.37,13.37,0,0,0,1.2-1.25c.24-.29.35-.44.35-.6S210.92,52.71,210.63,52.51Zm3.08-.42c0-.08.09-.11.16-.11a.86.86,0,0,1,.3.1A7.52,7.52,0,0,1,216,53.29,3.41,3.41,0,0,1,217.11,55a.43.43,0,0,1-.39.46c-.27,0-.33-.09-.47-.35a9.08,9.08,0,0,0-1.09-1.65,7.05,7.05,0,0,0-1.28-1.15C213.75,52.23,213.71,52.16,213.71,52.09Zm4-1.37a1,1,0,1,1-1-1A1,1,0,0,1,217.72,50.72Zm-1.71,0a.67.67,0,1,0,1.34,0,.67.67,0,1,0-1.34,0Z"/><path class="cls-1" d="M228,56.1a1.8,1.8,0,0,1,.57.95c0,.31-.18.44-.35.44s-.34-.08-.51-.32a8.06,8.06,0,0,0-3-2.64,13.2,13.2,0,0,1-4.54,3.19.87.87,0,0,1-.32.1.13.13,0,0,1-.14-.12.15.15,0,0,1,.09-.16,16.58,16.58,0,0,0,4-3A14.55,14.55,0,0,0,226,51.62c0-.09.06-.11.06-.14s0,0-.06,0a28.18,28.18,0,0,0-3.3.46,1.1,1.1,0,0,0-.41.13.52.52,0,0,1-.3.08c-.22,0-.47-.13-.83-.5a1,1,0,0,1-.3-.64c0-.12.06-.18.11-.18s.11,0,.16.1a1.39,1.39,0,0,0,.9.45l.91-.07,2.74-.29a.76.76,0,0,0,.47-.2.39.39,0,0,1,.23-.13,1.11,1.11,0,0,1,.59.27c.21.16.33.28.33.46s-.12.19-.3.26a.6.6,0,0,0-.37.33A21.71,21.71,0,0,1,225,54.24,9.28,9.28,0,0,1,228,56.1Z"/><path class="cls-1" d="M236.78,53.61c1.78.19,2.58,1,2.58,2.13,0,1.4-1.05,2.38-3.36,2.38-.67,0-1.54-.06-2.11-.06s-1,0-1.44,0c-.07,0-.09,0-.09-.15s0-.15.09-.16c.63-.05.82-.12.91-.29s.15-.37.15-1.57V51.71c0-1.25,0-1.38-.13-1.52s-.29-.23-1-.28c-.08,0-.1,0-.1-.15s0-.18.1-.18c.48,0,1,0,1.48,0s1.35-.07,2-.07c2.18,0,3,.72,3,2,0,1-.58,1.59-2.08,2Zm-2.3-.18h.67c1.88,0,2.62-.71,2.62-1.84S237.11,50,235.71,50c-.77,0-1,.11-1.09.26s-.14.38-.14,1.49Zm0,2.49c0,1.07.05,1.26.18,1.48s.47.32,1.28.32c1.54,0,2.29-.79,2.29-2s-.84-1.92-2.92-1.92c-.23,0-.51,0-.83,0Z"/><path class="cls-1" d="M242.82,50.9c-.11,0-.16-.1-.16-.24s0-.09.14-.12a17.45,17.45,0,0,0,2.25-1c.13,0,.19,0,.19.15,0,.94-.06,1.6-.06,2.57v3.64c0,1.16,0,1.36.15,1.56s.26.24,1.09.3c.08,0,.11,0,.11.18s0,.17-.09.17c-.54,0-1.19-.05-1.69-.05s-1.13,0-1.73.05c-.06,0-.08,0-.08-.17s0-.16.12-.18c.76,0,.94-.13,1-.3s.15-.4.15-1.56V51.67a1.73,1.73,0,0,0-.13-.87.4.4,0,0,0-.34-.16,1.49,1.49,0,0,0-.43.09Z"/><path class="cls-1" d="M254.07,53.92a1,1,0,0,1-1,1,1,1,0,0,1-1-1,1,1,0,0,1,1-1A1,1,0,0,1,254.07,53.92Z"/><path class="cls-1" d="M259.88,50.9c-.1,0-.15-.1-.15-.24s0-.09.13-.12a17.45,17.45,0,0,0,2.25-1c.14,0,.2,0,.2.15,0,.94-.06,1.6-.06,2.57v3.64c0,1.16,0,1.36.14,1.56s.26.24,1.09.3c.09,0,.11,0,.11.18s0,.17-.08.17c-.54,0-1.19-.05-1.7-.05s-1.12,0-1.72.05c-.06,0-.09,0-.09-.17s0-.16.12-.18c.76,0,.94-.13,1.05-.3s.14-.4.14-1.56V51.67a1.73,1.73,0,0,0-.13-.87.39.39,0,0,0-.34-.16,1.56,1.56,0,0,0-.43.09Z"/><path class="cls-1" d="M268.76,55.92c0,1.26,0,1.4.12,1.57s.25.23,1,.29c.09,0,.12,0,.12.16s0,.15-.12.15c-.48,0-1.14-.05-1.62-.05s-1.08,0-1.51.05c-.1,0-.12,0-.12-.15s0-.15.12-.16c.62,0,.78-.12.87-.29s.15-.39.15-1.57V51.71c0-1.23,0-1.35-.13-1.52s-.24-.23-1-.28c-.07,0-.1,0-.1-.14s0-.19.1-.19c1,0,2.09.06,3,.06s1.92,0,2.95-.06c.05.6.15,1.29.23,1.89v0c0,.06-.09.11-.21.11s-.09,0-.11-.1a2.84,2.84,0,0,0-.74-1.16c-.32-.24-.68-.35-1.85-.35-.71,0-.94.11-1.05.29s-.13.4-.13,1.41v1.74h.78a3.24,3.24,0,0,0,1.62-.21,1.14,1.14,0,0,0,.33-.79c0-.08,0-.11.16-.11s.17,0,.17.11c0,.4,0,.79,0,1.17s0,.92,0,1.34c0,.09,0,.12-.17.12s-.15,0-.16-.13a1.18,1.18,0,0,0-.35-.87,3.27,3.27,0,0,0-1.6-.23l-.78,0Z"/></g></g></svg>
