<svg xmlns="http://www.w3.org/2000/svg" viewBox="0 0 544.98 106.05"><defs><style>.cls-1{fill:#fff;stroke:#fff;stroke-miterlimit:10;stroke-width:0.25px;}</style></defs><g id="レイヤー_2" data-name="レイヤー 2"><g id="レイヤー_4" data-name="レイヤー 4"><path class="cls-1" d="M9.89,9h5.88c1-1.09,1.07-1.16,1.2-1.16s.25.07,1.22.84c.48.38.52.53.52.65s-.06.19-.27.19H9.89v3.66c0,4,.09,5.31.09,5.71s-.3.67-.93.67c-.44,0-.61-.17-.61-.55s.09-1.78.09-5.69V9.53H1.89a8.46,8.46,0,0,0-1.51.11L.17,8.86A10.35,10.35,0,0,0,1.89,9H8.53V4.09a58,58,0,0,1-6.76.82c-.13,0-.17-.29,0-.31A42.18,42.18,0,0,0,11.74,2,12.55,12.55,0,0,0,14.05.84c1,.69,1.53,1.22,1.53,1.43s-.35.33-1.09.12A40.49,40.49,0,0,1,9.89,3.8Z"/><path class="cls-1" d="M29.42,13.86a9.81,9.81,0,0,0-.1-1.79c1.76.15,2,.25,2,.48s-.08.26-.63.49v.82h6.07c.78-.91.9-1,1-1s.27.08,1.18.8c.37.29.44.4.44.52s-.07.19-.28.19H30.91a12.74,12.74,0,0,0,3.36,2.16,17,17,0,0,0,5.5,1.29c.11,0,.11.14,0,.18-.46.15-.67.36-.92.95-.08.21-.19.25-.31.25a3.21,3.21,0,0,1-.84-.15,13.94,13.94,0,0,1-4-1.74,13.46,13.46,0,0,1-3.05-2.64c0,.9,0,1.76.06,2.56.05,1,.09,1.87.09,2.08,0,.42-.28.6-.86.6-.42,0-.57-.14-.57-.5s.06-.94.08-1.78.07-1.58.09-2.48A17.41,17.41,0,0,1,21,19.36c-.12,0-.25-.25-.12-.3a19.5,19.5,0,0,0,7.68-4.68H22.87a8.61,8.61,0,0,0-1.43.13l-.18-.78a8.07,8.07,0,0,0,1.61.13ZM37,2.58c.8-.94.93-1,1-1s.3.09,1.16.8c.44.36.48.46.48.57s-.06.19-.27.19h-6c0,.56,0,.86,0,1,0,.38-.23.55-.75.55s-.59-.13-.59-.46c0-.09,0-.38,0-1.07H28c0,.54,0,.84,0,.94,0,.4-.25.57-.82.57-.4,0-.53-.15-.53-.48,0-.09,0-.36.05-1H22.64a8.55,8.55,0,0,0-1.36.12l-.19-.79a8.66,8.66,0,0,0,1.55.14h4.12a10.82,10.82,0,0,0-.11-2c1.81.19,2.06.27,2.06.52s-.08.27-.69.46v1h4.11a9.83,9.83,0,0,0-.12-2c1.84.21,2.08.29,2.08.54s-.09.25-.7.46v1ZM35.36,7c0,1.62,0,2.25,0,2.44,0,.38-.25.52-.74.52s-.52-.08-.52-.42V9.34H30.51v.15c0,.38-.25.52-.73.52s-.52-.12-.52-.44c0-.16,0-.79,0-2.45V7H25.87v4.1H36c.73-.86.86-1,1-1s.26.11,1.1.76c.37.29.44.42.44.54s-.09.19-.3.19H25.87V12c0,.44-.23.54-.77.54-.38,0-.53-.08-.53-.44s.07-1.28.07-3.78V7h-2a8,8,0,0,0-1.36.13l-.21-.8a8.07,8.07,0,0,0,1.57.15h2c0-1-.05-1.37-.09-1.89,1.72.19,1.89.29,1.89.52s-.08.23-.57.44v.93H29.3a18.68,18.68,0,0,0-.09-1.87c1.62.17,1.87.27,1.87.5s-.08.28-.57.49v.88h3.64a18,18,0,0,0-.06-1.87c1.57.15,1.84.25,1.84.5s-.08.28-.57.49v.88h1.9c.71-.88.86-1,1-1s.3.11,1.09.78c.36.31.44.4.44.52S39.69,7,39.5,7ZM30.51,7V8.82h3.64V7Z"/><path class="cls-1" d="M51.83,7.22a15.15,15.15,0,0,0,3.72,7.14,14.31,14.31,0,0,0,5.33,3.49c.1,0,0,.16-.06.21a1.2,1.2,0,0,0-.91.92c-.08.21-.19.29-.31.29a3.49,3.49,0,0,1-1-.52,15.81,15.81,0,0,1-4.2-3.95,17.22,17.22,0,0,1-3-7.33A13.57,13.57,0,0,1,49,14.36a14.37,14.37,0,0,1-6.86,5c-.13,0-.25-.23-.15-.3A14.71,14.71,0,0,0,48.37,13a15.49,15.49,0,0,0,1.72-5.75H44a10.32,10.32,0,0,0-1.66.13l-.19-.78A13.51,13.51,0,0,0,44,6.7h6.13a43.29,43.29,0,0,0,.19-4.39A10.58,10.58,0,0,0,50.26,1c2,.31,2.2.42,2.2.67s-.08.29-.71.54c0,.74,0,1.47-.07,2.15,0,.84-.08,1.61-.17,2.35h6.14c1-1.14,1.13-1.28,1.26-1.28s.31.14,1.3,1c.46.38.52.53.52.65s-.06.19-.27.19Z"/><path class="cls-1" d="M71.76,12.39a11.5,11.5,0,0,0-.08-1.89c.71.1,1.17.17,1.47.23a15.09,15.09,0,0,0,2.43-2.44H68.69a5.76,5.76,0,0,0-1.53.15l-.23-.82a8.81,8.81,0,0,0,1.72.15h7c.63-.59.76-.65.87-.65s.2.06.92.69c.31.29.35.42.35.52s-.18.28-.88.36a16.91,16.91,0,0,1-3.27,2.23.17.17,0,0,1,0,.14c0,.17-.08.3-.63.51v.82h5.84c.92-1.05,1-1.14,1.13-1.14s.25.09,1.22.86c.46.38.5.49.5.61s-.08.19-.29.19H73v1.41c0,2.58.06,3.09.06,3.67a1.44,1.44,0,0,1-.67,1.3,1.9,1.9,0,0,1-1.17.4c-.26,0-.32-.06-.38-.4-.09-.52-.44-.79-2.37-1.19-.13,0-.13-.3,0-.27C70,18,70.79,18,71.36,18c.27,0,.4-.11.4-.38V12.91h-7a6.16,6.16,0,0,0-1.39.13l-.21-.78a8,8,0,0,0,1.57.13ZM75.39,5a20.56,20.56,0,0,0,1.45-2.48,10.17,10.17,0,0,0,.63-1.6c1.51.68,1.79.89,1.79,1.08s-.15.33-.84.33A17.86,17.86,0,0,1,76,5h3.38c.65-.67.74-.74.86-.74s.23.07,1,.78c.4.38.46.52.46.65s-.19.36-.69.36-.44.06-.59.23a11,11,0,0,1-1.53,1.45c-.11.08-.26,0-.19-.15a10.7,10.7,0,0,0,.77-2.06H65.67c0,1.79-.82,2.86-1.68,2.86a.73.73,0,0,1-.75-.76c0-.29.14-.56.62-.84a3,3,0,0,0,1.48-2.66c0-.13.23-.13.25,0a7,7,0,0,1,.08.88ZM66.78,1.2c1.43.56,2.42,1.63,2.42,2.52a.77.77,0,0,1-.72.82c-.35,0-.5-.17-.67-.87a6,6,0,0,0-1.17-2.29A.12.12,0,0,1,66.78,1.2ZM71.11.8c1.45.63,2.43,1.72,2.43,2.62,0,.57-.31.9-.73.9s-.53-.16-.65-.81A6.05,6.05,0,0,0,70.94,1C70.86.9,71,.73,71.11.8Z"/><path class="cls-1" d="M92.53,4H87.61a9.91,9.91,0,0,0-1.69.13l-.22-.78a12.64,12.64,0,0,0,1.91.12H98.32c1-1.17,1.12-1.24,1.22-1.24s.25.07,1.28.91c.53.42.57.54.57.65s-.09.21-.3.21h-7.2V16.71h5.69c1-1.19,1.18-1.26,1.28-1.26s.23.07,1.31.93c.54.44.58.54.58.65s-.06.21-.27.21H86.12a10,10,0,0,0-1.76.14l-.21-.79a13.33,13.33,0,0,0,1.95.12h6.43Z"/><path class="cls-1" d="M113.76,12.39a11.5,11.5,0,0,0-.08-1.89c.71.1,1.17.17,1.47.23a15.09,15.09,0,0,0,2.43-2.44h-6.89a5.76,5.76,0,0,0-1.53.15l-.23-.82a8.81,8.81,0,0,0,1.72.15h7c.63-.59.76-.65.87-.65s.2.06.92.69c.31.29.35.42.35.52s-.18.28-.88.36a16.91,16.91,0,0,1-3.27,2.23.17.17,0,0,1,0,.14c0,.17-.08.3-.63.51v.82h5.84c.92-1.05,1-1.14,1.13-1.14s.25.09,1.22.86c.46.38.5.49.5.61s-.08.19-.29.19H115v1.41c0,2.58.06,3.09.06,3.67a1.44,1.44,0,0,1-.67,1.3,1.9,1.9,0,0,1-1.17.4c-.26,0-.32-.06-.38-.4-.09-.52-.44-.79-2.37-1.19-.13,0-.13-.3,0-.27,1.53.14,2.28.21,2.85.21.27,0,.4-.11.4-.38V12.91h-7a6.16,6.16,0,0,0-1.39.13l-.21-.78a8,8,0,0,0,1.57.13ZM117.39,5a20.56,20.56,0,0,0,1.45-2.48,10.17,10.17,0,0,0,.63-1.6c1.51.68,1.79.89,1.79,1.08s-.15.33-.84.33A17.86,17.86,0,0,1,118,5h3.38c.65-.67.74-.74.86-.74s.23.07,1,.78c.4.38.46.52.46.65s-.19.36-.69.36-.44.06-.59.23a11,11,0,0,1-1.53,1.45c-.11.08-.26,0-.19-.15a10.7,10.7,0,0,0,.77-2.06H107.67c0,1.79-.82,2.86-1.68,2.86a.73.73,0,0,1-.75-.76c0-.29.14-.56.62-.84a3,3,0,0,0,1.48-2.66c0-.13.23-.13.25,0a7,7,0,0,1,.08.88ZM108.78,1.2c1.43.56,2.42,1.63,2.42,2.52a.77.77,0,0,1-.72.82c-.35,0-.5-.17-.67-.87a6,6,0,0,0-1.17-2.29A.12.12,0,0,1,108.78,1.2Zm4.33-.4c1.45.63,2.43,1.72,2.43,2.62,0,.57-.31.9-.73.9s-.53-.16-.65-.81A6.05,6.05,0,0,0,112.94,1C112.86.9,113,.73,113.11.8Z"/><path class="cls-1" d="M132.16,9.13a23.45,23.45,0,0,0,1.28-3,8.52,8.52,0,0,0,.35-1.41c1.58.51,1.87.7,1.87.91s-.15.27-.8.33a21.31,21.31,0,0,1-2.16,3.19H135c.78-.94.88-1,1-1s.25.09,1.07.8c.4.36.46.46.46.57s-.08.19-.29.19H127.5a8.71,8.71,0,0,0-1.39.12L125.9,9a7.54,7.54,0,0,0,1.6.14Zm-1.26-7a11.45,11.45,0,0,0-.09-1.4c1.79.18,2,.31,2,.54s-.11.3-.69.55V3.55h2.56c.73-.88.86-.95,1-.95s.23.09,1.09.78c.36.29.42.4.42.5s-.08.19-.29.19h-9.07a7.61,7.61,0,0,0-1.28.13l-.23-.8a6.14,6.14,0,0,0,1.51.15h3.07ZM129,17.74v1c0,.4-.24.52-.74.52s-.57-.12-.57-.46.09-1.13.09-3.67c0-1.95,0-2.84-.11-4a9.29,9.29,0,0,1,1.51.76h4.71c.59-.66.65-.72.75-.72s.26.06.84.57c.3.25.38.35.38.46s-.08.25-.54.59V14.4c0,2.69.06,3.78.06,4.08s-.3.54-.8.54-.52-.12-.52-.44v-.84Zm-.67-12.91c1.53.92,2.11,2,2.11,2.75s-.27.94-.77.94c-.34,0-.49-.21-.55-.79a6,6,0,0,0-1-2.75C128.08,4.87,128.23,4.77,128.34,4.83Zm5.73,7.62H129v4.77h5.06Zm5.16,1.32c0,3.7,0,4.79,0,5.17s-.23.61-.75.61S138,19.36,138,19c0-1.74.06-5.65.06-9.93,0-5.79,0-7-.1-7.89a8,8,0,0,1,1.53.75h3.44c.59-.63.7-.69.8-.69s.3.1.86.67c.32.32.36.44.36.55s-.17.27-.65.4a38.66,38.66,0,0,1-3.13,5.46c2.25,1.61,3.3,3.4,3.3,5.58a2.59,2.59,0,0,1-.59,1.87,2.33,2.33,0,0,1-1.66.78c-.25,0-.31,0-.36-.34s-.35-.73-1.74-1.05c-.13,0-.1-.27,0-.27,1,.08,1.66.12,2.08.12a.8.8,0,0,0,.71-.27,2.37,2.37,0,0,0,.28-1.41c0-1.76-.76-3.29-2.54-4.95a37.29,37.29,0,0,0,2.26-5.92h-3.65Z"/><path class="cls-1" d="M146.84,18.12a19.77,19.77,0,0,0,1.11-4,12.87,12.87,0,0,0,.19-1.93c1.45.42,1.7.53,1.7.76s-.11.29-.59.37a14.15,14.15,0,0,1-2.14,4.88C147.05,18.35,146.79,18.25,146.84,18.12Zm3.46-7.66c-.69.12-1.43.25-2.21.37-.14.42-.23.59-.41.59s-.3-.38-.59-1.83a6.78,6.78,0,0,0,1,.05c.34,0,.63,0,.93,0a28.82,28.82,0,0,0,2.58-4.22,11.81,11.81,0,0,0,.73-1.73c1.37.65,1.68.84,1.68,1.07s-.08.3-.75.32a32.62,32.62,0,0,1-3.68,4.56c1.18,0,2.36-.13,3.51-.21a5.57,5.57,0,0,0-.82-1.68c-.06-.09.09-.21.17-.15a3.7,3.7,0,0,1,2,2.75c0,.48-.21.84-.61.84s-.49-.21-.57-.82a5.3,5.3,0,0,0-.1-.55c-.57.15-1.14.3-1.71.42v4.52c0,2.35.09,4,.09,4.55s-.25.59-.78.59-.57-.14-.57-.48.11-1.68.11-4.2Zm-.23-8.4a7.76,7.76,0,0,0,.34-1.37c1.44.55,1.84.74,1.84,1s-.12.29-.8.36a17.23,17.23,0,0,1-2.16,3,2.24,2.24,0,0,1,.9,1.55c0,.5-.27.76-.62.76s-.38-.13-.61-.82a5.07,5.07,0,0,0-1.54-2.27c-.08-.06,0-.23.11-.19a5.46,5.46,0,0,1,1.43.71A19.23,19.23,0,0,0,150.07,2.06Zm2.35,9.74a3.26,3.26,0,0,1,1.66,2.39c0,.59-.27.88-.67.88s-.48-.18-.53-.75a5.48,5.48,0,0,0-.67-2.37C152.15,11.84,152.32,11.74,152.42,11.8ZM155.3,14c.31,2.14-.46,4-1.54,4a.65.65,0,0,1-.67-.67.87.87,0,0,1,.51-.8A3.1,3.1,0,0,0,155.05,14,.13.13,0,0,1,155.3,14Zm-1.56-6.32a15.81,15.81,0,0,0,2.84-4.78A7.29,7.29,0,0,0,157.06,1c1.66.54,1.89.65,1.89.9s-.15.29-.78.4A12.85,12.85,0,0,1,154,7.89C153.85,8,153.66,7.75,153.74,7.66Zm2.27,3c-.15.53-.25.63-.42.63S155.3,11,155,9.38a8.29,8.29,0,0,0,1.09.07c.26,0,.49,0,.72,0,.5-1,.92-2.06,1.34-3.17a10.2,10.2,0,0,0,.51-1.91c1.53.48,1.8.61,1.8.84s0,.27-.73.37a21.1,21.1,0,0,1-2.33,3.85,47.59,47.59,0,0,0,4.78-.36,6.89,6.89,0,0,0-1.38-1.93c-.09-.09.06-.21.14-.17,2,.92,3.07,2.37,3.07,3.17,0,.61-.25.92-.69.92-.28,0-.42-.14-.57-.63a9.24,9.24,0,0,0-.36-.92A46.28,46.28,0,0,1,156,10.64Zm1.87,6.47c0,.78.21.95,1.83.95,1.34,0,1.89-.15,2.12-.44a7.19,7.19,0,0,0,.82-2.1c0-.11.21-.09.21,0,0,.56,0,1.26,0,1.66s.1.39.29.46a.48.48,0,0,1,.38.52c0,.34-.38.61-.93.76a12.6,12.6,0,0,1-3,.27c-2.5,0-3-.48-3-1.83,0-.33.06-.77.06-2.62a16.73,16.73,0,0,0-.08-2.21c1.81.22,1.95.28,1.95.53s-.08.27-.69.55Zm.69-5.82c1.81.45,2.75,1.37,2.75,2.23,0,.48-.27.82-.63.82s-.48-.13-.65-.63a4.73,4.73,0,0,0-1.59-2.2A.13.13,0,0,1,158.57,11.29Zm7.62-4.4c-.42.08-.54.23-.73.9,0,.15-.11.21-.19.21s-.27-.11-.57-.32a10.26,10.26,0,0,1-2-2.24,15.79,15.79,0,0,1-1.66-3.53.75.75,0,0,0-.21-.4.3.3,0,0,1-.17-.23c0-.1.53-.29.72-.29s.12.06.12.16-.06.21-.06.3a1,1,0,0,0,.08.38,9.3,9.3,0,0,0,1.87,2.81,9.3,9.3,0,0,0,2.86,2C166.38,6.68,166.32,6.87,166.19,6.89Zm-2.81,6.78c1.74.9,2.63,2.22,2.63,3.15,0,.5-.28.92-.72.92s-.57-.21-.67-.84a6.61,6.61,0,0,0-1.41-3.06C163.13,13.73,163.28,13.61,163.38,13.67Z"/><path class="cls-1" d="M167.82,10.75c-.11.06-.26-.21-.15-.27a22,22,0,0,0,7.66-7.9,9.74,9.74,0,0,0,.9-2c2.06.58,2.17.65,2.17.88s-.21.23-.65.33a16.48,16.48,0,0,0,4.45,4.81,17.09,17.09,0,0,0,5.08,2.46c.1,0,.08.19,0,.21-.51.08-.74.25-1,.94-.08.23-.19.28-.29.28a1.61,1.61,0,0,1-.7-.28,21.92,21.92,0,0,1-4-2.91A18.54,18.54,0,0,1,177.35,2,20.64,20.64,0,0,1,167.82,10.75ZM172.5,18v1c0,.4-.28.54-.84.54-.4,0-.55-.12-.55-.46s.08-1.36.08-4.37c0-2,0-2.75-.08-3.86a17.66,17.66,0,0,1,1.6.86h8.73c.61-.69.69-.73.8-.73s.21,0,.92.65c.34.27.36.38.36.48s-.08.27-.59.57v1.83c0,3,.07,4.13.07,4.47s-.32.56-.87.56c-.39,0-.54-.14-.54-.48V18Zm9.09-5.81H172.5v5.29h9.09ZM173.25,8a7.9,7.9,0,0,0,1.51.13h3.83c.77-.91.86-1,1-1s.26.06,1.11.74c.38.31.45.44.45.56s-.09.19-.28.19h-6.11a5.66,5.66,0,0,0-1.3.13Z"/><path class="cls-1" d="M197.53,4h-4.92a9.91,9.91,0,0,0-1.69.13l-.22-.78a12.64,12.64,0,0,0,1.91.12h10.71c1-1.17,1.12-1.24,1.22-1.24s.25.07,1.28.91c.53.42.57.54.57.65s-.09.21-.3.21h-7.2V16.71h5.69c1-1.19,1.18-1.26,1.28-1.26s.23.07,1.31.93c.54.44.58.54.58.65s-.06.21-.27.21H191.12a10,10,0,0,0-1.76.14l-.21-.79a13.33,13.33,0,0,0,1.95.12h6.43Z"/><path class="cls-1" d="M218.76,12.39a11.5,11.5,0,0,0-.08-1.89c.71.1,1.17.17,1.47.23a15.09,15.09,0,0,0,2.43-2.44h-6.89a5.76,5.76,0,0,0-1.53.15l-.23-.82a8.81,8.81,0,0,0,1.72.15h7c.63-.59.76-.65.87-.65s.2.06.92.69c.31.29.35.42.35.52s-.18.28-.88.36a16.91,16.91,0,0,1-3.27,2.23.17.17,0,0,1,0,.14c0,.17-.08.3-.63.51v.82h5.84c.92-1.05,1-1.14,1.13-1.14s.25.09,1.22.86c.46.38.5.49.5.61s-.08.19-.29.19H220v1.41c0,2.58.06,3.09.06,3.67a1.44,1.44,0,0,1-.67,1.3,1.9,1.9,0,0,1-1.17.4c-.26,0-.32-.06-.38-.4-.09-.52-.44-.79-2.37-1.19-.13,0-.13-.3,0-.27,1.53.14,2.28.21,2.85.21.27,0,.4-.11.4-.38V12.91h-7a6.16,6.16,0,0,0-1.39.13l-.21-.78a8,8,0,0,0,1.57.13ZM222.39,5a20.56,20.56,0,0,0,1.45-2.48,10.17,10.17,0,0,0,.63-1.6c1.51.68,1.79.89,1.79,1.08s-.15.33-.84.33A17.86,17.86,0,0,1,223,5h3.38c.65-.67.74-.74.86-.74s.23.07,1,.78c.4.38.46.52.46.65s-.19.36-.69.36-.44.06-.59.23a11,11,0,0,1-1.53,1.45c-.11.08-.26,0-.19-.15a10.7,10.7,0,0,0,.77-2.06H212.67c0,1.79-.82,2.86-1.68,2.86a.73.73,0,0,1-.75-.76c0-.29.14-.56.62-.84a3,3,0,0,0,1.48-2.66c0-.13.23-.13.25,0a7,7,0,0,1,.08.88ZM213.78,1.2c1.43.56,2.42,1.63,2.42,2.52a.77.77,0,0,1-.72.82c-.35,0-.5-.17-.67-.87a6,6,0,0,0-1.17-2.29A.12.12,0,0,1,213.78,1.2Zm4.33-.4c1.45.63,2.43,1.72,2.43,2.62,0,.57-.31.9-.73.9s-.53-.16-.65-.81A6.05,6.05,0,0,0,217.94,1C217.86.9,218,.73,218.11.8Z"/><path class="cls-1" d="M235.94,8.59c2,.61,3.27,1.76,3.27,2.68,0,.42-.29.78-.58.78s-.49-.15-.74-.69a5.12,5.12,0,0,0-1.95-2.42v3.38c0,4.46,0,6.22,0,6.74s-.27.61-.84.61c-.4,0-.51-.17-.51-.5,0-.53.11-2.73.19-9.68a16.59,16.59,0,0,1-4,5.58c-.08.09-.31-.08-.23-.18a23.52,23.52,0,0,0,4-7.79h-2.12a7.7,7.7,0,0,0-1.28.1l-.21-.78a7.17,7.17,0,0,0,1.49.15h2.29V3.15c-1,.17-2,.29-3.32.4-.12,0-.19-.25-.06-.27a23.94,23.94,0,0,0,5.31-1.75,5.68,5.68,0,0,0,1.22-.75c1.09.71,1.39,1,1.39,1.19s-.24.34-1,.17a16.87,16.87,0,0,1-2.31.76V6.57h1.4c.72-.84.8-.9.93-.9s.25.06,1,.71c.33.28.4.38.4.51s-.09.21-.3.21h-3.46Zm11.86,3.59c.57-1.16.74-1.33.86-1.33s.32.11,1.35.72c.39.23.46.33.46.46s-.09.15-.28.19l-3.33.67c0,4.68.1,5.59.1,6.11s-.31.65-.88.65-.59-.19-.59-.54c0-.57,0-1.75.06-6l-5.87,1.18a5.86,5.86,0,0,0-1.31.4L238,14a11,11,0,0,0,1.57-.19l6-1.17V8.27c0-5,0-6.53-.15-7.47,1.78.19,2.16.31,2.16.56s-.08.32-.73.57V12.37Zm-8.12-4.31c2,.3,3.5,1.39,3.5,2.4a.7.7,0,0,1-.67.79c-.34,0-.5-.14-.69-.52a5.68,5.68,0,0,0-2.27-2.44C239.44,8,239.55,7.85,239.68,7.87Zm1-4.68c2,.4,3.31,1.49,3.31,2.52a.71.71,0,0,1-.65.8c-.31,0-.55-.17-.82-.82a5.35,5.35,0,0,0-2-2.27C240.49,3.36,240.6,3.17,240.73,3.19Z"/><path class="cls-1" d="M256.87,9.28a3.61,3.61,0,0,0-1.09.29.89.89,0,0,1-.52.15A2.06,2.06,0,0,1,254,9.09,1.79,1.79,0,0,1,253.35,8c0-.25.08-.36.16-.36a.35.35,0,0,1,.19.09,2.49,2.49,0,0,0,1.43.69,10,10,0,0,0,1-.06c1.74-.19,3.19-.32,5.15-.48l4.72-.4a2.32,2.32,0,0,0,.9-.21,1,1,0,0,1,.57-.21,3.45,3.45,0,0,1,1.41.44c.35.21.5.4.5.67a.42.42,0,0,1-.48.44c-.49,0-.93-.08-1.51-.11s-1.48,0-2.19,0c-1,0-2.2.09-3.17.15.57.34.95.69.95,1a.48.48,0,0,1-.13.33,1.11,1.11,0,0,0-.25.44A13.22,13.22,0,0,1,260.47,15a14.19,14.19,0,0,1-4.06,3.68.8.8,0,0,1-.4.12.25.25,0,0,1-.23-.25c0-.13.05-.19.21-.32a15,15,0,0,0,3.53-3.84,14,14,0,0,0,1.79-4.16,2.27,2.27,0,0,0,.08-.63,1.12,1.12,0,0,0-.36-.81C259.67,8.88,258.18,9.05,256.87,9.28Zm3.2-5.38c.9-.08,2-.2,2.87-.35a5.8,5.8,0,0,0,1.18-.27,1.89,1.89,0,0,1,.75-.19,1.76,1.76,0,0,1,.93.21c.36.23.46.4.46.63s-.23.44-.63.48c-1.79.17-4,.33-5.94.48-.44,0-.86.09-1.35.09A1.87,1.87,0,0,1,257,4.49c-.46-.37-.76-.71-.76-1,0-.14.11-.29.23-.29s.15.06.28.17a2.53,2.53,0,0,0,1.59.63C258.89,4,259.73,3.93,260.07,3.9Zm7-2.45a5,5,0,0,1,1.55.84,2.14,2.14,0,0,1,.9,1.36c0,.38-.21.61-.52.61s-.42-.17-.69-.69a6.22,6.22,0,0,0-1.56-1.7.31.31,0,0,1-.12-.21.23.23,0,0,1,.23-.23A.78.78,0,0,1,267,1.45ZM268.93.19a5.33,5.33,0,0,1,1.49.69,2,2,0,0,1,.94,1.34.53.53,0,0,1-.48.57c-.25,0-.4-.08-.69-.57A5.36,5.36,0,0,0,268.46.54a.26.26,0,0,1-.08-.2.21.21,0,0,1,.21-.22A1.83,1.83,0,0,1,268.93.19Z"/><path class="cls-1" d="M284.47,7.75c0-.88,0-1.68,0-2.71s0-1.24-.19-1.43A2.53,2.53,0,0,0,283,3c-.13,0-.17-.08-.17-.16s.08-.19.27-.3a1.05,1.05,0,0,1,.57-.12,5.23,5.23,0,0,1,1.47.35c.61.25.88.49.88.86a.59.59,0,0,1-.21.4,1.29,1.29,0,0,0-.21.86c0,.68,0,1.6,0,2.73.51,0,1.13-.06,2.06-.16a3.1,3.1,0,0,0,.67-.15,1.22,1.22,0,0,1,.61-.17,3.68,3.68,0,0,1,1.57.46.63.63,0,0,1,.36.61c0,.29-.23.46-.63.46a10.76,10.76,0,0,1-1.22-.1,30.91,30.91,0,0,0-3.44-.09,11,11,0,0,1-1.7,6.26,10.14,10.14,0,0,1-5.21,3.68,1.29,1.29,0,0,1-.36.06.24.24,0,0,1-.25-.21c0-.13,0-.21.28-.32A11,11,0,0,0,283,14.17a10.47,10.47,0,0,0,1.41-5.58c-1.26.06-2.71.16-4.14.33,0,1.66,0,2.77,0,3.38,0,.82-.23,1-.55,1-.5,0-.67-.44-.67-1s.11-2,.13-3.28c-.53.06-1.2.17-1.91.31a2.88,2.88,0,0,0-.86.28,1,1,0,0,1-.51.17c-.42,0-.77-.19-1.38-.76s-.72-.74-.72-1.07a.2.2,0,0,1,.21-.21.56.56,0,0,1,.32.17,2.23,2.23,0,0,0,1.43.54,9.73,9.73,0,0,0,1.07-.06l2.37-.25V6.05c0-.44-.06-.72-.23-.86a3.19,3.19,0,0,0-1.07-.53c-.17,0-.3-.08-.3-.19a.29.29,0,0,1,.19-.25,1.16,1.16,0,0,1,.59-.15,4.52,4.52,0,0,1,1.58.49c.52.25.67.42.67.65a.68.68,0,0,1-.15.42,1.89,1.89,0,0,0-.19.84c0,.44,0,1.09,0,1.61C281.72,7.94,283,7.83,284.47,7.75Zm3.44-5.08a4.88,4.88,0,0,1,1.55.84,2.12,2.12,0,0,1,.91,1.36c0,.38-.21.61-.53.61s-.42-.17-.69-.69a5.88,5.88,0,0,0-1.55-1.7.29.29,0,0,1-.13-.21.24.24,0,0,1,.23-.24A.51.51,0,0,1,287.91,2.67Zm1.89-1.26a5.33,5.33,0,0,1,1.49.69,2,2,0,0,1,.95,1.34.53.53,0,0,1-.49.57c-.25,0-.4-.08-.69-.57a5.42,5.42,0,0,0-1.72-1.68.26.26,0,0,1-.08-.21.21.21,0,0,1,.2-.21A1.19,1.19,0,0,1,289.8,1.41Z"/><path class="cls-1" d="M295.92,13.84a1,1,0,0,1-.49.16.27.27,0,0,1-.27-.27c0-.08.08-.23.31-.4a38.46,38.46,0,0,0,5.61-5.12,39.12,39.12,0,0,0,3.46-4.37,1.2,1.2,0,0,0,.23-.71c0-.19-.2-.38-.77-.69-.17-.11-.32-.17-.32-.3s.23-.29.65-.29a3.36,3.36,0,0,1,1.56.67c.61.42.79.71.79,1s-.1.45-.46.61a2.72,2.72,0,0,0-.58.57c-.87,1-1.39,1.64-2.21,2.58.82.91.9,1.22.9,1.49a.79.79,0,0,1-.08.38,1.36,1.36,0,0,0-.1.51c0,1.11,0,2.05,0,3.46,0,1.89.07,3.36.07,4.51,0,.59-.15,1-.53,1s-.59-.27-.73-.61a3,3,0,0,1-.3-1.17,1,1,0,0,1,.11-.45,3,3,0,0,0,.17-1c0-1.92.06-3.51.06-6.14,0-.63,0-.94-.21-1.13A35.85,35.85,0,0,1,295.92,13.84Z"/><path class="cls-1" d="M314.33,5.06a.23.23,0,0,1,.23-.23,1.71,1.71,0,0,1,.36,0A6.29,6.29,0,0,1,317.23,6a2.31,2.31,0,0,1,1.07,1.75c0,.5-.29.79-.67.79s-.57-.17-.8-.61a7.11,7.11,0,0,0-2.31-2.56A.32.32,0,0,1,314.33,5.06Zm2.84,9.55a36.82,36.82,0,0,0,5.48-4.22,40.71,40.71,0,0,0,4.7-5.12.41.41,0,0,1,.29-.19c.13,0,.32.11.32.23a.75.75,0,0,1-.13.38,28.31,28.31,0,0,1-4.53,5.6,50.63,50.63,0,0,1-5.38,4.56,1.46,1.46,0,0,0-.52.57.56.56,0,0,1-.55.36,2.36,2.36,0,0,1-1.36-.8,2.53,2.53,0,0,1-.87-1.39c0-.23.09-.42.19-.42s.19.09.28.17c.5.44.77.67,1.13.67A2.14,2.14,0,0,0,317.17,14.61Z"/><path class="cls-1" d="M335,7.87a2.07,2.07,0,0,0-.72.21.55.55,0,0,1-.33.09c-.32,0-.76-.19-1.41-.91a1.31,1.31,0,0,1-.46-1c0-.21.08-.34.16-.34s.13,0,.32.23a2,2,0,0,0,1.51.59c.44,0,1.05,0,1.77-.08,2.07-.17,4.09-.34,6.08-.46a1.09,1.09,0,0,0,.72-.24c.23-.23.38-.33.57-.33a1.63,1.63,0,0,1,.88.57c.52.52.67.79.67,1s-.1.26-.4.4A.67.67,0,0,0,344,8c-.35,1.62-.75,3.47-1.13,5.17.82.29,1,.52,1,.82s-.19.46-.4.46-.78-.07-1.34-.07-1.28,0-2.34.11c-1.8.15-3.35.31-4.76.48a1.56,1.56,0,0,0-.63.17.81.81,0,0,1-.51.15c-.23,0-.56-.21-1.17-.78a2.22,2.22,0,0,1-.69-1.26.24.24,0,0,1,.25-.27c.1,0,.23.12.35.25a2.29,2.29,0,0,0,1.48.69c.2,0,.81,0,1.78-.12l5.84-.55c.4-2,.75-4.16,1-6.11A76.94,76.94,0,0,0,335,7.87Z"/><path class="cls-1" d="M364.85,10.88c-.9,0-1.86-.09-2.89-.09-2.79,0-5.84.17-8.67.4a3.12,3.12,0,0,0-1.14.27,1.08,1.08,0,0,1-.67.17c-.44,0-.9-.46-1.3-1.05a2.4,2.4,0,0,1-.5-1.2c0-.16.06-.33.16-.33s.23.08.38.27a1.82,1.82,0,0,0,1.39.8c.31,0,1.36,0,2.89-.13,3-.19,6.11-.31,7.54-.33a2,2,0,0,0,1.09-.21,1.27,1.27,0,0,1,.63-.17,2.18,2.18,0,0,1,.8.21c.82.36,1,.59,1,.9S365.27,10.88,364.85,10.88Z"/><path class="cls-1" d="M382.6,14a3.25,3.25,0,0,1,1,1.66c0,.55-.32.78-.61.78s-.59-.15-.88-.57a14.1,14.1,0,0,0-5.23-4.62,23.06,23.06,0,0,1-7.94,5.59,1.55,1.55,0,0,1-.57.16.23.23,0,0,1-.25-.21c0-.12,0-.18.17-.27a28.64,28.64,0,0,0,7-5.23,24.63,24.63,0,0,0,3.8-5.14c.09-.15.11-.19.11-.23s-.07,0-.11,0a51.71,51.71,0,0,0-5.77.79,1.93,1.93,0,0,0-.71.24,1,1,0,0,1-.53.14c-.38,0-.82-.23-1.45-.88A1.78,1.78,0,0,1,370.09,5c0-.21.1-.32.18-.32s.19.09.28.17a2.44,2.44,0,0,0,1.57.8c.23,0,1.12-.09,1.6-.13l4.81-.5a1.42,1.42,0,0,0,.81-.36.72.72,0,0,1,.41-.23,2,2,0,0,1,1,.48c.38.28.59.49.59.8s-.21.34-.52.46a1,1,0,0,0-.66.57,38.28,38.28,0,0,1-2.83,4A16.12,16.12,0,0,1,382.6,14Z"/><path class="cls-1" d="M404.15,13.33c.9-1.05,1.05-1.15,1.17-1.15s.27.1,1.22.88c.44.38.5.48.5.61s-.06.19-.27.19h-8.92v.31c0,3.24.08,4.62.08,5s-.27.63-.84.63-.61-.17-.61-.55.11-1.68.11-4.87v-.52h-6.81a9.5,9.5,0,0,0-1.51.1l-.21-.77a8.53,8.53,0,0,0,1.7.14h6.83a15,15,0,0,0-.11-2.35c1.83.19,2.08.29,2.08.53s-.1.25-.71.52v1.3ZM396.52,2.1a11.33,11.33,0,0,0-.1-1.47c1.91.21,2.16.36,2.16.61s-.12.29-.75.56V3.57H404c.9-1,1-1.11,1.11-1.11s.23.06,1.18.86c.44.35.52.48.52.58s-.08.19-.29.19H390a9.62,9.62,0,0,0-1.51.13l-.19-.8a7.55,7.55,0,0,0,1.68.15h6.59Zm-.16,8.67c0,.44-.3.84-.63.84s-.4-.17-.65-.76a7.63,7.63,0,0,0-2-2.68,11.09,11.09,0,0,1-4.3,4.32c-.11.06-.27-.14-.17-.23a13.17,13.17,0,0,0,3.76-5.33A10.43,10.43,0,0,0,393,4.85c1.26.36,1.91.65,1.91.9s-.19.28-.78.36a17.15,17.15,0,0,1-.82,1.78C395.18,8.8,396.36,9.91,396.36,10.77Zm8.63.42a.7.7,0,0,1-.59.76c-.32,0-.44-.15-.86-.82a10.34,10.34,0,0,0-3-3,9.74,9.74,0,0,1-2.72,2.78c-.11.06-.24-.13-.15-.21a13.08,13.08,0,0,0,2.39-4.08,7.28,7.28,0,0,0,.4-1.72c1.34.36,1.93.65,1.93.86s-.21.34-.82.42a12.24,12.24,0,0,1-.84,1.66C403.37,8.86,405,10.12,405,11.19Z"/><path class="cls-1" d="M417.5,11.15h-4.39a7.26,7.26,0,0,0-1.34.14l-.21-.81a8.61,8.61,0,0,0,1.53.14h4.41V8.73H412a6.78,6.78,0,0,0-1.43.13l-.19-.78a8.07,8.07,0,0,0,1.58.13h7.56a13.78,13.78,0,0,0,.9-1.81,5.54,5.54,0,0,0,.4-1.19c1.26.48,1.76.73,1.76.94s-.12.3-.84.34a20.62,20.62,0,0,1-1.61,1.72h4c.82-.88.94-1,1.05-1s.23.07,1.07.74c.4.31.44.42.44.54s-.06.19-.27.19h-7.67v1.89h4.08c.73-.84.86-.94,1-.94s.3.1,1.1.73c.35.28.39.42.39.53s-.06.21-.27.21h-6.28v1.93h6.16c.79-.92.92-1,1-1s.3.09,1.12.76c.37.29.44.42.44.54s-.09.22-.28.22H419a13.25,13.25,0,0,0,3.61,2.58,17.17,17.17,0,0,0,5.23,1.47c.11,0,.09.19,0,.21-.5.12-.67.25-1,.88-.07.17-.17.29-.34.29a3,3,0,0,1-.82-.19,16,16,0,0,1-3.94-2,13.49,13.49,0,0,1-3.05-2.94c0,1.11.06,2,.08,2.92,0,1.24.05,2.16.05,2.46s-.26.6-.84.6c-.42,0-.57-.16-.57-.5s0-1,.08-2.22c.05-1,.09-2,.11-3a16.17,16.17,0,0,1-8.46,4.92c-.13,0-.25-.25-.13-.3a18.38,18.38,0,0,0,7.52-5.24H411a6.9,6.9,0,0,0-1.36.12l-.21-.8a7.67,7.67,0,0,0,1.55.15h6.57Zm1.7-8.86a11.2,11.2,0,0,0-.08-1.7c1.74.19,2,.31,2,.52s-.08.25-.67.51v3H422a14.71,14.71,0,0,0,1.14-2.19,7.79,7.79,0,0,0,.48-1.36c1.51.65,1.81.82,1.81,1s-.21.33-.86.33a18.35,18.35,0,0,1-2,2.19h2.77c.8-.9.91-1,1-1s.27.07,1.09.74c.4.31.47.42.47.54s-.09.21-.28.21H410.72a6.85,6.85,0,0,0-1.45.13l-.21-.8a8.7,8.7,0,0,0,1.64.15h5V2.29a10,10,0,0,0-.09-1.7c1.75.19,2,.31,2,.52s-.09.25-.65.51v3h2.24Zm-7.66-1C413,1.66,414,2.62,414,3.42a.81.81,0,0,1-.72.8c-.29,0-.44-.15-.57-.57a4.54,4.54,0,0,0-1.3-2.24C411.31,1.32,411.43,1.22,411.54,1.24Zm2.69,4.07c1.34.46,2.14,1.2,2.14,1.93a.76.76,0,0,1-.74.84c-.29,0-.42-.16-.52-.63a4,4,0,0,0-1-1.95C414,5.42,414.14,5.27,414.23,5.31Z"/><path class="cls-1" d="M431.47,2.92a7.85,7.85,0,0,0-1.3.12L430,2.27a8.27,8.27,0,0,0,1.53.12h3.63c.74-.9.84-1,.95-1s.23.06,1.07.73c.38.32.44.44.44.57s-.06.19-.27.19h-3.24a19.07,19.07,0,0,1-1.32,5.14c.09,0,.15.09.23.13h2.33c.55-.55.61-.61.74-.61s.19.06.71.5c.29.25.36.38.36.49s-.07.21-.53.5v2.31c0,3.53.09,5,.09,5.48s-.23.55-.72.55-.54-.11-.54-.45v-.71h-2.54v1.89c0,.4-.26.55-.76.55s-.53-.09-.53-.47c0-.63.11-2.77.11-6,0-.78,0-1.53,0-2.23a13.66,13.66,0,0,1-2,2.38c-.09.08-.32-.11-.23-.21a18.39,18.39,0,0,0,3.32-9.24Zm3.95,5.79h-2.54v7h2.54ZM446,8.92h.82c.79-1,.92-1.07,1.05-1.07s.29.09,1.13.82c.38.34.44.44.44.59s-.08.19-.29.19H446v2.14c0,4.37.08,6.7.08,7.41,0,.42-.27.63-.86.63-.42,0-.57-.17-.57-.55s.11-1.7.11-5.71V9.45h-3.36a15.72,15.72,0,0,1-1.07,6,9.22,9.22,0,0,1-4,4.26c-.1.07-.29-.12-.21-.21a10.1,10.1,0,0,0,3.13-4.41,19.19,19.19,0,0,0,.82-5.62h-.93a10.33,10.33,0,0,0-1.55.1l-.21-.77a8.86,8.86,0,0,0,1.74.14h1c0-.69,0-1.45,0-2.24V2.54h-.48a10.46,10.46,0,0,0-1.54.1l-.18-.77a10.58,10.58,0,0,0,1.74.15h6.8c.8-.95.9-1,1-1s.23,0,1.07.75c.4.34.46.46.46.59s-.08.19-.29.19H446Zm-1.24-6.38H441.4V6.72c0,.8,0,1.53,0,2.2h3.34Z"/><path class="cls-1" d="M459.31,12.24A8.71,8.71,0,0,1,458,15.75c-1.3,1.87-3.53,3.1-6.66,3.84-.12,0-.23-.27-.1-.32a11.07,11.07,0,0,0,5.12-3.33A7.53,7.53,0,0,0,458,12.26l-3.61,0a6.53,6.53,0,0,0-1.55.15l-.22-.82a9.59,9.59,0,0,0,1.85.13l3.59,0a8.65,8.65,0,0,0,.11-1.49A9.37,9.37,0,0,0,458,8.75c1.83.21,2.19.3,2.19.61s-.17.34-.74.57a16.6,16.6,0,0,1-.1,1.78l3.42,0c.53-.63.67-.71.8-.71s.31.08,1,.67c.21.19.26.32.26.42s-.07.25-.59.55c-.05.75-.09,4-.09,4.49s.15.74,1.64.74,1.83,0,2.14-.38a7.75,7.75,0,0,0,1-2.42c0-.12.25-.08.25,0,0,.64-.13,1.6-.13,2a.39.39,0,0,0,.28.44.45.45,0,0,1,.31.48c0,.36-.35.63-.94.78a12.19,12.19,0,0,1-2.88.23c-2.64,0-2.92-.44-2.92-1.59,0-.38.11-4.08.13-5.21Zm.28-8.84V2.16a9.39,9.39,0,0,0-.13-1.38c1.89.18,2.16.33,2.16.56s-.1.28-.73.55V3.4h6c.67-.76.76-.82.88-.82s.28.09,1.12.84c.37.36.44.46.44.59s-.19.36-.82.36a.93.93,0,0,0-.67.29,13.4,13.4,0,0,1-1.45,1.2c-.11.08-.27,0-.21-.13a17.79,17.79,0,0,0,.78-1.8h-4.14v2.7c0,.8.13,1,2.27,1a5,5,0,0,0,2.33-.27c.33-.23.52-.59.88-1.68,0-.13.25-.08.25,0,0,.38,0,.88,0,1.14s.06.37.36.44a.46.46,0,0,1,.31.48c0,.38-.46.63-1.09.78a21.51,21.51,0,0,1-3.4.16c-2.61,0-3.11-.48-3.11-1.82,0-.28,0-.55,0-1.3V3.93H459c-.42,3.54-2.35,5.24-6.83,5.92-.12,0-.21-.28-.08-.32,3.84-1.13,5.21-2.64,5.58-5.6h-3.69c-.09,1.57-.78,2.62-1.72,2.62a.78.78,0,0,1-.78-.76c0-.39.17-.6.59-.81a2.75,2.75,0,0,0,1.55-2.46c0-.13.26-.13.27,0a5.71,5.71,0,0,1,.09.88Z"/><path class="cls-1" d="M477.82,10.14a1.75,1.75,0,0,1-1.77,1.74,1.75,1.75,0,0,1,0-3.5A1.77,1.77,0,0,1,477.82,10.14Z"/><path class="cls-1" d="M489,8.15h-3.76a8,8,0,0,0-1.37.1l-.21-.78a7.5,7.5,0,0,0,1.56.15H489V4.81h-2.65a10.78,10.78,0,0,1-2,2.27c-.11.08-.3-.07-.23-.17a12.94,12.94,0,0,0,1.76-3.45,7,7,0,0,0,.42-1.86c1.6.39,1.83.48,1.83.69s-.19.31-.76.46a14.47,14.47,0,0,1-.73,1.53H489a27.4,27.4,0,0,0-.11-3.63c1.79.19,2.06.29,2.06.57s-.13.29-.71.52V4.28h2.1c.75-.92.86-1,1-1s.28.08,1.09.79c.38.34.45.44.45.55s-.09.19-.28.19h-4.34V7.62h3c.8-1,.9-1.07,1-1.07s.27.08,1.13.82c.38.34.46.44.46.57s-.08.21-.29.21h-5.31v2.52h2.58c.56-.59.65-.63.75-.63s.21,0,.8.54c.3.25.34.36.34.46s-.07.25-.53.57V13c0,2.31.07,2.76.07,3.11a1.14,1.14,0,0,1-.55,1.09,2,2,0,0,1-1,.32c-.12,0-.21-.06-.23-.23-.08-.55-.23-.7-1.4-1-.13,0-.11-.27,0-.25.9.08,1.3.08,1.53.08s.33-.06.33-.31V11.19h-2.72c0,5.48.06,7.29.06,7.92,0,.42-.25.6-.8.6s-.59-.14-.59-.52c0-.61.07-2.35.09-8h-2.78v2.56c0,1.91,0,2.75,0,3.15s-.26.59-.78.59-.52-.15-.52-.48c0-.51.06-1.41.06-3.78a27.66,27.66,0,0,0-.09-3.32,10.74,10.74,0,0,1,1.47.76H489ZM497.78,7c0,4.87.07,6.7.07,7.22s-.25.61-.82.61c-.42,0-.57-.14-.57-.52s.11-1.87.11-6.34a47.59,47.59,0,0,0-.13-5.59c1.76.21,2,.3,2,.57s-.11.29-.7.54Zm3.78,2.16c0,6.7.09,7.9.09,8.65a1.36,1.36,0,0,1-.72,1.37,2.54,2.54,0,0,1-1.15.31c-.23,0-.29,0-.32-.33-.06-.53-.46-.82-2.26-1.2-.13,0-.11-.31,0-.29,1.24.12,2.18.19,2.71.19a.33.33,0,0,0,.37-.38V5.31a28.1,28.1,0,0,0-.14-4.43c1.87.23,2.08.32,2.08.57s-.09.31-.68.57Z"/><path class="cls-1" d="M508.67,11.69c0,5,0,6.85,0,7.37s-.28.65-.8.65-.59-.14-.59-.52,0-1.81.11-7.45c0-1.28,0-2.59,0-3.87a20.63,20.63,0,0,1-2.82,3c-.08.09-.31-.12-.23-.21A24.36,24.36,0,0,0,509,2.37a9.39,9.39,0,0,0,.4-1.74c1.38.38,2.06.69,2.06.92s-.23.34-.84.42A25.69,25.69,0,0,1,508,7.05c1.1.19,1.31.3,1.31.51s-.09.27-.65.5Zm12.07-7.24c.9-1.05,1-1.11,1.11-1.11s.25.06,1.18.82c.44.38.5.48.5.61s-.06.21-.27.21h-6.72V8.52h3.76c.79-.94.92-1,1-1s.25.06,1.09.75c.4.32.46.46.46.59s-.08.19-.27.19h-6.07v3.86h3.82c.82-.94.92-1,1-1s.25.07,1.09.78c.38.32.46.44.46.55s-.06.21-.27.21h-6.13c0,3.17.06,5,.06,5.6s-.25.65-.86.65-.61-.16-.61-.54.11-1.72.11-5.29V5h-1.12a18.23,18.23,0,0,1-4,5.22c-.08.09-.33-.1-.25-.21a22.91,22.91,0,0,0,4-7.85,11.62,11.62,0,0,0,.32-1.53c1.42.4,2.05.67,2.05.9s-.25.36-.84.44c-.31.88-.65,1.72-1,2.5Z"/><path class="cls-1" d="M532.92,12.66v4.89c1.43-.19,2.83-.46,4.43-.8.13,0,.21.24.08.28a38.83,38.83,0,0,1-7.32,2.14c-.17.54-.3.67-.47.67s-.25-.06-.67-1.95a6.67,6.67,0,0,0,1.09,0l1.64-.15v-5h-3c-.07.38-.13.73-.21,1.07a14.67,14.67,0,0,1-2.67,5.84c-.08.1-.34,0-.27-.15a19,19,0,0,0,1.84-6.09,51.48,51.48,0,0,0,.42-7.85A37.58,37.58,0,0,0,527.65,1a12,12,0,0,1,1.64.8h12.17c.59-.65.68-.7.78-.7s.21.05.84.59c.32.27.36.36.36.48s-.09.26-.57.57v.78c0,1.59.06,2.08.06,2.35s-.29.5-.79.5-.53-.1-.53-.52V5.63H529.08a52.43,52.43,0,0,1-.34,6.5h4.12V9h-1.73a6.67,6.67,0,0,0-1.32.14l-.21-.8a9.21,9.21,0,0,0,1.53.13h1.73v0a16.33,16.33,0,0,0-.09-2.16c1.74.19,2,.31,2,.54s-.13.32-.7.53V8.46h3.55v0a14.85,14.85,0,0,0-.1-2.16c1.76.21,2,.33,2,.56s-.1.3-.67.53V8.46h2c.75-.88.88-1,1-1s.28.11,1.09.8c.34.27.4.4.4.51s-.08.21-.27.21h-4.22v3.14h3c.86-1,1-1,1.07-1s.27.06,1.14.79c.37.32.44.45.44.55s-.09.21-.28.21H536a8.94,8.94,0,0,0,2,2.86,14.86,14.86,0,0,0,2-1.75,3.48,3.48,0,0,0,.6-.82c1,.57,1.49,1,1.49,1.18s-.23.27-.92.17a17.78,17.78,0,0,1-2.83,1.47,7.74,7.74,0,0,0,1.17.84,12.62,12.62,0,0,0,5.27,1.61.11.11,0,0,1,0,.21c-.48.11-.67.26-.86.82-.08.28-.19.38-.36.38a4.83,4.83,0,0,1-1.07-.25,12,12,0,0,1-3.86-2.12,11.68,11.68,0,0,1-3.19-4.6Zm8.69-10.31H529.08V5.1h12.53Zm-4,6.64h-3.55v3.14h3.55Z"/><path class="cls-1" d="M162.58,57c-.32,1.2-.63,2.29-1,3.45-1.37,0-2.69-.07-4-.07s-2.61,0-3.95.07c-.19,0-.25-.07-.25-.4a.72.72,0,0,1,.14-.53,63.88,63.88,0,0,1,4-5.31l.4-.46c2-2.37,2.39-3.4,2.39-4.68,0-1.91-1-2.88-2.26-2.88a2.16,2.16,0,0,0-2,1.16,3.79,3.79,0,0,0-.21,1.49c0,.52-.65.94-1.43.94-.42,0-.65-.19-.65-.73,0-1.58,2-3.51,4.31-3.51s4.13,1.34,4.13,3.61c0,1.66-.48,2.63-2.62,4.56l-.65.58a25.93,25.93,0,0,0-4.08,4.62h3.49c1.8,0,2.22-.1,2.67-.44A3.73,3.73,0,0,0,162,56.84c0-.11.08-.15.17-.15s.4.1.4.21Z"/><path class="cls-1" d="M173.89,53.14c0,5.08-2,7.66-4.53,7.66-2.73,0-4.58-2.54-4.58-7.53,0-5.25,2.08-7.73,4.58-7.73S173.89,48,173.89,53.14Zm-7.24.06c0,5.17,1,6.95,2.71,6.95S172,58.39,172,53.2s-1.08-7-2.67-7S166.65,47.93,166.65,53.2Z"/><path class="cls-1" d="M185.34,57c-.32,1.2-.63,2.29-1,3.45-1.36,0-2.69-.07-4-.07s-2.6,0-4,.07c-.19,0-.25-.07-.25-.4a.68.68,0,0,1,.15-.53,61.81,61.81,0,0,1,3.94-5.31l.4-.46c2-2.37,2.4-3.4,2.4-4.68,0-1.91-1-2.88-2.27-2.88a2.17,2.17,0,0,0-2,1.16,4,4,0,0,0-.2,1.49c0,.52-.66.94-1.43.94-.42,0-.65-.19-.65-.73,0-1.58,2-3.51,4.3-3.51s4.14,1.34,4.14,3.61c0,1.66-.49,2.63-2.63,4.56l-.65.58a25.88,25.88,0,0,0-4.07,4.62H181c1.81,0,2.23-.1,2.67-.44a3.65,3.65,0,0,0,1.13-1.63c.05-.11.09-.15.17-.15s.4.1.4.21Z"/><path class="cls-1" d="M196.72,57c-.31,1.2-.63,2.29-1,3.45-1.36,0-2.68-.07-4-.07s-2.6,0-3.94.07c-.19,0-.26-.07-.26-.4a.68.68,0,0,1,.15-.53,59.69,59.69,0,0,1,4-5.31l.4-.46c2-2.37,2.39-3.4,2.39-4.68,0-1.91-1-2.88-2.27-2.88a2.14,2.14,0,0,0-2,1.16,3.79,3.79,0,0,0-.21,1.49c0,.52-.65.94-1.43.94-.42,0-.65-.19-.65-.73,0-1.58,2-3.51,4.3-3.51s4.14,1.34,4.14,3.61c0,1.66-.48,2.63-2.63,4.56l-.65.58a25.88,25.88,0,0,0-4.07,4.62h3.48c1.81,0,2.23-.1,2.67-.44a3.74,3.74,0,0,0,1.14-1.63c0-.11.08-.15.16-.15s.4.1.4.21Z"/><path class="cls-1" d="M201.91,59.57a1.25,1.25,0,1,1-1.24-1.28A1.23,1.23,0,0,1,201.91,59.57Z"/><path class="cls-1" d="M209.93,52.57c2.27.4,3.63,1.79,3.63,3.8,0,2.71-1.82,4.43-4.62,4.43a5.33,5.33,0,0,1-3-.81c-1-.59-1.32-1.18-1.32-1.68s.52-.89,1.26-.89c.31,0,.57.21,1,1.2l.11.25a1.92,1.92,0,0,0,2,1.26c1.68,0,2.8-1.3,2.8-3.82,0-2-1.16-3.34-2.92-3.34-.48,0-.89.07-1.12.07s-.25,0-.25-.24c0-.37.19-.63.44-.63s.49.07.72.07c1.57,0,2.71-1.26,2.71-3.21s-.84-2.84-2.23-2.84a2,2,0,0,0-1.85.93,2.25,2.25,0,0,0-.21,1c0,.57-.63,1-1.38,1a.58.58,0,0,1-.65-.61c0-1.4,1.86-3,4.09-3s4,1.32,4,3.49c0,1.78-1.13,3-3.13,3.46Z"/><path class="cls-1" d="M219,59.57a1.25,1.25,0,1,1-1.24-1.28A1.23,1.23,0,0,1,219,59.57Z"/><path class="cls-1" d="M223.31,47.85c-.19,0-.28-.17-.28-.42,0-.08.07-.15.23-.21a27.93,27.93,0,0,0,4-1.78c.23,0,.34.08.34.27-.06,1.64-.11,2.79-.11,4.49v6.38c0,2,.05,2.38.25,2.73s.47.42,1.92.53c.14,0,.18.08.18.31s0,.3-.14.3c-1,0-2.08-.09-3-.09s-2,0-3,.09c-.1,0-.14-.07-.14-.3s0-.29.21-.31c1.32-.09,1.63-.23,1.82-.53s.26-.71.26-2.73V49.21a3,3,0,0,0-.23-1.53.7.7,0,0,0-.59-.27,2.48,2.48,0,0,0-.76.15Z"/><path class="cls-1" d="M242.33,56.65c0,2.41-1.87,4.15-4.57,4.15s-4.67-1.7-4.67-4c0-1.63,1.07-3,3.36-4-2.16-1-2.92-2.09-2.92-3.75s1.85-3.51,4.23-3.51,4.13,1.45,4.13,3.3c0,1.53-.78,2.56-2.86,3.42C241.39,53.39,242.33,54.65,242.33,56.65Zm-7.54.16a3.11,3.11,0,0,0,3,3.34,3,3,0,0,0,3-3.23c0-1.55-.91-2.54-3.61-3.78A4,4,0,0,0,234.79,56.81Zm5.57-8a2.65,2.65,0,0,0-5.29-.11c0,1.28.56,2.06,3.23,3.13A3.11,3.11,0,0,0,240.36,48.86Z"/><path class="cls-1" d="M252.31,43a.13.13,0,0,1,.12.12.19.19,0,0,1-.06.15,13.7,13.7,0,0,0,0,19.74.2.2,0,0,1,.08.14c0,.07-.06.15-.12.15a.33.33,0,0,1-.19-.06,14.26,14.26,0,0,1-4-4.62,11.64,11.64,0,0,1,0-11,14.26,14.26,0,0,1,4-4.62A.39.39,0,0,1,252.31,43Z"/><path class="cls-1" d="M258,56.65c0,2.2,0,2.45.21,2.75s.44.4,1.74.5c.17,0,.21,0,.21.27s0,.28-.21.28c-.84,0-2-.09-2.83-.09s-1.89,0-2.65.09c-.17,0-.21-.07-.21-.28s0-.25.21-.27c1.09-.06,1.37-.21,1.53-.5s.26-.69.26-2.75V49.28c0-2.16,0-2.38-.23-2.67s-.42-.4-1.75-.48c-.12,0-.17-.07-.17-.25s.05-.34.17-.34c1.72.08,3.66.1,5.31.1s3.36,0,5.17-.1c.08,1.05.25,2.27.4,3.32v.06c0,.11-.17.19-.38.19s-.15,0-.19-.17a4.83,4.83,0,0,0-1.3-2c-.55-.42-1.18-.6-3.23-.6-1.24,0-1.64.18-1.83.5s-.23.71-.23,2.48v3c.33,0,.94,0,1.36,0,1.75,0,2.5-.12,2.84-.38a1.93,1.93,0,0,0,.56-1.38c0-.13.07-.19.3-.19s.29,0,.29.19c0,.71,0,1.38,0,2.06s0,1.61,0,2.35c0,.14-.06.21-.29.21s-.27-.07-.3-.23a2.08,2.08,0,0,0-.6-1.54,6,6,0,0,0-2.8-.39c-.42,0-1,0-1.36,0Z"/><path class="cls-1" d="M267,52.43c-.15,0-.19,0-.19-.26s0-.23.25-.29a16.51,16.51,0,0,0,2.75-.86c.15,0,.25.08.25.19,0,.61,0,1.17,0,2,.94-1.53,1.83-2.22,2.67-2.22.67,0,1.13.27,1.13.58,0,.66-.61,1.33-1,1.33a1.21,1.21,0,0,1-.59-.19,1.14,1.14,0,0,0-.54-.19c-.32,0-.61.21-1,.78A2.59,2.59,0,0,0,270,55v2.44c0,1.7,0,1.91.15,2.14s.31.31,1.23.38c.13,0,.17.06.17.23s-.06.23-.17.23c-.62,0-1.44,0-2.07,0s-1.52,0-2.14,0c-.15,0-.19,0-.19-.23s0-.21.19-.23c.81-.07,1-.15,1.11-.38s.21-.59.21-2.14V54.53a3.86,3.86,0,0,0-.19-1.7c-.17-.34-.32-.45-.57-.45Z"/><path class="cls-1" d="M276.52,54.51a4.83,4.83,0,0,0-.17-1.73.6.6,0,0,0-.61-.42l-.77,0c-.13,0-.17,0-.17-.28s0-.21.25-.27a28,28,0,0,0,2.79-.86c.17,0,.25.06.25.19-.06,1.49-.08,2.62-.08,3.61v2.62c0,1.7,0,2,.13,2.17s.37.29,1.24.35c.12,0,.16.07.16.23s0,.28-.16.28c-.63,0-1.41,0-2,0s-1.53,0-2.14,0c-.13,0-.17,0-.17-.28s0-.21.17-.23c.82-.08,1-.16,1.15-.35s.17-.49.17-2.17Zm1.78-8.11a1.18,1.18,0,1,1-2.35,0,1.18,1.18,0,1,1,2.35,0Z"/><path class="cls-1" d="M285.32,47.64a11.72,11.72,0,0,1,0,11,14.5,14.5,0,0,1-4,4.62.38.38,0,0,1-.19.06.15.15,0,0,1-.13-.15.18.18,0,0,1,.09-.14,13.7,13.7,0,0,0,0-19.74.17.17,0,0,1-.07-.15.14.14,0,0,1,.13-.12.43.43,0,0,1,.17,0A14.5,14.5,0,0,1,285.32,47.64Z"/><path class="cls-1" d="M295.76,55.37h-4.9V53.94h4.9Z"/><path class="cls-1" d="M303.84,52.57c2.27.4,3.63,1.79,3.63,3.8,0,2.71-1.82,4.43-4.62,4.43a5.33,5.33,0,0,1-3-.81c-1-.59-1.32-1.18-1.32-1.68s.52-.89,1.26-.89c.31,0,.56.21,1,1.2l.11.25a1.92,1.92,0,0,0,2,1.26c1.68,0,2.8-1.3,2.8-3.82,0-2-1.16-3.34-2.92-3.34-.49,0-.89.07-1.12.07s-.25,0-.25-.24c0-.37.19-.63.44-.63s.49.07.72.07c1.57,0,2.71-1.26,2.71-3.21s-.84-2.84-2.23-2.84a2,2,0,0,0-1.85.93,2.13,2.13,0,0,0-.21,1c0,.57-.63,1-1.38,1a.58.58,0,0,1-.65-.61c0-1.4,1.86-3,4.09-3s4,1.32,4,3.49c0,1.78-1.14,3-3.13,3.46Z"/><path class="cls-1" d="M312.93,59.57a1.25,1.25,0,1,1-1.24-1.28A1.23,1.23,0,0,1,312.93,59.57Z"/><path class="cls-1" d="M324.86,57c-.32,1.2-.63,2.29-1,3.45-1.36,0-2.69-.07-4-.07s-2.6,0-3.95.07c-.19,0-.25-.07-.25-.4a.68.68,0,0,1,.15-.53,61.81,61.81,0,0,1,3.94-5.31l.4-.46c2-2.37,2.4-3.4,2.4-4.68,0-1.91-1-2.88-2.27-2.88a2.17,2.17,0,0,0-2,1.16,4,4,0,0,0-.21,1.49c0,.52-.65.94-1.42.94-.42,0-.66-.19-.66-.73,0-1.58,2-3.51,4.31-3.51s4.14,1.34,4.14,3.61c0,1.66-.49,2.63-2.63,4.56l-.65.58A25.88,25.88,0,0,0,317,58.91h3.48c1.81,0,2.23-.1,2.67-.44a3.65,3.65,0,0,0,1.13-1.63c0-.11.09-.15.17-.15s.4.1.4.21Z"/><path class="cls-1" d="M336.18,53.14c0,5.08-2,7.66-4.54,7.66-2.73,0-4.57-2.54-4.57-7.53,0-5.25,2.07-7.73,4.57-7.73S336.18,48,336.18,53.14Zm-7.25.06c0,5.17,1,6.95,2.71,6.95s2.67-1.76,2.67-6.95-1.07-7-2.67-7S328.93,47.93,328.93,53.2Z"/><path class="cls-1" d="M346.64,43a.13.13,0,0,1,.12.12.19.19,0,0,1-.06.15,13.7,13.7,0,0,0,0,19.74.2.2,0,0,1,.08.14c0,.07-.06.15-.12.15a.33.33,0,0,1-.19-.06,14.26,14.26,0,0,1-4-4.62,11.65,11.65,0,0,1,0-11,14.26,14.26,0,0,1,4-4.62A.39.39,0,0,1,346.64,43Z"/><path class="cls-1" d="M352.35,53c-2.29-1.15-3.13-2.28-3.13-4.07,0-2.12,1.76-3.7,4.35-3.7a5.54,5.54,0,0,1,1.72.26,4.79,4.79,0,0,0,1.32.19,3.66,3.66,0,0,0,.69-.07c0,.86.13,2.19.23,3.24v.06c0,.1-.12.17-.33.17a.17.17,0,0,1-.17-.15c-.63-2-1.91-3-3.46-3a2.47,2.47,0,0,0-2.65,2.56c0,1.17.67,2.1,2.31,2.85l1,.49c2.86,1.3,3.86,2.64,3.86,4.57,0,2.69-1.8,4.41-5.1,4.41a11.42,11.42,0,0,1-3.67-.73,22.41,22.41,0,0,1-.65-3.15l0-.17c0-.12.11-.21.32-.21s.17,0,.21.13c.8,2.16,2.37,3.46,4,3.46a2.91,2.91,0,0,0,3.15-2.94c0-1.55-.75-2.52-3-3.65Z"/><path class="cls-1" d="M370.41,60c.14,0,.19.07.19.24s-.05.23-.19.25a23.26,23.26,0,0,0-2.69.33.2.2,0,0,1-.21-.19c0-.58,0-1.13,0-1.7a3.57,3.57,0,0,1-3.15,1.89A2.69,2.69,0,0,1,361.46,58V54.19a5.13,5.13,0,0,0-.14-1.68.63.63,0,0,0-.61-.44l-.65,0c-.15,0-.19-.06-.19-.25s0-.25.25-.29c.82-.13,1.89-.34,2.71-.55.14,0,.23.08.23.19,0,1.2-.06,2.14-.06,3.55v2.1a3.78,3.78,0,0,0,.25,1.82,1.84,1.84,0,0,0,1.76,1.1,2.57,2.57,0,0,0,2.08-1.18,2.16,2.16,0,0,0,.46-1.6V54.19a5,5,0,0,0-.14-1.68.63.63,0,0,0-.59-.44l-.67,0c-.15,0-.19-.06-.19-.25s0-.25.23-.29A27,27,0,0,0,368.9,51a.21.21,0,0,1,.23.21c0,1.15-.07,2.12-.07,3.53v2.77c0,1.62,0,1.85.15,2.08s.27.31.82.33Z"/><path class="cls-1" d="M372.19,52.43c-.14,0-.18,0-.18-.32,0-.12,0-.19.27-.23A19.82,19.82,0,0,0,375,51c.14,0,.23.08.23.19,0,.54,0,1.13,0,1.68A3.75,3.75,0,0,1,378.37,51a2.78,2.78,0,0,1,3,2.87c0,.76,0,1.79,0,2.31v1.33c0,1.72,0,1.93.17,2.14s.31.29,1.11.38c.15,0,.19.06.19.23s0,.23-.19.23c-.61,0-1.35,0-2,0s-1.45,0-2.1,0c-.14,0-.19,0-.19-.23s.05-.21.19-.23c.7-.05.93-.15,1.07-.38s.19-.4.19-2.14V54.25a2.22,2.22,0,0,0-.23-1.19,1.79,1.79,0,0,0-1.8-1.07,2.57,2.57,0,0,0-2.12,1.17,2.21,2.21,0,0,0-.46,1.62v2.69c0,1.72,0,2,.14,2.14s.3.29,1.18.38c.12,0,.17.06.17.23s-.05.23-.17.23c-.63,0-1.35,0-2,0s-1.47,0-2.09,0c-.13,0-.17,0-.17-.23s0-.21.17-.23c.75-.07.92-.17,1.07-.38s.18-.53.18-2.14V54.53a4.52,4.52,0,0,0-.16-1.7c-.15-.32-.32-.45-.59-.45Z"/><path class="cls-1" d="M388.61,47.64a11.64,11.64,0,0,1,0,11,14.26,14.26,0,0,1-4,4.62.33.33,0,0,1-.19.06c-.06,0-.12-.08-.12-.15a.2.2,0,0,1,.08-.14,13.7,13.7,0,0,0,0-19.74.19.19,0,0,1-.06-.15.13.13,0,0,1,.13-.12.38.38,0,0,1,.16,0A14.26,14.26,0,0,1,388.61,47.64Z"/><path class="cls-1" d="M89,95h5.88c1-1.09,1.07-1.16,1.2-1.16s.25.07,1.21.84c.49.38.53.53.53.65s-.06.19-.27.19H89v3.66c0,4,.09,5.31.09,5.71s-.3.67-.93.67c-.44,0-.61-.17-.61-.55s.09-1.78.09-5.69v-3.8H81a8.39,8.39,0,0,0-1.51.11l-.21-.78A10.35,10.35,0,0,0,81,95h6.64V90.09a57.89,57.89,0,0,1-6.77.82c-.12,0-.16-.29,0-.31a42.41,42.41,0,0,0,10-2.56,12.55,12.55,0,0,0,2.31-1.2c1,.69,1.53,1.22,1.53,1.43s-.36.33-1.09.12A41.12,41.12,0,0,1,89,89.8Z"/><path class="cls-1" d="M108.53,99.86a9.81,9.81,0,0,0-.1-1.79c1.76.15,2,.25,2,.48s-.08.26-.63.49v.82h6.07c.78-.91.9-1,1-1s.27.08,1.17.8c.38.29.44.4.44.52s-.06.19-.27.19H110a12.74,12.74,0,0,0,3.36,2.16,16.9,16.9,0,0,0,5.5,1.29c.11,0,.11.14,0,.18-.46.15-.67.36-.92.95-.09.21-.19.25-.32.25a3.35,3.35,0,0,1-.84-.15,14.18,14.18,0,0,1-4-1.74,13.42,13.42,0,0,1-3-2.64c0,.9,0,1.76.06,2.56,0,1,.08,1.87.08,2.08,0,.42-.27.6-.86.6-.42,0-.56-.14-.56-.5s.06-.94.08-1.78.06-1.58.08-2.48a17.33,17.33,0,0,1-8.5,4.2c-.12,0-.25-.25-.12-.3a19.5,19.5,0,0,0,7.68-4.68H102a8.61,8.61,0,0,0-1.43.13l-.19-.78a8.17,8.17,0,0,0,1.62.13Zm7.6-11.28c.8-.94.93-1,1.05-1s.3.09,1.16.8c.44.36.48.46.48.57s-.06.19-.27.19h-6c0,.56,0,.86,0,1,0,.38-.23.55-.76.55s-.58-.13-.58-.46c0-.09,0-.38,0-1.07h-4.12c0,.54,0,.84,0,.94,0,.4-.26.57-.82.57-.4,0-.53-.15-.53-.48,0-.09,0-.36,0-1h-4.11a8.76,8.76,0,0,0-1.37.12l-.19-.79a8.77,8.77,0,0,0,1.56.14h4.11a11.88,11.88,0,0,0-.1-2c1.81.19,2.06.27,2.06.52s-.09.27-.7.46v1h4.12a9.08,9.08,0,0,0-.13-2c1.85.21,2.08.29,2.08.54s-.08.25-.69.46v1ZM114.47,93c0,1.62,0,2.25,0,2.44,0,.38-.25.52-.73.52s-.52-.08-.52-.42v-.21h-3.64v.15c0,.38-.25.52-.73.52s-.53-.12-.53-.44c0-.16,0-.79,0-2.45V93H105v4.1h10.16c.74-.86.87-1,1-1s.25.11,1.09.76c.38.29.44.42.44.54s-.08.19-.29.19H105V98c0,.44-.23.54-.77.54-.38,0-.53-.08-.53-.44s.06-1.28.06-3.78V93h-1.95a7.93,7.93,0,0,0-1.36.13l-.21-.8a8,8,0,0,0,1.57.15h1.95c0-1,0-1.37-.08-1.89,1.72.19,1.89.29,1.89.52s-.08.23-.57.44v.93h3.43c0-.88,0-1.24-.09-1.87,1.62.17,1.87.27,1.87.5s-.09.28-.57.49v.88h3.64a15.41,15.41,0,0,0-.07-1.87c1.58.15,1.85.25,1.85.5s-.08.28-.57.49v.88h1.89c.72-.88.86-1,1-1s.29.11,1.09.78c.36.31.44.4.44.52s-.08.21-.27.21Zm-4.85,0v1.81h3.64V93Z"/><path class="cls-1" d="M130.94,93.22a15.14,15.14,0,0,0,3.71,7.14,14.42,14.42,0,0,0,5.34,3.49c.1,0,0,.16-.07.21a1.21,1.21,0,0,0-.9.92c-.08.21-.19.29-.31.29a3.37,3.37,0,0,1-1-.52,15.81,15.81,0,0,1-4.2-4,17.22,17.22,0,0,1-3-7.33,13.57,13.57,0,0,1-2.48,6.89,14.4,14.4,0,0,1-6.87,5c-.12,0-.25-.23-.14-.3A14.63,14.63,0,0,0,127.47,99a15.13,15.13,0,0,0,1.72-5.75h-6.06a10.32,10.32,0,0,0-1.66.13l-.19-.78a13.3,13.3,0,0,0,1.85.13h6.13c.12-1.26.19-2.71.19-4.39a9.05,9.05,0,0,0-.09-1.32c2,.31,2.21.42,2.21.67s-.09.29-.72.54c0,.74,0,1.47-.06,2.15,0,.84-.08,1.61-.17,2.35h6.13c1-1.14,1.14-1.28,1.26-1.28s.32.14,1.31,1c.46.38.52.53.52.65s-.06.19-.27.19Z"/><path class="cls-1" d="M150.87,98.39a10.23,10.23,0,0,0-.09-1.89c.72.1,1.18.17,1.47.23a14.78,14.78,0,0,0,2.44-2.44H147.8a5.72,5.72,0,0,0-1.53.15l-.23-.82a8.81,8.81,0,0,0,1.72.15h7c.63-.59.76-.65.86-.65s.21.06.93.69c.31.29.35.42.35.52s-.19.28-.88.36a17.22,17.22,0,0,1-3.27,2.23.17.17,0,0,1,0,.14c0,.17-.09.3-.63.51v.82H158c.93-1,1-1.14,1.14-1.14s.25.09,1.22.86c.46.38.5.49.5.61s-.08.19-.29.19h-8.4v1.41c0,2.58.06,3.09.06,3.67a1.44,1.44,0,0,1-.67,1.3,1.93,1.93,0,0,1-1.18.4c-.25,0-.31-.06-.37-.4-.09-.52-.45-.79-2.38-1.19-.12,0-.12-.3,0-.27,1.54.14,2.29.21,2.86.21.27,0,.4-.11.4-.38V98.91h-7a6.07,6.07,0,0,0-1.38.13l-.21-.78a8,8,0,0,0,1.57.13ZM154.5,91A20.56,20.56,0,0,0,156,88.54a10.17,10.17,0,0,0,.63-1.6c1.51.68,1.78.89,1.78,1.08s-.14.33-.84.33A17.79,17.79,0,0,1,155.11,91h3.38c.65-.67.73-.74.86-.74s.23.07,1,.78c.4.38.46.52.46.65s-.19.36-.7.36c-.35,0-.44.06-.58.23A10.65,10.65,0,0,1,158,93.75c-.1.08-.25,0-.18-.15a11.41,11.41,0,0,0,.77-2.06H144.78c0,1.79-.82,2.86-1.68,2.86a.73.73,0,0,1-.76-.76c0-.29.15-.56.63-.84a3,3,0,0,0,1.47-2.66.13.13,0,0,1,.25,0,5.59,5.59,0,0,1,.09.88Zm-8.61-3.82c1.43.56,2.42,1.63,2.42,2.52a.77.77,0,0,1-.72.82c-.36,0-.5-.17-.67-.87a5.84,5.84,0,0,0-1.18-2.29C145.66,87.28,145.76,87.15,145.89,87.2Zm4.33-.4c1.45.63,2.43,1.72,2.43,2.62,0,.57-.31.9-.73.9s-.53-.16-.66-.81A6,6,0,0,0,150.05,87C150,86.9,150.11,86.73,150.22,86.8Z"/><path class="cls-1" d="M173.27,102.23h-4.43a7.41,7.41,0,0,0-1.24.1l-.21-.77a6.05,6.05,0,0,0,1.43.15h4.45v-.4a16.59,16.59,0,0,0-.08-2.1c1.81.21,2,.33,2,.54s-.11.28-.68.51v1.45h4c.74-.89.86-1,1-1s.29.1,1.13.77c.36.3.42.42.42.53s-.06.21-.27.21h-6.24v2.23h6.6c.79-.93.94-1,1-1s.31.1,1.15.82c.38.31.46.42.46.54s-.06.19-.27.19H166.39a8.35,8.35,0,0,0-1.52.13l-.2-.8a10.12,10.12,0,0,0,1.7.15h6.9Zm1.33-7.69h4.78c.65-.75.76-.83.86-.83s.26.08,1,.69c.32.25.4.35.4.46s-.08.21-.27.21h-6.8v1.76H181c.69-.86.8-.92.92-.92s.25.06,1.05.71c.34.28.42.4.42.53s-.08.21-.27.21H166.76a8.1,8.1,0,0,0-1.4.1l-.23-.77a9,9,0,0,0,1.63.14h6.6V95.07h-4.81a7.41,7.41,0,0,0-1.24.1l-.21-.77a7.21,7.21,0,0,0,1.43.14h4.83V92.76h-4.6V93c0,.42-.23.55-.74.55s-.52-.11-.52-.45.06-1,.06-3.27a24.6,24.6,0,0,0-.1-3,7.85,7.85,0,0,1,1.47.69h10.39c.55-.61.61-.65.71-.65s.23.06.84.56c.3.26.32.36.32.47s-.06.23-.53.5v1.26c0,2.1.07,2.94.07,3.17,0,.4-.23.57-.74.57s-.52-.09-.52-.44v-.15H174.6ZM168.3,98c.06,1.83-1.09,3.19-2.14,3.19a.67.67,0,0,1-.72-.69c0-.34.21-.51.69-.7A2.9,2.9,0,0,0,168,98C168.07,97.82,168.3,97.88,168.3,98Zm5.06-8.19V88h-4.6v1.83Zm0,2.42V90.35h-4.6v1.89Zm-2.65,5.62a2.55,2.55,0,0,1,1.51,2,.79.79,0,0,1-.71.86c-.44,0-.57-.21-.57-.73a4.18,4.18,0,0,0-.42-2C170.48,97.9,170.63,97.82,170.71,97.86Zm8.76-8V88H174.6v1.83Zm0,2.42V90.35H174.6v1.89Zm-3.78,5.62c1.17.4,1.93,1.24,1.93,2a.71.71,0,0,1-.74.81c-.27,0-.44-.16-.52-.73a3.67,3.67,0,0,0-.84-1.89C175.44,98,175.56,97.82,175.69,97.86Zm4.05,0c1.87.55,3,1.53,3,2.4a.7.7,0,0,1-.65.79c-.33,0-.5-.1-.71-.65a5.78,5.78,0,0,0-1.81-2.33C179.49,98,179.61,97.82,179.74,97.86Z"/><path class="cls-1" d="M190.08,104.54c0,.42-.28.59-.84.59-.4,0-.57-.13-.57-.46,0-.74.12-2.21.12-9.18,0-4.58,0-6.24-.12-7.64a11.53,11.53,0,0,1,1.64.84h12.47c.63-.7.71-.74.82-.74s.23,0,.88.61c.31.27.38.38.38.48s-.11.28-.59.59v5.08c0,6.89.12,9.09.12,9.75,0,.42-.29.58-.86.58-.42,0-.56-.12-.56-.46v-1H190.08Zm5.68-9V89.21h-5.68v6.36Zm-5.68,7.48h5.68v-7h-5.68ZM203,89.21h-5.92v6.36H203Zm0,6.89h-5.92v7H203Z"/><path class="cls-1" d="M219.66,93.77c0-.88,0-1.68,0-2.71s0-1.24-.19-1.43a2.44,2.44,0,0,0-1.26-.57c-.12,0-.16-.08-.16-.16s.08-.19.27-.3a1,1,0,0,1,.57-.12,5.19,5.19,0,0,1,1.46.35c.61.26.89.49.89.87a.63.63,0,0,1-.21.39,1.31,1.31,0,0,0-.21.87c0,.67,0,1.59,0,2.72.51,0,1.14-.06,2.06-.16a3.07,3.07,0,0,0,.68-.15,1.16,1.16,0,0,1,.6-.17,3.72,3.72,0,0,1,1.58.46.64.64,0,0,1,.36.61c0,.3-.24.46-.63.46a10.59,10.59,0,0,1-1.22-.1,31.07,31.07,0,0,0-3.44-.09,11.06,11.06,0,0,1-1.71,6.26,10.05,10.05,0,0,1-5.2,3.68,1.41,1.41,0,0,1-.36.06.24.24,0,0,1-.25-.21c0-.13,0-.21.27-.32a10.91,10.91,0,0,0,4.73-3.82,10.56,10.56,0,0,0,1.4-5.58c-1.26.06-2.71.17-4.13.33,0,1.66,0,2.77,0,3.38,0,.82-.24,1-.55,1-.5,0-.67-.44-.67-1s.1-2,.12-3.28c-.52.06-1.19.17-1.91.32a2.81,2.81,0,0,0-.86.27,1,1,0,0,1-.5.17c-.42,0-.78-.19-1.39-.76S209,94.36,209,94a.19.19,0,0,1,.21-.21.54.54,0,0,1,.31.17,2.28,2.28,0,0,0,1.43.54,9.59,9.59,0,0,0,1.07-.06l2.37-.25V92.07c0-.44-.06-.72-.23-.86a3.09,3.09,0,0,0-1.07-.53c-.17,0-.29-.08-.29-.19a.28.28,0,0,1,.19-.25,1.13,1.13,0,0,1,.59-.15,4.69,4.69,0,0,1,1.57.49c.53.25.67.42.67.65a.7.7,0,0,1-.14.42,1.76,1.76,0,0,0-.19.84c0,.44,0,1.09,0,1.61C216.91,94,218.19,93.85,219.66,93.77Z"/><path class="cls-1" d="M233.67,95.05a3.31,3.31,0,0,0-1.09.29,1,1,0,0,1-.53.15,2,2,0,0,1-1.21-.63,1.81,1.81,0,0,1-.7-1c0-.25.09-.36.17-.36a.31.31,0,0,1,.19.09,2.47,2.47,0,0,0,1.43.69,10.19,10.19,0,0,0,1-.06c1.74-.19,3.19-.32,5.14-.49l4.72-.39a2.38,2.38,0,0,0,.91-.21,1,1,0,0,1,.56-.21,3.26,3.26,0,0,1,1.41.44c.36.21.5.4.5.67a.42.42,0,0,1-.48.44c-.48,0-.92-.09-1.51-.11s-1.47,0-2.18,0c-1,0-2.21.09-3.17.15.56.34.94.69.94,1a.53.53,0,0,1-.12.33,1.11,1.11,0,0,0-.26.44,13.13,13.13,0,0,1-2.16,4.58,14,14,0,0,1-4,3.67.78.78,0,0,1-.4.13.24.24,0,0,1-.23-.25c0-.13,0-.19.21-.32a15.39,15.39,0,0,0,3.53-3.84A14.21,14.21,0,0,0,238.1,96a2.27,2.27,0,0,0,.08-.63,1.16,1.16,0,0,0-.35-.82C236.46,94.65,235,94.82,233.67,95.05Zm3.19-5.38c.9-.08,2-.21,2.88-.35a4.9,4.9,0,0,0,1.17-.28,2.16,2.16,0,0,1,.76-.18,1.82,1.82,0,0,1,.92.2c.36.24.47.4.47.64s-.24.44-.63.48c-1.79.17-4,.33-6,.48-.44,0-.86.08-1.34.08a1.88,1.88,0,0,1-1.37-.48c-.46-.38-.75-.71-.75-1,0-.14.1-.29.23-.29s.15.06.27.17a2.55,2.55,0,0,0,1.6.63C235.68,89.76,236.52,89.7,236.86,89.67Z"/><path class="cls-1" d="M256,93.37l6.43-.74a1,1,0,0,0,.67-.31.66.66,0,0,1,.42-.25c.23,0,.53.17,1.07.61s.67.63.67.88-.12.33-.37.42a.92.92,0,0,0-.63.61,22,22,0,0,1-9.81,10,1,1,0,0,1-.4.15.28.28,0,0,1-.29-.29c0-.11,0-.17.17-.25a25.07,25.07,0,0,0,9.15-10.36,1.16,1.16,0,0,0,.11-.31c0-.06-.05-.08-.11-.08s-.31,0-.55,0c-2.22.19-4.26.46-6.73.9a3.06,3.06,0,0,0-1,.23,1.33,1.33,0,0,1-.55.15,2.12,2.12,0,0,1-1.24-.76,2.24,2.24,0,0,1-.6-1.15c0-.19.1-.32.19-.32a.44.44,0,0,1,.27.15,2.41,2.41,0,0,0,1.45.78A13.63,13.63,0,0,0,256,93.37Zm1.56-3.91a27.92,27.92,0,0,0,4-.73,3.53,3.53,0,0,1,1.07-.23c.56,0,.94.23.94.71a.52.52,0,0,1-.38.53,7.07,7.07,0,0,1-1.36.25c-1.41.19-2.9.38-4.2.48-.44,0-1.09.13-1.36.13a2.2,2.2,0,0,1-1.43-.61,2,2,0,0,1-.7-1c0-.15.09-.3.17-.3a.52.52,0,0,1,.3.15,2.38,2.38,0,0,0,1.67.74A12.5,12.5,0,0,0,257.59,89.46Z"/><path class="cls-1" d="M270.44,99.84a.9.9,0,0,1-.48.16.27.27,0,0,1-.27-.27c0-.08.08-.23.31-.4a39.52,39.52,0,0,0,5.61-5.12,39.12,39.12,0,0,0,3.46-4.37,1.2,1.2,0,0,0,.23-.71c0-.19-.21-.38-.78-.69-.16-.11-.31-.17-.31-.3s.23-.29.65-.29a3.36,3.36,0,0,1,1.56.67c.6.42.79.71.79,1s-.1.45-.46.61a2.92,2.92,0,0,0-.59.57c-.86,1-1.38,1.64-2.2,2.58.82.91.9,1.22.9,1.49a.79.79,0,0,1-.08.38,1.19,1.19,0,0,0-.11.51c0,1.11,0,2,0,3.46,0,1.89.06,3.36.06,4.51,0,.59-.14,1-.52,1s-.59-.27-.74-.61a3,3,0,0,1-.29-1.17,1,1,0,0,1,.1-.45,2.81,2.81,0,0,0,.17-1c.05-1.92.07-3.51.07-6.14,0-.63-.05-.94-.21-1.13A35.57,35.57,0,0,1,270.44,99.84Z"/><path class="cls-1" d="M296.86,95.11c1.47.59,2.16,1.32,2.16,1.93a.71.71,0,0,1-.63.8c-.31,0-.5-.13-.82-.48a8.25,8.25,0,0,0-1.87-1.47,9,9,0,0,0-2.18-.93v3.57c0,1.41,0,4.12,0,5s-.27.88-.56.88-.34-.08-.55-.38a2.6,2.6,0,0,1-.46-1.28,1.1,1.1,0,0,1,.17-.63,3.64,3.64,0,0,0,.16-1.17c0-1.28.07-3,.07-4.08,0-2.08,0-4.15,0-6.06,0-.87,0-1.1-.09-1.26a2.23,2.23,0,0,0-1.13-.84c-.21-.09-.23-.13-.23-.26s.31-.31.52-.31a4.22,4.22,0,0,1,1.72.46c.49.25.91.65.91,1a.86.86,0,0,1-.38.63c-.11.08-.13.31-.15.78,0,.9-.06,2.12-.06,3.38A13.09,13.09,0,0,1,296.86,95.11Z"/><path class="cls-1" d="M316.35,95.72a1.8,1.8,0,0,0,.65-.29,1,1,0,0,1,.69-.21,2.78,2.78,0,0,1,1.13.23c.28.14.47.33.47.59s-.19.52-.7.52a11.2,11.2,0,0,0-1.28.06,41.67,41.67,0,0,0-4.13.72c.33,1.8.77,3.9,1.09,5.33a7.16,7.16,0,0,1,.19,1.11.65.65,0,0,1-.65.7c-.45,0-.59-.36-.68-.93-.27-1.72-.65-4.2-1-6a37.87,37.87,0,0,0-3.66,1,2.41,2.41,0,0,0-.75.31,1,1,0,0,1-.76.32,3.32,3.32,0,0,1-1.82-.88.78.78,0,0,1-.23-.55c0-.15.08-.17.16-.17a.54.54,0,0,1,.25.09,2.26,2.26,0,0,0,1,.23,6.1,6.1,0,0,0,1.28-.17c1.37-.34,2.69-.69,4.35-1.09-.19-1.07-.38-2.14-.61-3.17-1.05.23-1.68.42-2.41.63a4.21,4.21,0,0,0-.87.31,1,1,0,0,1-.54.17,2.1,2.1,0,0,1-1.28-.61c-.51-.46-.65-.67-.65-.88s.08-.32.19-.32.14.07.25.13a2.16,2.16,0,0,0,1.32.46,5.51,5.51,0,0,0,1.2-.17c.82-.16,1.68-.35,2.62-.56-.19-1.07-.4-2-.63-3-.14-.66-.54-.84-1.43-.84-.12,0-.21-.07-.21-.17s.17-.23.28-.32a1,1,0,0,1,.67-.25,4.4,4.4,0,0,1,1.7.38c.48.21.65.42.65.65s-.08.23-.19.36a.73.73,0,0,0-.12.52,21,21,0,0,0,.31,2.42c1-.26,1.72-.49,2.54-.74a2,2,0,0,0,.53-.29,1.26,1.26,0,0,1,.71-.26,4,4,0,0,1,.88.11c.34.08.55.29.55.55s-.13.42-.38.46c-.61.1-1,.19-1.51.29-.88.19-2,.46-3.15.76.19,1.13.42,2,.63,3.17C314.43,96.2,315.42,96,316.35,95.72Z"/><path class="cls-1" d="M336.15,94.73a.78.78,0,0,0,.52-.33.61.61,0,0,1,.44-.25c.23,0,.49.1,1,.54s.61.67.61.86-.11.36-.44.36a.79.79,0,0,0-.63.23,38.76,38.76,0,0,1-3.34,3,.45.45,0,0,1-.25.11.19.19,0,0,1-.21-.19.42.42,0,0,1,.14-.27,25,25,0,0,0,2.86-3.4c0-.07,0-.09-.1-.09-1.14.27-3.18.88-4.71,1.37.11.5.23,1,.36,1.55.44,1.74.84,3.34,1.26,4.81a3.59,3.59,0,0,1,.15.82.52.52,0,0,1-.47.52c-.35,0-.63-.08-.71-.56-.4-1.89-.78-3.78-1.16-5.38-.14-.61-.25-1.11-.33-1.49-1,.31-2,.63-2.86,1a1.53,1.53,0,0,0-.67.39.42.42,0,0,1-.38.17c-.31,0-.58-.12-1.05-.56s-.65-.78-.65-1.08.13-.44.19-.44.15,0,.25.19c.38.46.57.57.87.57a4.38,4.38,0,0,0,1.13-.17c.82-.23,1.91-.54,3-.86-.19-.88-.38-1.68-.57-2.31A1.62,1.62,0,0,0,330,93c-.15-.12-.3-.19-.91-.19-.14,0-.23,0-.23-.1s.15-.27.34-.4a1.22,1.22,0,0,1,.65-.21,2.49,2.49,0,0,1,1.3.46c.4.21.53.38.53.55a.61.61,0,0,1-.13.33.45.45,0,0,0-.13.32,2.55,2.55,0,0,0,.07.44c.1.59.23,1.15.35,1.7C333.38,95.47,334.91,95.05,336.15,94.73Z"/><path class="cls-1" d="M346.4,91.06a.23.23,0,0,1,.23-.23,1.79,1.79,0,0,1,.36,0A6.29,6.29,0,0,1,349.3,92a2.34,2.34,0,0,1,1.07,1.75.7.7,0,0,1-.68.79c-.39,0-.56-.17-.79-.61a7.11,7.11,0,0,0-2.31-2.56A.3.3,0,0,1,346.4,91.06Zm2.83,9.55a35.82,35.82,0,0,0,5.48-4.22,41.58,41.58,0,0,0,4.71-5.12.41.41,0,0,1,.29-.19c.13,0,.31.11.31.23a.83.83,0,0,1-.12.38,28.35,28.35,0,0,1-4.54,5.6,49.52,49.52,0,0,1-5.37,4.56,1.57,1.57,0,0,0-.53.57.54.54,0,0,1-.54.36,2.41,2.41,0,0,1-1.37-.8,2.56,2.56,0,0,1-.86-1.39c0-.23.09-.42.19-.42s.19.09.27.17c.51.44.78.67,1.14.67A2.08,2.08,0,0,0,349.23,100.61Z"/><path class="cls-1" d="M368.78,93.68a.28.28,0,0,1-.16-.23c0-.1.12-.21.33-.21a1.92,1.92,0,0,1,1.12.32,2.72,2.72,0,0,1,1.23,1.72.56.56,0,0,1-.48.61.64.64,0,0,0-.36.19,26,26,0,0,1-3,2.62,25.5,25.5,0,0,1-3.74,2.27.76.76,0,0,1-.35.08c-.13,0-.26-.06-.26-.23a.38.38,0,0,1,.21-.31,27.2,27.2,0,0,0,3.57-2.67,24,24,0,0,0,2.1-2.18c.42-.51.61-.78.61-1S369.29,94,368.78,93.68Zm5.38-.73c0-.15.17-.21.29-.21a1.62,1.62,0,0,1,.53.19,12.7,12.7,0,0,1,3.13,2.12c.77.65,2,2.14,2,3a.74.74,0,0,1-.69.8c-.46,0-.57-.15-.82-.61a15.32,15.32,0,0,0-1.91-2.88,12.26,12.26,0,0,0-2.23-2C374.24,93.18,374.16,93.05,374.16,93Zm7-2.41a1.83,1.83,0,1,1-1.82-1.83A1.83,1.83,0,0,1,381.19,90.54Zm-3,0a1.18,1.18,0,0,0,2.35,0,1.18,1.18,0,1,0-2.35,0Z"/><path class="cls-1" d="M399.13,100a3.23,3.23,0,0,1,1,1.66c0,.55-.31.78-.6.78s-.59-.15-.89-.57a14,14,0,0,0-5.22-4.62,23.06,23.06,0,0,1-7.94,5.59,1.55,1.55,0,0,1-.57.16.23.23,0,0,1-.25-.21c0-.12,0-.18.17-.27a28.64,28.64,0,0,0,7-5.23,24.63,24.63,0,0,0,3.8-5.14c.08-.15.1-.19.1-.23s-.06,0-.1,0a51.71,51.71,0,0,0-5.77.79,2.07,2.07,0,0,0-.72.24.92.92,0,0,1-.52.14c-.38,0-.82-.23-1.45-.88a1.8,1.8,0,0,1-.53-1.11c0-.21.11-.32.19-.32s.19.09.28.17a2.44,2.44,0,0,0,1.57.8c.23,0,1.11-.09,1.6-.13l4.8-.5a1.45,1.45,0,0,0,.82-.36.73.73,0,0,1,.4-.23,2,2,0,0,1,1,.48c.38.28.59.49.59.8s-.21.34-.53.46a1,1,0,0,0-.65.57,38.28,38.28,0,0,1-2.83,3.95A16.23,16.23,0,0,1,399.13,100Z"/><path class="cls-1" d="M413.7,95.59c3.11.34,4.52,1.83,4.52,3.74,0,2.46-1.85,4.16-5.88,4.16-1.18,0-2.71-.11-3.7-.11-.8,0-1.74,0-2.52.07-.12,0-.17,0-.17-.28s.05-.25.17-.27c1.09-.08,1.43-.21,1.6-.5s.25-.65.25-2.75V92.28c0-2.19-.06-2.42-.23-2.67s-.5-.4-1.72-.48c-.15,0-.19-.07-.19-.27s0-.32.19-.32c.84,0,1.72.08,2.58.08s2.37-.12,3.49-.12c3.82,0,5.25,1.26,5.25,3.42,0,1.7-1,2.79-3.64,3.55Zm-4-.31c.34,0,.78,0,1.18,0,3.29,0,4.58-1.24,4.58-3.21,0-1.74-1.16-2.88-3.6-2.88-1.36,0-1.72.19-1.91.46s-.25.65-.25,2.61Zm0,4.37c0,1.87.09,2.2.32,2.58s.82.57,2.24.57c2.69,0,4-1.39,4-3.45S414.77,96,411.12,96c-.4,0-.88,0-1.45,0Z"/><path class="cls-1" d="M424.27,90.85c-.19,0-.28-.17-.28-.42,0-.08.07-.15.24-.21a28.87,28.87,0,0,0,3.94-1.78c.23,0,.34.08.34.27-.07,1.64-.11,2.79-.11,4.49v6.38c0,2,0,2.38.26,2.73s.46.42,1.91.53c.14,0,.19.08.19.31s-.05.3-.15.3c-.95,0-2.08-.09-3-.09s-2,0-3,.09c-.1,0-.14-.07-.14-.3s0-.29.21-.31c1.32-.09,1.64-.23,1.82-.53s.25-.71.25-2.73V92.21a2.92,2.92,0,0,0-.23-1.53.67.67,0,0,0-.58-.27,2.48,2.48,0,0,0-.76.15Z"/><path class="cls-1" d="M438.5,96.14a1.75,1.75,0,0,1-1.76,1.74,1.75,1.75,0,0,1,0-3.5A1.77,1.77,0,0,1,438.5,96.14Z"/><path class="cls-1" d="M443.21,90.85c-.19,0-.28-.17-.28-.42,0-.08.07-.15.24-.21a28.34,28.34,0,0,0,3.94-1.78c.23,0,.34.08.34.27-.06,1.64-.11,2.79-.11,4.49v6.38c0,2,.05,2.38.26,2.73s.46.42,1.91.53c.14,0,.19.08.19.31s-.05.3-.15.3c-.95,0-2.08-.09-3-.09s-2,0-3,.09c-.11,0-.15-.07-.15-.3s0-.29.21-.31c1.32-.09,1.64-.23,1.82-.53s.26-.71.26-2.73V92.21a3,3,0,0,0-.23-1.53.7.7,0,0,0-.59-.27,2.48,2.48,0,0,0-.76.15Z"/><path class="cls-1" d="M458.75,99.65c0,2.2,0,2.45.21,2.75s.44.4,1.74.5c.17,0,.21,0,.21.27s0,.28-.21.28c-.84,0-2-.09-2.83-.09s-1.89,0-2.65.09c-.17,0-.21-.07-.21-.28s0-.25.21-.27c1.09-.06,1.37-.21,1.53-.5s.26-.69.26-2.75V92.28c0-2.16-.05-2.38-.24-2.67s-.42-.4-1.74-.48c-.12,0-.17-.07-.17-.25s.05-.34.17-.34c1.72.08,3.65.1,5.31.1s3.36,0,5.17-.1c.08,1,.25,2.27.4,3.32v.06c0,.11-.17.19-.38.19s-.15,0-.19-.17a4.83,4.83,0,0,0-1.3-2c-.55-.42-1.18-.6-3.23-.6-1.24,0-1.64.18-1.83.5s-.23.71-.23,2.48v3c.34,0,.94,0,1.36,0,1.75,0,2.5-.12,2.84-.38a1.93,1.93,0,0,0,.56-1.38c0-.13.07-.19.3-.19s.29,0,.29.19c0,.71,0,1.38,0,2.06s0,1.61,0,2.35c0,.14-.06.21-.29.21s-.27-.07-.3-.23a2.08,2.08,0,0,0-.6-1.54,6,6,0,0,0-2.8-.39c-.42,0-1,0-1.36,0Z"/></g></g></svg>
