<svg xmlns="http://www.w3.org/2000/svg" viewBox="0 0 310.4 259.01"><defs><style>.cls-1,.cls-3{fill:#fff;}.cls-2{fill:#ededed;stroke:#ededed;}.cls-2,.cls-3{stroke-miterlimit:10;stroke-width:0.25px;}.cls-3{stroke:#fff;}</style></defs><g id="レイヤー_2" data-name="レイヤー 2"><g id="レイヤー_4" data-name="レイヤー 4"><path class="cls-1" d="M24.38,31.42a8.09,8.09,0,0,1-3.27,3.27A10.37,10.37,0,0,1,15.81,36a14.63,14.63,0,0,1-5.74-1A10.73,10.73,0,0,1,6,32a12.75,12.75,0,0,1-2.43-4.64,21,21,0,0,1-.81-6q0-7.12,3.47-10.9A12.21,12.21,0,0,1,15.7,6.66a22.67,22.67,0,0,1,4.9.48A15.26,15.26,0,0,1,24.27,8.4a40.6,40.6,0,0,1-.62,4.14,17.83,17.83,0,0,1-1.12,3.81H21L18.67,9.69a2.66,2.66,0,0,0-.9-.42,6.62,6.62,0,0,0-1.68-.14,6.9,6.9,0,0,0-5.88,2.77q-2.07,2.78-2.07,9.38a14.74,14.74,0,0,0,.59,4.14A11.15,11.15,0,0,0,10.52,29a8.81,8.81,0,0,0,3,2.54,8.91,8.91,0,0,0,4.22,1,9.28,9.28,0,0,0,5.88-1.91Z"/><path class="cls-1" d="M28.86,21.34a19.25,19.25,0,0,1,.93-6.25,12.53,12.53,0,0,1,2.66-4.59,11.38,11.38,0,0,1,4.17-2.86,14.38,14.38,0,0,1,5.4-1,15.3,15.3,0,0,1,6,1.07,10.61,10.61,0,0,1,4.12,3,12.47,12.47,0,0,1,2.35,4.62,21.94,21.94,0,0,1,.76,6q0,7.05-3.59,10.86A12.59,12.59,0,0,1,42,36a14.94,14.94,0,0,1-5.82-1,10.53,10.53,0,0,1-4.09-3,12.77,12.77,0,0,1-2.44-4.64A21,21,0,0,1,28.86,21.34Zm5.38,0a23.43,23.43,0,0,0,.47,4.76A11.8,11.8,0,0,0,36.23,30a7.5,7.5,0,0,0,2.71,2.6,8,8,0,0,0,4,.95,5.74,5.74,0,0,0,5-3q1.93-3,1.93-9.24a23.23,23.23,0,0,0-.47-4.79,12.54,12.54,0,0,0-1.49-3.87,7.62,7.62,0,0,0-2.57-2.6,7.17,7.17,0,0,0-3.76-.95,6.17,6.17,0,0,0-5.32,3Q34.24,15.07,34.24,21.34Z"/><path class="cls-1" d="M89.84,35.34h-12v-1.4a19.78,19.78,0,0,1,3.3-1.35V19.32a15.21,15.21,0,0,0-1.23-6.72,4.56,4.56,0,0,0-4.48-2.46,6.63,6.63,0,0,0-2.61.5A7,7,0,0,0,70.67,12a9.46,9.46,0,0,0-1.6,2A11.43,11.43,0,0,0,68,16.24V32.59a10,10,0,0,1,3.37,1.35v1.4H59.27v-1.4A18.16,18.16,0,0,1,63,32.59v-22l-3.69-.44V8.68a25.88,25.88,0,0,1,3.36-1.12c1.27-.34,2.59-.63,4-.9H68v6.28h.06a12.31,12.31,0,0,1,3.39-4.43A8.08,8.08,0,0,1,76.8,6.66a13.68,13.68,0,0,1,4,.54,6.16,6.16,0,0,1,2.94,1.87,8.92,8.92,0,0,1,1.79,3.61,22.45,22.45,0,0,1,.62,5.74V32.59a9.67,9.67,0,0,1,3.69,1.35Z"/><path class="cls-1" d="M114.71,31.42a8.06,8.06,0,0,1-3.28,3.27A10.31,10.31,0,0,1,106.14,36a14.6,14.6,0,0,1-5.74-1,10.65,10.65,0,0,1-4.06-3,12.75,12.75,0,0,1-2.43-4.64,20.67,20.67,0,0,1-.82-6q0-7.12,3.47-10.9A12.23,12.23,0,0,1,106,6.66a22.67,22.67,0,0,1,4.9.48A15.26,15.26,0,0,1,114.6,8.4a40.6,40.6,0,0,1-.62,4.14,17.83,17.83,0,0,1-1.12,3.81h-1.51L109,9.69a2.66,2.66,0,0,0-.9-.42,6.68,6.68,0,0,0-1.68-.14,6.9,6.9,0,0,0-5.88,2.77q-2.07,2.78-2.07,9.38a14.74,14.74,0,0,0,.59,4.14A11.15,11.15,0,0,0,100.85,29a8.86,8.86,0,0,0,3,2.54,9,9,0,0,0,4.23,1A9.28,9.28,0,0,0,114,30.63Z"/><path class="cls-1" d="M141.87,31.42a5.72,5.72,0,0,1-1.4,1.79,10,10,0,0,1-2.19,1.45,12.34,12.34,0,0,1-2.68,1,11.91,11.91,0,0,1-3,.37,15.28,15.28,0,0,1-5.83-1,11,11,0,0,1-4.2-3,12.78,12.78,0,0,1-2.54-4.62,19.53,19.53,0,0,1-.87-6q0-7.17,3.3-10.92t9.35-3.76a14.12,14.12,0,0,1,3.87.54,8.64,8.64,0,0,1,5.79,5,12.2,12.2,0,0,1,.93,5.06c0,.64,0,1.28-.09,1.94a17.67,17.67,0,0,1-.3,2.1H124.56a15.9,15.9,0,0,0,.59,4.39,10.34,10.34,0,0,0,1.77,3.56,8.23,8.23,0,0,0,3,2.38,9.55,9.55,0,0,0,4.2.87,14.93,14.93,0,0,0,4-.56,7.65,7.65,0,0,0,3-1.46ZM131.62,9.13a5.81,5.81,0,0,0-4.87,2.15q-1.68,2.16-2,7.59h12.32c0-.33.07-.66.09-1s0-.62,0-.92a10.53,10.53,0,0,0-1.35-5.71A4.62,4.62,0,0,0,131.62,9.13Z"/><path class="cls-1" d="M159.23,46.54H146.8v-1.4a20.27,20.27,0,0,1,3.69-1.35V10.58l-3.69-.44V8.68a24,24,0,0,1,3.66-1.26c1.25-.32,2.48-.57,3.67-.76h1.4v6.28h.06a11.15,11.15,0,0,1,3.13-4.57A7.88,7.88,0,0,1,164,6.66,9.51,9.51,0,0,1,171.72,10q2.73,3.3,2.74,10.75a20.82,20.82,0,0,1-.92,6.38,13.65,13.65,0,0,1-2.64,4.82,11.35,11.35,0,0,1-4.14,3,13.35,13.35,0,0,1-5.4,1.07,16.88,16.88,0,0,1-3.25-.25,13.52,13.52,0,0,1-2.58-.87v8.9a8.92,8.92,0,0,1,3.7,1.35Zm3-36.4a5.68,5.68,0,0,0-4.37,1.73,10.07,10.07,0,0,0-2.3,4.76V32.31a8.08,8.08,0,0,0,2.27.93,14.59,14.59,0,0,0,3.28.3,6,6,0,0,0,3.33-.95,7.89,7.89,0,0,0,2.52-2.69,14.33,14.33,0,0,0,1.59-4.06,21.48,21.48,0,0,0,.56-5.12,23.17,23.17,0,0,0-.36-4.23,10.73,10.73,0,0,0-1.18-3.36,5.93,5.93,0,0,0-2.12-2.21A6.24,6.24,0,0,0,162.2,10.14Z"/><path class="cls-1" d="M177.6,8.74a14.37,14.37,0,0,1,4.48-2V2a12.51,12.51,0,0,1,1.7-1.1A21.13,21.13,0,0,1,185.72,0h1.4V7.34h8.4v2.91h-8.4V26.41c0,2.23.35,3.8,1.06,4.73a3.76,3.76,0,0,0,3.19,1.4c.67,0,1.51,0,2.52-.14a10.15,10.15,0,0,0,2.58-.54l.39.84a6.84,6.84,0,0,1-1.26,1.07,13.87,13.87,0,0,1-1.85,1.06,12.41,12.41,0,0,1-2.27.84A9.28,9.28,0,0,1,189,36a6.63,6.63,0,0,1-5.12-1.9c-1.18-1.26-1.76-3.31-1.76-6.13V10.25H177.6Z"/><path class="cls-2" d="M3.27,155.94a9.63,9.63,0,0,1-.36,1.63,8.23,8.23,0,0,1-2.41,3.7c-.07.07-.25-.05-.19-.14A10.43,10.43,0,0,0,2,157.4a17,17,0,0,0,.4-4.34,14.31,14.31,0,0,0-.09-1.89,7.82,7.82,0,0,1,1.23.61H7.9c.44-.47.49-.51.59-.51s.18,0,.66.44c.25.19.26.29.26.38s-.07.19-.41.43v1.06c0,1.55.05,2.1.05,2.43s-.21.42-.59.42S8,156.36,8,156.1v-.16Zm2.66-8.62c2.69.81,3.86,1.72,3.86,2.53,0,.31-.17.52-.41.52s-.33-.12-.7-.54a9.54,9.54,0,0,0-2.89-2.3,12.06,12.06,0,0,1-5.24,4.16c-.11,0-.21-.19-.12-.24a14.14,14.14,0,0,0,3.85-3.54,7.12,7.12,0,0,0,.9-1.58c.92.29,1.49.52,1.49.68s-.19.22-.71.27ZM4.12,161v.57c0,.3-.19.42-.59.42s-.41-.09-.41-.33,0-.74,0-2.51c0-1.18,0-1.64,0-2.19a8.16,8.16,0,0,1,1.14.59H8.11c.44-.47.51-.52.59-.52s.18.05.66.43c.23.21.26.28.26.37s0,.19-.4.43v.82c0,1.52,0,2.13,0,2.27,0,.31-.19.42-.59.42s-.44-.09-.44-.33V161Zm-.67-7c0,.48-.06,1-.11,1.44H8v-1.44ZM8,152.21H3.46v1.42H8ZM3.76,150a4.1,4.1,0,0,0,1.09.12h1.6c.5-.64.59-.7.69-.7s.19.06.76.56c.25.21.32.31.32.4s-.06.17-.23.17H4.85a3.84,3.84,0,0,0-.92.11ZM8.23,158H4.12v2.59H8.23ZM12,151.64c0,4,.07,5.48.07,5.91s-.2.51-.67.51-.44-.14-.44-.42.07-1.58.07-5.2a41.41,41.41,0,0,0-.1-4.55c1.4.16,1.65.24,1.65.47s-.09.22-.58.43Zm3.23,1.82c0,4.79.07,6.7.07,7.13a1.15,1.15,0,0,1-.61,1.15,1.71,1.71,0,0,1-.86.24c-.18,0-.21,0-.25-.28-.08-.45-.38-.68-1.8-1-.11,0-.09-.28,0-.27a18.17,18.17,0,0,0,2.11.18c.21,0,.3-.11.3-.33v-10a25.23,25.23,0,0,0-.11-3.67c1.51.18,1.69.25,1.69.46s-.09.26-.56.46Z"/><path class="cls-2" d="M21.9,155.51c0,4.16,0,5.65,0,6.09s-.22.53-.66.53-.48-.12-.48-.43,0-1.49.09-6.16c0-1.06,0-2.13,0-3.19a16.64,16.64,0,0,1-2.32,2.46c-.07.07-.26-.1-.19-.17a20.05,20.05,0,0,0,3.8-6.84,9.51,9.51,0,0,0,.33-1.44c1.14.32,1.7.58,1.7.77s-.19.28-.7.34a20.88,20.88,0,0,1-2.13,4.2c.9.16,1.07.25,1.07.42s-.06.23-.53.42Zm10-6c.75-.87.84-.92.92-.92s.21.05,1,.68c.37.31.42.4.42.5s0,.18-.22.18H28.4v2.93h3.11c.66-.78.76-.84.85-.84s.21.06.9.63c.33.26.38.38.38.49s-.07.15-.22.15h-5v3.19h3.16c.68-.78.76-.83.85-.83s.21,0,.9.64c.31.26.38.37.38.45s0,.18-.22.18H28.4c0,2.62.06,4.14.06,4.63s-.21.54-.72.54-.5-.14-.5-.45.09-1.43.09-4.38V150h-.92a15.19,15.19,0,0,1-3.3,4.32c-.07.06-.28-.09-.21-.18a19,19,0,0,0,3.28-6.49,8.83,8.83,0,0,0,.26-1.26c1.18.33,1.7.55,1.7.74s-.21.3-.69.37c-.26.73-.54,1.42-.83,2.06Z"/><path class="cls-2" d="M44,151.14a6.07,6.07,0,0,1-.33,1.7,17.62,17.62,0,0,1-2.49,4.59,2.6,2.6,0,0,1-1.72,1.17,1.8,1.8,0,0,1-1.39-.91,4.23,4.23,0,0,1-.61-2.29,5.87,5.87,0,0,1,1.89-4.3,7.19,7.19,0,0,1,5-1.87c3.49,0,5.94,2.27,5.94,5.41,0,3.64-3.8,5.47-7.36,5.66-.19,0-.29-.09-.29-.19s.05-.23.29-.28c2.9-.51,6.21-2.1,6.21-5.49,0-2.63-1.92-4.35-4.58-4.49a7.21,7.21,0,0,0-.93,0A2.44,2.44,0,0,1,44,151.14Zm-4.35.53a4.86,4.86,0,0,0-1.41,3.44,3.54,3.54,0,0,0,.42,1.75,1,1,0,0,0,.81.59c.32,0,.68-.29,1.22-1a16.07,16.07,0,0,0,2.39-4.54,3.64,3.64,0,0,0,.25-1.25,1.07,1.07,0,0,0-.21-.73A6,6,0,0,0,39.64,151.67Z"/><path class="cls-2" d="M58.19,150.44c.47-.52.54-.57.63-.57s.19,0,.66.52c.24.24.29.35.29.43s-.12.19-.47.35a18.15,18.15,0,0,1-1.44,5.93c1,.77,1.55,1.53,1.55,2.14,0,.33-.19.57-.45.57s-.4-.12-.75-.8a7.24,7.24,0,0,0-.74-1.13,10.34,10.34,0,0,1-3.91,3.91c-.08.05-.26-.12-.17-.19a12.13,12.13,0,0,0,3.45-4.41,10,10,0,0,0-1.63-1.35l-.36,1a.51.51,0,0,1-.51.3c-.36,0-.57-.14-.57-.28a1.14,1.14,0,0,1,.1-.43,30,30,0,0,0,1.57-5.55h-.65a5.15,5.15,0,0,0-1.26.12l-.18-.68a8,8,0,0,0,1.44.12h.73c.12-.64.23-1.28.31-1.87.14-1,.21-1.6.25-2.1,1.33.24,1.56.35,1.56.52s-.1.26-.61.42c-.14,1-.31,2-.48,3Zm-1.73.44a41.34,41.34,0,0,1-1.16,4.7,12.61,12.61,0,0,1,1.8,1,20.52,20.52,0,0,0,1.2-5.69Zm4.79,1.64a29,29,0,0,0,1.54-4.39,11.2,11.2,0,0,0,.31-1.61c1.46.36,1.67.52,1.67.71s-.1.24-.61.33a24.79,24.79,0,0,1-2.43,4.95c1.86,0,3.72-.18,5.57-.39a9.48,9.48,0,0,0-1.65-2.46c-.07-.09.07-.21.16-.16,1.7,1.05,3,2.75,3,3.82,0,.43-.2.73-.52.73s-.43-.14-.6-.73a8.57,8.57,0,0,0-.3-.85,45.14,45.14,0,0,1-6.68,1.11c-.15.4-.24.5-.34.5s-.27-.2-.49-1.61a9.4,9.4,0,0,0,1.06.05Zm.71,8.4v.76c0,.33-.19.47-.66.47s-.45-.12-.45-.36.07-1.37.07-3.78c0-1.74,0-2.33-.09-3.16a7.71,7.71,0,0,1,1.22.61h4.49c.49-.53.55-.56.64-.56s.17,0,.7.49c.24.2.27.29.27.4s-.05.19-.43.43v1.54c0,2.43.07,3.51.07,3.78s-.23.49-.66.49-.45-.1-.45-.38v-.73Zm4.72-5H62v4.6h4.72Z"/><path class="cls-2" d="M78.28,148.85c0-.56-.06-.77-.21-.94a1,1,0,0,0-.9-.24.13.13,0,0,1-.13-.13c0-.1.06-.19.2-.27a1.21,1.21,0,0,1,.66-.18,2.09,2.09,0,0,1,1,.32c.49.29.7.59.7.76a.45.45,0,0,1-.21.38,1,1,0,0,0-.24.64,9.34,9.34,0,0,0,0,1.25,11,11,0,0,0,1.79-.38,5.13,5.13,0,0,0,.73-.26,2.57,2.57,0,0,1,.86-.24c.66,0,1,.12,1,.45s-.17.43-.85.57c-1,.24-2.36.52-3.57.69,0,.94,0,1.83,0,2.76a8.53,8.53,0,0,0,1.55-.34,3.28,3.28,0,0,0,.61-.26,1.29,1.29,0,0,1,.79-.26c.35,0,.56.17.58.41s-.13.42-.45.54a12.43,12.43,0,0,1-3.06.69c0,1.11.07,2.33.16,3.44a17.47,17.47,0,0,1,3.83,1.59c.45.27.64.47.64.82a.54.54,0,0,1-.48.56,1.13,1.13,0,0,1-.64-.23,13.46,13.46,0,0,0-3.33-1.84,1.84,1.84,0,0,1-.63,1.56,3.2,3.2,0,0,1-2.17.56c-1,0-2.69-.37-2.69-1.67s1.69-1.68,3-1.68a11.27,11.27,0,0,1,1.67.16c0-1.1,0-2.21-.07-3.15a15.5,15.5,0,0,1-1.75.09c-1.44,0-2-.52-2-1.16a1.47,1.47,0,0,1,.18-.76c.07-.13.21-.28.29-.28s.16,0,.16.12a.42.42,0,0,1,0,.16,1.62,1.62,0,0,0-.07.53c0,.42.44.65,1.37.65a15.37,15.37,0,0,0,1.86-.13c0-.93,0-1.82-.07-2.75a29.05,29.05,0,0,1-3,.26,3.14,3.14,0,0,1-2.62-1,.37.37,0,0,1-.09-.25.13.13,0,0,1,.14-.12.51.51,0,0,1,.24.09,3,3,0,0,0,1.87.52,26.87,26.87,0,0,0,3.47-.31C78.28,150,78.28,149.47,78.28,148.85Zm-1.67,9.73c-1.37,0-2.22.36-2.22,1s.78.94,2,.94a2.32,2.32,0,0,0,1.65-.45,1.36,1.36,0,0,0,.43-1.18A6,6,0,0,0,76.61,158.58Z"/><path class="cls-2" d="M93.5,154.62c.19-.67.42-1.26.64-2a11.22,11.22,0,0,1,1.55-3.16,1.5,1.5,0,0,1,1.16-.71c1.42,0,2.5,2,2.5,4.71a7.65,7.65,0,0,1-5.62,7.85,1.26,1.26,0,0,1-.37.09c-.14,0-.17-.14-.17-.24s.1-.16.26-.23a7.61,7.61,0,0,0,4.84-7.41c0-2.77-.69-4.21-1.53-4.21-.33,0-.59.28-.83.66a14,14,0,0,0-1.53,3.66,7,7,0,0,0-.32,1.85,3.8,3.8,0,0,0,0,.46,2.83,2.83,0,0,1,0,.43c0,.28-.08.43-.4.43s-.67-.43-.86-1.09a9.77,9.77,0,0,1-.23-2.15,15.38,15.38,0,0,1,.36-3.21,8.85,8.85,0,0,0,.26-1.81,1.7,1.7,0,0,0-.34-1.14.35.35,0,0,1-.11-.24c0-.07.09-.14.21-.14a2,2,0,0,1,1,.88,2.09,2.09,0,0,1,.31,1.08,1.09,1.09,0,0,1-.12.47A2.75,2.75,0,0,0,94,150a10,10,0,0,0-.66,3.58,4.59,4.59,0,0,0,.1,1Z"/><path class="cls-2" d="M108.22,158.25c.06.26.09.31.16.31a.14.14,0,0,0,.14-.1c.35-1,.9-2.54,1.3-3.51a.26.26,0,0,1,.23-.19c.08,0,.15.11.15.23a1,1,0,0,1,0,.17c-.33,1.16-.82,2.72-1,3.49a4.45,4.45,0,0,0-.16.88c0,.35,0,.7,0,1s-.16.47-.4.47-.42-.1-.59-.45a9.45,9.45,0,0,1-.66-4,23,23,0,0,1,.85-5.55,5.88,5.88,0,0,0,.28-1.53,2.33,2.33,0,0,0-.4-1.23.46.46,0,0,1-.09-.21c0-.1.11-.17.21-.17a.64.64,0,0,1,.35.17,2.9,2.9,0,0,1,.72.8,1.81,1.81,0,0,1,.35,1.13.87.87,0,0,1-.24.57,1.89,1.89,0,0,0-.28.59,15.57,15.57,0,0,0-1,5.1A14.32,14.32,0,0,0,108.22,158.25Zm11.56.95a.8.8,0,0,1,.29.49.49.49,0,0,1-.38.54.87.87,0,0,1-.61-.19,13.55,13.55,0,0,0-2-1.32c0,.86-.71,1.91-2.52,1.91-1.39,0-2.43-.66-2.43-1.69s.85-1.61,2.45-1.61a7,7,0,0,1,1.65.19c0-1.6,0-3.23-.05-4.84a20.06,20.06,0,0,1-2.73.19,1.85,1.85,0,0,1-1.82-1.21.77.77,0,0,1,0-.26.16.16,0,0,1,.15-.16c.11,0,.18.09.26.21a1.57,1.57,0,0,0,1.36.66,18.34,18.34,0,0,0,2.81-.26c0-.8,0-1.82-.07-2.57,0-.43-.09-.56-.23-.66a1.22,1.22,0,0,0-.81-.21c-.18,0-.23,0-.23-.17s.31-.38.68-.38a3.23,3.23,0,0,1,1.2.31c.29.14.72.41.72.75a.52.52,0,0,1-.2.38,1,1,0,0,0-.23.71c0,.57,0,1.13,0,1.68a6.86,6.86,0,0,0,.85-.23,3.54,3.54,0,0,0,.52-.25,1.54,1.54,0,0,1,.87-.2c.27,0,.6.14.6.42s-.17.38-.5.5a18,18,0,0,1-2.32.61c0,1.75,0,3.63.13,5.26A10.13,10.13,0,0,1,119.78,159.2ZM114.24,158c-.78,0-1.54.3-1.54.92s.49,1,1.75,1c1.1,0,1.77-.52,1.77-1.53A5.53,5.53,0,0,0,114.24,158Z"/><path class="cls-2" d="M126.71,159c-1.46-1.46-1.75-3.6-1.75-6.2,0-.48,0-1,0-1.42a1.92,1.92,0,0,0-.77-1.67c-.1-.1-.15-.17-.15-.22s.1-.16.24-.16a2,2,0,0,1,1,.56,1.79,1.79,0,0,1,.82,1.26,2.14,2.14,0,0,1-.16.75,8.09,8.09,0,0,0-.19,2,6.74,6.74,0,0,0,.47,3c.29.63.62.94.85.94s.24-.09.34-.28c.54-1,1.1-1.89,1.9-3.16a.33.33,0,0,1,.29-.19.19.19,0,0,1,.19.18.94.94,0,0,1-.1.31,18.38,18.38,0,0,0-1.37,2.95,2.17,2.17,0,0,0-.18.64,1.12,1.12,0,0,0,.07.4,1.37,1.37,0,0,1,.11.54.46.46,0,0,1-.51.45A2.17,2.17,0,0,1,126.71,159Zm6.91-7.74c2,.85,3.73,2.79,3.73,4.8,0,.66-.23,1.15-.66,1.15a.51.51,0,0,1-.45-.23c-.25-.35-.58-.5-1.7-.64-.18,0-.23-.1-.23-.22s.09-.14.26-.16c.47-.05.83-.09,1.32-.16a.27.27,0,0,0,.26-.31,5.62,5.62,0,0,0-2.72-3.89.32.32,0,0,1-.18-.26C133.25,151.24,133.43,151.17,133.62,151.26Z"/><path class="cls-2" d="M154.55,154c0,1.84-1,3-2.71,4a15,15,0,0,1-6,1.61c-.2,0-.32-.07-.32-.26s.07-.21.32-.24a13.47,13.47,0,0,0,5.18-1.74,4.24,4.24,0,0,0,2.33-3.66,3.07,3.07,0,0,0-3.33-2.88,7.65,7.65,0,0,0-3.39,1,23.46,23.46,0,0,0-2.69,1.65,4.68,4.68,0,0,0-.76.66.67.67,0,0,1-.61.29,2,2,0,0,1-1.14-.64,1.79,1.79,0,0,1-.59-1c0-.29.07-.38.15-.38a.29.29,0,0,1,.21.1,1.41,1.41,0,0,0,1,.56,2,2,0,0,0,.94-.33,34.59,34.59,0,0,1,3.27-1.65,9.14,9.14,0,0,1,3.61-.88C152.85,150.15,154.55,152,154.55,154Z"/><path class="cls-2" d="M165.47,150.3a2.12,2.12,0,0,1,.83-.27c.25,0,.54.13.54.43s-.21.43-.6.59c-.8.29-1.76.61-2.85.9-1.11,3.11-2,5.71-3.21,8.5a.64.64,0,0,1-.56.44.55.55,0,0,1-.39-.18.57.57,0,0,1-.13-.38,1.06,1.06,0,0,1,.09-.35,67.46,67.46,0,0,0,3.33-7.8,8.76,8.76,0,0,1-1.85.26A3.08,3.08,0,0,1,159,152c-.22-.16-.5-.4-.5-.64a.2.2,0,0,1,.19-.19,1,1,0,0,1,.33.15,2.42,2.42,0,0,0,1.48.4,8.75,8.75,0,0,0,2.35-.45c.21-.59.35-1,.49-1.54a3.87,3.87,0,0,0,.17-.9c0-.35-.26-.66-.83-.78-.26-.06-.29-.09-.29-.18s.12-.17.24-.22a1.44,1.44,0,0,1,.47-.09,3.08,3.08,0,0,1,1.46.59.71.71,0,0,1,.29.5.65.65,0,0,1-.24.49,1.28,1.28,0,0,0-.37.59c-.17.38-.33.85-.5,1.32A14.19,14.19,0,0,0,165.47,150.3Zm-.43,7.95a1.58,1.58,0,0,0,.88,1.42,4.92,4.92,0,0,0,2.31.37,8.15,8.15,0,0,0,1.6-.18,2.39,2.39,0,0,1,.71-.1,1.51,1.51,0,0,1,.54.1.51.51,0,0,1,.34.49c0,.31-.14.47-.74.55a11.83,11.83,0,0,1-1.89.12,6,6,0,0,1-3.21-.64,2.24,2.24,0,0,1-1.1-1.82,3.13,3.13,0,0,1,.31-1.28c.07-.16.2-.32.32-.32s.12.09.12.14a1.32,1.32,0,0,1-.07.3A2.86,2.86,0,0,0,165,158.25Zm3.42-4.84a6,6,0,0,0-3,.61l-.19,0c-.09,0-.14-.05-.14-.12a.29.29,0,0,1,.14-.24,5.52,5.52,0,0,1,3.57-1,4.73,4.73,0,0,1,1.63.35c.33.15.51.36.49.64a.38.38,0,0,1-.42.36,1.13,1.13,0,0,1-.38-.08,1.47,1.47,0,0,0-.47-.11,1.23,1.23,0,0,0-.67.16,14.7,14.7,0,0,0-1.76,1.11.53.53,0,0,1-.27.09c-.09,0-.12-.06-.12-.14s.06-.14.15-.23c.4-.35,1.11-.92,1.49-1.23C168.61,153.48,168.61,153.43,168.46,153.41Zm.66-5.1a4.25,4.25,0,0,1,1.28.69,1.84,1.84,0,0,1,.75,1.13.44.44,0,0,1-.44.5c-.24,0-.35-.14-.57-.57a5.13,5.13,0,0,0-1.28-1.41.24.24,0,0,1-.11-.17.2.2,0,0,1,.19-.19A.58.58,0,0,1,169.12,148.31Zm1.56-1a4.18,4.18,0,0,1,1.23.57,1.62,1.62,0,0,1,.78,1.11.44.44,0,0,1-.4.47c-.21,0-.33-.07-.57-.47a4.33,4.33,0,0,0-1.43-1.39s-.06-.12-.06-.17a.17.17,0,0,1,.17-.18A1.08,1.08,0,0,1,170.68,147.27Z"/><path class="cls-2" d="M186.91,153.81a2.92,2.92,0,0,1,1,2.22,3.74,3.74,0,0,1-2.17,3.16,11.2,11.2,0,0,1-4.2,1.14,3.94,3.94,0,0,1-.47,0c-.17,0-.31,0-.31-.24s.07-.21.26-.23a10.51,10.51,0,0,0,4-1.27,3.28,3.28,0,0,0,1.79-2.67,2.26,2.26,0,0,0-.62-1.75,2.5,2.5,0,0,0-1.86-.71,5.83,5.83,0,0,0-2.5.62,21.46,21.46,0,0,0-2.3,1.44,2.84,2.84,0,0,0-.54.49.55.55,0,0,1-.49.26,1.5,1.5,0,0,1-1-.7,1.41,1.41,0,0,1-.4-.88c0-.23.08-.33.15-.33s.16.1.25.23a1.25,1.25,0,0,0,.57.48,1.23,1.23,0,0,0,.69-.17c1-.49,1.88-1,2.75-1.34a6.64,6.64,0,0,1,2.82-.71A3.74,3.74,0,0,1,186.91,153.81Z"/><path class="cls-2" d="M201.32,150.3c-1.58.47-3.25,1-4.65,1.49a9.53,9.53,0,0,0-1.29.59.88.88,0,0,1-.59.2,1.67,1.67,0,0,1-1.14-.72,1.91,1.91,0,0,1-.47-1c0-.23.07-.33.17-.33s.13,0,.23.15a1.34,1.34,0,0,0,1.16.61,6.72,6.72,0,0,0,1.11-.19c2.28-.57,4.86-1.25,7.53-1.93a4.3,4.3,0,0,0,.82-.27,1,1,0,0,1,.57-.18,2.55,2.55,0,0,1,1,.23.6.6,0,0,1,.47.52c0,.24-.21.45-.57.47a10,10,0,0,0-3.37.57,5.47,5.47,0,0,0-3.5,4.67A3.47,3.47,0,0,0,200,158a5.15,5.15,0,0,0,3,1.07,3.29,3.29,0,0,1,1.32.3.64.64,0,0,1,.42.62c0,.26-.26.45-.8.45a7.44,7.44,0,0,1-4.34-1.44,4.13,4.13,0,0,1-1.51-3.31,6.27,6.27,0,0,1,3.28-5.35Z"/><path class="cls-2" d="M210,158a6.89,6.89,0,0,1,2.84,1.3,2.54,2.54,0,0,1,1.15,1.84.8.8,0,0,1-.75.87c-.35,0-.59-.15-.8-.62a6.28,6.28,0,0,0-2.67-3,.23.23,0,0,1-.14-.23C209.67,158,209.86,158,210,158Z"/><path class="cls-2" d="M222.73,154.4c.44-.45.49-.51.59-.51s.18.06.68.47c.24.21.28.31.28.4s-.09.17-.44.4a22.72,22.72,0,0,1-.71,4.93,2.5,2.5,0,0,1-.8,1.45,1.58,1.58,0,0,1-1,.3c-.14,0-.17,0-.19-.23-.05-.45-.36-.64-1.58-1-.1,0-.07-.24,0-.23a12.55,12.55,0,0,0,1.89.19c.45,0,.6-.33.81-1.14a22.45,22.45,0,0,0,.57-4.6h-2.48l-.15.57c-.05.18-.23.3-.52.3s-.54,0-.54-.21a1.2,1.2,0,0,1,.07-.33,26.41,26.41,0,0,0,.68-3.17,12.23,12.23,0,0,0,.13-1.64,7,7,0,0,1,1.11.59h1.77v-3.08h-2.34a4.14,4.14,0,0,0-1.2.12l-.17-.68a7.54,7.54,0,0,0,1.39.12h2.19c.46-.5.53-.55.62-.55s.17,0,.66.43c.26.23.28.33.28.42s-.06.17-.44.47v1c0,1.74.05,2.42.05,2.61s-.2.43-.62.43-.42-.07-.42-.31v-.52H221a29.26,29.26,0,0,1-.5,3Zm6.06,2.65h-2.38v.56c0,.33-.19.43-.61.43s-.43-.07-.43-.35,0-.86,0-2.69a15.46,15.46,0,0,0-.1-2.23,6.77,6.77,0,0,1,1.21.59h2.26a20.15,20.15,0,0,0-.09-2.1c1.41.15,1.6.26,1.6.45s-.09.21-.54.4v1.25h2.46c.45-.49.52-.52.61-.52s.17,0,.63.41c.26.23.29.31.29.42s-.05.19-.42.41v.85c0,1.64.07,2.26.07,2.42,0,.31-.24.43-.62.43s-.45-.09-.45-.35v-.38h-2.57v3c1-.1,1.91-.24,2.86-.38a6.7,6.7,0,0,0-1-1.37c-.07-.07,0-.21.14-.16,1.54.75,2.67,2.12,2.67,3.08a.59.59,0,0,1-.59.64c-.22,0-.36-.12-.52-.63a6.29,6.29,0,0,0-.48-1.23,47.74,47.74,0,0,1-7.41,1.39c-.14.43-.23.52-.37.52s-.26-.19-.53-1.6c.36,0,.72,0,1,0,.84,0,2-.09,3.25-.21Zm-2.27-6.8a18,18,0,0,0,1-2.53,7.82,7.82,0,0,0,.3-1.29c1.39.42,1.61.52,1.61.7s-.09.28-.62.34a14.14,14.14,0,0,1-1.79,2.76c1.79,0,3.57-.15,5.36-.33a9.83,9.83,0,0,0-1.42-1.68c-.07-.07,0-.19.14-.16,1.78.8,3,2,3,2.9a.61.61,0,0,1-.56.68c-.24,0-.38-.14-.55-.59-.11-.26-.23-.52-.38-.8a66.07,66.07,0,0,1-6.84,1c-.14.43-.21.52-.35.52s-.24-.11-.5-1.58c.38,0,.71.05,1.16.05Zm2.27,3.54h-2.38v2.83h2.38Zm3.54,2.83v-2.83h-2.57v2.83Z"/><path class="cls-2" d="M240.13,159c-1.46-1.46-1.75-3.6-1.75-6.2,0-.48,0-1,0-1.42a1.94,1.94,0,0,0-.76-1.67c-.11-.1-.16-.17-.16-.22s.11-.16.25-.16a2.06,2.06,0,0,1,1,.56,1.81,1.81,0,0,1,.81,1.26,2.38,2.38,0,0,1-.15.75,8,8,0,0,0-.2,2,6.74,6.74,0,0,0,.47,3c.3.63.63.94.85.94s.25-.09.35-.28c.54-1,1.09-1.89,1.89-3.16a.35.35,0,0,1,.3-.19.19.19,0,0,1,.19.18.76.76,0,0,1-.11.31,20.31,20.31,0,0,0-1.37,2.95,2.45,2.45,0,0,0-.17.64,1.12,1.12,0,0,0,.07.4,1.37,1.37,0,0,1,.1.54.45.45,0,0,1-.5.45A2.17,2.17,0,0,1,240.13,159Zm6.9-7.74c2.05.85,3.73,2.79,3.73,4.8,0,.66-.22,1.15-.66,1.15a.54.54,0,0,1-.45-.23c-.24-.35-.57-.5-1.7-.64-.17,0-.22-.1-.22-.22s.08-.14.26-.16c.47-.05.83-.09,1.31-.16a.28.28,0,0,0,.27-.31,5.6,5.6,0,0,0-2.73-3.89.33.33,0,0,1-.17-.26C246.67,151.24,246.84,151.17,247,151.26Z"/><path class="cls-2" d="M257.85,150.82c1.67.61,2.36,1.36,2.36,2a.52.52,0,0,1-.49.59c-.19,0-.38-.12-.53-.5a4.07,4.07,0,0,0-1.34-1.76V156c0,.32-.21.47-.68.47-.31,0-.39-.1-.39-.36s.06-2.55.13-4.58a11.35,11.35,0,0,1-3.33,3.64c-.08.05-.24-.1-.17-.17a14.31,14.31,0,0,0,3.26-5.09H255a4.71,4.71,0,0,0-1.06.11l-.17-.64a6.47,6.47,0,0,0,1.2.1h1.92v-.4a18.13,18.13,0,0,0-.08-2.62c1.33.16,1.63.23,1.63.4s-.07.26-.56.47v2.15H259c.54-.64.64-.73.73-.73s.26.09.86.59c.26.21.32.31.32.4s-.06.17-.23.17h-2.81Zm-1.51,6.8c0,.18,0,.37,0,.51,0,1.63-.82,2.88-1.7,2.88a.59.59,0,0,1-.61-.61c0-.29.15-.5.55-.68a2.61,2.61,0,0,0,1.5-2.11C256.13,157.5,256.32,157.52,256.34,157.62Zm2.81,2.21c0,.74.12.85,2.17.85,1.82,0,2.34,0,2.72-.23s.51-.5.92-1.85a.11.11,0,0,1,.21,0c0,.56,0,.94,0,1.25s.06.38.32.47a.38.38,0,0,1,.22.4c0,.29-.34.55-.83.67a17.81,17.81,0,0,1-3.87.23c-2.38,0-2.93-.3-2.93-1.65,0-.21,0-.52,0-1.3A14.16,14.16,0,0,0,258,157c1.5.16,1.7.26,1.7.45s-.06.23-.57.45Zm1.62-3c1.42.31,2.35,1.06,2.35,1.82a.53.53,0,0,1-.53.59c-.21,0-.42-.08-.59-.52a3.45,3.45,0,0,0-1.36-1.72C260.56,157,260.66,156.84,260.77,156.86Zm1.54-1.2v.21c0,.31-.23.4-.64.4s-.44-.07-.44-.33.07-1.7.07-5.1a35.67,35.67,0,0,0-.1-4,6.92,6.92,0,0,1,1.23.59h4.1c.46-.51.53-.54.64-.54s.17,0,.66.43c.24.21.27.32.27.4s0,.19-.43.47v2.45c0,3.54.07,4.89.07,5.27s-.26.45-.68.45-.41-.08-.41-.35v-.38Zm4.34-7.77h-4.34V150h4.34Zm0,2.53h-4.34v2.1h4.34Zm0,2.54h-4.34v2.27h4.34Zm-.49,4.65c1.67.55,2.64,1.61,2.64,2.53,0,.43-.24.71-.59.71s-.42-.15-.64-.76A5.53,5.53,0,0,0,266,157.8C266,157.73,266.06,157.57,266.16,157.61Z"/><path class="cls-2" d="M274.81,159c-1.46-1.46-1.75-3.6-1.75-6.2,0-.48,0-1,0-1.42a1.92,1.92,0,0,0-.77-1.67c-.1-.1-.15-.17-.15-.22s.1-.16.24-.16a2,2,0,0,1,1,.56,1.79,1.79,0,0,1,.82,1.26,2.14,2.14,0,0,1-.16.75,8.09,8.09,0,0,0-.19,2,6.74,6.74,0,0,0,.47,3c.29.63.62.94.85.94s.24-.09.34-.28c.54-1,1.1-1.89,1.89-3.16a.35.35,0,0,1,.3-.19.19.19,0,0,1,.19.18.94.94,0,0,1-.1.31,18.38,18.38,0,0,0-1.37,2.95,2.17,2.17,0,0,0-.18.64,1.12,1.12,0,0,0,.07.4,1.37,1.37,0,0,1,.11.54.46.46,0,0,1-.51.45A2.17,2.17,0,0,1,274.81,159Zm6.91-7.74c2,.85,3.73,2.79,3.73,4.8,0,.66-.23,1.15-.66,1.15a.51.51,0,0,1-.45-.23c-.25-.35-.58-.5-1.7-.64-.18,0-.23-.1-.23-.22s.09-.14.26-.16c.47-.05.83-.09,1.32-.16a.27.27,0,0,0,.26-.31,5.62,5.62,0,0,0-2.72-3.89.32.32,0,0,1-.18-.26C281.35,151.24,281.53,151.17,281.72,151.26Z"/><path class="cls-2" d="M296.23,150.3a2.07,2.07,0,0,1,.83-.27c.25,0,.54.13.54.43s-.21.43-.61.59c-.79.29-1.75.61-2.84.9-1.11,3.11-2,5.71-3.21,8.5a.65.65,0,0,1-.56.44.59.59,0,0,1-.4-.18.62.62,0,0,1-.12-.38A1.06,1.06,0,0,1,290,160a67.46,67.46,0,0,0,3.33-7.8,8.76,8.76,0,0,1-1.86.26,3.07,3.07,0,0,1-1.68-.49c-.22-.16-.5-.4-.5-.64a.2.2,0,0,1,.19-.19,1,1,0,0,1,.33.15,2.39,2.39,0,0,0,1.47.4,8.74,8.74,0,0,0,2.36-.45c.21-.59.35-1,.49-1.54a3.87,3.87,0,0,0,.17-.9c0-.35-.26-.66-.83-.78-.26-.06-.3-.09-.3-.18s.13-.17.25-.22a1.44,1.44,0,0,1,.47-.09,3,3,0,0,1,1.45.59.69.69,0,0,1,.3.5.66.66,0,0,1-.25.49,1.27,1.27,0,0,0-.36.59c-.17.38-.33.85-.5,1.32A14.19,14.19,0,0,0,296.23,150.3Zm-.43,7.95a1.58,1.58,0,0,0,.88,1.42A4.92,4.92,0,0,0,299,160a7.94,7.94,0,0,0,1.59-.18,2.46,2.46,0,0,1,.72-.1,1.42,1.42,0,0,1,.53.1.52.52,0,0,1,.35.49c0,.31-.14.47-.75.55a11.76,11.76,0,0,1-1.89.12,6,6,0,0,1-3.21-.64,2.25,2.25,0,0,1-1.09-1.82,3.13,3.13,0,0,1,.31-1.28c.07-.16.19-.32.32-.32s.12.09.12.14a2.21,2.21,0,0,1-.07.3A2.86,2.86,0,0,0,295.8,158.25Zm3.41-4.84a6,6,0,0,0-3,.61l-.19,0c-.09,0-.14-.05-.14-.12a.29.29,0,0,1,.14-.24,5.52,5.52,0,0,1,3.57-1,4.84,4.84,0,0,1,1.63.35c.33.15.5.36.49.64a.38.38,0,0,1-.42.36,1.13,1.13,0,0,1-.38-.08,1.47,1.47,0,0,0-.47-.11,1.28,1.28,0,0,0-.68.16,15.51,15.51,0,0,0-1.75,1.11.55.55,0,0,1-.28.09c-.08,0-.12-.06-.12-.14s.07-.14.16-.23c.4-.35,1.11-.92,1.49-1.23C299.37,153.48,299.37,153.43,299.21,153.41Zm.66-5.1a4.31,4.31,0,0,1,1.29.69,1.82,1.82,0,0,1,.74,1.13c0,.31-.17.5-.43.5s-.35-.14-.57-.57a5.18,5.18,0,0,0-1.29-1.41.22.22,0,0,1-.1-.17.2.2,0,0,1,.19-.19A.5.5,0,0,1,299.87,148.31Zm1.56-1a4.24,4.24,0,0,1,1.24.57,1.62,1.62,0,0,1,.78,1.11.44.44,0,0,1-.4.47c-.21,0-.33-.07-.57-.47a4.43,4.43,0,0,0-1.43-1.39.22.22,0,0,1-.07-.17.18.18,0,0,1,.18-.18A1,1,0,0,1,301.43,147.27Z"/><path class="cls-2" d="M310.28,159.78a2.25,2.25,0,1,1-2.24-2.24A2.26,2.26,0,0,1,310.28,159.78Zm-3.91,0a1.66,1.66,0,1,0,1.67-1.65A1.66,1.66,0,0,0,306.37,159.78Z"/><path class="cls-2" d="M8.42,202.32a15,15,0,0,1-2.23,2.13v3.93c1.3-.25,2.72-.58,3.92-.94.1,0,.19.19.08.22a32.65,32.65,0,0,1-6.71,2.24c-.12.52-.19.63-.36.63s-.28-.19-.79-1.65a11.18,11.18,0,0,0,1.5-.11l1.32-.2v-3.39a16.2,16.2,0,0,1-4.48,2c-.1,0-.19-.21-.09-.24A17,17,0,0,0,7,202.32h-5a6,6,0,0,0-1.17.1l-.15-.64a6.52,6.52,0,0,0,1.3.11H7.8v-2H3.69A4,4,0,0,0,2.6,200l-.16-.66a6.58,6.58,0,0,0,1.23.1H7.8v-1.89H2.87a6.13,6.13,0,0,0-1.09.1L1.59,197a5.3,5.3,0,0,0,1.28.13H7.8a16.85,16.85,0,0,0-.09-2.31c1.58.17,1.77.28,1.77.48s-.1.26-.6.47v1.36h4.58c.66-.79.76-.84.85-.84s.2.05.95.66c.33.28.38.37.38.45s-.07.16-.22.16H8.88v1.89h3.71c.59-.71.68-.78.78-.78s.21.07.9.61c.33.26.35.34.35.45s0,.15-.23.15H8.88v2h5.2c.69-.82.78-.87.87-.87s.24,0,1,.64c.35.3.4.4.4.5s-.05.16-.22.16H9a12,12,0,0,0,1.8,3.37,15,15,0,0,0,1.86-1.77,4.63,4.63,0,0,0,.71-1c1.18.77,1.36.92,1.36,1.11s-.14.23-.79.14A12,12,0,0,1,11,206a7.88,7.88,0,0,0,.76.77A10.59,10.59,0,0,0,16.18,209a.1.1,0,0,1,0,.19.86.86,0,0,0-.81.7c-.07.19-.12.24-.28.24a2,2,0,0,1-.64-.24A11.15,11.15,0,0,1,11,207.26a12.22,12.22,0,0,1-2.48-4.94Z"/><path class="cls-2" d="M21.05,210c0,.37-.19.49-.66.49s-.45-.11-.45-.38c0-.53.08-1.79.08-6.44,0-2.88,0-3.75-.1-4.81a9.56,9.56,0,0,1,1.32.66h3.55a18.4,18.4,0,0,0,.89-3.19H20.32a8.32,8.32,0,0,0-1.39.1l-.17-.64a8.91,8.91,0,0,0,1.58.11H31.82c.8-.94.89-1,1-1s.23.05,1.06.74c.41.35.45.44.45.52s-.07.16-.24.16h-7a14.27,14.27,0,0,1-1.67,3.19H31.8c.52-.54.59-.57.68-.57s.14,0,.71.49c.26.2.33.31.33.39s-.09.23-.5.47v3.14c0,4.46.07,6.06.07,6.51s-.23.49-.66.49S32,210.32,32,210v-.62H21.05Zm0-10v9h2.77v-9Zm3.8,2.62H28v-2.62h-3.1ZM28,203h-3.1v2.58H28Zm0,3h-3.1v3H28Zm4-6.07H29v9h3Z"/><path class="cls-2" d="M43.82,199.77c1.4,0,1.8,1.18,1.8,2.45a13.28,13.28,0,0,1-.69,3.67,5.54,5.54,0,0,1-1.42,2.47,2.06,2.06,0,0,1-1.44.69.57.57,0,0,1-.63-.5,1.12,1.12,0,0,0-.26-.51,9.94,9.94,0,0,0-1-1,.19.19,0,0,1-.07-.16.18.18,0,0,1,.16-.17.28.28,0,0,1,.17.09,11.44,11.44,0,0,0,1.46.92,1.07,1.07,0,0,0,.45.08.88.88,0,0,0,.64-.28,6.48,6.48,0,0,0,1.25-2.58,12.55,12.55,0,0,0,.49-3.05c0-1.11-.33-1.56-1-1.56a4,4,0,0,0-1.37.29,89.48,89.48,0,0,1-4.16,8,.49.49,0,0,1-.47.28c-.3,0-.5-.16-.5-.44a.77.77,0,0,1,.15-.45,60.22,60.22,0,0,0,4.06-7.15c-.62.21-1.19.44-1.77.66a3.67,3.67,0,0,0-.66.31.56.56,0,0,1-.36.14,1.11,1.11,0,0,1-.73-.33,1.66,1.66,0,0,1-.64-1.12c0-.28.09-.4.19-.4s.09,0,.15.17a1,1,0,0,0,.86.59,4.15,4.15,0,0,0,1.21-.23c.57-.15,1.28-.34,2.08-.57a16.61,16.61,0,0,0,.8-2.06,2.24,2.24,0,0,0,.14-.71c0-.33-.52-.65-1.11-.68-.12,0-.19-.07-.19-.16s0-.1.14-.17a1.2,1.2,0,0,1,.66-.14c.64,0,1.87.52,1.87,1.23a.42.42,0,0,1-.24.35,1.2,1.2,0,0,0-.44.57c-.22.52-.45,1.06-.69,1.58A6,6,0,0,1,43.82,199.77Zm6.87,5.17a.74.74,0,0,1-.45-.12,1.07,1.07,0,0,0-.57-.14c-.65,0-1.27,0-2,.07a.2.2,0,0,1-.24-.21c0-.12.05-.17.19-.21a20.85,20.85,0,0,0,2-.45c.17,0,.24-.12.24-.26,0-.83-1.07-2.27-2.62-3.24a.23.23,0,0,1-.1-.19c0-.09.07-.19.15-.19a.51.51,0,0,1,.25.05c2,.83,3.64,2.86,3.64,4.23C51.21,204.75,51,204.94,50.69,204.94Z"/><path class="cls-2" d="M60,197.93a3.37,3.37,0,0,1-1-.85,2.7,2.7,0,0,1-.68-1.46.17.17,0,0,1,.15-.22c.11,0,.16.07.21.17a3.27,3.27,0,0,0,2.07,1.65,2.92,2.92,0,0,1,.93.54,1,1,0,0,1,.37.62.44.44,0,0,1-.47.49,1.64,1.64,0,0,1-.5-.09,2.74,2.74,0,0,0-.63-.09,6.47,6.47,0,0,0-2.41.58c-.26.12-.33.2-.33.33a.9.9,0,0,0,.11.41,1.57,1.57,0,0,1,.13.63,10.68,10.68,0,0,1-.17,1.28,21.65,21.65,0,0,0-.24,2.78c0,.15,0,.21,0,.21a.43.43,0,0,0,.16-.07c2.11-1.63,3.88-2.75,5.65-2.75s3.42,1,3.42,2.82c0,1.54-1.09,2.63-2.69,3.4a15.29,15.29,0,0,1-5.43,1.21.23.23,0,0,1-.29-.23c0-.15.1-.22.26-.24a14.33,14.33,0,0,0,4.87-1.49c1.39-.8,2.12-1.6,2.12-2.95a2.05,2.05,0,0,0-2.22-2c-1.67,0-3.47,1.24-4.67,2.58a5.83,5.83,0,0,0-.89,1.13c-.12.29-.24.4-.53.4s-.33-.16-.47-.4a1.7,1.7,0,0,1-.23-1,24.52,24.52,0,0,1,.44-3.89,5.32,5.32,0,0,0,.1-1c0-.23-.05-.5-.05-.73,0-.42.22-.64.64-.89A15.72,15.72,0,0,1,60,198Z"/><path class="cls-2" d="M70.83,210.23c2.45-.69,4.22-2,5-3.62a4.42,4.42,0,0,0,.42-1.67c1.37.31,1.61.4,1.61.57s-.15.24-.57.37c-.75,2.5-2.84,4-6.35,4.58C70.82,210.47,70.73,210.27,70.83,210.23Zm9.46-2c0,.69,0,.85,1.77.85s2.39-.09,2.69-.42a5.12,5.12,0,0,0,.73-2c0-.1.24-.07.24,0,0,.65,0,1.11,0,1.5s.06.36.26.43a.42.42,0,0,1,.27.45c0,.31-.33.57-.81.71a14.56,14.56,0,0,1-3.51.25c-2.22,0-2.7-.33-2.7-1.48,0-.19,0-.54,0-1.37v-2.59H74.86v.44c0,.33-.23.43-.69.43s-.47-.07-.47-.36c0-.47.08-1.42.08-5.31,0-2.67,0-3.68-.08-4.72a8.56,8.56,0,0,1,1.32.66h6.8c.52-.54.57-.57.66-.57s.17,0,.72.48c.25.23.28.3.28.38s0,.23-.45.51v2.72c0,3.91.09,5.22.09,5.64s-.24.49-.66.49-.5-.09-.5-.39v-.4H80.29Zm1.67-12h-7.1v2.33H82ZM82,199h-7.1v2.33H82Zm0,2.76h-7.1v2.48H82Z"/><path class="cls-2" d="M94.37,205.2a1.46,1.46,0,0,1,2.15.28,12,12,0,0,1,1,2.15c.28.66.58.83,1.44.85a5.7,5.7,0,0,0,1.49-.16,4.79,4.79,0,0,1,.94-.14c.52,0,1.08.25,1.08.68s-.25.49-.73.54-1.2.1-1.68.1a12.75,12.75,0,0,1-1.69-.08,2.15,2.15,0,0,1-1.72-1.67,11.82,11.82,0,0,0-.65-1.93.82.82,0,0,0-.78-.45c-.73,0-1.34.77-1.88,1.3-.73.79-1.44,1.62-2.17,2.57a.53.53,0,0,1-.48.21.5.5,0,0,1-.49-.54,1.06,1.06,0,0,1,.38-.67A82.54,82.54,0,0,0,97,201c.05-.07,0-.15-.11-.12a22.6,22.6,0,0,0-3.35,1.47,3.63,3.63,0,0,0-.57.4.57.57,0,0,1-.45.16c-.66,0-1.32-1-1.32-1.58,0-.24.09-.4.21-.4s.14.12.19.21c.26.45.54.66.78.66a1.49,1.49,0,0,0,.57-.1c1.27-.47,2.31-.87,3.23-1.24a1.7,1.7,0,0,0,.71-.43.66.66,0,0,1,.4-.21,1.7,1.7,0,0,1,.88.38c.54.38.72.54.72.75s-.25.36-.61.4a.72.72,0,0,0-.4.17c-1.08,1.08-2.12,2.19-3.51,3.63Zm-.31-8.67a1.67,1.67,0,0,1-.42-.78c0-.13,0-.21.14-.21a.23.23,0,0,1,.19.1,3.13,3.13,0,0,0,2.27,1.09,3.77,3.77,0,0,1,1.24.25.6.6,0,0,1,.29.5c0,.29-.16.45-.5.45l-.66,0a2.29,2.29,0,0,0-.78.17c-.45.17-1.18.55-2,.94a.2.2,0,0,1-.3-.16.22.22,0,0,1,.12-.21l1.91-1.21A3.69,3.69,0,0,1,94.06,196.53Z"/><path class="cls-2" d="M110.67,203.38a6.47,6.47,0,0,1,3.64-1.34c2.87,0,3.89,1.82,3.89,3.42,0,2.53-2.34,4-4.7,4-2,0-3.26-.81-3.26-1.89,0-.83.67-1.37,1.63-1.37a3.2,3.2,0,0,1,2.89,2.22,3.32,3.32,0,0,0,2.36-3,2.59,2.59,0,0,0-2.72-2.81,6.21,6.21,0,0,0-4.11,1.78,13.26,13.26,0,0,0-1.22,1.37.51.51,0,0,1-.41.2.59.59,0,0,1-.57-.56,1,1,0,0,1,.34-.66,86,86,0,0,0,6.3-7.35c.12-.16,0-.23-.16-.16-.95.31-1.92.66-2.79,1a1.57,1.57,0,0,0-.45.22.61.61,0,0,1-.43.23c-.28,0-.58-.12-1-.61a2,2,0,0,1-.46-1c0-.14.07-.28.15-.28s.18.07.3.23c.29.38.52.54.83.54a4.93,4.93,0,0,0,1-.14c.8-.18,1.61-.42,2.32-.63a1,1,0,0,0,.44-.27.43.43,0,0,1,.36-.16,1.69,1.69,0,0,1,.85.38c.26.18.59.5.59.75s-.12.31-.33.36-.41.16-.87.61c-1.49,1.54-2.94,3.28-4.45,5Zm1.06,3.29c-.66,0-.94.39-.94.79s.66,1.18,2.36,1.18a2.33,2.33,0,0,0,.66-.07A2.64,2.64,0,0,0,111.73,206.67Z"/><path class="cls-2" d="M130.7,199.51a6.07,6.07,0,0,1-.33,1.7,17.42,17.42,0,0,1-2.5,4.6,2.58,2.58,0,0,1-1.71,1.16,1.79,1.79,0,0,1-1.39-.9,4.26,4.26,0,0,1-.61-2.29,5.91,5.91,0,0,1,1.89-4.31,7.24,7.24,0,0,1,5-1.87c3.49,0,5.94,2.27,5.94,5.41,0,3.65-3.8,5.47-7.36,5.66-.19,0-.29-.09-.29-.19s0-.23.29-.28c2.9-.5,6.21-2.1,6.21-5.48,0-2.64-1.92-4.36-4.58-4.49a7.37,7.37,0,0,0-.94,0A2.36,2.36,0,0,1,130.7,199.51Zm-4.35.54a4.8,4.8,0,0,0-1.41,3.43,3.51,3.51,0,0,0,.42,1.75,1,1,0,0,0,.81.59c.32,0,.68-.29,1.22-1a16.26,16.26,0,0,0,2.39-4.55A3.56,3.56,0,0,0,130,199a1.11,1.11,0,0,0-.21-.73A5.92,5.92,0,0,0,126.35,200.05Z"/><path class="cls-2" d="M142.91,206.62c.05.26.09.31.15.31a.13.13,0,0,0,.14-.1c.35-1,.91-2.53,1.3-3.5a.27.27,0,0,1,.23-.19c.09,0,.16.1.16.22a.53.53,0,0,1,0,.17c-.33,1.17-.81,2.73-1,3.49a4.54,4.54,0,0,0-.16.89c0,.34,0,.69,0,1s-.16.47-.4.47-.41-.11-.59-.46a9.58,9.58,0,0,1-.66-4,23.6,23.6,0,0,1,.85-5.55,5.81,5.81,0,0,0,.28-1.52,2.37,2.37,0,0,0-.4-1.24.39.39,0,0,1-.09-.2.2.2,0,0,1,.21-.18.6.6,0,0,1,.35.18,2.58,2.58,0,0,1,.73.79,1.89,1.89,0,0,1,.35,1.13.84.84,0,0,1-.25.57,2.68,2.68,0,0,0-.28.59,15.62,15.62,0,0,0-1,5.1A12.43,12.43,0,0,0,142.91,206.62Zm11.55,1a.8.8,0,0,1,.3.48.5.5,0,0,1-.38.54.77.77,0,0,1-.61-.19,14.47,14.47,0,0,0-2-1.32c0,.87-.71,1.91-2.51,1.91-1.39,0-2.43-.66-2.43-1.68s.85-1.62,2.44-1.62a7.54,7.54,0,0,1,1.65.19c0-1.59,0-3.22-.05-4.84a20,20,0,0,1-2.72.19,1.84,1.84,0,0,1-1.83-1.21,1,1,0,0,1-.05-.26.17.17,0,0,1,.16-.16c.1,0,.17.09.26.21a1.55,1.55,0,0,0,1.35.66,18.22,18.22,0,0,0,2.81-.26c0-.8,0-1.82-.07-2.57,0-.43-.09-.55-.22-.66a1.33,1.33,0,0,0-.82-.2c-.17,0-.22,0-.22-.18s.31-.38.67-.38a3.23,3.23,0,0,1,1.2.31c.29.14.73.42.73.75a.49.49,0,0,1-.21.38,1.06,1.06,0,0,0-.23.71c0,.57,0,1.13,0,1.68a5.51,5.51,0,0,0,.85-.22,2.3,2.3,0,0,0,.52-.26,1.56,1.56,0,0,1,.87-.19c.28,0,.61.14.61.41s-.18.39-.51.51a17.15,17.15,0,0,1-2.32.61c0,1.75,0,3.62.14,5.25A10.22,10.22,0,0,1,154.46,207.58Zm-5.53-1.24c-.78,0-1.55.3-1.55.92s.49,1,1.76,1c1.09,0,1.77-.52,1.77-1.52A5.41,5.41,0,0,0,148.93,206.34Z"/><path class="cls-2" d="M158,206.4a6.75,6.75,0,0,1,2.85,1.3,2.54,2.54,0,0,1,1.14,1.84.8.8,0,0,1-.74.87c-.35,0-.59-.16-.8-.63a6.33,6.33,0,0,0-2.67-3,.22.22,0,0,1-.14-.22C157.65,206.42,157.84,206.36,158,206.4Z"/><path class="cls-2" d="M171,203.12c-.35,1.11-.75,2.48-1,3.5a6.79,6.79,0,0,0-.23,1.37,5.08,5.08,0,0,0,0,.51c0,.21,0,.41,0,.53s-.12.37-.43.37-.56-.28-.78-.89a10.76,10.76,0,0,1-.47-3.55,30.84,30.84,0,0,1,.8-5.68,9.45,9.45,0,0,0,.24-1.54,1.9,1.9,0,0,0-.47-1.34.42.42,0,0,1-.12-.26c0-.07.12-.14.24-.14a.7.7,0,0,1,.42.2,3.49,3.49,0,0,1,.8.92,1.7,1.7,0,0,1,.29.78,1.18,1.18,0,0,1-.12.5,11.58,11.58,0,0,0-.45,1.18,20.16,20.16,0,0,0-.94,5.33,6.52,6.52,0,0,0,.18,1.71c0,.11,0,.14.12.14s.1-.07.14-.15c.47-1.31.93-2.59,1.35-3.7a.3.3,0,0,1,.24-.21c.11,0,.14.11.14.18A1.12,1.12,0,0,1,171,203.12Zm6.94-5.5a11.11,11.11,0,0,0-4.31.88.52.52,0,0,1-.25.07.15.15,0,0,1-.16-.17c0-.09.12-.21.26-.3a8.82,8.82,0,0,1,4.91-1.51c.92,0,1.23.21,1.23.59a.49.49,0,0,1-.54.46Zm-2.8,5.08c-1,0-1.8-.36-1.8-1.32a2.09,2.09,0,0,1,.5-1.26.22.22,0,0,1,.19-.11c.07,0,.14.05.14.11a.62.62,0,0,1-.1.29,1.58,1.58,0,0,0-.19.78c0,.59.43.75.93.75a10.81,10.81,0,0,0,2.35-.3v-1.38c0-.23,0-.37-.12-.49a.71.71,0,0,0-.58-.19c-.19,0-.21-.05-.21-.14s.33-.33.66-.33,1.22.28,1.22.64a1.14,1.14,0,0,1-.07.35,1.42,1.42,0,0,0-.1.45,7.88,7.88,0,0,0,0,.87,7.81,7.81,0,0,0,1.53-.56,1.1,1.1,0,0,1,.45-.14.35.35,0,0,1,.38.33.58.58,0,0,1-.4.56,8.38,8.38,0,0,1-2,.73c0,1.21.07,2.53.14,3.74a9.2,9.2,0,0,1,2.74,1.31.9.9,0,0,1,.45.76.48.48,0,0,1-.48.49.81.81,0,0,1-.61-.3,6.62,6.62,0,0,0-2.1-1.39c0,1.48-1.16,2-2.41,2-1.51,0-2.4-.64-2.4-1.52,0-1.3,1.48-1.65,2.69-1.65a9.49,9.49,0,0,1,1.27.1c0-1.11,0-2.29,0-3.4A11.76,11.76,0,0,1,175.18,202.7Zm.3,3.72c-1.13,0-1.65.38-1.65.93s.59.87,1.79.87a1.44,1.44,0,0,0,1.63-1.55A5.92,5.92,0,0,0,175.48,206.42Z"/><path class="cls-2" d="M187.77,204a2.78,2.78,0,0,1,2.14-.92c1.37,0,2,1.16,2.08,2.7s.43,2.19,1.44,2.19a4.25,4.25,0,0,0,3-1.6,9.83,9.83,0,0,0,1.78-3.48c0-.16.09-.25.23-.25s.19.09.19.21a2.3,2.3,0,0,1,0,.28,9.53,9.53,0,0,1-1.44,3.62,4.43,4.43,0,0,1-3.73,2.22c-1.49,0-2.15-.76-2.25-2.74-.11-1.82-.33-2.65-1.3-2.65a2.66,2.66,0,0,0-2.09,1.13,19.2,19.2,0,0,0-1.82,3.57.48.48,0,0,1-.5.33.52.52,0,0,1-.55-.56,1.28,1.28,0,0,1,.13-.48c1.08-2,2.33-4.27,3.35-6.23.84-1.59,1.49-3,1.77-3.56a1.92,1.92,0,0,0,.21-.78c0-.31-.14-.59-.68-.86-.07,0-.14-.09-.14-.16s.18-.19.44-.19a1.85,1.85,0,0,1,1.25.66c.5.5.64.78.64,1.09a.37.37,0,0,1-.31.38c-.25.06-.32.09-.63.54-1.09,1.67-1.87,3.23-3.19,5.52Z"/><path class="cls-2" d="M209.09,199.51a6.45,6.45,0,0,1-.33,1.7,17.42,17.42,0,0,1-2.5,4.6,2.62,2.62,0,0,1-1.72,1.16,1.79,1.79,0,0,1-1.39-.9,4.25,4.25,0,0,1-.6-2.29,5.91,5.91,0,0,1,1.89-4.31,7.24,7.24,0,0,1,5-1.87c3.49,0,5.93,2.27,5.93,5.41,0,3.65-3.8,5.47-7.35,5.66-.19,0-.3-.09-.3-.19s.05-.23.3-.28c2.89-.5,6.21-2.1,6.21-5.48,0-2.64-1.93-4.36-4.58-4.49a7.37,7.37,0,0,0-.94,0A2.44,2.44,0,0,1,209.09,199.51Zm-4.36.54a4.83,4.83,0,0,0-1.4,3.43,3.51,3.51,0,0,0,.41,1.75,1,1,0,0,0,.82.59c.31,0,.68-.29,1.21-1a16,16,0,0,0,2.4-4.55,3.51,3.51,0,0,0,.24-1.25,1.11,1.11,0,0,0-.21-.73A6,6,0,0,0,204.73,200.05Z"/><path class="cls-2" d="M221.17,203.92c0,4.14,0,5.63,0,6.07s-.21.54-.66.54-.47-.14-.47-.47.11-3.18.11-6.11c0-1.11,0-2.22,0-3.33a18.12,18.12,0,0,1-1.94,2.6c-.07.07-.26-.05-.21-.14a24,24,0,0,0,2.95-6.66,10.55,10.55,0,0,0,.33-1.72c1.2.3,1.72.51,1.72.73s-.14.25-.68.37a21,21,0,0,1-1.84,4.26c1,.16,1.18.23,1.18.42s-.07.23-.52.44Zm5.09-4.51v.27c0,.32-.21.45-.61.45s-.44-.1-.44-.36.06-.82.06-2.39h-1.43a7.08,7.08,0,0,0-1.19.1l-.16-.64a7.6,7.6,0,0,0,1.35.1h1.43a15.74,15.74,0,0,0-.07-2c1.33.14,1.58.23,1.58.43s-.07.23-.52.4v1.18h3.36v-.24a14.31,14.31,0,0,0-.07-1.77c1.34.14,1.6.23,1.6.43s-.09.23-.54.42v1.16H232c.59-.73.67-.76.76-.76s.21,0,.87.61c.28.24.33.33.33.41s-.05.18-.23.18h-3.12c0,1.35,0,2.13,0,2.3s-.22.44-.62.44-.44-.11-.44-.37v-.34h-1.19v1.49h3.15c.46-.47.52-.51.61-.51s.17,0,.64.42c.25.19.3.28.3.38s-.07.21-.44.45v.44c0,.69.06,1.4.06,1.78s-.23.46-.63.46-.41-.09-.41-.37v-.09h-3.28v1.64h3.12c.64-.73.71-.79.81-.79s.27.09.92.65c.25.2.32.31.32.41s-.05.16-.23.16h-4.94v1.49h2.69c.6-.68.69-.75.78-.75s.22.06.88.63c.24.21.31.31.31.4s0,.15-.22.15h-4.44v1.69H232c.7-.82.8-.89.91-.89s.26.07,1,.68c.3.26.39.36.39.47s-.06.17-.23.17H223.55a6.48,6.48,0,0,0-1.35.11l-.18-.66a10.05,10.05,0,0,0,1.53.12h3.87v-1.69h-2.85a5.64,5.64,0,0,0-1,.09l-.17-.62a6,6,0,0,0,1.19.1h2.85v-1.49H224a5.74,5.74,0,0,0-1,.09l-.19-.65a5.85,5.85,0,0,0,1.2.13h3.49v-1.64h-3v.26c0,.32-.24.42-.62.42s-.42-.12-.42-.33,0-.9,0-2a16.33,16.33,0,0,0-.07-1.91,7,7,0,0,1,1.17.56h2.93v-1.49Zm1.16,1.92h-3v2.1h3ZM229.6,199c0-.54,0-1.06,0-1.59h-3.36V199Zm2.09,4.46v-2.1h-3.28v2.1Z"/><path class="cls-2" d="M243.6,199.77c1.4,0,1.8,1.18,1.8,2.45a13.28,13.28,0,0,1-.69,3.67,5.54,5.54,0,0,1-1.42,2.47,2.08,2.08,0,0,1-1.45.69.56.56,0,0,1-.62-.5A1.12,1.12,0,0,0,241,208a9.94,9.94,0,0,0-1-1,.19.19,0,0,1-.07-.16.18.18,0,0,1,.16-.17.28.28,0,0,1,.17.09,10.78,10.78,0,0,0,1.46.92,1.07,1.07,0,0,0,.45.08.88.88,0,0,0,.64-.28,6.61,6.61,0,0,0,1.25-2.58,12.48,12.48,0,0,0,.48-3.05c0-1.11-.32-1.56-1-1.56a4,4,0,0,0-1.37.29c-1.27,2.72-2.6,5.36-4.16,8a.5.5,0,0,1-.47.28c-.3,0-.51-.16-.51-.44a.79.79,0,0,1,.16-.45,61.65,61.65,0,0,0,4.06-7.15c-.62.21-1.2.44-1.77.66a3.67,3.67,0,0,0-.66.31.56.56,0,0,1-.36.14,1.11,1.11,0,0,1-.73-.33,1.59,1.59,0,0,1-.64-1.12c0-.28.08-.4.19-.4s.08,0,.15.17a1,1,0,0,0,.85.59,4.15,4.15,0,0,0,1.22-.23c.57-.15,1.28-.34,2.08-.57a18.35,18.35,0,0,0,.8-2.06,2.24,2.24,0,0,0,.14-.71c0-.33-.52-.65-1.11-.68-.13,0-.19-.07-.19-.16s0-.1.13-.17a1.25,1.25,0,0,1,.66-.14c.65,0,1.88.52,1.88,1.23a.42.42,0,0,1-.24.35,1.14,1.14,0,0,0-.44.57c-.22.52-.45,1.06-.69,1.58A5.89,5.89,0,0,1,243.6,199.77Zm6.87,5.17a.74.74,0,0,1-.45-.12,1.08,1.08,0,0,0-.58-.14c-.64,0-1.26,0-2,.07a.2.2,0,0,1-.24-.21c0-.12.05-.17.19-.21a20.85,20.85,0,0,0,2.05-.45c.17,0,.24-.12.24-.26,0-.83-1.08-2.27-2.62-3.24a.23.23,0,0,1-.1-.19c0-.09.07-.19.15-.19a.45.45,0,0,1,.24.05c2,.83,3.65,2.86,3.65,4.23C251,204.75,250.75,204.94,250.47,204.94Z"/><path class="cls-2" d="M257.9,208.15a2.25,2.25,0,1,1-2.23-2.24A2.26,2.26,0,0,1,257.9,208.15Zm-3.9,0a1.66,1.66,0,1,0,3.31,0,1.66,1.66,0,0,0-3.31,0Z"/><path class="cls-2" d="M3.27,252.69a9.85,9.85,0,0,1-.36,1.63A8.23,8.23,0,0,1,.5,258c-.07.06-.25-.06-.19-.14A10.51,10.51,0,0,0,2,254.15a17,17,0,0,0,.4-4.34,14.31,14.31,0,0,0-.09-1.89,7.82,7.82,0,0,1,1.23.61H7.9c.44-.47.49-.51.59-.51s.18,0,.66.44c.25.19.26.29.26.38s-.07.19-.41.43v1.06c0,1.54.05,2.1.05,2.43s-.21.41-.59.41-.43-.06-.43-.32v-.16Zm2.66-8.62c2.69.81,3.86,1.71,3.86,2.53,0,.31-.17.52-.41.52s-.33-.12-.7-.54a9.39,9.39,0,0,0-2.89-2.3,12.13,12.13,0,0,1-5.24,4.16c-.11,0-.21-.19-.12-.24a14.14,14.14,0,0,0,3.85-3.54,7.12,7.12,0,0,0,.9-1.58c.92.29,1.49.52,1.49.67S6.48,244,6,244ZM4.12,257.79v.57c0,.3-.19.42-.59.42s-.41-.09-.41-.33,0-.75,0-2.52c0-1.18,0-1.63,0-2.18a7.21,7.21,0,0,1,1.14.59H8.11c.44-.47.51-.52.59-.52s.18.05.66.43c.23.21.26.28.26.37s0,.19-.4.43v.81c0,1.53,0,2.14,0,2.28,0,.31-.19.41-.59.41s-.44-.08-.44-.33v-.43Zm-.67-7c0,.48-.06,1-.11,1.44H8v-1.44ZM8,249H3.46v1.42H8ZM3.76,246.7a3.74,3.74,0,0,0,1.09.13h1.6c.5-.65.59-.7.69-.7s.19.05.76.56c.25.2.32.31.32.4s-.06.17-.23.17H4.85a4.32,4.32,0,0,0-.92.1Zm4.47,8.07H4.12v2.59H8.23ZM12,248.39c0,4,.07,5.48.07,5.91s-.2.51-.67.51-.44-.14-.44-.42.07-1.58.07-5.21a41.29,41.29,0,0,0-.1-4.54c1.4.16,1.65.24,1.65.47s-.09.22-.58.43Zm3.23,1.82c0,4.79.07,6.7.07,7.13a1.14,1.14,0,0,1-.61,1.14,1.63,1.63,0,0,1-.86.25c-.18,0-.21,0-.25-.28-.08-.45-.38-.68-1.8-1-.11,0-.09-.27,0-.26a20.8,20.8,0,0,0,2.11.18c.21,0,.3-.11.3-.33V247a25.14,25.14,0,0,0-.11-3.66c1.51.18,1.69.25,1.69.45s-.09.26-.56.47Z"/><path class="cls-2" d="M21.9,252.26c0,4.16,0,5.65,0,6.08s-.22.54-.66.54-.48-.12-.48-.43,0-1.49.09-6.16c0-1.06,0-2.13,0-3.19a17.15,17.15,0,0,1-2.32,2.46c-.07.07-.26-.1-.19-.17a20.15,20.15,0,0,0,3.8-6.84,9.51,9.51,0,0,0,.33-1.44c1.14.31,1.7.57,1.7.77s-.19.27-.7.34a20.88,20.88,0,0,1-2.13,4.2c.9.16,1.07.24,1.07.42s-.06.22-.53.41Zm10-6c.75-.87.84-.92.92-.92s.21.05,1,.68c.37.31.42.4.42.5s0,.17-.22.17H28.4v2.94h3.11c.66-.78.76-.84.85-.84s.21.06.9.63c.33.26.38.38.38.48s-.07.16-.22.16h-5v3.19h3.16c.68-.78.76-.83.85-.83s.21,0,.9.64c.31.26.38.37.38.45s0,.18-.22.18H28.4c0,2.62.06,4.14.06,4.63s-.21.54-.72.54-.5-.14-.5-.45.09-1.43.09-4.38V246.7h-.92a14.92,14.92,0,0,1-3.3,4.32c-.07.07-.28-.08-.21-.17a19,19,0,0,0,3.28-6.49,9,9,0,0,0,.26-1.27c1.18.33,1.7.56,1.7.75s-.21.3-.69.37c-.26.72-.54,1.42-.83,2.06Z"/><path class="cls-2" d="M44,247.88a5.94,5.94,0,0,1-.33,1.7,17.52,17.52,0,0,1-2.49,4.6,2.58,2.58,0,0,1-1.72,1.16,1.79,1.79,0,0,1-1.39-.9,4.26,4.26,0,0,1-.61-2.29,5.87,5.87,0,0,1,1.89-4.3,7.19,7.19,0,0,1,5-1.87c3.49,0,5.94,2.27,5.94,5.41,0,3.64-3.8,5.46-7.36,5.65-.19,0-.29-.08-.29-.19s.05-.22.29-.27c2.9-.51,6.21-2.1,6.21-5.49,0-2.63-1.92-4.35-4.58-4.49a7.21,7.21,0,0,0-.93,0A2.43,2.43,0,0,1,44,247.88Zm-4.35.54a4.86,4.86,0,0,0-1.41,3.44,3.54,3.54,0,0,0,.42,1.75,1,1,0,0,0,.81.59c.32,0,.68-.3,1.22-1a16.07,16.07,0,0,0,2.39-4.54,3.64,3.64,0,0,0,.25-1.25,1.07,1.07,0,0,0-.21-.73A5.92,5.92,0,0,0,39.64,248.42Z"/><path class="cls-2" d="M61.37,254.46a6.79,6.79,0,0,0,3.33,2.22,15.47,15.47,0,0,0,4.34.69c.08,0,.08.16,0,.18a1,1,0,0,0-.85.83.26.26,0,0,1-.28.21,3.86,3.86,0,0,1-.76-.12,14,14,0,0,1-3.09-1.1A7.68,7.68,0,0,1,61,254.55c-1,2.39-3.45,3.74-7.58,4.14-.11,0-.16-.22-.06-.24,3.23-.68,5.47-1.89,6.42-3.77l.11-.22H55.07a7.4,7.4,0,0,0-1.3.1l-.16-.64a8.25,8.25,0,0,0,1.46.11h5a4.53,4.53,0,0,0,.24-1.32c1.13.1,1.65.24,1.65.45s-.14.28-.62.45c0,.14-.09.28-.12.42h5.6c.68-.8.78-.86.87-.86s.19.06,1,.66c.33.28.38.37.38.47s0,.16-.22.16Zm-2-9.2a13,13,0,0,0,.59-1.49,5.28,5.28,0,0,0,.19-.76c1.1.26,1.62.47,1.62.64s-.18.26-.7.33a9.63,9.63,0,0,1-1.18,1.28h5.78c.49-.55.55-.59.64-.59s.19.06.71.51c.26.22.32.33.32.41s-.07.21-.47.47v2.07c0,3.05.07,4.37.07,4.73s-.21.49-.68.49-.45,0-.45-.38V245.7H56.49V253c0,.37-.2.49-.66.49s-.45-.11-.45-.4c0-.61.07-1.84.07-5.34a30.41,30.41,0,0,0-.08-3.15,9.32,9.32,0,0,1,1.3.66Zm1.27,2.29a8.63,8.63,0,0,0-.09-1.49c1.35.18,1.49.24,1.49.4s-.07.23-.52.42V249h2.07c.55-.66.62-.74.73-.74s.2.08.81.59c.26.2.31.32.31.41s-.07.18-.24.18H61.47v.48c2.05.47,3.23,1.23,3.23,2,0,.3-.16.45-.4.45s-.24-.07-.62-.48a7.53,7.53,0,0,0-2.21-1.67c0,1.2,0,1.58,0,1.74s-.19.43-.56.43-.4-.12-.4-.35,0-.8.11-1.91a9.26,9.26,0,0,1-3.56,2.54.1.1,0,0,1-.09-.18,9.71,9.71,0,0,0,3.07-3H58.37a5.14,5.14,0,0,0-1.13.1l-.17-.66a6.36,6.36,0,0,0,1.28.12h2.24Zm-2.78-1.12c1,.4,1.69,1,1.69,1.54a.54.54,0,0,1-.56.61c-.21,0-.28-.11-.4-.58a2.67,2.67,0,0,0-.85-1.45C57.62,246.48,57.73,246.39,57.81,246.43Zm4.5,2.16a9.61,9.61,0,0,0,.83-1.43,5.34,5.34,0,0,0,.36-.87c.85.36,1.23.59,1.23.73s-.12.22-.62.24a12.17,12.17,0,0,1-1.63,1.49C62.39,248.82,62.25,248.68,62.31,248.59Z"/><path class="cls-2" d="M79.06,244.21a6.89,6.89,0,0,0-.09-1.15c1.53.17,1.75.3,1.75.49s-.1.27-.6.48v1.18h4.54c.71-.83.78-.88.89-.88s.2,0,1,.69c.36.3.41.38.41.47s-.06.16-.24.16H74.15v1.28a32.51,32.51,0,0,1-.52,6.83,11.49,11.49,0,0,1-2.29,4.93c0,.09-.3,0-.25-.1a15,15,0,0,0,1.64-5.19A47.72,47.72,0,0,0,73,247a17.45,17.45,0,0,0-.12-2.45,13.19,13.19,0,0,1,1.4.71h4.74Zm-3,6a23.13,23.13,0,0,0-.1-2.86,8.26,8.26,0,0,1,1.35.71,25,25,0,0,0,4.79-1.22,5.68,5.68,0,0,0,1.4-.67c1.05.87,1.12,1,1.12,1.13s-.28.24-.91,0a24.72,24.72,0,0,1-2.84.65c.9.06,1.06.14,1.07.3s-.1.19-.45.33a17.77,17.77,0,0,0,.23,2.2l3-.05c.66-.83.72-.85.82-.85s.16,0,.92.63c.35.26.38.36.38.46s-.09.16-.22.16l-4.78.09a8.86,8.86,0,0,0,.82,2.25A7.83,7.83,0,0,0,85,256.07c.38.28.52.33.67.33s.37-.48.87-2a.09.09,0,0,1,.17,0c-.08.85-.17,1.61-.17,1.82a.57.57,0,0,0,.16.47.6.6,0,0,1,.21.46.56.56,0,0,1-.59.58,2.53,2.53,0,0,1-1.15-.35,8,8,0,0,1-3.35-3.33,10.47,10.47,0,0,1-1-2.85l-3.73.07v4a32.63,32.63,0,0,0,4.28-1c.11,0,.18.17.09.22a26.1,26.1,0,0,1-6.07,2.15c-.14.51-.23.63-.37.63s-.24-.11-.6-1.65c.5,0,.86-.05,1.3-.1l.36-.06ZM76,257.79a6.62,6.62,0,0,0,1.3.12h4.46c.68-.78.77-.85.87-.85s.23.07.92.66c.31.28.36.35.36.45s-.07.17-.24.17H77.27a5.28,5.28,0,0,0-1.16.11Zm4.74-6.94c-.07-.43-.12-.9-.17-1.42a10.7,10.7,0,0,0-.18-1.34c-1.06.18-2.17.3-3.31.38v2.45Z"/><path class="cls-2" d="M89.34,254.77a6.89,6.89,0,0,1,2.84,1.3,2.53,2.53,0,0,1,1.15,1.84.8.8,0,0,1-.75.87c-.34,0-.59-.16-.79-.63a6.37,6.37,0,0,0-2.68-3,.26.26,0,0,1-.14-.23C89,254.79,89.17,254.74,89.34,254.77Z"/><path class="cls-2" d="M103.86,247.57c1.66.61,2.35,1.35,2.35,2,0,.31-.17.59-.48.59s-.38-.12-.54-.51a4.1,4.1,0,0,0-1.33-1.75v4.84c0,.31-.21.47-.68.47-.31,0-.4-.1-.4-.36s.07-2.56.14-4.58a11.47,11.47,0,0,1-3.33,3.64c-.09.05-.25-.11-.18-.17a14.19,14.19,0,0,0,3.27-5.09H101a4.66,4.66,0,0,0-1.06.11l-.18-.65a5.88,5.88,0,0,0,1.2.11h1.93v-.4a16.13,16.13,0,0,0-.09-2.62c1.34.16,1.63.22,1.63.4s-.07.26-.55.47v2.15H105c.54-.64.64-.73.73-.73s.26.09.87.59c.26.21.31.31.31.4s0,.17-.22.17h-2.81Zm-1.51,6.8c0,.18,0,.37,0,.51,0,1.63-.81,2.87-1.7,2.87a.59.59,0,0,1-.61-.6c0-.3.16-.51.56-.68a2.6,2.6,0,0,0,1.49-2.12C102.14,254.25,102.33,254.27,102.35,254.37Zm2.81,2.21c0,.74.12.85,2.17.85,1.82,0,2.34,0,2.72-.23s.5-.5.92-1.86c0-.1.21-.07.21,0,0,.55,0,.94,0,1.25s0,.38.31.47.23.2.23.4-.35.55-.84.67a17.68,17.68,0,0,1-3.86.23c-2.38,0-2.94-.3-2.94-1.65,0-.21,0-.52,0-1.3a16.6,16.6,0,0,0-.07-1.7c1.49.15,1.7.26,1.7.45s-.07.22-.57.45Zm1.61-3c1.42.31,2.36,1.06,2.36,1.82a.53.53,0,0,1-.54.59c-.21,0-.41-.09-.59-.52a3.48,3.48,0,0,0-1.35-1.72C106.56,253.71,106.67,253.59,106.77,253.61Zm1.54-1.2v.21c0,.31-.22.4-.64.4s-.43-.07-.43-.33.07-1.7.07-5.1a32.44,32.44,0,0,0-.11-4,7.36,7.36,0,0,1,1.24.59h4.09c.47-.51.54-.54.64-.54s.18,0,.66.43c.24.21.28.31.28.4s0,.19-.43.47v2.45c0,3.53.07,4.89.07,5.27s-.27.45-.68.45-.42-.09-.42-.35v-.38Zm4.34-7.77h-4.34v2.1h4.34Zm0,2.53h-4.34v2.1h4.34Zm0,2.54h-4.34V252h4.34Zm-.48,4.64c1.66.56,2.63,1.62,2.63,2.54,0,.43-.24.71-.59.71s-.41-.16-.64-.76a5.5,5.5,0,0,0-1.54-2.29C112,254.48,112.06,254.32,112.17,254.35Z"/><path class="cls-2" d="M120.82,255.74c-1.46-1.45-1.76-3.59-1.76-6.19,0-.49,0-1,0-1.42a1.94,1.94,0,0,0-.76-1.67c-.11-.1-.16-.17-.16-.22s.11-.16.24-.16a2.1,2.1,0,0,1,1,.55,1.84,1.84,0,0,1,.81,1.27,2.14,2.14,0,0,1-.16.75,8.43,8.43,0,0,0-.19,2,6.76,6.76,0,0,0,.47,3c.3.63.63.94.85.94s.24-.09.35-.28c.54-1,1.09-1.89,1.89-3.16a.32.32,0,0,1,.29-.19.2.2,0,0,1,.2.18.76.76,0,0,1-.11.31,20.31,20.31,0,0,0-1.37,2.95,2.11,2.11,0,0,0-.17.64,1.12,1.12,0,0,0,.07.4,1.3,1.3,0,0,1,.1.54.45.45,0,0,1-.5.45A2.16,2.16,0,0,1,120.82,255.74Zm6.9-7.74c2.05.86,3.73,2.8,3.73,4.81,0,.66-.22,1.15-.66,1.15a.54.54,0,0,1-.45-.23c-.24-.35-.57-.5-1.7-.64-.17,0-.22-.11-.22-.23s.08-.14.25-.15c.47-.06.84-.09,1.32-.16a.27.27,0,0,0,.26-.31,5.59,5.59,0,0,0-2.72-3.89.33.33,0,0,1-.17-.26C127.36,248,127.53,247.92,127.72,248Z"/><path class="cls-2" d="M138.89,250.92a.18.18,0,0,1,.19.16.68.68,0,0,1,0,.17c-.36,1.21-.67,2.36-.87,3.16a6.35,6.35,0,0,0-.22,1.19c0,.39.05.75.05,1s-.12.45-.38.45-.47-.13-.68-.62a9.64,9.64,0,0,1-.6-3.44,22.09,22.09,0,0,1,.83-5.18,6.27,6.27,0,0,0,.24-1.22,1.49,1.49,0,0,0-.54-1.11.36.36,0,0,1-.13-.26.15.15,0,0,1,.15-.15c.4,0,.92.55,1.2.92a1.83,1.83,0,0,1,.43,1.14,1,1,0,0,1-.24.66,1.55,1.55,0,0,0-.33.59,14.77,14.77,0,0,0-.89,4.65,7.51,7.51,0,0,0,.11,1.35c0,.18.09.25.14.25s.12-.06.15-.14c.39-1.1.77-2.21,1.2-3.35C138.71,251,138.78,250.92,138.89,250.92Zm2.32.69a5,5,0,0,0-.14,1.13,2,2,0,0,0,.84,1.75,4.81,4.81,0,0,0,2.65.59,9.2,9.2,0,0,0,2-.2,2.45,2.45,0,0,1,.69-.09c.58,0,1,.17,1,.57,0,.24-.1.4-.45.5a11.31,11.31,0,0,1-2.46.23,6.79,6.79,0,0,1-3.89-.9,2.6,2.6,0,0,1-1-2.15,4,4,0,0,1,.33-1.51c.05-.11.11-.14.19-.14S141.23,251.49,141.21,251.61Zm2.57-4.3a9.37,9.37,0,0,0-2.55.8.74.74,0,0,1-.21.07.17.17,0,0,1-.19-.18c0-.12.07-.2.21-.29a9.25,9.25,0,0,1,4.87-1.27c1.11,0,1.39.28,1.39.66s-.17.47-.54.47-.73,0-1.21,0a2.2,2.2,0,0,0-1.08.28,6.75,6.75,0,0,0-1.59,1.26c-.09.09-.16.14-.23.14s-.19,0-.19-.14a.47.47,0,0,1,.1-.24,15.79,15.79,0,0,1,1.27-1.39C143.92,247.35,143.9,247.29,143.78,247.31Z"/><path class="cls-2" d="M153.47,253.73a9.64,9.64,0,0,1-.24,1.35,8.63,8.63,0,0,1-2,3.68c-.07.09-.26,0-.21-.12a10.1,10.1,0,0,0,1.4-3.8,27.44,27.44,0,0,0,.26-4.48c0-1.57,0-2.18,0-2.67a8.67,8.67,0,0,1-1.25,1.18c-.09.07-.25-.07-.18-.15a12.74,12.74,0,0,0,2.38-4.12,8,8,0,0,0,.42-1.59c1.26.31,1.49.41,1.49.59s-.14.22-.61.33c-.14.33-.28.66-.42,1h1.74c.4-.45.47-.5.55-.5s.2,0,.72.55c.2.21.24.3.24.38s-.12.23-.59.37a15.72,15.72,0,0,1-1.42,1.87h1.39c.43-.47.5-.5.58-.5s.2,0,.63.4c.24.19.26.29.26.38s0,.21-.42.43v3c0,5.12,0,5.59,0,6.07a1.05,1.05,0,0,1-.45.95,1.72,1.72,0,0,1-.87.25c-.11,0-.14,0-.17-.26s-.23-.52-1.44-.82c-.11,0-.09-.21,0-.21.92.07,1.29.09,1.67.09.21,0,.29-.09.29-.29v-3.37Zm.85-8.4a13.68,13.68,0,0,1-1.18,1.84c.21.11.45.26.66.4h1.56a13.11,13.11,0,0,0,.9-2.24Zm.68,8v-2.54h-1.34c0,.85,0,1.69-.14,2.54Zm-1.34-5.3v2.33H155V248Zm3.64,0h-1.44v2.33h1.44Zm0,2.76h-1.44v2.54h1.44Zm5.12,1.55h-1.8V253c0,.31-.23.4-.61.4s-.42-.07-.42-.33.07-1.18.07-3.53a23.46,23.46,0,0,0-.1-2.89,7.64,7.64,0,0,1,1.18.59h1.68v-.44a28,28,0,0,0-.1-3.47c1.46.14,1.65.26,1.65.45s-.09.25-.58.44v3h1.82c.42-.49.49-.52.58-.52s.21,0,.66.41c.24.21.29.3.29.38s0,.18-.45.46v1.42c0,2.29.07,3.28.07,3.54s-.19.41-.59.41-.45-.07-.45-.31v-.69h-1.93v4.3c.78-.14,1.55-.28,2.31-.45a8.45,8.45,0,0,0-1-2c-.06-.09.08-.19.17-.12a5.19,5.19,0,0,1,2.26,3.55c0,.47-.25.78-.56.78s-.43-.17-.5-.8a6.22,6.22,0,0,0-.23-1.05,42.32,42.32,0,0,1-5.86,1.56c-.09.47-.18.57-.33.57s-.28-.21-.64-1.6a7.27,7.27,0,0,0,1,0c.82-.07,1.61-.14,2.41-.26Zm0-4.67h-1.8v4.23h1.8Zm2.9,4.23v-4.23h-1.93v4.23Z"/><path class="cls-2" d="M173.86,250.83a36.15,36.15,0,0,1,3-2.84,4.33,4.33,0,0,1,2.31-1.23,1.67,1.67,0,0,1,1.65,1.73,22.35,22.35,0,0,1-.32,2.81,28.36,28.36,0,0,0-.29,3.32c0,.91.29,1.17,1,1.17,1.15,0,2.53-1.14,3.3-2.48.08-.15.14-.24.24-.24a.24.24,0,0,1,.24.21.38.38,0,0,1-.05.19,6.1,6.1,0,0,1-1.61,2.31,3.09,3.09,0,0,1-2.08.9,1.69,1.69,0,0,1-1.9-1.93,35.3,35.3,0,0,1,.23-3.54,24.27,24.27,0,0,0,.21-2.65c0-.78-.23-1.16-.68-1.16a4.21,4.21,0,0,0-2.11,1.19,28.67,28.67,0,0,0-3.11,3.16c0,1.46,0,2.93.07,3.78,0,.47.09.8.09,1.27,0,.71-.2,1.23-.61,1.23-.16,0-.3-.15-.35-.36a3,3,0,0,0-.48-1.09,11,11,0,0,0-1.37-1.67c-.28.36-.52.68-.7.9a.51.51,0,0,1-.43.24c-.28,0-.4-.2-.4-.45a.85.85,0,0,1,.33-.69c.07-.07.31-.33.69-.76a20.43,20.43,0,0,0,2.48-3.7c0-.33.06-.88.07-1.27-.6.3-1,.47-1.28.66a1.63,1.63,0,0,0-.35.23.55.55,0,0,1-.41.14,1.15,1.15,0,0,1-.72-.49,1.39,1.39,0,0,1-.41-.93c0-.26.1-.32.17-.32s.12.09.19.19c.26.42.54.59.77.59a2,2,0,0,0,.57-.13,16.52,16.52,0,0,0,1.51-.68c0-1,.05-2.31.05-2.81a1,1,0,0,0-.85-1.16.25.25,0,0,1-.21-.25c0-.12.12-.22.49-.22a2.25,2.25,0,0,1,1.3.54c.28.2.59.53.59.78a.43.43,0,0,1-.17.36.92.92,0,0,0-.28.62,16.52,16.52,0,0,0-.16,1.88.72.72,0,0,1,.28-.05.54.54,0,0,1,.35.19.5.5,0,0,1,.15.31.6.6,0,0,1-.17.31,7.43,7.43,0,0,0-.73,1.3ZM173,256c.07.05.16,0,.16-.05,0-1.21,0-2.72,0-3.8l-1.74,2.43C171.9,255.08,172.42,255.53,173,256Z"/><path class="cls-2" d="M198.91,256.16a1.09,1.09,0,0,1,.61.76.54.54,0,0,1-.59.59,1.24,1.24,0,0,1-.64-.33,12.74,12.74,0,0,0-3.63-2c0,1.32-.64,2.45-2.93,2.45-1.49,0-2.69-.61-2.69-1.79s1.49-1.86,3.19-1.86a9.91,9.91,0,0,1,1.48.14c-.18-2.83-.23-5-.28-7.65,0-.78-.07-1-.26-1.2a1.29,1.29,0,0,0-1-.38c-.17,0-.22,0-.22-.14s.52-.46.83-.46a2.82,2.82,0,0,1,1.32.39c.41.25.62.44.62.66a.68.68,0,0,1-.15.45,1.12,1.12,0,0,0-.21.61c-.05.78-.05,1.29-.05,1.49s.05.23.34.23a4.91,4.91,0,0,0,1.1-.24,4.35,4.35,0,0,0,1.12-.49,1.4,1.4,0,0,1,.92-.31c.49,0,.8.15.8.47s-.14.4-.41.5c-.46.17-1,.31-1.48.47a10.3,10.3,0,0,1-1.6.31,1.3,1.3,0,0,1-.81-.23c0,1.79.1,4,.31,5.68A16.85,16.85,0,0,1,198.91,256.16Zm-7.06-1.46c-1,0-2.27.4-2.27,1.13s.9,1,1.94,1a2.37,2.37,0,0,0,1.7-.54,1.65,1.65,0,0,0,.47-1.39A8.15,8.15,0,0,0,191.85,254.7Z"/><path class="cls-2" d="M212.19,248.8a4.14,4.14,0,0,0-2.31,1.1,6.37,6.37,0,0,0-.64.59c-.21.26-.34.36-.62.36a.91.91,0,0,1-.63-.36,2.34,2.34,0,0,1-.55-1.29c0-.33.15-.55.31-.55s.12.08.14.19c.09.36.31.73.5.73a1.58,1.58,0,0,0,.87-.28,6,6,0,0,1,3-1.08c2,0,2.81,1.74,2.81,3.37,0,3.24-2.19,5.57-5.19,6.61a1.81,1.81,0,0,1-.36.09.24.24,0,0,1-.23-.18c0-.14.11-.22.31-.33,2.45-1.18,4.39-3.29,4.39-6.3C214,250.23,213.6,248.8,212.19,248.8Zm-2.93-4.68a.37.37,0,0,1,0-.17.16.16,0,0,1,.14-.16.28.28,0,0,1,.2.09,3.31,3.31,0,0,0,2.36.86,3.57,3.57,0,0,1,1.48.21.58.58,0,0,1,.38.51c0,.31-.21.46-.56.46a4.32,4.32,0,0,0-1.71.19,13.16,13.16,0,0,0-1.63.77c-.23.1-.38,0-.38-.14s0-.14.15-.21c.44-.26,1-.62,1.65-1A3.25,3.25,0,0,1,209.26,244.12Z"/><path class="cls-2" d="M225.65,256.52a2.25,2.25,0,1,1-2.24-2.23A2.24,2.24,0,0,1,225.65,256.52Zm-3.91,0a1.66,1.66,0,1,0,3.32,0,1.66,1.66,0,0,0-3.32,0Z"/><path class="cls-3" d="M6.21,102a5.17,5.17,0,0,0,2.36.84,3.62,3.62,0,0,0,2.52-.92.27.27,0,0,1,.16-.06c.11,0,.28.14.28.23s0,.1-.09.17c-1.22,1.38-2.18,2-3.06,2a4.64,4.64,0,0,1-2.56-.72l-.49-.25A4.89,4.89,0,0,0,3,102.47a3.73,3.73,0,0,0-2.56.84c-.06,0-.06,0-.1,0a.32.32,0,0,1-.26-.28A.19.19,0,0,1,.19,103c1.17-1.26,2.14-1.83,3.09-1.83a5.23,5.23,0,0,1,2.51.69Z"/><path class="cls-3" d="M24.51,96.86c2,.73,2.85,1.64,2.85,2.41,0,.38-.21.72-.59.72s-.46-.15-.65-.61a4.82,4.82,0,0,0-1.61-2.12v5.86c0,.37-.26.56-.82.56-.38,0-.49-.12-.49-.44,0-.48.09-3.08.17-5.54a13.83,13.83,0,0,1-4,4.41c-.1.06-.29-.13-.21-.21a17.21,17.21,0,0,0,3.95-6.15H21a6.16,6.16,0,0,0-1.28.12l-.21-.77a7.58,7.58,0,0,0,1.45.12h2.33v-.48a19.27,19.27,0,0,0-.11-3.17c1.62.19,2,.27,2,.48s-.09.32-.67.57v2.6h1.36c.65-.78.78-.88.88-.88s.32.1,1.05.71c.32.26.38.38.38.49s-.06.21-.27.21h-3.4Zm-1.83,8.23c0,.21,0,.44,0,.61,0,2-1,3.48-2.06,3.48a.71.71,0,0,1-.73-.73c0-.36.19-.61.67-.82a3.16,3.16,0,0,0,1.81-2.56C22.43,104.94,22.66,105,22.68,105.09Zm3.4,2.67c0,.9.15,1,2.63,1,2.2,0,2.83,0,3.29-.28s.61-.61,1.11-2.24a.14.14,0,0,1,.26,0c0,.67,0,1.13,0,1.51s.06.46.37.57a.46.46,0,0,1,.28.48c0,.36-.42.67-1,.82a21.76,21.76,0,0,1-4.68.27c-2.88,0-3.55-.36-3.55-2,0-.26,0-.63,0-1.58a20.57,20.57,0,0,0-.08-2.06c1.8.19,2.05.32,2.05.55s-.08.27-.69.55Zm2-3.59c1.72.37,2.86,1.28,2.86,2.2a.65.65,0,0,1-.65.71c-.25,0-.51-.1-.72-.63a4.17,4.17,0,0,0-1.63-2.07C27.78,104.29,27.91,104.15,28,104.17Zm1.87-1.45V103c0,.38-.27.48-.78.48s-.52-.08-.52-.4c0-.48.08-2,.08-6.17a43.81,43.81,0,0,0-.12-4.81,8.85,8.85,0,0,1,1.49.72H35c.57-.61.65-.65.78-.65s.21,0,.8.52c.29.25.33.38.33.48s0,.23-.52.57v3c0,4.28.08,5.92.08,6.38s-.31.55-.82.55c-.35,0-.5-.11-.5-.42v-.46Zm5.25-9.41H29.9v2.54h5.25Zm0,3.07H29.9v2.54h5.25Zm0,3.06H29.9v2.75h5.25Zm-.59,5.63c2,.67,3.19,2,3.19,3.06,0,.53-.29.87-.71.87s-.5-.19-.78-.93a6.62,6.62,0,0,0-1.87-2.77C34.31,105.22,34.44,105,34.56,105.07Z"/><path class="cls-3" d="M45,106.75c-1.76-1.76-2.12-4.35-2.12-7.5,0-.58,0-1.19,0-1.72a2.3,2.3,0,0,0-.92-2c-.13-.13-.19-.21-.19-.28s.13-.19.29-.19a2.47,2.47,0,0,1,1.26.68,2.17,2.17,0,0,1,1,1.53,2.54,2.54,0,0,1-.19.9,10.21,10.21,0,0,0-.23,2.48,8.2,8.2,0,0,0,.57,3.59c.36.76.76,1.13,1,1.13s.29-.1.42-.33c.65-1.18,1.32-2.29,2.29-3.82a.4.4,0,0,1,.35-.24.23.23,0,0,1,.23.21,1,1,0,0,1-.12.38,25,25,0,0,0-1.66,3.57,3,3,0,0,0-.21.78,1.31,1.31,0,0,0,.08.48,1.54,1.54,0,0,1,.13.65.55.55,0,0,1-.61.55A2.66,2.66,0,0,1,45,106.75Zm8.36-9.37c2.48,1,4.51,3.38,4.51,5.82,0,.8-.27,1.39-.79,1.39a.64.64,0,0,1-.55-.28c-.29-.42-.69-.61-2.06-.77-.21,0-.27-.13-.27-.28s.11-.17.31-.19c.57-.06,1-.1,1.6-.18a.34.34,0,0,0,.32-.38c0-1.37-1.47-3.68-3.3-4.71a.39.39,0,0,1-.21-.31C53,97.36,53.17,97.28,53.4,97.38Z"/><path class="cls-3" d="M64.66,105.85c.06.31.1.37.19.37a.18.18,0,0,0,.17-.12c.42-1.26,1.09-3.07,1.57-4.24a.31.31,0,0,1,.27-.23c.11,0,.19.12.19.27a.78.78,0,0,1,0,.21c-.4,1.4-1,3.3-1.18,4.22a5.76,5.76,0,0,0-.19,1.07c0,.42,0,.84,0,1.26s-.19.57-.49.57-.5-.13-.71-.55a11.56,11.56,0,0,1-.8-4.83,27.9,27.9,0,0,1,1-6.72A7.08,7.08,0,0,0,65,95.28a2.78,2.78,0,0,0-.49-1.49.47.47,0,0,1-.1-.25.23.23,0,0,1,.25-.21.84.84,0,0,1,.42.21,3.41,3.41,0,0,1,.88,1,2.2,2.2,0,0,1,.42,1.36,1,1,0,0,1-.29.7,2.46,2.46,0,0,0-.34.71,18.86,18.86,0,0,0-1.26,6.17A14.56,14.56,0,0,0,64.66,105.85Zm14,1.15a1,1,0,0,1,.36.59.59.59,0,0,1-.46.65,1,1,0,0,1-.74-.23,17.47,17.47,0,0,0-2.39-1.6c0,1-.86,2.31-3,2.31-1.68,0-2.94-.8-2.94-2s1-2,3-2a9,9,0,0,1,2,.23c0-1.93,0-3.9-.06-5.85a25.14,25.14,0,0,1-3.3.23,2.23,2.23,0,0,1-2.2-1.47.88.88,0,0,1-.07-.32.21.21,0,0,1,.19-.19c.13,0,.21.11.32.26a1.88,1.88,0,0,0,1.63.79,21.81,21.81,0,0,0,3.4-.31c0-1,0-2.21-.08-3.11,0-.52-.1-.67-.27-.8a1.53,1.53,0,0,0-1-.25c-.21,0-.27,0-.27-.21s.38-.46.82-.46a3.81,3.81,0,0,1,1.45.38c.35.17.88.5.88.9a.61.61,0,0,1-.25.46,1.28,1.28,0,0,0-.28.86c0,.7-.06,1.37-.06,2a9.52,9.52,0,0,0,1-.27,3.73,3.73,0,0,0,.63-.32,1.88,1.88,0,0,1,1-.23c.34,0,.73.17.73.5s-.21.47-.61.61a19.63,19.63,0,0,1-2.81.74c0,2.12,0,4.39.17,6.36A12.15,12.15,0,0,1,78.64,107Zm-6.7-1.49c-.94,0-1.86.36-1.86,1.11s.58,1.2,2.12,1.2c1.32,0,2.14-.63,2.14-1.85A6.78,6.78,0,0,0,71.94,105.51Z"/><path class="cls-3" d="M87,106.75c-1.76-1.76-2.12-4.35-2.12-7.5,0-.58,0-1.19,0-1.72a2.3,2.3,0,0,0-.92-2c-.13-.13-.19-.21-.19-.28s.13-.19.29-.19a2.47,2.47,0,0,1,1.26.68,2.17,2.17,0,0,1,1,1.53,2.54,2.54,0,0,1-.19.9,10.21,10.21,0,0,0-.23,2.48,8.2,8.2,0,0,0,.57,3.59c.36.76.76,1.13,1,1.13s.29-.1.42-.33c.65-1.18,1.32-2.29,2.29-3.82a.4.4,0,0,1,.35-.24.23.23,0,0,1,.23.21,1,1,0,0,1-.12.38,25,25,0,0,0-1.66,3.57,3,3,0,0,0-.21.78,1.31,1.31,0,0,0,.08.48,1.54,1.54,0,0,1,.13.65.55.55,0,0,1-.61.55A2.66,2.66,0,0,1,87,106.75Zm8.36-9.37c2.48,1,4.51,3.38,4.51,5.82,0,.8-.27,1.39-.79,1.39a.64.64,0,0,1-.55-.28c-.29-.42-.69-.61-2.06-.77-.21,0-.27-.13-.27-.28s.11-.17.31-.19c.57-.06,1-.1,1.6-.18a.34.34,0,0,0,.32-.38c0-1.37-1.47-3.68-3.3-4.71a.39.39,0,0,1-.21-.31C95,97.36,95.17,97.28,95.4,97.38Z"/><path class="cls-3" d="M120.75,100.66c0,2.23-1.26,3.65-3.28,4.81a18,18,0,0,1-7.22,2c-.23,0-.38-.08-.38-.31s.09-.26.38-.3a16.22,16.22,0,0,0,6.28-2.1,5.14,5.14,0,0,0,2.81-4.43c0-2.12-1.89-3.48-4-3.48a9.31,9.31,0,0,0-4.1,1.17,28.2,28.2,0,0,0-3.25,2,4.7,4.7,0,0,0-.92.79.83.83,0,0,1-.74.36,2.43,2.43,0,0,1-1.38-.78,2.21,2.21,0,0,1-.72-1.17c0-.36.09-.46.19-.46a.37.37,0,0,1,.25.12,1.68,1.68,0,0,0,1.22.67,2.37,2.37,0,0,0,1.13-.39c1.37-.76,2.65-1.43,4-2A11.12,11.12,0,0,1,115.33,96C118.69,96,120.75,98.25,120.75,100.66Z"/><path class="cls-3" d="M131.84,106c0,1.89,1,2.78,2.66,2.78a3.18,3.18,0,0,0,3.28-3.32c0-1.87-.86-3.47-2.54-5.15a.48.48,0,0,1-.17-.31.28.28,0,0,1,.29-.23c.11,0,.19.08.32.17a7.5,7.5,0,0,1,3.4,5.69c0,2.52-2.23,4-4.49,4-1.87,0-3.59-1-3.59-3.8a16.77,16.77,0,0,1,.08-1.7c-1.8-.59-2.86-1.26-2.86-2.94a4.35,4.35,0,0,1,1.83-2.94,4.27,4.27,0,0,1-1.64-1.14,2,2,0,0,1-.56-1.17c0-.15,0-.26.17-.26s.2.13.33.3a3.56,3.56,0,0,0,1.3,1.07,4.1,4.1,0,0,0,1.45.42c.51,0,.9.21,1,.57.19-1,.34-1.73.48-2.71a9.85,9.85,0,0,0,.11-1c0-.76-.17-1.13-.95-1.28-.31-.06-.35-.1-.35-.21s.44-.4.82-.4a2.56,2.56,0,0,1,1.51.69,1.58,1.58,0,0,1,.65,1.14.57.57,0,0,1-.28.52,1.32,1.32,0,0,0-.39.8c-.51,2-1.14,4.93-1.58,7.54a11.4,11.4,0,0,0,1.58,0c.54,0,1,.13,1,.53a.55.55,0,0,1-.48.56,4.41,4.41,0,0,1-.94.09,9.45,9.45,0,0,1-1.37-.11C131.86,104.88,131.84,105.51,131.84,106Zm.21-7.51c-.13.14-.28.19-.65.19a2,2,0,0,0-1.2.44,2.62,2.62,0,0,0-1.37,2c0,1.16,1.18,1.68,2.46,1.91C131.56,101.25,131.77,100,132.05,98.5Z"/><path class="cls-3" d="M146,105.57a8.22,8.22,0,0,1,3.44,1.58,3.06,3.06,0,0,1,1.39,2.22,1,1,0,0,1-.9,1c-.42,0-.72-.19-1-.75a7.69,7.69,0,0,0-3.23-3.66.27.27,0,0,1-.17-.27C145.51,105.59,145.74,105.53,146,105.57Z"/><path class="cls-3" d="M162.39,97.8c-1,2.84-1.57,4.58-2.45,6.87a3.73,3.73,0,0,0-.24,1.09c0,1,.55,2,.55,3s-.42,1.28-1,1.28c-.42,0-.73-.38-.73-1.12,0-.42.14-1.34.14-2.12,0-1.19-.39-1.49-1.74-1.84-.12,0-.08-.32,0-.3a10.31,10.31,0,0,0,1.07.08c.36,0,.66-.08,1-.75,1-1.91,1.81-3.51,3.09-6.32C162.18,97.57,162.43,97.68,162.39,97.8Zm-5.18-.92c1.78.27,3.08,1.2,3.08,2.1,0,.57-.27.88-.71.88-.28,0-.51-.21-.7-.69a4.38,4.38,0,0,0-1.78-2.06C157,97.05,157.08,96.86,157.21,96.88Zm1.21-5c1.89.32,3.17,1.22,3.17,2.23a.74.74,0,0,1-.69.82c-.29,0-.44-.17-.67-.65a4.94,4.94,0,0,0-1.91-2.16C158.21,92.09,158.3,91.9,158.42,91.92Zm9.37,9.16a13.34,13.34,0,0,0-.09-2.16c1.77.21,2,.31,2,.56s-.09.26-.7.53v1.68h3.93c.82-1,1-1.07,1.07-1.07s.27.1,1.18.82c.42.33.48.44.48.56s-.08.21-.29.21h-6.14a10.57,10.57,0,0,0,3,3.13,12.27,12.27,0,0,0,4,1.77c.13,0,.11.18,0,.23-.46.12-.65.29-.84.88-.06.19-.13.31-.25.31a1.63,1.63,0,0,1-.76-.29,15.73,15.73,0,0,1-3-2.27,13,13,0,0,1-2.46-3.4c.09,4.87.17,6.78.17,7.2s-.3.59-.82.59-.59-.15-.59-.46.09-2.08.21-6.53a15.77,15.77,0,0,1-6.82,5.31c-.13,0-.25-.21-.15-.27a17.94,17.94,0,0,0,6.26-6.2h-3.61a7.11,7.11,0,0,0-1.33.13l-.2-.78a7.55,7.55,0,0,0,1.55.13h4.2ZM173.58,93c.57-.63.61-.7.74-.7s.23.07,1.11.86c.27.26.29.34.29.51s-.23.31-.69.29a.71.71,0,0,0-.57.28,11.23,11.23,0,0,1-1.32,1.19c-.08.09-.25,0-.19-.14a11.1,11.1,0,0,0,.76-1.77h-2.84v3.61c0,.7.24.89,1.35.89,1.28,0,1.57-.11,1.8-.38a4.28,4.28,0,0,0,.76-1.72c0-.13.27-.09.27,0,0,.44-.06,1-.06,1.28a.36.36,0,0,0,.27.42.47.47,0,0,1,.32.46c0,.34-.25.55-.74.69a10.81,10.81,0,0,1-2.79.23c-1.89,0-2.37-.33-2.37-1.53,0-.38,0-.84,0-1.64V93.54h-1.89c-.11,3.66-1.6,5.23-5.25,6.32-.12,0-.21-.25-.1-.31,2.85-1.28,4.07-2.92,4.13-6h-2.29c0,1.66-.71,2.71-1.53,2.71a.64.64,0,0,1-.65-.69c0-.32.15-.51.5-.78A3.33,3.33,0,0,0,164,92.16c0-.13.27-.13.29,0a6.4,6.4,0,0,1,.08.86Z"/><path class="cls-3" d="M182.8,106.75c-1.76-1.76-2.12-4.35-2.12-7.5,0-.58,0-1.19,0-1.72a2.3,2.3,0,0,0-.92-2c-.13-.13-.19-.21-.19-.28s.13-.19.29-.19a2.47,2.47,0,0,1,1.26.68,2.17,2.17,0,0,1,1,1.53,2.54,2.54,0,0,1-.19.9,10.21,10.21,0,0,0-.23,2.48,8.2,8.2,0,0,0,.57,3.59c.36.76.76,1.13,1,1.13s.29-.1.42-.33c.65-1.18,1.32-2.29,2.29-3.82a.4.4,0,0,1,.35-.24.23.23,0,0,1,.23.21,1,1,0,0,1-.12.38,25,25,0,0,0-1.66,3.57,2.61,2.61,0,0,0-.21.78,1.31,1.31,0,0,0,.08.48,1.54,1.54,0,0,1,.13.65.55.55,0,0,1-.61.55A2.66,2.66,0,0,1,182.8,106.75Zm8.36-9.37c2.48,1,4.51,3.38,4.51,5.82,0,.8-.27,1.39-.79,1.39a.64.64,0,0,1-.55-.28c-.29-.42-.69-.61-2.06-.77-.21,0-.27-.13-.27-.28s.11-.17.31-.19c.57-.06,1-.1,1.6-.18a.34.34,0,0,0,.32-.38c0-1.37-1.47-3.68-3.3-4.71a.39.39,0,0,1-.21-.31C190.72,97.36,190.93,97.28,191.16,97.38Z"/><path class="cls-3" d="M206.26,98.94c-.1-1.26-.17-2.63-.23-4.37,0-.42-.08-.65-.29-.8a1.73,1.73,0,0,0-1-.35c-.06,0-.1,0-.1-.15s.48-.48.88-.48a3.21,3.21,0,0,1,1.64.71,1,1,0,0,1,.41.69.78.78,0,0,1-.23.49.83.83,0,0,0-.14.48,39,39,0,0,0,.08,4.26c.06.55.23.8.53.82a1.11,1.11,0,0,0,.56-.13c.88-.42,1.89-.94,2.69-1.4.32-.19.44-.3.44-.46s-.31-.51-.65-.74a.3.3,0,0,1-.17-.25c0-.11.13-.19.38-.19a2.74,2.74,0,0,1,1.62.84,1.65,1.65,0,0,1,.56,1c0,.27-.18.41-.65.58a39.1,39.1,0,0,0-4.34,1.72c-2.4,1.2-4.37,2.29-4.37,4.14s2.25,2.23,3.95,2.23a15.65,15.65,0,0,0,4-.44,2,2,0,0,1,.69-.13,1.66,1.66,0,0,1,.94.27c.3.19.38.34.38.59,0,.42-.27.57-1.17.69a27.63,27.63,0,0,1-3.76.21c-3,0-5.88-.5-5.88-3.27,0-2.16,2.14-3.68,4.11-4.68C206.62,100.49,206.34,100,206.26,98.94Z"/><path class="cls-3" d="M224.7,101.92a.9.9,0,0,1-.11.27,3.49,3.49,0,0,0-.25,1.26c0,2.19,2.4,2.86,4.81,2.86a17.82,17.82,0,0,0,3.9-.38,5,5,0,0,1,1.16-.23c.59,0,1.16.21,1.16.67,0,.63-.38.76-1.16.88a35.65,35.65,0,0,1-4.43.36c-2.81,0-6.13-.67-6.13-3.93a3.48,3.48,0,0,1,.42-1.66c.08-.16.21-.31.33-.31S224.7,101.79,224.7,101.92Zm3.92-5.19a4.49,4.49,0,0,1-3.86-1.32.36.36,0,0,1-.06-.23c0-.06.1-.19.19-.19a.74.74,0,0,1,.31.15,4.86,4.86,0,0,0,2.67.65,17.28,17.28,0,0,0,2-.17,13,13,0,0,0,2.19-.48,2.41,2.41,0,0,1,.67-.11,2.19,2.19,0,0,1,.65.13.67.67,0,0,1,.46.65c0,.36-.15.57-.84.63a15.77,15.77,0,0,0-2.29.38,6.28,6.28,0,0,0-1.64.63,23.88,23.88,0,0,0-2.47,1.68.53.53,0,0,1-.34.1.2.2,0,0,1-.19-.17.53.53,0,0,1,.17-.31,22.94,22.94,0,0,1,2.44-2Z"/><path class="cls-3" d="M246.43,102.25a9.42,9.42,0,0,1,6.34-2.58c2,0,4.67,1.37,4.67,4a4.89,4.89,0,0,1-3.09,4.39,15.56,15.56,0,0,1-6.76,1.47c-.4,0-.51-.08-.51-.36s.13-.21.42-.23a14.28,14.28,0,0,0,6.39-2,4.17,4.17,0,0,0,2.12-3.57c0-1.93-1.72-3-3.55-3-3,0-5.08,1.8-6.74,3.38a12.05,12.05,0,0,0-1.07,1.17.58.58,0,0,1-.51.28c-.27,0-.56-.32-.56-.78a1.11,1.11,0,0,1,.4-1c.08-.06.35-.29.67-.6a75.45,75.45,0,0,0,7.62-8.59.55.55,0,0,0,.08-.28c0-.08-.08-.16-.21-.16a1.13,1.13,0,0,0-.29.06c-.36.1-1.83.65-2.88,1.09a5.31,5.31,0,0,0-1,.49,1.26,1.26,0,0,1-.61.23,1.13,1.13,0,0,1-.86-.45,2.69,2.69,0,0,1-.65-1.57c0-.29.19-.55.33-.55s.17.13.23.26c.23.56.51.9.84.9a7.36,7.36,0,0,0,1.85-.38c.61-.17,1.51-.46,2-.61a1.34,1.34,0,0,0,.57-.33.63.63,0,0,1,.46-.19,1.19,1.19,0,0,1,.51.12,5.07,5.07,0,0,1,1.4,1,.84.84,0,0,1,.21.53c0,.31-.21.46-.48.61a1.46,1.46,0,0,0-.71.42c-2.38,2.39-4.25,4.34-6.62,6.65Z"/><path class="cls-3" d="M267.69,100.91a.21.21,0,0,1,.23.19,1,1,0,0,1,0,.21c-.45,1.47-.82,2.86-1.06,3.82a8,8,0,0,0-.27,1.45c0,.46.07.9.07,1.2s-.15.54-.47.54-.56-.16-.82-.75a11.77,11.77,0,0,1-.73-4.16,26.35,26.35,0,0,1,1-6.28,7.8,7.8,0,0,0,.29-1.47,1.8,1.8,0,0,0-.65-1.34.48.48,0,0,1-.17-.32.2.2,0,0,1,.19-.18c.48,0,1.11.67,1.45,1.11a2.17,2.17,0,0,1,.52,1.38,1.24,1.24,0,0,1-.29.8,2.18,2.18,0,0,0-.4.72,17.88,17.88,0,0,0-1.07,5.62,8.72,8.72,0,0,0,.13,1.64c0,.21.1.29.17.29s.14-.06.18-.16c.47-1.33.93-2.67,1.45-4.06C267.48,101,267.56,100.91,267.69,100.91Zm2.81.84a6.3,6.3,0,0,0-.17,1.37,2.44,2.44,0,0,0,1,2.12,5.89,5.89,0,0,0,3.21.71,10.7,10.7,0,0,0,2.46-.25,3.49,3.49,0,0,1,.84-.11c.69,0,1.26.21,1.26.7,0,.29-.13.48-.55.61a14.64,14.64,0,0,1-3,.27c-1.53,0-3.59-.19-4.7-1.09a3.12,3.12,0,0,1-1.18-2.61,4.87,4.87,0,0,1,.4-1.82c.06-.13.13-.17.23-.17S270.52,101.6,270.5,101.75Zm3.11-5.21a11.5,11.5,0,0,0-3.09,1,.72.72,0,0,1-.25.08.2.2,0,0,1-.23-.21.41.41,0,0,1,.25-.35,11.12,11.12,0,0,1,5.9-1.53c1.34,0,1.68.33,1.68.79s-.21.57-.65.57-.88-.06-1.47-.06a2.67,2.67,0,0,0-1.3.33,8.07,8.07,0,0,0-1.94,1.54.41.41,0,0,1-.27.16c-.1,0-.23-.06-.23-.16a.48.48,0,0,1,.13-.3,16.72,16.72,0,0,1,1.53-1.68C273.77,96.59,273.75,96.52,273.61,96.54Z"/><path class="cls-3" d="M290.43,107.69a2.72,2.72,0,1,1-2.71-2.7A2.74,2.74,0,0,1,290.43,107.69Zm-4.72,0a2,2,0,1,0,2-2A2,2,0,0,0,285.71,107.69Z"/><path class="cls-3" d="M302.15,102a5.11,5.11,0,0,0,2.35.84,3.59,3.59,0,0,0,2.52-.92.27.27,0,0,1,.17-.06c.1,0,.27.14.27.23a.24.24,0,0,1-.08.17c-1.22,1.38-2.19,2-3.07,2a4.66,4.66,0,0,1-2.56-.72l-.48-.25a5,5,0,0,0-2.29-.79,3.71,3.71,0,0,0-2.56.84c-.07,0-.07,0-.11,0a.32.32,0,0,1-.25-.28.17.17,0,0,1,.06-.12c1.18-1.26,2.14-1.83,3.09-1.83a5.29,5.29,0,0,1,2.52.69Z"/></g></g></svg>